<svg width="33" height="27" fill="none" xmlns="http://www.w3.org/2000/svg"><g clip-path="url(#clip0_86_1787)" fill="#7CA281"><path d="M30.1 0H2.9A2.9 2.9 0 000 2.893v9.643a2.9 2.9 0 002.9 2.893h27.2a2.9 2.9 0 002.9-2.893V2.893A2.9 2.9 0 0030.1 0zm-5.801 5.786a.966.966 0 110 1.928.966.966 0 01-.967-.964c0-.533.433-.964.967-.964zm3.867 5.785H4.834a.965.965 0 110-1.928h23.332a.965.965 0 110 1.928zm0-3.857a.966.966 0 01-.967-.964c0-.533.433-.964.967-.964s.967.431.967.964a.966.966 0 01-.967.964zM8.765 17.357a.965.965 0 00-.966.965v1.473a5.98 5.98 0 01-3.333 5.378.963.963 0 00-.433 1.294.969.969 0 001.298.431 7.896 7.896 0 004.401-7.103v-1.474a.965.965 0 00-.966-.964zm15.469 0a.965.965 0 00-.966.965v1.473a7.896 7.896 0 004.401 7.103.969.969 0 001.297-.431.963.963 0 00-.432-1.294 5.98 5.98 0 01-3.333-5.378v-1.474a.965.965 0 00-.967-.964zm-6.767 8.679V18.32a.965.965 0 00-.967-.964.965.965 0 00-.967.965v7.714c0 .533.433.964.967.964a.965.965 0 00.967-.964zm3.867 0V18.32a.965.965 0 00-.967-.964.965.965 0 00-.967.965v7.714c0 .533.433.964.967.964a.965.965 0 00.967-.964zm-7.734 0V18.32a.965.965 0 00-.967-.964.965.965 0 00-.967.965v7.714c0 .533.432.964.967.964a.965.965 0 00.967-.964z"/></g><defs><clipPath id="clip0_86_1787"><path fill="#fff" d="M0 0h33v27H0z"/></clipPath></defs></svg>