<svg width="33" height="33" fill="none" xmlns="http://www.w3.org/2000/svg"><path d="M16.5 14.734a1.768 1.768 0 10-.01 3.536h.004a1.768 1.768 0 10.006-3.536z" fill="#fff"/><path d="M16.507 11.788h-.004a4.715 4.715 0 10-.017 9.429 4.601 4.601 0 003.344-1.38 4.71 4.71 0 00-3.323-8.05zm-.011 7.66h-.006a2.954 2.954 0 11.006 0z" fill="#fff"/><path d="M5.669 20.622a9.462 9.462 0 012.658-1.906 4.778 4.778 0 012.512-.6 5.848 5.848 0 011.466-5.739 10.587 10.587 0 00-6.111-2.773 4.684 4.684 0 00-3.876 1.308A7.766 7.766 0 00.575 13.6a6.438 6.438 0 00.102 5.534c.063.129.135.241.204.358a15.858 15.858 0 005.41 9.213.59.59 0 10.758-.903 14.708 14.708 0 01-4.565-6.773c.098.052.199.099.302.14a2.522 2.522 0 002.883-.547zm26.759-1.215a6.436 6.436 0 00-.316-5.917 15.844 15.844 0 00-5.396-9.187.59.59 0 10-.756.904 14.671 14.671 0 014.546 6.749 3.077 3.077 0 00-.287-.118 2.522 2.522 0 00-2.882.546 9.489 9.489 0 01-2.66 1.907 4.805 4.805 0 01-2.512.604 5.846 5.846 0 01-1.47 5.74 10.61 10.61 0 006.108 2.77 4.706 4.706 0 003.883-1.309 7.74 7.74 0 001.742-2.689zM13.873.687c-.123.06-.241.123-.354.189A15.803 15.803 0 004.29 6.293a.59.59 0 10.904.758 14.661 14.661 0 016.76-4.562 3.174 3.174 0 00-.126.3 2.534 2.534 0 00.554 2.88 9.736 9.736 0 011.907 2.66 4.81 4.81 0 01.601 2.512 5.875 5.875 0 011.613-.232h.006a5.868 5.868 0 014.12 1.696 10.646 10.646 0 002.777-6.103 4.672 4.672 0 00-1.316-3.879A7.73 7.73 0 0019.406.578a6.375 6.375 0 00-5.533.11zm-.275 31.741c1.767.8 3.8.76 5.533-.109.132-.064.248-.137.367-.208a15.778 15.778 0 009.203-5.396.59.59 0 10-.905-.754 14.577 14.577 0 01-6.763 4.548c.05-.094.096-.191.136-.29a2.534 2.534 0 00-.553-2.882 9.734 9.734 0 01-1.9-2.659 4.804 4.804 0 01-.603-2.51 5.92 5.92 0 01-1.617.228h-.012a5.855 5.855 0 01-4.114-1.7 10.626 10.626 0 00-2.77 6.107 4.688 4.688 0 001.309 3.882 7.757 7.757 0 002.689 1.743z" fill="#fff"/></svg>