<svg width="22" height="22" fill="none" xmlns="http://www.w3.org/2000/svg"><g clip-path="url(#clip0_86_1760)"><path d="M17.226 1.107h-.372V.664c0-.366-.313-.664-.7-.664-.386 0-.7.298-.7.664v.443H6.546V.664c0-.366-.313-.664-.7-.664-.386 0-.7.298-.7.664v.443h-.37C2.143 1.107 0 3.14 0 5.642v11.822C0 19.965 2.142 22 4.776 22h12.448C19.858 22 22 19.965 22 17.464V5.64c0-2.499-2.142-4.532-4.774-4.532zM4.776 2.435h.37v.443c0 .367.313.664.7.664.386 0 .7-.297.7-.664v-.443h8.909v.443c0 .367.313.664.7.664.386 0 .7-.297.7-.664v-.443h.371c1.86 0 3.374 1.438 3.374 3.204v1.557H1.4V5.642c0-1.768 1.514-3.207 3.376-3.207zM17.224 20.67H4.776c-1.862 0-3.377-1.438-3.377-3.206v-8.94H20.6v8.94c0 1.768-1.514 3.206-3.376 3.206z" fill="#577A5B"/><path d="M4.776 2.435h.37v.443c0 .367.313.664.7.664.386 0 .7-.297.7-.664v-.443h8.909v.443c0 .367.313.664.7.664.386 0 .7-.297.7-.664v-.443h.371c1.86 0 3.374 1.438 3.374 3.204v1.557H1.4V5.642c0-1.768 1.514-3.207 3.376-3.207zM17.224 20.67H4.776c-1.862 0-3.377-1.438-3.377-3.206v-8.94H20.6v8.94c0 1.768-1.514 3.206-3.376 3.206z" fill="#78C081"/><path d="M6.622 11.748H5.526c-.386 0-.7.298-.7.665 0 .366.314.664.7.664h1.096c.386 0 .7-.298.7-.665 0-.366-.314-.664-.7-.664zm4.926 0h-1.095c-.387 0-.7.298-.7.665 0 .366.313.664.7.664h1.095c.386 0 .7-.298.7-.665 0-.366-.314-.664-.7-.664zm3.831 1.329h1.095c.386 0 .7-.298.7-.665 0-.366-.314-.664-.7-.664H15.38c-.386 0-.7.298-.7.665 0 .366.313.664.7.664zm-8.758 3.041H5.526c-.386 0-.7.298-.7.665 0 .366.314.664.7.664h1.095c.387 0 .7-.297.7-.664 0-.367-.313-.665-.7-.665zm4.927 0h-1.095c-.387 0-.7.298-.7.665 0 .366.313.664.7.664h1.095c.386 0 .7-.297.7-.664 0-.367-.314-.665-.7-.665zm4.926 0H15.38c-.386 0-.7.298-.7.665 0 .366.314.664.7.664h1.095c.387 0 .7-.297.7-.664 0-.367-.313-.665-.7-.665z" fill="#577A5B"/></g><defs><clipPath id="clip0_86_1760"><path fill="#fff" d="M0 0h22v22H0z"/></clipPath></defs></svg>