<svg width="24" height="18" fill="none" xmlns="http://www.w3.org/2000/svg"><g clip-path="url(#clip0_86_1753)"><path d="M22 0H2C.897 0 0 .897 0 2v14c0 1.103.897 2 2 2h20c1.103 0 2-.897 2-2V2c0-1.103-.897-2-2-2zM2 1h20c.074 0 .139.027.208.042a2682.775 2682.775 0 01-9.482 8.647c-.158.142-.411.311-.726.311s-.568-.169-.726-.311c-2.01-1.81-7.75-7.063-9.482-8.647C1.862 1.027 1.926 1 2 1zM1 16V2c0-.098.03-.187.056-.276C2.381 2.937 6.387 6.6 8.985 8.964c-2.59 2.224-6.596 6.023-7.932 7.297C1.029 16.176 1 16.092 1 16zm21 1H2c-.08 0-.15-.028-.225-.046 1.38-1.316 5.413-5.136 7.956-7.313l.873.79c.413.373.895.569 1.396.569.501 0 .983-.196 1.395-.568l.874-.79c2.544 2.175 6.576 5.996 7.957 7.312-.075.018-.146.046-.226.046zm1-1c0 .092-.03.176-.053.26-1.336-1.274-5.343-5.073-7.932-7.296a4028.76 4028.76 0 007.929-7.24c.027.09.056.178.056.276v14z" fill="#577A5B"/><path d="M2 1h20c.074 0 .139.027.208.042a2682.775 2682.775 0 01-9.482 8.647c-.158.142-.411.311-.726.311s-.568-.169-.726-.311c-2.01-1.81-7.75-7.063-9.482-8.647C1.862 1.027 1.926 1 2 1zM1 16V2c0-.098.03-.187.056-.276C2.381 2.937 6.387 6.6 8.985 8.964c-2.59 2.224-6.596 6.023-7.932 7.297C1.029 16.176 1 16.092 1 16z" fill="#78C081"/><path d="M22 17H2c-.08 0-.15-.028-.225-.046 1.38-1.316 5.413-5.136 7.956-7.313l.873.79c.413.373.895.569 1.396.569.501 0 .983-.196 1.395-.568l.874-.79c2.544 2.175 6.576 5.996 7.957 7.312-.075.018-.146.046-.226.046zm1-1c0 .092-.03.176-.053.26-1.336-1.274-5.343-5.073-7.932-7.296a4028.76 4028.76 0 007.929-7.24c.027.09.056.178.056.276v14z" fill="#78C081"/></g><defs><clipPath id="clip0_86_1753"><path fill="#fff" d="M0 0h24v18H0z"/></clipPath></defs></svg>