<svg width="264" height="66" fill="none" xmlns="http://www.w3.org/2000/svg"><g opacity=".5" clip-path="url(#clip0_102_1261)"><path d="M152.434 33.72s-5.827-1.908-9.546-4.116c-3.719-2.208-6.231-3.064-7.536-2.873-1.304.19-4.222.19-6.334.575-2.111.384-3.415.766-3.819 1.723-.403.957 1.308 3.639 3.419 4.214 2.111.575 6.331 3.255 6.331 3.255s-18.392 16.758-17.689 18.48c.704 1.723 8.746 8.723 9.85 8.81 1.105.088 17.689-4.786 18.693-4.98a20.333 20.333 0 006.331-2.488 21.528 21.528 0 003.619-2.778l8.348-3.445-9.441-17.334-2.226.957z" fill="#fff" stroke="#495E4C" stroke-width=".6" stroke-linecap="round" stroke-linejoin="round"/><path d="M143.972 49.83s4.243 3.606 4.701 5.135a5.339 5.339 0 01-.115 3.058l-2.766.785-1.82-8.978zm13.186-11.144l3.899 12.454 3.036-1.044-6.935-11.41z" fill="#495E4C" stroke="#495E4C" stroke-width=".6" stroke-linecap="round" stroke-linejoin="round"/><path d="M128.627 33.243s7.438 1.245 8.842 1.818c1.405.572 9.046 8.333 11.758 10.726 2.713 2.393 4.123 6.128 4.223 8.52.1 2.394-.913 5.556-2.223 6.033-1.31.477-2.211-.19-2.612-1.147-.4-.957-.603-2.778-.603-2.778l-1.608-3.16c.108 1.249.04 2.505-.203 3.735-.401 1.818-1.105 5.648-2.712 6.607-1.608.96-3.519.382-3.719-.095a11.071 11.071 0 01-.401-1.341s-.503 1.723-2.003 2.203c-1.499.48-3.619-.096-3.619-.096s-1.716 1.908-3.115 1.532c-1.399-.376-2.812-1.82-2.812-1.82s-4.723-2.776-9.046-5.649c-4.323-2.873-12.059-11.873-12.059-11.873l-3.719-2.203 11.358-15.131 4.832 2.873 9.441 1.246z" fill="#fff" stroke="#495E4C" stroke-width=".6" stroke-linecap="round" stroke-linejoin="round"/><path d="M115.767 33.333l-7.81 14.316-1.247-1.192 9.057-13.124z" fill="#495E4C" stroke="#495E4C" stroke-width=".6" stroke-linecap="round" stroke-linejoin="round"/><path d="M130.83 27.21s-4.226-.106-5.227.287c-1.717.67-1.808 2.873-1.808 3.254 0 .382-1.207 3.448-1.408 4.599-.2 1.15 1.205 1.722 4.423.67 3.219-1.052 4.12-2.396 4.12-5.269" fill="#fff"/><path d="M130.83 27.21s-4.226-.106-5.227.287c-1.717.67-1.808 2.873-1.808 3.254 0 .382-1.207 3.448-1.408 4.599-.2 1.15 1.205 1.722 4.423.67 3.219-1.052 4.12-2.396 4.12-5.269" stroke="#495E4C" stroke-width=".6" stroke-linecap="round" stroke-linejoin="round"/><path d="M122.688 34.68a1.54 1.54 0 01.593-.389 1.63 1.63 0 01.714-.092c.804.096 2.412-.095 2.512-1.245.1-1.15-.301-1.723-1.104-1.723a3.039 3.039 0 00-1.508.48l-1.207 2.968zm18.392 10.933c.472.777.935 1.979 1.808 2.95 3.193 3.543 3.519 4.693 3.519 4.693m-6.231-10.726l.2 1.908.363.605m-5.99 2.657l.1 2.298s4.12 7.662 4.723 8.524c.604.861.201 3.159-.2 3.639m-9.106-5.239a22.093 22.093 0 001.668 2.366c1.608 1.908 1.808 4.98 1.808 4.98m-5.427-11.969v1.243s.598 1.142 1.413 2.505" stroke="#495E4C" stroke-width=".6" stroke-linecap="round" stroke-linejoin="round"/><path d="M112.08 53.422s-2.423-.646-3.104-1.464c-.681-.817-.97-3.464-1.016-4.295-.046-.832-.572-1.663.484-2.034 1.055-.37 2.471.739 3.006 1.848.535 1.11.573 2.633.573 2.862 0 .23.823 1.48.823 1.48s.784 1.418-.766 1.603z" fill="#fff" stroke="#495E4C" stroke-width=".6" stroke-linecap="round" stroke-linejoin="round"/><path d="M108.238 49.407s.858.818 1.487.777c.63-.041.192-2.056.192-2.056a2.972 2.972 0 01-1.199-.594 10.538 10.538 0 01-.815-.777l.335 2.65zm8.35 8.548s-2.574.51-3.201-.322c-.626-.83-1.891-4.156-1.842-5.312.048-1.156 3.25-3.972 4.863-5.127 1.614-1.156 2.618-1.524 3.588-.97.969.553 1.745 1.248 1.453 2.218-.292.97-2.618 5.127-3.004 5.866-.386.739-.778 3.325-.778 3.325l-1.079.322z" fill="#fff" stroke="#495E4C" stroke-width=".6" stroke-linecap="round" stroke-linejoin="round"/><path d="M115.619 47.97s-1.067.97-.535 1.71c.532.738 1.891 1.433 2.474 1.248.584-.186 2.472-2.08 2.81-2.68.337-.6-1.746-2.033-1.746-2.033a7.3 7.3 0 00-3.003 1.755zm5.169 13.529s-2.806.545-3.496-.355c-.689-.9-2.065-4.541-2.002-5.803.063-1.262 3.547-4.337 5.295-5.599 1.748-1.262 2.861-1.665 3.919-1.06 1.059.605 1.906 1.363 1.588 2.423-.317 1.06-2.861 5.599-3.284 6.406-.424.807-.858 3.633-.858 3.633l-1.162.355z" fill="#fff" stroke="#495E4C" stroke-width=".6" stroke-linecap="round" stroke-linejoin="round"/><path d="M119.729 50.596s-1.167 1.06-.572 1.867c.595.806 2.066 1.564 2.701 1.363.635-.202 2.701-2.271 3.072-2.925.372-.655-1.908-2.222-1.908-2.222a7.981 7.981 0 00-3.293 1.916zm6.517 12.514s-.741-2.113-.741-2.306c0-.194 1.345-3.271 1.211-4.615-.135-1.344-1.279-2.884-2.003-2.5-.724.385-2.086 1.475-3.296 3.206-1.21 1.73-1.613 3.075-1.21 3.715.404.64 2.824 3.078 3.834 3.462 1.01.384 3.084-.273 3.084-.273l-.879-.69z" fill="#fff" stroke="#495E4C" stroke-width=".6" stroke-linecap="round" stroke-linejoin="round"/><path d="M121.537 57.473s.876.512 1.48.512c.603 0 2.151-1.346 2.085-2.693-.066-1.347-.941-1.025-.941-1.025s-2.355 1.665-2.624 3.206zm32.314-25.329l10.373 21.398 6.225-2.56-10.862-21.277-5.736 2.44z" fill="#fff" stroke="#495E4C" stroke-width=".6" stroke-linecap="round" stroke-linejoin="round"/><path d="M204.116 4.016l-46.603 26.037 15.405 30 90.513-39.026" stroke="#495E4C" stroke-width=".6" stroke-linecap="round" stroke-linejoin="round"/><path d="M200.228 8.485L157.612 29.89l15.706 29.221 82.145-36.319-55.235-14.306z" fill="#9BF9A6"/><path d="M117.604 30.517l-14.155 20.931-5.37-2.556 14.888-21.05 4.637 2.675z" fill="#fff" stroke="#495E4C" stroke-width=".6" stroke-linecap="round" stroke-linejoin="round"/><path d="M70.695 1.122l44.469 26.838-21.437 31.3L.284 16.424" stroke="#495E4C" stroke-width=".6" stroke-linecap="round" stroke-linejoin="round"/><path d="M93.443 59.26l21.436-31.3L70.925 3.173 8.21 18.485l85.234 40.776z" fill="#9BF9A6"/></g><defs><clipPath id="clip0_102_1261"><path fill="#fff" transform="translate(0 .985)" d="M0 0h264v65H0z"/></clipPath></defs></svg>