<svg width="25" height="25" fill="none" xmlns="http://www.w3.org/2000/svg"><g clip-path="url(#clip0_80_1333)"><path d="M14.79 12.52l9.735-9.734a1.617 1.617 0 000-2.29 1.618 1.618 0 00-2.29 0L12.5 10.23 2.765.495a1.618 1.618 0 00-2.29 0 1.617 1.617 0 000 2.29l9.735 9.735-9.735 9.735A1.618 1.618 0 001.62 25.02c.415 0 .83-.159 1.145-.474L12.5 14.81l9.735 9.735a1.615 1.615 0 002.29 0 1.618 1.618 0 000-2.29L14.79 12.52z" fill="#fff"/></g><defs><clipPath id="clip0_80_1333"><path fill="#fff" d="M0 0h25v25H0z"/></clipPath></defs></svg>