<svg width="1440" height="528" fill="none" xmlns="http://www.w3.org/2000/svg"><mask id="mask0_86_486" style="mask-type:alpha" maskUnits="userSpaceOnUse" x="0" y="0" width="1440" height="528"><path fill="#EBEBEB" d="M0 0h1440v528H0z"/></mask><g mask="url(#mask0_86_486)"><path fill="url(#paint0_linear_86_486)" d="M0 0h1440v528H0z"/><path fill="#fff" fill-opacity=".3" d="M0 0h1440v528H0z"/><g style="mix-blend-mode:soft-light" fill="#B7B7B7"><path d="M1439.83 520.202H.167v.6H1439.83v-.6zm0-30.6H.167v.6H1439.83v-.6zm0-30.601H.167v.6H1439.83v-.6zm0-30.6H.167v.6H1439.83v-.6zm0-30.6H.167v.6H1439.83v-.6zm0-30.6H.167v.6H1439.83v-.6zm0-30.6H.167v.6H1439.83v-.6zm0-30.6H.167v.6H1439.83v-.6zm0-30.6H.167v.6H1439.83v-.6zm0-30.6H.167v.6H1439.83v-.6zm0-30.6H.167v.6H1439.83v-.6zm0-30.6H.167v.6H1439.83v-.6zm0-30.601H.167v.6H1439.83v-.6zm0-30.6H.167v.6H1439.83v-.6zm0-30.6H.167v.6H1439.83v-.6zm0-30.6H.167v.6H1439.83v-.6zm0-30.6H.167v.6H1439.83v-.6zm0-30.6H.167v.6H1439.83V0z"/><path d="M1421.6 0h-.6v528h.6V0zm-30 0h-.6v528h.6V0zm-29 0h-.6v528h.6V0zm-30 0h-.6v528h.6V0zm-30 0h-.6v528h.6V0zm-29 0h-.6v528h.6V0zm-30 0h-.6v528h.6V0zm-29 0h-.6v528h.6V0zm-30 0h-.6v528h.6V0zm-30 0h-.6v528h.6V0zm-29 0h-.6v528h.6V0zm-30 0h-.6v528h.6V0zm-29 0h-.6v528h.6V0zm-30 0h-.6v528h.6V0zm-30 0h-.6v528h.6V0zm-29 0h-.6v528h.6V0zm-30 0h-.6v528h.6V0zm-29 0h-.6v528h.6V0zm-30 0h-.6v528h.6V0zm-30 0h-.6v528h.6V0zm-29 0h-.6v528h.6V0zm-30 0h-.6v528h.6V0zm-29 0h-.6v528h.6V0zm-30 0h-.6v528h.6V0zm-30 0h-.6v528h.6V0zm-29 0h-.6v528h.6V0zm-30 0h-.6v528h.6V0zm-29 0h-.6v528h.6V0zm-30 0h-.6v528h.6V0zm-30 0h-.6v528h.6V0zm-29 0h-.6v528h.6V0zm-30 0h-.6v528h.6V0zm-29 0h-.6v528h.6V0zm-30 0h-.6v528h.6V0zm-30 0h-.6v528h.6V0zm-29 0h-.6v528h.6V0zm-30 0h-.6v528h.6V0zm-29 0h-.6v528h.6V0zm-30 0h-.6v528h.6V0zm-30 0h-.6v528h.6V0zm-29 0h-.6v528h.6V0zm-30 0h-.6v528h.6V0zm-29 0h-.6v528h.6V0zm-30 0h-.6v528h.6V0zm-30 0h-.6v528h.6V0zm-29 0H89v528h.6V0zm-30 0H59v528h.6V0zm-29 0H30v528h.6V0zM.6 0H0v528h.6V0z"/></g><g style="mix-blend-mode:overlay" fill="#B7B7B7"><path d="M290.478 494.633l-69.324-47.312-1.815 2.643 69.347 47.288 1.792-2.619zm-7.33 10.707l-69.347-47.312-1.792 2.62 69.324 47.311 1.815-2.619zm-7.353 10.708l-69.346-47.312-1.793 2.62 69.324 47.311 1.815-2.619zm-7.353 10.684l-69.347-47.289-1.792 2.62 69.347 47.288 1.792-2.619zm-7.353 10.708l-69.324-47.311-1.815 2.642 69.347 47.289 1.792-2.62zm-7.352 10.707l-69.324-47.311-1.816 2.619 69.347 47.312 1.793-2.62zm-7.353 10.685l-69.324-47.288-1.815 2.642 69.347 47.289 1.792-2.643zm-7.33 10.707l-69.347-47.288-1.792 2.619 69.323 47.289 1.816-2.62zm460.245-115.003l-1.609-.942a47.13 47.13 0 01-64.59 15.923l-.965 1.586a49.009 49.009 0 0067.164-16.567zM583.698 521.01l-.414 3.746a14.638 14.638 0 0012.959 16.084l15.12 1.654 3.607-32.812-15.096-1.654a14.641 14.641 0 00-10.785 3.131 14.636 14.636 0 00-5.391 9.851zm15.762-9.191l11.489 1.264-2.803 25.482-11.489-1.241a11.293 11.293 0 01-4.986-1.838 10.935 10.935 0 01-4.734-10.225l.437-3.768a10.96 10.96 0 0112.086-9.766v.092zm121.69 47.082l28.493 19.416 21.254-30.974-28.492-19.417a16.685 16.685 0 00-23.116 4.251l-2.458 3.608a16.566 16.566 0 004.319 23.116zm-1.332-20.979l2.481-3.608a12.983 12.983 0 0117.992-3.354l25.482 17.302-17.072 24.885-25.437-17.348a12.891 12.891 0 01-3.446-17.877zm27.78-17.532l28.469 19.416 21.278-30.974-28.493-19.416a16.658 16.658 0 00-23.115 4.32l-2.482 3.585a16.587 16.587 0 004.343 23.069zm-1.287-20.979l2.459-3.607a13.026 13.026 0 0117.991-3.355l25.437 17.348-17.096 24.885-25.413-17.348a12.88 12.88 0 01-5.403-8.261 12.893 12.893 0 012.025-9.662zm39.568-34.788l28.492 19.417 21.255-30.951-28.493-19.44a16.705 16.705 0 00-23.115 4.32l-2.459 3.608a16.576 16.576 0 00-.208 18.423 16.554 16.554 0 004.528 4.623zm-1.264-20.978l2.459-3.585a12.957 12.957 0 0117.991-3.355l25.437 17.349-17.096 24.908-25.436-17.372a12.842 12.842 0 01-3.532-3.597 12.863 12.863 0 01.177-14.348zm27.711-17.532l28.47 19.416 21.277-30.951-28.469-19.439a16.726 16.726 0 00-23.139 4.319l-2.459 3.608a16.548 16.548 0 004.32 23.047zm-1.264-20.979l2.459-3.585a12.963 12.963 0 0117.992-3.354l25.413 17.348-17.095 24.885-25.414-17.349a12.882 12.882 0 01-5.401-8.276 12.893 12.893 0 012.046-9.669zM612.443 276.917l76.745 52.344c7.307 4.986 16.797 7.766 19.991 3.102l13.649-19.876-106.87-72.885-13.649 19.852c-3.193 4.688 2.827 12.5 10.134 17.463zm-7.077-15.372l11.488-16.842 100.781 68.749-11.489 16.82c-1.172 1.7-7.537.965-14.89-4.044l-76.722-52.344c-7.307-4.986-10.317-10.546-9.168-12.339zM604.01 485.51l13.649-19.876c3.217-4.596-2.827-12.477-10.134-17.463l-76.722-52.344c-7.307-4.986-16.797-7.766-20.014-3.079l-13.649 19.945 106.87 72.817zm-90.165-90.671c1.149-1.7 7.537-.965 14.867 4.044l76.722 52.344c7.33 4.986 10.34 10.638 9.192 12.339l-11.489 16.819-100.758-68.726 11.466-16.82zm78.102 97.587l-43.199-29.457-53.239 77.481 43.221 29.48 53.217-77.504zm-91.291 47.082l49.126-71.438 37.109 25.275-49.126 71.461-37.109-25.298z"/><path d="M550.655 473.837l-45.289 65.969 8.134 5.538 45.29-66.015-8.135-5.492zm-38.12 66.383l-2.022-1.402 41.107-59.857 2.022 1.402-41.107 59.857zM405.022-35.97l.322-.46-3.447-2.298-1.769-1.195a311.17 311.17 0 00-6.434-4.596l-.115.184c-27.228-17.945-44.623-29.434-74.08-49.103l-.965 1.47c-9.72-6.617-22.817-15.579-35.639-24.379l-22.702-15.51.575-.85c-27.321-18.382-49.724-33.548-65.073-44.072l94.232-139.199-2.988-2.022h-2.297l-22.082 32.628-43.497-29.871L220.97-318h-15.694L-89 110.467v22.84l51.677-75.253 71.231 48.552-17.693 25.758 1.632 1.103-3.562 5.17-53.538-37.132-1.034 1.54 9.42 6.503a54.271 54.271 0 009.904 75.504l1.15-1.447a52.435 52.435 0 01-9.445-73.001l42.51 29.389-33.755 49.012-1.517-1.057-21.806 31.732 11.49 7.881-31.733 46.347L-89 256.927v15.602l127.343 86.856 7.307-10.639 31.8-46.346 18.221 12.431A170.404 170.404 0 00141.1 547.573l.759.528 41.36-58.915-.759-.528a99.241 99.241 0 01-27.251-133.271l12.707 8.685-1.632 2.298.184.115c-18.382 33.042-7.33 86.626 23.897 109.88l2.298-2.941c-30.607-22.817-40.993-76.034-21.577-107.353l.69.483 21.829-31.778-1.54-1.034 38.327-55.63 1.54 1.058 20.68-30.055 31.41-45.749-1.861-1.264c21.668-31.25 42.164-60.73 61.81-88.924l1.356.919 27.688-40.303 4.32-6.319a15.594 15.594 0 001.999-2.458l5.262-7.629a9006.125 9006.125 0 0026.792-39.384l-4.595-3.079c-13.58 20.037-21.714 31.985-26.563 39.062a5.308 5.308 0 00-1.355 1.287l-.483.758a43.042 43.042 0 00-1.31 1.908l-4.297 6.456-143.243-97.724-138.97-94.853 53.355-77.687 46.323 31.824-.207.276 13.258 9.191c14.384 9.788 32.813 22.265 54.274 36.764l1.493-2.298 22.679 15.533c10.616 7.261 21.416 14.66 30.331 20.68l5.331 3.654-1.08 1.585c31.64 21.117 49.356 32.836 80.284 53.217 10.984 8.203 17.372 16.498 18.934 24.678 1.31 6.893-.643 13.947-5.997 21.507l4.595 3.194c6.25-8.87 8.502-17.28 6.894-25.735-1.609-8.456-6.825-16.314-16.016-24.173zm-439.22 89.475l59.306-86.35 138.854 94.714-12.821 18.658 1.516 1.034-28.768 41.888-1.516-1.034-17.716 25.804-67.693-46.185-71.162-48.53zm-28.217 221.551l31.802-46.323 5.1 3.47-31.8 46.323-5.102-3.47zm6.756 4.596l31.801-46.323 5.078 3.492-31.778 46.324-5.101-3.493zm6.755 4.596l31.802-46.186 5.078 3.47-31.802 46.208-5.078-3.492zm6.733 4.595l31.824-46.185 5.101 3.492-31.824 46.186-5.101-3.493zm6.755 4.596l31.801-46.186 5.101 3.47-31.8 46.231-5.102-3.515zm6.756 4.595l31.824-46.185 5.078 3.47-31.801 46.231-5.101-3.516zm6.755 4.596l31.71-46.186 5.1 3.47-31.709 46.254-5.1-3.538zm6.756 4.595l31.847-46.185 5.1 3.493-31.846 46.231-5.101-3.539zm6.755 4.596l31.824-46.185 5.078 3.492-31.8 46.254-5.102-3.561zm6.756 4.596l31.8-46.186 5.102 3.47-31.801 46.3-5.101-3.584zm6.755 4.595l31.801-46.185 5.055 3.446-31.755 46.324-5.101-3.585zm6.756 4.596l31.8-46.186 5.194 3.47-31.893 46.323-5.101-3.607zm6.755 4.595l31.801-46.185 5.101 3.469-31.801 46.324-5.101-3.608zm6.755 4.596l31.802-46.186 5.1 3.47-31.8 46.323-5.102-3.607zm11.857 8.088l-5.101-3.47 31.801-46.208 5.101 3.493-31.801 46.185zm6.755 4.595l-5.1-3.492 31.8-46.185 5.102 3.469-31.802 46.208zm29.182 28.447l66.98 13.235a97.058 97.058 0 00-1.148 7.698l-67.877-6.779c.483-4.825 1.149-9.559 2.045-14.154zm-2.298 16.084l67.877 6.779a96.412 96.412 0 00-.391 7.743l-68.175-.321c.061-4.872.314-9.666.758-14.384l-.069.183zm0 30.193a167.68 167.68 0 01-.643-14.154l68.244.046c0 2.573 0 5.147.322 7.697l-67.923 6.411zm.161 1.815l67.877-6.112c.252 2.551.62 5.101 1.057 7.629l-66.958 12.477a275.915 275.915 0 01-1.953-14.177l-.023.183zm109.65 65.855l-39.315 55.882c-4.182-2.941-8.157-6.089-11.994-9.352l44.761-51.654c2.136 1.585 4.296 3.308 6.571 4.94l-.023.184zm-7.973-6.319l-44.715 51.47c-3.791-3.286-7.353-6.732-10.776-10.294l49.609-46.967c1.884 1.931 3.814 3.861 5.905 5.607l-.023.184zm-7.192-6.893L115.939 523.4a173.872 173.872 0 01-9.536-11.121l53.906-41.888a144.918 144.918 0 005.239 6.043l-.023.23zm-6.365-7.721l-53.906 41.888a168.289 168.289 0 01-8.272-11.879l57.582-36.443a147.937 147.937 0 004.596 6.434zm-5.515-7.996l-57.65 36.465a149.45 149.45 0 01-7.055-12.477l60.822-30.767c1.218 2.298 2.505 4.481 3.883 6.779zm-4.595-8.433l-60.822 30.79a169.745 169.745 0 01-5.79-13.005l63.441-24.839c.85 2.389 1.93 4.756 3.056 7.054h.115zm-3.838-8.778l-63.556 24.839c-1.7-4.411-3.194-8.869-4.596-13.396l65.487-18.75a150.613 150.613 0 002.551 7.307h.114zm-2.987-9.076l-65.486 18.727c-1.287-4.596-2.298-9.191-3.263-13.787l66.98-12.477c.322 2.574.988 5.056 1.655 7.537h.114zm-1.608-47.426l-66.98-13.212a166.551 166.551 0 013.423-14.04l65.487 19.623c-.873 2.528-1.516 5.078-2.045 7.629h.115zm2.459-9.398l-65.579-19.6a182.534 182.534 0 014.848-13.787l63.304 25.896a67.478 67.478 0 00-2.573 7.491zm3.4-9.191l-63.418-25.919a156.151 156.151 0 016.295-13.488l60.478 32.031a101.752 101.752 0 00-3.47 7.353l.115.023zm4.343-8.961l-60.592-32.008a178.058 178.058 0 016.893-11.696l56.548 38.58a248.6 248.6 0 01-2.964 5.101l.115.023zm76.654-83.616l.919.643-4.595 6.64-54.527-37.178-1.034 1.517 9.306 6.457a54.275 54.275 0 0010.386 75.436l1.126-1.448a52.482 52.482 0 01-9.995-72.954l43.52 29.71a89635.082 89635.082 0 01-32.813 47.587l-.827-.551-18.658 27.182-206.432-140.831 18.68-27.205-2.78-1.884 1.264.85 38.235-55.698 1.54 1.034 17.6-25.644 206.456 140.808-17.371 25.529zm3.493-301.814l138.739 94.623-1.24 1.861-27.574 40.234 1.701 1.172-30.216 43.198-46.071-31.433a52.85 52.85 0 0171.898-17.165l.942-1.585a54.687 54.687 0 00-74.287 17.693l-5.331-3.631-1.057 1.517 5.354 3.63a54.25 54.25 0 0010.432 75.367l1.126-1.447a52.434 52.434 0 01-10.111-72.817l45.956 31.434-30.606 44.163-1.218-.827-30.768 44.829-138.762-94.668 17.118-24.931-1.516-1.034 28.768-41.888-.759-.529 2.298 1.563 28.654-41.82-1.54-1.034 28.791-41.888-.919-.644 2.436 1.678 17.762-25.62zm-4.596-3.125l-17.164 25-47.128-32.169-1.034 1.517 8.387 5.721a48.53 48.53 0 009.375 67.578l1.126-1.47a46.713 46.713 0 01-8.984-65.074l38.763 26.425-28.171 41.015-1.516-1.034-12.822 18.658L28.187-37.418l59.236-86.19L226.37-28.871zm-8.479-284.717l43.497 29.871-3.424 5.124-43.657-29.871 3.584-5.124zm-4.595 6.732l43.657 29.871-3.584 5.147-43.658-29.871 3.585-5.147zm-4.596 6.733l43.658 29.871-3.585 5.101-43.657-29.871 3.584-5.101zm-4.595 6.732l43.657 29.986-3.584 5.147-43.658-30.055 3.585-5.078zm-4.596 6.733l43.658 30.009-3.585 5.101-43.658-30.032 3.585-5.078zm-4.596 6.732l43.658 30.032-3.584 5.101-43.658-30.055 3.584-5.078zm-4.595 6.733l43.796 30.055-3.723 5.124-43.658-30.101 3.585-5.078zm-4.596 6.732l43.819 30.101-3.745 5.101-43.658-30.124 3.584-5.078zm-4.595 6.733l43.864 30.124-3.446 5.101-44.141-30.147 3.723-5.078zm-4.596 6.732l43.911 30.147-3.47 5.124-44.186-30.193 3.745-5.078zm-4.595 6.733l43.956 30.192-3.47 5.101-44.255-30.215 3.769-5.078zm-4.596 6.732l43.681 30.216-3.447 5.101-44.025-30.239 3.791-5.078zm-4.595 6.733l44.048 30.238-3.447 5.124-44.439-30.284 3.838-5.078zm-4.596 6.732l44.094 30.285-3.446 5.101-44.508-30.308 3.86-5.078zm33.18 50.367l-46.277-31.824 3.492-5.078 44.164 30.331-1.908 2.826 2.298 1.448-1.769 2.297zm-41.659-38.556l3.493-5.078 44.14 30.307-3.47 5.101-44.163-30.33zm80.124 491.954l.505.345-.505-.345z"/><path d="M132.735 560.279a225.351 225.351 0 01-23.184-25.275A188.966 188.966 0 0188.112 509.2a186.907 186.907 0 01-27.573-60.822 164.614 164.614 0 01-3.033-66.383 146.649 146.649 0 019.007-32.169 195.432 195.432 0 0111.926-31.985 132.904 132.904 0 00-20.68 28.515 164.355 164.355 0 00-9.421 34.168 174.007 174.007 0 003.194 70.082 197.12 197.12 0 0051.47 90.923 152.846 152.846 0 0029.733 18.75zM104.381 89.948a46.431 46.431 0 019.444-34.65l-1.471-1.127a48.617 48.617 0 00-9.805 36.026 48.622 48.622 0 0018.629 32.356l1.126-1.448a46.641 46.641 0 01-17.923-31.157zm-30.767 96.529a14.68 14.68 0 0015.073.896l3.355-1.723a14.635 14.635 0 006.25-19.715l-7.031-13.442-29.389 15.234 7.031 13.442a14.727 14.727 0 004.71 5.308zm16.084-29.021l5.308 10.179a10.938 10.938 0 01-4.596 14.729l-3.377 1.746a11.008 11.008 0 01-11.26-.666 11.33 11.33 0 01-3.538-3.975l-5.308-10.179 22.771-11.834zm-18.083 57.95l.413-3.769a14.707 14.707 0 00-12.982-16.084l-15.12-1.655-3.607 32.836 15.096 1.654a14.705 14.705 0 0016.2-12.982zm-15.786 9.191l-11.489-1.241 2.803-25.482 11.49 1.24a10.94 10.94 0 019.719 12.064l-.414 3.906a10.961 10.961 0 01-12.178 9.582l.069-.069zM28.187 40.683L-.283 21.244-21.56 52.218 6.91 71.634a16.682 16.682 0 0023.138-4.32l2.459-3.607a16.522 16.522 0 00-4.32-23.024zm1.287 20.956l-2.482 3.608A12.983 12.983 0 019 68.6l-25.482-17.348L.613 26.368 26.05 43.716a12.89 12.89 0 013.355 17.923h.069zM54.565 2.173l-28.47-19.44L4.819 13.707l28.47 19.417a16.705 16.705 0 0023.138-4.297l2.46-3.608a16.567 16.567 0 00-4.32-23.046zm1.264 20.955l-2.367 3.539a12.982 12.982 0 01-17.991 3.355L10.057 12.673 27.13-12.212 52.566 5.137a12.868 12.868 0 013.194 17.991h.069zM223.061.748c-3.217 4.595 2.803 12.5 10.11 17.463l76.746 52.343c7.307 4.986 16.797 7.767 20.014 3.102l13.626-19.875L236.71-19.128 223.061.748zM338.41 54.746l-11.489 16.82c-1.172 1.7-7.537.964-14.867-4.045l-76.792-52.343c-7.33-5.01-10.317-10.662-9.191-12.34l11.489-16.842 100.85 68.75zM228.254 189.465l-76.723-52.344c-7.307-4.986-16.797-7.766-20.013-3.079L117.8 153.895l106.846 72.908 13.649-19.875c3.309-4.665-2.734-12.523-10.041-17.463zm7.077 15.372l-11.489 16.842-100.826-68.634 11.489-16.843c1.172-1.677 7.536-.942 14.866 4.067l76.723 52.321c7.422 4.917 10.409 10.569 9.237 12.247zM62.653 245.116l43.199 29.481 53.216-77.504-43.198-29.481-53.217 77.504zm91.291-47.058l-49.149 71.415-37.11-25.276 49.058-71.438 37.201 25.299z"/><path d="M102.842 265.199l45.289-65.946-8.157-5.561-45.29 65.97 8.158 5.537zm38.097-66.383l2.045 1.402-41.107 59.88-2.068-1.401 41.13-59.881zM917.427-318l-17.67 25.735L862.004-318h-3.538l40.165 27.39-3.493 5.078-46.07-31.411.712-1.057h-6.686L714.027-127.032l-27.113-18.52-.138.207-1.126-.781-.919 1.332-43.221-29.48c-4.251-2.918-8.525-5.859-12.822-8.777l1.057-1.54-23.897-16.383L684.96-318h-8.593l-76.034 113.303c-15.165-10.409-30.307-20.68-45.174-30.905l-1.057 1.517-21.76-14.982-21.921-14.981 30.17-46.622c23.966 15.165 32.95 47.84 18.153 72.288l1.585.942c15.303-25.275 6.066-59.076-18.75-74.77l3.608-5.422-.667-.368h-1.401l-3.079 4.756a52.575 52.575 0 00-7.629-4.756h-4.343a50.53 50.53 0 0110.984 6.319l-30.147 46.668-43.175-29.527.873-1.263-.598-.414.184-.253c-11.006-7.537-21.484-14.637-31.296-21.53h-9.765c11.764 8.111 24.494 16.843 37.959 26.08l1.677-2.298-.62.873c20.91 14.338 43.658 29.871 67.187 45.956l21.829 14.912.873-1.263-1.953 2.688a47911.276 47911.276 0 0174.54 51.034l1.057-1.517c18.888 12.959 37.66 25.85 55.882 38.442l-1.057 1.516c15.556 10.754 30.721 21.255 45.335 31.457 30.078 19.072 34.467 49.15 28.998 69.117A114.142 114.142 0 01741.578-7.8s-6.319 9.191-16.521 24.058c.523.268 1.029.567 1.516.896l-78.584 114.429 1.54 1.057 78.584-114.452c.59.428 1.151.896 1.677 1.402l16.383-24.311-1.677-1.126 1.608 1.08a119.69 119.69 0 0016.085-34.811c5.951-21.783 1.287-54.55-31.273-75.161l-12.638-8.8 61.075-90.303 52.252 35.639 3.699 2.527L933.006-318h-15.579zm-91.636 133.455l-45.335-30.928 3.447-5.101 45.381 30.951-3.493 5.078zm4.596-6.733l-45.358-30.974 3.446-5.101 45.427 30.997-3.515 5.078zm4.595-6.732l-45.381-30.997 3.447-5.101 45.473 30.997-3.539 5.101zm4.596-6.733l-45.496-31.02 3.447-5.124 45.542 31.066-3.493 5.078zm4.595-6.732l-45.427-31.066 3.447-5.101 45.588 31.089-3.608 5.078zm4.596-6.733l-45.45-31.088 3.47-5.102 45.611 31.112-3.631 5.078zm4.596-6.732l-45.473-31.02 3.469-5.124 45.657 31.158-3.653 4.986zm4.595-6.732l-45.496-31.181 3.47-5.101 45.703 31.18-3.677 5.102zm4.596-6.733l-45.726-31.181 3.47-5.124 45.771 31.227-3.515 5.078zm4.595-6.732l-45.519-31.227 3.447-5.101 45.818 31.249-3.746 5.079zm4.596-6.733l-45.542-31.25 3.447-5.009 45.955 31.273-3.86 4.986zm4.595-6.732l-45.955-31.273 3.446-5.124 45.956 31.318-3.447 5.079zm4.596-6.733l-45.956-31.319 3.447-5.101 45.956 31.342-3.447 5.078zm4.596-6.732l-45.956-31.342 3.447-5.124 45.955 31.387-3.446 5.079zm4.595-6.733l-45.956-31.388 3.447-5.101 45.956 31.411-3.447 5.078z"/><path d="M945 310.81l-67.279 97.977-138.855-94.714-143.795-98.115c18.544-27.39 37.431-54.756 56.296-82.077a18.123 18.123 0 01-4.756-3.125 63476.556 63476.556 0 00-57.698 84.375l.483.321-30.423 44.393 1.333.896c-21.231 31.388-41.36 61.121-60.776 89.614l-1.861-1.264-31.411 45.749-20.68 30.055 1.517 1.034-38.35 55.859-1.517-1.034-21.829 31.755.713.482c-22.266 29.366-75.827 39.063-108.203 18.819l-1.976 3.125c33.065 20.68 87.178 11.489 111.419-17.601l.207.138 1.632-2.298 12.706 8.686a99.955 99.955 0 01-134.42 22.978l-.781-.506-40.096 59.742.781.506a171.694 171.694 0 00234.121-42.233l18.221 12.431-31.801 46.392-7.307 10.639L559.502 716h20.864l-23.69-16.59 32.766-47.748 11.489 7.882 21.806-31.756-1.793-1.24.276.183 33.64-49.011 42.876 28.86a52.85 52.85 0 01-71.713 17.578l-.943 1.585a54.687 54.687 0 0074.196-18.129l9.513 6.388 1.034-1.517-53.929-36.282 3.561-5.17 1.54 1.034 17.624-25.643 71.231 48.552L666.762 716h15.671L945 333.65v-22.84zm-442.782 41.36l-1.218-.827 30.262-44.554 45.956 31.41a52.848 52.848 0 01-71.714 17.05l-.942 1.562a54.663 54.663 0 0074.264-17.578l5.331 3.631 1.057-1.517-5.331-3.653a54.272 54.272 0 00-10.363-75.482l-1.126 1.471a52.41 52.41 0 019.95 72.977l-45.956-31.411 29.504-43.52 1.7 1.149 28.906-42.095 138.763 94.646-17.601 25.666 1.516 1.034-28.768 41.888-1.516-1.057-28.769 41.912 1.517 1.034-28.86 41.934-1.517-1.057-17.072 24.885-138.763-94.622 30.79-44.876zM229.173 605.431l37.983-56.755c2.297 1.539 4.733 2.941 7.169 4.251l-32.169 60.271c-4.32-2.367-8.709-4.941-12.983-7.767zm14.729 8.663l32.169-60.271c2.436 1.241 4.894 2.298 7.399 3.447l-25.965 63.097c-4.642-1.885-9.168-3.953-13.603-6.273zm15.234 6.893l25.965-63.097a98.217 98.217 0 007.56 2.665l-19.669 65.257a134.847 134.847 0 01-13.856-4.733v-.092zm15.625 5.354l19.646-65.257c2.551.735 5.101 1.379 7.675 1.907l-13.235 66.774a127.056 127.056 0 01-14.086-3.378v-.046zm15.901 3.768l13.258-66.681c2.574.482 5.147.873 7.744 1.149l-6.894 67.646a160.217 160.217 0 01-14.108-2.022v-.092zm30.308 2.895c-4.757 0-9.513-.252-14.247-.689l6.756-67.646c2.573.229 5.17.367 7.766.39l-.275 67.945zm1.838 0l.276-67.945c2.573 0 5.147-.138 7.743-.345l6.181 67.624a151.77 151.77 0 01-14.2.758v-.092zm16.084-.827l-6.181-67.646a97.508 97.508 0 007.652-1.057l12.569 66.635c-4.711 1.034-9.375 1.701-14.086 2.16l.046-.092zm15.855-2.298l-12.569-66.75c2.528-.506 5.032-1.08 7.514-1.769l18.842 65.279c-4.596 1.356-9.214 2.436-13.833 3.332l.046-.092zm15.556-3.745l-18.842-65.28a114.153 114.153 0 007.33-2.458l24.931 63.395a224.768 224.768 0 01-13.465 4.435l.046-.092zm15.188-5.193l-24.977-63.212c2.298-.965 4.78-2.045 7.1-3.171l30.906 60.593a157.543 157.543 0 01-13.075 5.882l.046-.092zm14.683-6.618l-30.905-60.592c2.298-1.195 4.595-2.504 6.893-3.86l36.604 57.444a173.64 173.64 0 01-12.638 7.1l.046-.092zm14.039-7.927l-36.603-57.444c2.298-1.425 4.343-2.942 6.434-4.596l42.049 53.722c-3.86 3.033-7.836 5.745-11.88 8.318zm13.35-9.398l-42.049-53.699a89.304 89.304 0 006.066-5.239l47.151 49.425a167.805 167.805 0 01-11.19 9.513h.022zm12.5-10.776l-47.173-49.449a105.12 105.12 0 005.63-5.882l51.837 44.577c-3.308 3.768-6.755 7.261-10.317 10.754h.023zm11.489-12.156l-51.838-44.577a217.462 217.462 0 003.723-4.595l56.525 38.58a195.138 195.138 0 01-8.41 10.592zm-1.999 50.253l31.824-46.346 5.102 3.492-31.871 46.392-5.055-3.538zm6.687 4.595l31.893-46.415 5.101 3.47-31.939 46.484-5.055-3.539zm6.709 4.596l31.939-46.185 5.101 3.469-31.985 46.553-5.055-3.837zm6.687 4.71l32.008-46.3 5.101 3.47-32.054 46.668-5.055-3.838zm6.709 4.596l32.077-46.3 5.101 3.492-32.169 46.737-5.009-3.929zm6.687 4.595l32.169-46.759 5.101 3.469-32.169 46.829-5.101-3.539zm6.686 4.596l32.169-46.852 5.078 3.493-32.169 46.898-5.078-3.539zm10.501 7.353l-3.791-2.643 32.169-46.943 5.124 3.469-32.169 46.99-1.333-.873zm2.918 1.999l32.169-46.99 5.124 3.493-32.169 46.967-5.124-3.47zm6.756 4.596l32.169-46.967 5.101 3.47-32.169 46.989-5.101-3.492zm6.755 4.595l32.169-46.99 5.101 3.493-32.169 46.967-5.101-3.47zm6.756 4.596l32.284-46.461 5.078 3.469-32.169 46.99-5.193-3.998zm6.755 4.595l32.169-46.989 5.101 3.492-32.169 46.967-5.101-3.47zm6.756 4.596l32.169-46.99 5.101 3.47-32.169 46.989-5.101-3.469zm6.755 4.595l32.169-46.989 5.101 3.492-32.169 46.967-5.101-3.47zm11.857 8.686l-5.101-3.47 32.169-46.989 5.101 3.469-32.169 46.99zm100.964-128.676l1.517 1.034-38.235 55.698-1.54-1.034-18.681 27.183L393.12 511.015l18.796-27.09-.828-.552a10478.922 10478.922 0 0032.652-47.725l43.52 29.688a52.85 52.85 0 01-71.829 17.095l-.965 1.585a54.666 54.666 0 0074.31-17.646l9.467 6.456 1.057-1.516-54.641-37.247 4.596-6.687.919.644 17.509-25.483 206.432 140.808-17.624 25.597zm96.507 21.439l-71.231-48.529-67.647-46.117 17.716-25.781-1.54-1.057 28.769-41.888-.942-.644 2.481 1.678 12.822-18.658 138.854 94.714-59.282 86.282zm62.407-90.832l-138.854-94.714 12.821-18.681-1.539-1.034 28.171-41.015 38.74 26.424a47.057 47.057 0 01-64.108 15.211l-.965 1.563a48.877 48.877 0 0066.636-15.74l8.409 5.722 1.034-1.494-47.127-32.169 17.164-25 138.855 94.715-59.237 86.212zm21.599-477.846a14.511 14.511 0 003.097 10.726 14.526 14.526 0 009.794 5.359l3.745.39a14.636 14.636 0 0013.672-6.318 14.615 14.615 0 002.482-6.64l1.7-15.028-32.789-3.516-1.701 15.027zm3.654.391l1.287-11.489 25.459 2.735-1.264 11.374a10.86 10.86 0 01-1.861 4.963 10.985 10.985 0 01-10.225 4.733l-3.745-.39a10.892 10.892 0 01-9.674-11.949l.023.023zM945 99.253a10.683 10.683 0 01-7.284-5.514l-1.723-3.332a10.892 10.892 0 01.712-11.213 10.868 10.868 0 013.975-3.516L945 73.38v-4.136l-6.02 3.148a14.728 14.728 0 00-5.308 4.71 14.52 14.52 0 00-.942 14.982l1.723 3.355a14.429 14.429 0 0010.547 7.56v-3.746z"/><path d="M704.331 130.066a14.803 14.803 0 00-6.664-2.481l-15.096-1.678-3.516 32.675 15.097 1.677c1.898.217 3.821.058 5.658-.469a14.52 14.52 0 0010.426-12.353l.414-3.745a14.59 14.59 0 00-6.319-13.626zm2.665 13.212l-.413 3.746a10.882 10.882 0 01-4.026 7.303 10.865 10.865 0 01-8.015 2.302l-11.489-1.287 2.735-25.276 11.489 1.264c1.776.212 3.477.842 4.963 1.838a10.846 10.846 0 014.756 9.996v.114zm38.097-84.788a14.754 14.754 0 0019.784 6.25l3.332-1.723a14.493 14.493 0 007.174-8.525 14.516 14.516 0 00-.993-11.098l-7.054-13.396-29.343 15.05 7.1 13.442zm25.942-13.442a10.82 10.82 0 01-4.595 14.66l-3.355 1.724a10.96 10.96 0 01-11.259-.713 11.05 11.05 0 01-3.516-3.975l-5.331-10.133 22.794-11.673 5.262 10.11zm131.916 216.337a14.749 14.749 0 00-15.051-.942l-3.332 1.723a14.474 14.474 0 00-7.787 14.117 14.489 14.489 0 001.583 5.437l7.032 13.396 29.296-15.096-7.031-13.396a14.998 14.998 0 00-4.71-5.239zm6.778 17.141l-22.748 11.719-5.331-10.133a10.82 10.82 0 014.596-14.683l3.355-1.724a11.008 11.008 0 0114.774 4.596l5.354 10.225zM945 171.174a14.289 14.289 0 00-2.55 6.686l-.414 3.746A14.613 14.613 0 00945 192.107v-20.933zM694.404 229.33l-13.442 7.031 15.143 29.182 13.442-7.008a15.024 15.024 0 005.331-4.596 14.572 14.572 0 00.919-15.004l-1.724-3.332a14.57 14.57 0 00-14.195-7.858 14.585 14.585 0 00-5.474 1.585zm17.418 22.427a10.693 10.693 0 01-3.976 3.515l-10.156 5.308-11.764-22.679 10.156-5.308a10.915 10.915 0 0114.729 4.596l1.723 3.331a10.893 10.893 0 01-.712 11.328v-.091zm83.11 41.038a14.682 14.682 0 00-16.084 12.959l-1.701 15.028 32.79 3.493 1.7-15.028a14.52 14.52 0 00-12.868-16.084l-3.837-.368zm12.96 16.084l-1.287 11.374-25.459-2.711 1.263-11.489a11.006 11.006 0 0112.087-9.673l3.768.39c1.429.154 2.813.59 4.072 1.283a10.858 10.858 0 015.216 6.548 10.86 10.86 0 01.34 4.255v.023zm-55.101-43.014c45.955 31.411 115.279 10.708 154.319-46.162 39.039-56.87 33.294-128.699-12.661-160.086-45.956-31.388-115.28-10.708-154.342 46.162-39.062 56.87-33.364 128.676 12.684 160.086zm-9.651-158.018c37.891-55.146 104.825-75.459 149.172-45.197 44.347 30.262 49.655 99.792 11.742 154.985-37.914 55.193-104.802 75.574-149.172 45.197-44.37-30.376-49.632-99.792-11.742-154.985zM368.373 30.343l-80.537-54.986L275.29-6.398l80.606 54.986 12.477-18.245zM280.391-7.363l8.364-12.155 74.471 50.78-8.341 12.179-74.494-50.804zm11.627 422.147l-34.099 10.11 12.201 8.341-13.075 19.049 12.362 8.41 13.075-19.026 12.408 8.456-2.872-35.34z"/></g><g style="mix-blend-mode:soft-light" fill="#CCD3D6"><path d="M169.738 405.236l-10.654 15.553.519.355 10.653-15.553-.518-.355zm-24.905 36.24l.513.361 10.689-15.534-.524-.349-10.678 15.522zm-14.252 20.704l.524.361 10.678-15.533-.512-.35-10.69 15.522zm53.401-77.622l-10.678 15.537.518.356 10.678-15.537-.518-.356zm17.816-25.897l.513.349L213 343.488l-.524-.361-10.678 15.534zm-3.57 5.193l-10.678 15.537.518.356 10.678-15.537-.518-.356zm28.495-41.417l-10.692 15.528.518.356 10.692-15.527-.518-.357zm-99.701 144.919l-10.67 15.542.518.356 10.67-15.542-.518-.356zm-24.912 36.243l.512.349 10.678-15.533-.512-.35-10.678 15.534zM386.933 89.5l.524.349 10.678-15.534-.512-.35-10.69 15.534zm-42.723 62.111l.524.349 10.678-15.522-.524-.361-10.678 15.534zm14.241-20.704l.524.349 10.678-15.522-.512-.361-10.69 15.534zm42.723-62.123l.524.36 10.678-15.533-.512-.35-10.69 15.523zM230.281 317.241l.524.361 10.678-15.534-.524-.349-10.678 15.522zM415.416 48.08l.524.36 10.677-15.533-.512-.35-10.689 15.523zM448.497 0l-4.587 6.672.512.361L449.254 0h-.757zm-18.829 27.377l.513.36 10.678-15.533-.513-.35-10.678 15.523zm-56.976 82.826l.524.349 10.678-15.522-.513-.361-10.689 15.534zm-99.688 144.926l.524.361 10.678-15.533-.524-.35-10.678 15.522zm-14.241 20.705l.524.361 10.678-15.534-.524-.349-10.678 15.522zm71.206-103.519l.524.349 10.678-15.522-.524-.361-10.678 15.534zm-85.447 124.223l.524.361 10.678-15.534-.524-.349-10.678 15.522zm53.446-75.941l-10.745 15.459.515.358 10.746-15.459-.516-.358zm17.76-27.579l.524.349 10.677-15.522-.524-.361-10.677 15.534zm-14.242 20.704l.524.35 10.678-15.522-.524-.35-10.678 15.522zM333.939 524l-42.758-29.216-.349.524L332.822 524h1.117zm165.538-14.031L307.774 378.98l.361-.512 191.703 130.977-.361.524zM524 393.082L365.368 284.695l-.349.524L524 393.839v-.757zm0-215.307l-92.294-63.054-.361.512L524 178.544v-.769zm0 250.041l-42.071 61.157.524.361L524 428.923v-1.107z"/><path d="M478.156 495.017a37.74 37.74 0 019.839-5.496l-5.275-1.165-2.969-4.46a36.908 36.908 0 01-1.595 11.121zM458.605 524l15.778-22.94-.524-.361L457.836 524h.769z"/><path d="M478.156 495.017a37.238 37.238 0 00-1.595 11.132l-2.97-4.495-5.263-1.164a37.165 37.165 0 009.828-5.473zM278.279 524l45.297-65.849-.524-.349L277.522 524h.757zm-115.443 0l85.365-124.095-.524-.361L162.079 524h.757zM0 222.91l2.678-3.89-.524-.361L0 221.792v1.118zm0 265.877l142.947-207.83-.512-.35L0 487.681v1.106zm0-19.516v.757l3.423 2.341.35-.524L0 469.271z"/><path d="M0 474.43c2.938.012 5.861.403 8.698 1.164a31.311 31.311 0 01-4.588-8.768l-1.164 4.821L0 473.685v.745zM80.102 524l-66.129-45.192-.36.524L78.983 524h1.118z"/><path d="M8.698 475.594a31.356 31.356 0 014.576 8.815l1.165-4.821 4.087-2.841a31.546 31.546 0 01-9.828-1.153zM0 295.827v.769l43.9 29.996.36-.524L0 295.827zm0-127.902v.768L146.615 268.87l.361-.524L0 167.925zm213.722 13.914L17.257 47.602l.35-.524 196.476 134.249-.361.512zM262.699 0l86.169 58.874.349-.512L263.817 0h-1.118zM81.185 0L42.688 55.975l.513.35L81.954 0h-.769z"/><path d="M38.916 62.018a37.331 37.331 0 001.595-11.12l2.97 4.483 5.262 1.164a37.16 37.16 0 00-9.828 5.473zM0 119.146l35.131-51.084-.512-.35L0 118.03v1.117z"/><path d="M38.916 62.019a37.728 37.728 0 01-9.805 5.519l5.275 1.165 2.876 4.436c-.02-3.77.539-7.52 1.654-11.12zm194.59 270.605l-64.499-44.238.361-.524 64.499 44.238-.361.524zm64.86-91.118l-66.129-45.192.349-.512 66.141 45.18-.361.524zm29.553-42.98L240.4 138.72l.361-.512 87.519 59.794-.361.524zm-6.334-12.902l-.513-.35L381.6 97.266l.524.349-60.539 88.009z"/><path d="M317.288 191.318a35.746 35.746 0 0110.364-5.135l-5.823-1.502-3.493-4.844a35.474 35.474 0 01-1.048 11.481zm68.609-99.746a35.517 35.517 0 00-1.083 11.482l-3.493-4.844-5.822-1.49a35.575 35.575 0 0010.398-5.148zm-93.878 137.032l-.512-.349 21.495-31.254.513.361-21.496 31.242z"/><path d="M287.734 234.298a35.864 35.864 0 0110.352-5.147l-5.822-1.491-3.493-4.844a35.507 35.507 0 01-1.037 11.482zm29.554-42.98a35.387 35.387 0 00-1.071 11.47l-3.494-4.833-5.822-1.502a35.622 35.622 0 0010.387-5.135zm-88.614 129.393l-.524-.361 55.287-80.37.513.361-55.276 80.37z"/><path d="M224.377 326.394c3.147-2.265 6.644-4 10.352-5.136l-5.822-1.502-3.494-4.832a35.408 35.408 0 01-1.036 11.47zm63.357-92.096a35.444 35.444 0 00-1.083 11.47l-3.493-4.844-5.822-1.491a35.807 35.807 0 0010.398-5.135zm-80.16 117.085l-.524-.361 13.03-18.934.524.349-13.03 18.946z"/><path d="M203.277 357.065a36.125 36.125 0 0110.352-5.135l-5.822-1.49-3.494-4.844a35.4 35.4 0 01-1.036 11.469zm21.1-30.671a35.122 35.122 0 00-1.071 11.481l-3.494-4.844-5.822-1.491a35.877 35.877 0 0010.387-5.146zm178.521-139.641l-2.445-1.607.361-.524 2.422 1.666-.338.465zm-7.627-5.205l-15.58-10.643.361-.524 15.58 10.643-.361.524zm-20.785-14.194l-15.581-10.643.361-.524 15.581 10.643-.361.524zm-20.774-14.195l-15.58-10.643.361-.524 15.58 10.655-.361.512zm-20.774-14.194l-15.58-10.643.361-.524 15.58 10.654-.361.513zm-20.774-14.195l-15.58-10.655.361-.524 15.58 10.655-.361.524zm-20.773-14.148l-15.58-10.643.361-.524 15.58 10.655-.361.512zm-20.774-14.241l-15.603-10.643.361-.524 15.58 10.654-.338.513zm-20.774-14.195l-15.58-10.643.349-.524 15.592 10.655-.361.512zM229.07 67.992l-15.581-10.643.35-.524 15.557 10.712-.326.455zm-20.774-14.195l-15.58-10.643.349-.524 15.592 10.655-.361.512zm-20.82-14.206l-15.58-10.643.349-.524 15.58 10.654-.349.513zm158.667 170.335a62.316 62.316 0 01-11.948-1.164l.117-.618a61.91 61.91 0 0011.831 1.165c2.295 0 4.589-.128 6.87-.384l.07.628a62.618 62.618 0 01-6.94.373zm13.181-1.397l-.14-.617a61.8 61.8 0 0017.467-6.626l.303.547a62.476 62.476 0 01-17.63 6.696zm-31.277-1.258A62.426 62.426 0 01311 199.12l.349-.524a61.412 61.412 0 0016.885 8.07l-.187.605zm54.298-8.803l-.407-.512a61.532 61.532 0 0013.437-12.984l.501.384a62.232 62.232 0 01-13.531 13.1v.012zm-76.399-3.156a62.074 62.074 0 01-12.506-14.183l.536-.337a61.317 61.317 0 0012.343 14.031l-.373.489zm93.552-15.137l-.536-.338a61.124 61.124 0 007.254-17.199l.606.151a62.247 62.247 0 01-7.324 17.351v.035zm-109.144-4.495a62.077 62.077 0 01-5.822-17.921l.617-.105a62.035 62.035 0 005.822 17.746l-.617.28zm117.691-19.074l-.629-.093a60.782 60.782 0 00-.163-18.654l.629-.105a63.74 63.74 0 01.803 9.967 62.99 62.99 0 01-.64 8.85v.035zm-124.235-5.112a60.947 60.947 0 01-.128-3.877 62.203 62.203 0 011.816-14.87l.618.151a60.946 60.946 0 00-1.805 14.742c0 1.269 0 2.562.116 3.843l-.617.011zm122.139-19.737a61.262 61.262 0 00-7.499-17.094l.535-.338a62.21 62.21 0 017.581 17.257l-.617.175zm-118.029-4.833l-.593-.209a62.37 62.37 0 017.277-14.299 61.495 61.495 0 011.689-2.329l.501.372c-.583.769-1.165 1.549-1.666 2.329a61.504 61.504 0 00-7.208 14.136zm106.92-17.338a61.896 61.896 0 00-13.671-12.809 63.562 63.562 0 00-11.307-6.125l.245-.57a62.888 62.888 0 0125.222 19.061l-.489.443zm-93.994-3.866l-.454-.419a61.624 61.624 0 0114.811-11.715l.315.536a61.807 61.807 0 00-14.672 11.54v.058zm20.261-14.404l-.256-.57a62.727 62.727 0 0118.247-4.938l.081.617a62.634 62.634 0 00-18.072 4.833v.058zm42.852-2.702a62.078 62.078 0 00-18.538-2.585V85.4h.826a62.5 62.5 0 0117.91 2.62l-.198.594z"/><path d="M345.84 147.687l-3.493-18.503.617-.117 3.493 18.515-.617.105zm-4.658-24.675l-3.493-18.503.617-.116 3.493 18.503-.617.116zm-4.658-24.674l-.826-4.379.617-.105.827 4.367-.618.117z"/><path d="M334.813 86.914a35.825 35.825 0 007.382 8.873l-5.892-.966-5.158 2.992a35.666 35.666 0 003.668-10.899z"/></g><g style="mix-blend-mode:soft-light" fill="#CCD3D6"><path d="M693.738 405.236l-10.654 15.553.519.355 10.653-15.553-.518-.355zm-24.905 36.24l.513.361 10.689-15.534-.524-.349-10.678 15.522zm-14.252 20.704l.524.361 10.678-15.533-.512-.35-10.69 15.522zm53.401-77.622l-10.678 15.537.518.356 10.678-15.537-.518-.356zm17.816-25.897l.513.349L737 343.488l-.524-.361-10.678 15.534zm-3.57 5.193l-10.678 15.537.518.356 10.678-15.537-.518-.356zm28.495-41.417l-10.692 15.528.518.356 10.692-15.527-.518-.357zm-99.701 144.919l-10.67 15.542.518.356 10.67-15.542-.518-.356zm-24.912 36.243l.512.349 10.678-15.533-.512-.35-10.678 15.534zM910.933 89.5l.524.349 10.678-15.534-.512-.35-10.69 15.534zm-42.723 62.111l.524.349 10.678-15.522-.524-.361-10.678 15.534zm14.241-20.704l.524.349 10.678-15.522-.512-.361-10.69 15.534zm42.723-62.123l.524.36 10.678-15.533-.512-.35-10.69 15.523zM754.281 317.241l.524.361 10.678-15.534-.524-.349-10.678 15.522zM939.416 48.08l.524.36 10.677-15.533-.512-.35-10.689 15.523zM972.497 0l-4.587 6.672.512.361L973.254 0h-.757zm-18.829 27.377l.513.36 10.678-15.533-.513-.35-10.678 15.523zm-56.976 82.826l.524.349 10.678-15.522-.513-.361-10.689 15.534zm-99.688 144.926l.524.361 10.678-15.533-.524-.35-10.678 15.522zm-14.241 20.705l.524.361 10.678-15.534-.524-.349-10.678 15.522zm71.206-103.519l.524.349 10.678-15.522-.524-.361-10.678 15.534zm-85.447 124.223l.524.361 10.678-15.534-.524-.349-10.678 15.522zm53.446-75.941l-10.745 15.459.515.358 10.746-15.459-.516-.358zm17.76-27.579l.524.349 10.677-15.522-.524-.361-10.677 15.534zm-14.242 20.704l.524.35 10.678-15.522-.524-.35-10.678 15.522zM857.939 524l-42.758-29.216-.349.524L856.822 524h1.117zm165.541-14.031L831.774 378.98l.361-.512 191.705 130.977-.36.524zM1048 393.082L889.368 284.695l-.349.524L1048 393.839v-.757zm0-215.307l-92.294-63.054-.361.512L1048 178.544v-.769zm0 250.041l-42.07 61.157.52.361 41.55-60.411v-1.107z"/><path d="M1002.16 495.017a37.585 37.585 0 019.84-5.496l-5.28-1.165-2.97-4.46c.04 3.767-.5 7.517-1.59 11.121zM982.605 524l15.778-22.94-.524-.361L981.836 524h.769z"/><path d="M1002.16 495.017a37.147 37.147 0 00-1.6 11.132l-2.969-4.495-5.263-1.164a37.25 37.25 0 009.832-5.473zM802.279 524l45.297-65.849-.524-.349L801.522 524h.757zm-115.443 0l85.365-124.095-.524-.361L686.079 524h.757zM524 222.91l2.678-3.89-.524-.361-2.154 3.133v1.118zm0 265.877l142.947-207.83-.512-.35L524 487.681v1.106zm0-19.516v.757l3.423 2.341.35-.524-3.773-2.574z"/><path d="M524 474.43c2.938.012 5.861.403 8.698 1.164a31.343 31.343 0 01-4.588-8.768l-1.164 4.821-2.946 2.038v.745zM604.102 524l-66.129-45.192-.361.524L602.984 524h1.118z"/><path d="M532.698 475.594a31.365 31.365 0 014.577 8.815l1.164-4.821 4.087-2.841a31.548 31.548 0 01-9.828-1.153zM524 295.827v.769l43.9 29.996.361-.524L524 295.827zm0-127.902v.768L670.615 268.87l.361-.524L524 167.925zm213.722 13.914L541.257 47.602l.349-.524 196.477 134.249-.361.512zM786.699 0l86.169 58.874.349-.512L787.817 0h-1.118zM605.185 0l-38.497 55.975.513.35L605.954 0h-.769z"/><path d="M562.916 62.018a37.36 37.36 0 001.595-11.12l2.969 4.483 5.263 1.164a37.16 37.16 0 00-9.827 5.473zM524 119.146l35.131-51.084-.512-.35L524 118.03v1.117z"/><path d="M562.916 62.019a37.727 37.727 0 01-9.805 5.519l5.275 1.165 2.876 4.436c-.019-3.77.539-7.52 1.654-11.12zm194.59 270.605l-64.499-44.238.361-.524 64.499 44.238-.361.524zm64.86-91.118l-66.129-45.192.349-.512 66.141 45.18-.361.524zm29.553-42.98L764.4 138.72l.361-.512 87.519 59.794-.361.524zm-6.334-12.902l-.513-.35L905.6 97.266l.524.349-60.539 88.009z"/><path d="M841.288 191.318a35.746 35.746 0 0110.364-5.135l-5.823-1.502-3.493-4.844a35.474 35.474 0 01-1.048 11.481zm68.609-99.746a35.517 35.517 0 00-1.083 11.482l-3.493-4.844-5.822-1.49a35.575 35.575 0 0010.398-5.148zm-93.878 137.032l-.512-.349 21.495-31.254.513.361-21.496 31.242z"/><path d="M811.734 234.298a35.864 35.864 0 0110.352-5.147l-5.822-1.491-3.493-4.844a35.507 35.507 0 01-1.037 11.482zm29.554-42.98a35.387 35.387 0 00-1.071 11.47l-3.494-4.833-5.822-1.502a35.622 35.622 0 0010.387-5.135zm-88.614 129.393l-.524-.361 55.287-80.37.513.361-55.276 80.37z"/><path d="M748.377 326.394c3.147-2.265 6.644-4 10.352-5.136l-5.822-1.502-3.494-4.832a35.408 35.408 0 01-1.036 11.47zm63.357-92.096a35.444 35.444 0 00-1.083 11.47l-3.493-4.844-5.822-1.491a35.807 35.807 0 0010.398-5.135zm-80.16 117.085l-.524-.361 13.03-18.934.524.349-13.03 18.946z"/><path d="M727.277 357.065a36.125 36.125 0 0110.352-5.135l-5.822-1.49-3.494-4.844a35.4 35.4 0 01-1.036 11.469zm21.1-30.671a35.122 35.122 0 00-1.071 11.481l-3.494-4.844-5.822-1.491a35.877 35.877 0 0010.387-5.146zm178.521-139.641l-2.445-1.607.361-.524 2.422 1.666-.338.465zm-7.627-5.205l-15.58-10.643.361-.524 15.58 10.643-.361.524zm-20.785-14.194l-15.581-10.643.361-.524 15.581 10.643-.361.524zm-20.774-14.195l-15.58-10.643.361-.524 15.58 10.655-.361.512zm-20.774-14.194l-15.58-10.643.361-.524 15.58 10.654-.361.513zm-20.774-14.195l-15.58-10.655.361-.524 15.58 10.655-.361.524zm-20.773-14.148l-15.58-10.643.361-.524 15.58 10.655-.361.512zm-20.774-14.241l-15.603-10.643.361-.524 15.58 10.654-.338.513zm-20.774-14.195l-15.58-10.643.349-.524 15.592 10.655-.361.512zM753.07 67.992l-15.581-10.643.35-.524 15.557 10.712-.326.455zm-20.774-14.195l-15.58-10.643.349-.524 15.592 10.655-.361.512zm-20.82-14.206l-15.58-10.643.349-.524 15.58 10.654-.349.513zm158.667 170.335a62.316 62.316 0 01-11.948-1.164l.117-.618a61.91 61.91 0 0011.831 1.165c2.295 0 4.589-.128 6.87-.384l.07.628a62.618 62.618 0 01-6.94.373zm13.181-1.397l-.14-.617a61.8 61.8 0 0017.467-6.626l.303.547a62.476 62.476 0 01-17.63 6.696zm-31.277-1.258A62.426 62.426 0 01835 199.12l.349-.524a61.412 61.412 0 0016.885 8.07l-.187.605zm54.298-8.803l-.407-.512a61.532 61.532 0 0013.437-12.984l.501.384a62.232 62.232 0 01-13.531 13.1v.012zm-76.399-3.156a62.074 62.074 0 01-12.506-14.183l.536-.337a61.317 61.317 0 0012.343 14.031l-.373.489zm93.552-15.137l-.536-.338a61.124 61.124 0 007.254-17.199l.606.151a62.247 62.247 0 01-7.324 17.351v.035zm-109.144-4.495a62.077 62.077 0 01-5.822-17.921l.617-.105a62.035 62.035 0 005.822 17.746l-.617.28zm117.691-19.074l-.629-.093a60.782 60.782 0 00-.163-18.654l.629-.105a63.74 63.74 0 01.803 9.967 62.99 62.99 0 01-.64 8.85v.035zm-124.235-5.112a60.947 60.947 0 01-.128-3.877 62.203 62.203 0 011.816-14.87l.618.151a60.946 60.946 0 00-1.805 14.742c0 1.269 0 2.562.116 3.843l-.617.011zm122.139-19.737a61.262 61.262 0 00-7.499-17.094l.535-.338a62.21 62.21 0 017.581 17.257l-.617.175zm-118.029-4.833l-.593-.209a62.37 62.37 0 017.277-14.299 61.495 61.495 0 011.689-2.329l.501.372c-.583.769-1.165 1.549-1.666 2.329a61.504 61.504 0 00-7.208 14.136zm106.92-17.338a61.896 61.896 0 00-13.671-12.809 63.562 63.562 0 00-11.307-6.125l.245-.57a62.888 62.888 0 0125.222 19.061l-.489.443zm-93.994-3.866l-.454-.419a61.624 61.624 0 0114.811-11.715l.315.536a61.807 61.807 0 00-14.672 11.54v.058zm20.261-14.404l-.256-.57a62.727 62.727 0 0118.247-4.938l.081.617a62.634 62.634 0 00-18.072 4.833v.058zm42.852-2.702a62.078 62.078 0 00-18.538-2.585V85.4h.826a62.5 62.5 0 0117.91 2.62l-.198.594z"/><path d="M869.84 147.687l-3.493-18.503.617-.117 3.493 18.515-.617.105zm-4.658-24.675l-3.493-18.503.617-.116 3.493 18.503-.617.116zm-4.658-24.674l-.826-4.379.617-.105.827 4.367-.618.117z"/><path d="M858.813 86.914a35.825 35.825 0 007.382 8.873l-5.892-.966-5.158 2.992a35.666 35.666 0 003.668-10.899z"/></g><g style="mix-blend-mode:overlay" fill="#B7B7B7"><path d="M1440.1 166.706l.32-.458-3.43-2.317-1.77-1.204c-2.01-1.504-4.12-3.009-6.41-4.63l-.11.183c-27.13-18.093-44.46-29.676-73.81-49.505l-.98 1.465c-9.68-6.67-22.73-15.702-35.5-24.572l-22.62-15.633.58-.847c-27.22-18.53-49.54-33.817-64.84-44.424l94.99-138.686-2.98-2.038-2.29-.013-22.26 32.509-43.34-30.107 1.93-2.747-15.7-.085L945.286 310.46l-.124 22.84 52.084-74.971 70.964 48.938-17.83 25.662 1.63 1.111-3.59 5.151-53.339-37.422-1.043 1.534 9.382 6.554a54.286 54.286 0 00-10.725 39.723 54.246 54.246 0 0020.225 35.834l1.15-1.441a52.431 52.431 0 01-19.492-34.671 52.423 52.423 0 0110.452-38.38l42.35 29.619-34.02 48.828-1.52-1.065-21.973 31.613 11.443 7.944-31.981 46.173-24.838-17.115-.085 15.601 126.874 87.546 7.36-10.599 32.05-46.173 18.16 12.53a170.398 170.398 0 00-25.1 125.434 170.423 170.423 0 0069.26 107.551l.76.532 41.67-58.689-.75-.533a99.256 99.256 0 01-39.72-61.449 99.251 99.251 0 0113.19-71.968l12.66 8.754-1.64 2.289.18.116c-18.56 32.942-7.8 86.585 23.3 110.008l2.31-2.929c-30.48-22.982-40.58-76.255-20.99-107.467l.69.486 22-31.66-1.54-1.042 38.63-55.42 1.54 1.065 20.84-29.942 31.66-45.578-1.86-1.274c21.84-31.131 42.5-60.5 62.29-88.587l1.36.926 27.9-40.152 4.36-6.295c.75-.746 1.42-1.566 2.01-2.448l5.3-7.6c5.58-8.058 14.69-21.244 27.01-39.238l-4.58-3.104c-13.69 19.963-21.89 31.867-26.78 38.918a5.49 5.49 0 00-1.36 1.279l-.48.756c-.4.526-.84 1.167-1.32 1.9l-4.34 6.433-142.71-98.5-138.45-95.605 53.77-77.397 46.15 32.075-.2.274 13.2 9.263c14.33 9.867 32.7 22.444 54.08 37.059l1.5-2.29 22.6 15.656c10.57 7.319 21.33 14.776 30.22 20.844l5.31 3.683-1.09 1.579c31.52 21.288 49.18 33.103 79.99 53.652 10.94 8.262 17.28 16.592 18.8 24.78 1.27 6.9-.72 13.944-6.11 21.474l4.58 3.219c6.29-8.835 8.59-17.233 7.03-25.697-1.56-8.465-6.74-16.351-15.88-24.259zm-439.7 87.091l59.77-86.028 138.34 95.467-12.92 18.588 1.51 1.042-29 41.732-1.51-1.043-17.86 25.708-67.44-46.552-70.89-48.914zm-29.422 221.395l32.052-46.15 5.08 3.497-32.05 46.15-5.082-3.497zm6.73 4.632l32.052-46.15 5.06 3.52-32.03 46.15-5.082-3.52zm6.73 4.632l32.052-46.012 5.06 3.497-32.052 46.035-5.06-3.52zm6.708 4.632l32.074-46.012 5.08 3.521-32.072 46.012-5.082-3.521zm6.73 4.632l32.054-46.012 5.08 3.498-32.05 46.058-5.084-3.544zm6.734 4.633l32.07-46.012 5.06 3.497-32.05 46.058-5.08-3.543zm6.73 4.632l31.96-46.013 5.08 3.497-31.96 46.082-5.08-3.566zm6.73 4.632l32.09-46.012 5.09 3.52-32.1 46.058-5.08-3.566zm6.73 4.632l32.07-46.012 5.06 3.52-32.05 46.081-5.08-3.589zm6.73 4.632l32.05-46.012 5.08 3.497-32.05 46.127-5.08-3.612zm6.73 4.632l32.05-46.012 5.04 3.474-32.01 46.15-5.08-3.612zm6.73 4.632l32.05-46.012 5.17 3.498-32.14 46.15-5.08-3.636zm6.73 4.633l32.05-46.013 5.08 3.498-32.05 46.15-5.08-3.635zm6.73 4.632l32.05-46.012 5.08 3.497-32.05 46.15-5.08-3.635zm11.81 8.152l-5.08-3.497 32.05-46.035 5.08 3.52-32.05 46.012zm6.73 4.632l-5.08-3.52 32.05-46.012 5.08 3.497-32.05 46.035zm29.03 28.605l66.91 13.598c-.5 2.548-.9 5.119-1.19 7.691l-67.84-7.146c.51-4.823 1.2-9.553 2.12-14.143zm-2.38 16.071l67.83 7.147a99.708 99.708 0 00-.43 7.741l-68.17-.691c.09-4.871.37-9.664.84-14.38l-.07.183zm-.17 30.193c-.39-4.705-.58-9.424-.57-14.158l68.25.416c-.02 2.574-.03 5.147.28 7.7l-67.96 6.042zm.15 1.816l67.91-5.744c.24 2.552.59 5.104 1.02 7.634l-67.03 12.114a275.77 275.77 0 01-1.87-14.188l-.03.184zm109.29 66.448l-39.61 55.668c-4.17-2.964-8.13-6.133-11.95-9.417l45.04-51.41c2.13 1.597 4.28 3.332 6.55 4.976l-.03.183zm-7.94-6.362l-44.99 51.227c-3.77-3.306-7.32-6.772-10.72-10.352l49.86-46.697c1.88 1.94 3.8 3.881 5.88 5.638l-.03.184zm-7.15-6.932l-49.84 46.467a172.622 172.622 0 01-9.47-11.173l54.13-41.595c1.66 2.054 3.42 4.108 5.2 6.071l-.02.23zm-6.32-7.755l-54.14 41.595a167.683 167.683 0 01-8.2-11.924l57.78-36.13c1.48 2.214 2.98 4.359 4.56 6.459zm-5.47-8.026l-57.85 36.152a148.106 148.106 0 01-6.99-12.515l60.99-30.437c1.2 2.305 2.48 4.495 3.85 6.8zm-4.55-8.458l-60.99 30.46c-2.09-4.27-4-8.616-5.72-13.037l63.57-24.494c.84 2.394 1.91 4.767 3.02 7.071h.12zm-3.79-8.798L1114 669.49c-1.68-4.421-3.15-8.887-4.53-13.421l65.59-18.394c.79 2.486 1.61 4.903 2.51 7.32l.12.001zm-2.94-9.092l-65.59 18.371c-1.26-4.603-2.25-9.204-3.19-13.804l67.05-12.114c.31 2.576.96 5.061 1.61 7.546l.12.001zm-1.35-47.434l-66.91-13.576c.97-4.705 2.12-9.387 3.5-14.021l65.38 19.979c-.89 2.522-1.55 5.069-2.09 7.617l.12.001zm2.51-9.385l-65.47-19.956a179.9 179.9 0 014.92-13.76l63.16 26.239a68.825 68.825 0 00-2.61 7.477zm3.45-9.172l-63.28-26.263c1.91-4.585 4.03-9.07 6.37-13.454l60.3 32.359a104.662 104.662 0 00-3.51 7.334l.12.024zm4.39-8.938l-60.42-32.336c2.15-3.941 4.47-7.827 6.96-11.659l56.34 38.886a237.02 237.02 0 01-3 5.085l.12.024zm77.11-83.199l.91.648-4.63 6.616-54.32-37.474-1.05 1.511 9.27 6.508a54.333 54.333 0 00-10.47 39.788 54.281 54.281 0 0020.45 35.703l1.13-1.442a52.5 52.5 0 01-19.75-34.537 52.478 52.478 0 0110.16-38.47l43.35 29.946a46458.885 46458.885 0 01-33.07 47.408l-.82-.556-18.81 27.081-205.661-141.949 18.831-27.104-2.77-1.899 1.26.857 38.53-55.49 1.54 1.043 17.74-25.548 205.68 141.926-17.5 25.434zm5.13-301.79l138.22 95.374-1.25 1.855-27.79 40.083 1.69 1.182-30.45 43.033-45.9-31.683a52.86 52.86 0 0132.58-23.066 52.836 52.836 0 0139.41 6.292l.95-1.58a54.686 54.686 0 00-74.38 17.289l-5.31-3.659-1.07 1.511 5.34 3.659a54.261 54.261 0 00-10.43 39.763 54.274 54.274 0 0020.45 35.66l1.14-1.442a52.412 52.412 0 01-19.77-34.447 52.417 52.417 0 0110.05-38.423l45.78 31.682-30.84 43.997-1.21-.834-31.01 44.662-138.25-95.42 17.25-24.837-1.51-1.043 29-41.731-.76-.533 2.29 1.575 28.88-41.664-1.53-1.042 29.01-41.732-.91-.648 2.43 1.691 17.9-25.524zm-4.58-3.15l-17.3 24.907-46.95-32.424-1.05 1.51 8.36 5.767a48.558 48.558 0 00-9.39 35.664 48.545 48.545 0 0018.4 31.964l1.13-1.465a46.687 46.687 0 01-17.69-30.787 46.705 46.705 0 019.06-34.333l38.62 26.634-28.39 40.862-1.51-1.042-12.93 18.588-138.5-95.468 59.71-85.867 138.43 95.49zm-6.94-284.759l43.34 30.107-3.45 5.105-43.5-30.108 3.61-5.104zm-4.63 6.707l43.5 30.108-3.62 5.127-43.49-30.107 3.61-5.128zm-4.63 6.708l43.49 30.107-3.61 5.082-43.49-30.108 3.61-5.081zm-4.63 6.707l43.49 30.223-3.61 5.127-43.49-30.291 3.61-5.059zm-4.63 6.708l43.49 30.245-3.61 5.082-43.5-30.269 3.62-5.058zm-4.64 6.707l43.5 30.269-3.61 5.081-43.5-30.291 3.61-5.059zm-4.63 6.708l43.63 30.292-3.75 5.104-43.49-30.338 3.61-5.058zm-4.63 6.707l43.65 30.338-3.77 5.081-43.49-30.36 3.61-5.059zm-4.63 6.708l43.7 30.361-3.48 5.082-43.97-30.386 3.75-5.057zm-4.63 6.707l43.74 30.385-3.5 5.105-44.02-30.432 3.78-5.058zm-4.64 6.707l43.8 30.431-3.5 5.082-44.09-30.455 3.79-5.058zm-4.63 6.708l43.52 30.452-3.48 5.083-43.86-30.478 3.82-5.057zm-4.63 6.707l43.88 30.478-3.47 5.105-44.28-30.526 3.87-5.057zm-4.63 6.708l43.93 30.523-3.48 5.083-44.34-30.55 3.89-5.056zm32.9 50.546l-46.1-32.074 3.52-5.06 44 30.57-1.92 2.816 2.29 1.46-1.79 2.288zm-41.45-38.782l3.52-5.059 43.98 30.547-3.5 5.082-44-30.57zm77.46 492.383l.5.347-.5-.347z"/><path d="M1164.58 761.471a225.425 225.425 0 01-23.05-25.401 189.48 189.48 0 01-21.3-25.92 186.907 186.907 0 01-27.24-60.971 164.39 164.39 0 01-2.67-66.398 145.937 145.937 0 019.18-32.12 194.739 194.739 0 0112.1-31.92 132.964 132.964 0 00-20.84 28.403 164.31 164.31 0 00-9.6 34.117 173.974 173.974 0 002.81 70.098 197.098 197.098 0 0050.98 91.201 152.724 152.724 0 0029.63 18.911zm-25.81-470.481a46.545 46.545 0 011.34-18.268 46.262 46.262 0 018.3-16.331l-1.47-1.133a48.765 48.765 0 00-8.59 16.987 48.845 48.845 0 00-1.41 18.984 48.66 48.66 0 0018.45 32.457l1.14-1.441a46.684 46.684 0 01-17.76-31.255zm-31.29 96.362a14.708 14.708 0 007.4 2.574c2.66.173 5.31-.379 7.67-1.596l3.37-1.705a14.667 14.667 0 007.25-8.526c1.19-3.689.87-7.701-.9-11.155l-6.95-13.48-29.48 15.075 6.96 13.48a14.82 14.82 0 004.68 5.333zm16.25-28.933l5.25 10.208a10.975 10.975 0 01.7 8.316 10.942 10.942 0 01-5.38 6.387l-3.38 1.728a11.026 11.026 0 01-5.73 1.188c-1.98-.128-3.89-.79-5.53-1.915a11.387 11.387 0 01-3.52-3.995l-5.25-10.207 22.84-11.71zm-18.4 57.85l.43-3.766a14.67 14.67 0 00-3.13-10.725 14.692 14.692 0 00-9.76-5.429l-15.11-1.737-3.79 32.816 15.09 1.736c3.87.44 7.75-.67 10.8-3.086a14.726 14.726 0 005.47-9.809zm-15.84 9.106l-11.48-1.303 2.94-25.467 11.48 1.303c1.44.16 2.82.6 4.08 1.295a11 11 0 013.27 2.759 11.113 11.113 0 011.96 3.801c.39 1.383.51 2.831.35 4.261l-.44 3.904a10.963 10.963 0 01-4.14 7.289 10.958 10.958 0 01-8.09 2.226l.07-.068zm-26.64-184.062l-28.36-19.593-21.45 30.858 28.36 19.571a16.7 16.7 0 0012.45 2.684 16.713 16.713 0 0010.72-6.879l2.47-3.594a16.386 16.386 0 002.59-5.929c.46-2.127.5-4.325.11-6.466a16.557 16.557 0 00-2.38-6.013 16.686 16.686 0 00-4.51-4.639zm1.17 20.963l-2.5 3.594a12.977 12.977 0 01-8.33 5.341 12.99 12.99 0 01-9.68-2.084l-25.39-17.486 17.23-24.792 25.35 17.486c1.39.964 2.58 2.192 3.49 3.616a12.909 12.909 0 011.77 9.71 12.835 12.835 0 01-2.01 4.614l.07.001zm25.42-59.33l-28.37-19.593-21.44 30.858 28.36 19.57a16.703 16.703 0 0023.16-4.171l2.48-3.594a16.574 16.574 0 002.69-12.405 16.59 16.59 0 00-6.88-10.665zm1.15 20.962l-2.39 3.526a12.978 12.978 0 01-18.01 3.257l-25.32-17.486 17.21-24.792 25.34 17.486c1.39.975 2.58 2.215 3.49 3.65a12.89 12.89 0 011.81 4.71c.29 1.674.24 3.389-.14 5.045a12.814 12.814 0 01-2.06 4.604h.07zm16.01-45.662a16.667 16.667 0 0018.56.34 16.643 16.643 0 004.69-4.534l2.32-3.595a16.578 16.578 0 002.64-12.371 16.579 16.579 0 00-6.86-10.63l-28.36-19.57-21.45 30.835 28.46 19.525zm-6.01-45.299l25.32 17.462a12.884 12.884 0 015.36 8.303c.62 3.369-.13 6.844-2.08 9.661l-2.5 3.571a12.946 12.946 0 01-8.33 5.351c-3.38.611-6.86-.142-9.68-2.094l-25.32-17.463 17.23-24.791zm55.8 2.739l2.48-3.594a16.571 16.571 0 00-4.2-23.001l-28.36-19.64-21.44 30.836 28.36 19.593a16.697 16.697 0 0023.16-4.194zm-29.16-41.106l25.34 17.463a12.96 12.96 0 015.36 8.303c.61 3.369-.13 6.844-2.08 9.661l-2.5 3.571a12.97 12.97 0 01-8.33 5.351c-3.38.611-6.86-.142-9.68-2.094l-25.32-17.463 17.21-24.791zm130.71 107.857c-3.24 4.578 2.73 12.515 10.01 17.518l76.46 52.759c7.28 5.025 16.76 7.857 20 3.21l13.73-19.801-106.45-73.487-13.75 19.801zm115.05 54.623l-11.58 16.757c-1.18 1.694-7.54.924-14.84-4.125l-76.51-52.759c-7.3-5.049-10.26-10.718-9.12-12.389l11.58-16.78 100.47 69.296zm-110.88 134.119l-76.44-52.759c-7.28-5.025-16.76-7.857-20-3.187l-13.82 19.778 106.45 73.487 13.75-19.801c3.34-4.647-2.66-12.538-9.94-17.518zm6.99 15.411l-11.58 16.78-100.45-69.181 11.58-16.78c1.18-1.671 7.54-.901 14.84 4.148l76.44 52.736c7.39 4.957 10.35 10.626 9.17 12.297zm-323.417-12.717l-.847-.51-.025 4.596a16.521 16.521 0 012.959 22.075 16.459 16.459 0 01-3.097 3.246l-.024 4.595a19.937 19.937 0 006.167-5.872 20.221 20.221 0 00-5.133-28.13zm150.527 52.059l43.03 29.714 53.64-77.214-43.04-29.715-53.63 77.215zm91.54-46.563l-49.54 71.147-36.97-25.476 49.45-71.171 37.06 25.5z"/><path d="M1136.28 466.232l45.65-65.7-8.13-5.605-45.64 65.723 8.12 5.582zm38.46-66.175l2.04 1.412-41.43 59.656-2.06-1.412 41.45-59.656zm803.44 116.354l-67.81 97.611-138.33-95.466-143.27-98.894c18.7-27.289 37.73-54.552 56.74-81.77a18.11 18.11 0 01-4.73-3.151c-20.43 29.485-41 59.199-58.16 84.06l.48.324-30.66 44.228 1.33.903c-21.4 31.272-41.69 60.896-61.26 89.282l-1.86-1.274-31.66 45.578-20.84 29.942 1.51 1.043-38.65 55.65-1.51-1.043-22 31.637.71.486c-22.43 29.244-76.04 38.65-108.31 18.232l-1.99 3.114c32.95 20.859 87.11 11.962 111.51-16.996l.21.139 1.64-2.289 12.66 8.754a99.95 99.95 0 01-134.54 22.248l-.78-.51-40.42 59.524.78.51a171.694 171.694 0 00234.35-40.962l18.15 12.529-32.05 46.219-7.37 10.599 118.44 82.836 20.87.113-23.6-16.718 33.02-47.57 11.45 7.944 21.98-31.637-1.79-1.25.27.185 33.91-48.828 42.72 29.092a52.858 52.858 0 01-71.81 17.189l-.95 1.58a54.682 54.682 0 0074.29-17.727l9.48 6.44 1.04-1.511-53.73-36.574 3.59-5.151 1.53 1.043 17.77-25.547 70.96 48.937-83.74 120.572 15.67.085 264.64-380.92.12-22.84zm-443 38.957l-1.21-.834 30.5-44.389 45.79 31.66a52.852 52.852 0 01-71.81 16.66l-.95 1.557a54.66 54.66 0 0040.67 6.536 54.654 54.654 0 0033.69-23.711l5.31 3.66 1.07-1.511-5.31-3.682a54.302 54.302 0 0010.5-39.809 54.254 54.254 0 00-20.46-35.728l-1.13 1.464a52.411 52.411 0 0119.77 34.554 52.462 52.462 0 01-10.22 38.476l-45.78-31.659 29.74-43.359 1.69 1.158 29.14-41.938 138.24 95.397-17.74 25.57 1.51 1.042-28.99 41.732-1.51-1.065-29 41.755 1.51 1.042-29.08 41.777-1.51-1.065-17.21 24.792-138.25-95.374 31.03-44.708zm-274.41 251.776l38.29-56.548c2.29 1.552 4.72 2.966 7.14 4.289l-32.49 60.096c-4.31-2.39-8.68-4.988-12.94-7.837zm14.68 8.742l32.5-60.095c2.42 1.254 4.88 2.324 7.38 3.487l-26.31 62.955c-4.63-1.909-9.15-4.002-13.57-6.347zm15.2 6.976l26.3-62.955c2.48 1.001 5 1.911 7.55 2.706l-20.02 65.15a134.543 134.543 0 01-13.83-4.809v-.092zm15.59 5.439l20-65.15c2.55.749 5.1 1.407 7.67 1.949l-13.6 66.701c-4.73-.876-9.41-2.027-14.07-3.454v-.046zm15.88 3.854l13.62-66.608c2.57.496 5.14.901 7.74 1.191l-7.26 67.608c-4.64-.485-9.39-1.177-14.1-2.099v-.092zm30.29 3.06c-4.75-.026-9.51-.305-14.24-.767l7.12-67.609c2.58.244 5.17.396 7.77.433l-.65 67.943zm1.84.01l.65-67.943c2.57.014 5.14-.11 7.74-.303l5.82 67.657a152.2 152.2 0 01-14.21.681v-.092zm16.09-.74l-5.81-67.679c2.55-.239 5.1-.57 7.65-1.016l12.21 66.703c-4.71 1.009-9.38 1.65-14.1 2.084l.05-.092zm15.87-2.212L1374 765.456c2.53-.492 5.04-1.053 7.52-1.729l18.49 65.381c-4.6 1.331-9.23 2.386-13.85 3.257l.05-.092zm15.57-3.661l-18.48-65.381c2.48-.722 4.92-1.536 7.34-2.419l24.59 63.53a227.698 227.698 0 01-13.49 4.362l.04-.092zm15.22-5.11l-24.63-63.347c2.3-.952 4.79-2.019 7.11-3.132l30.58 60.759a158.153 158.153 0 01-13.11 5.811l.05-.091zm14.72-6.538l-30.58-60.759c2.31-1.183 4.61-2.48 6.92-3.823l36.29 57.642a174.57 174.57 0 01-12.68 7.032l.05-.092zm14.08-7.851l-36.29-57.642c2.31-1.412 4.36-2.918 6.46-4.561l41.76 53.95c-3.88 3.012-7.87 5.701-11.93 8.253zm13.4-9.325l-41.76-53.927a90.082 90.082 0 006.1-5.206l46.88 49.681a167.082 167.082 0 01-11.24 9.451l.02.001zm12.56-10.709l-46.9-49.703c1.96-1.874 3.83-3.817 5.66-5.852l51.59 44.857c-3.33 3.751-6.79 7.225-10.37 10.698h.02zm11.55-12.093l-51.59-44.857c1.27-1.51 2.54-3.066 3.75-4.576l56.31 38.886a191.525 191.525 0 01-8.47 10.547zm-2.27 50.241l32.08-46.173 5.08 3.521-32.12 46.218-5.04-3.566zm6.66 4.632l32.15-46.242 5.08 3.498-32.19 46.31-5.04-3.566zm6.69 4.632l32.19-46.012 5.08 3.498-32.24 46.378-5.03-3.864zm6.66 4.746l32.26-46.125 5.08 3.497-32.31 46.493-5.03-3.865zm6.68 4.632l32.33-46.125 5.08 3.52-32.42 46.562-4.99-3.957zm6.67 4.632l32.42-46.585 5.08 3.498-32.42 46.653-5.08-3.566zm6.66 4.632l32.42-46.677 5.06 3.521-32.42 46.722-5.06-3.566zm10.46 7.41l-3.78-2.663 32.42-46.769 5.11 3.498-32.42 46.814-1.33-.88zm2.91 2.014l32.42-46.814 5.1 3.521-32.42 46.791-5.1-3.498zm6.73 4.633l32.42-46.792 5.08 3.498-32.42 46.814-5.08-3.52zm6.73 4.632l32.42-46.815 5.08 3.521-32.42 46.791-5.08-3.497zm6.73 4.632l32.53-46.285 5.06 3.497-32.42 46.814-5.17-4.026zm6.73 4.632l32.42-46.814 5.08 3.52-32.42 46.791-5.08-3.497zm6.73 4.632l32.42-46.814 5.08 3.497-32.42 46.814-5.08-3.497zm6.73 4.632l32.42-46.814 5.08 3.52-32.42 46.792-5.08-3.498zm11.81 8.75l-5.09-3.497 32.43-46.814 5.08 3.497-32.42 46.814zm101.66-128.126l1.51 1.043-38.54 55.489-1.53-1.042-18.83 27.081-205.66-141.926 18.94-26.988-.83-.556c10.81-15.521 21.78-31.37 32.91-47.547l43.36 29.923a52.848 52.848 0 01-71.92 16.705l-.97 1.58a54.656 54.656 0 0074.4-17.243l9.43 6.508 1.07-1.511-54.44-37.543 4.63-6.661.92.648 17.65-25.387 205.66 141.926-17.76 25.501zm96.39 21.962l-70.97-48.915-67.39-46.483 17.85-25.684-1.53-1.066 28.99-41.731-.94-.649 2.48 1.691 12.92-18.588 138.34 95.466-59.75 85.959zm62.9-90.491l-138.34-95.467 12.92-18.611-1.53-1.042 28.39-40.862 38.6 26.634a47.076 47.076 0 01-29.06 20.54c-12 2.779-24.62.741-35.13-5.677l-.98 1.558a48.895 48.895 0 0036.51 5.947 48.878 48.878 0 0030.21-21.325l8.38 5.767 1.04-1.488-46.95-32.424 17.3-24.907 138.34 95.467-59.7 85.89zM1134.53 74.376l73.89 50.953 12.65-18.176-73.92-50.953-12.62 18.176zm81.39 33.737l-8.43 12.133-67.9-46.808 8.4-12.11 67.93 46.785zm100.06 64.607l-88.87-61.351-12.62 18.176 88.89 61.351 12.6-18.176zm-96.27-44.181l8.41-12.11 82.8 57.16-8.41 12.109-82.8-57.159zm183.38 104.281l-80.24-55.422-12.65 18.176 80.31 55.423 12.58-18.177zm-87.78-38.183l8.43-12.11 74.19 51.184-8.4 12.133-74.22-51.207zm-21.54-117.076c-14.51 23.176-4.05 56.367 21.46 72.659l.88-1.42c-24.64-15.736-34.8-47.846-20.78-70.22l-1.56-1.019zm56.38 35.693l-33.89 50.345 1.51 1.088 33.89-50.345-1.51-1.088zM964.279 443.422l-7.112 10.647 26.5-5.325-5.325-26.408-6.997 10.463-13.325-8.827-7.089 10.6 13.348 8.85z"/></g><g style="mix-blend-mode:soft-light" fill="#CCD3D6"><path d="M1217.74 405.236l-10.66 15.553.52.355 10.66-15.553-.52-.355zm-24.91 36.24l.52.361 10.69-15.534-.53-.349-10.68 15.522zm-14.25 20.704l.52.361 10.68-15.533-.51-.35-10.69 15.522zm53.4-77.622l-10.68 15.537.52.356 10.68-15.537-.52-.356zm17.82-25.897l.51.349 10.69-15.522-.52-.361-10.68 15.534zm-3.57 5.193l-10.68 15.537.52.356 10.68-15.537-.52-.356zm28.49-41.417l-10.69 15.528.52.356 10.69-15.527-.52-.357zm-99.7 144.919l-10.67 15.542.52.356 10.67-15.542-.52-.356zm-24.91 36.243l.51.349 10.68-15.533-.51-.35-10.68 15.534zM1434.93 89.5l.53.349 10.68-15.534-.52-.35-10.69 15.534zm-42.72 62.111l.52.349 10.68-15.522-.52-.361-10.68 15.534zm14.24-20.704l.52.349 10.68-15.522-.51-.361-10.69 15.534zm-128.17 186.334l.52.361 10.68-15.534-.52-.349-10.68 15.522zm142.41-207.038l.53.349 10.67-15.522-.51-.361-10.69 15.534zM1321 255.129l.53.361 10.68-15.533-.53-.35-10.68 15.522zm-14.24 20.705l.53.361 10.67-15.534-.52-.349-10.68 15.522zm71.21-103.519l.52.349 10.68-15.522-.52-.361-10.68 15.534zm-85.45 124.223l.53.361 10.67-15.534-.52-.349-10.68 15.522zm53.45-75.941l-10.75 15.459.52.358 10.74-15.459-.51-.358zm17.76-27.578l.52.349 10.68-15.522-.52-.361-10.68 15.534zm-14.24 20.703l.52.35 10.68-15.522-.53-.35-10.67 15.522zM1381.94 524l-42.76-29.216-.35.524L1380.82 524h1.12zm165.54-14.031L1355.77 378.98l.37-.512 191.7 130.977-.36.524zM1572 393.082l-158.63-108.387-.35.524L1572 393.839v-.757z"/><path d="M1326.28 524l45.3-65.849-.53-.349L1325.52 524h.76zm-115.44 0l85.36-124.095-.52-.361L1210.08 524h.76zM1048 222.91l2.68-3.89-.53-.361-2.15 3.133v1.118zm0 265.877l142.95-207.83-.52-.35L1048 487.681v1.106zm0-19.516v.757l3.42 2.341.35-.524-3.77-2.574z"/><path d="M1048 474.43c2.94.012 5.86.403 8.7 1.164a31.297 31.297 0 01-4.59-8.768l-1.16 4.821-2.95 2.038v.745zm80.1 49.57l-66.13-45.192-.36.524L1126.98 524h1.12z"/><path d="M1056.7 475.594a31.24 31.24 0 014.57 8.815l1.17-4.821 4.09-2.841c-3.32.135-6.64-.254-9.83-1.153zm-8.7-179.767v.769l43.9 29.996.36-.524-44.26-30.241zm0-127.902v.768l146.62 100.177.36-.524L1048 167.925zm213.72 13.914L1065.26 47.602l.35-.524 196.47 134.249-.36.512zM1310.7 0l86.17 58.874.35-.512L1311.82 0h-1.12zm-181.51 0l-38.5 55.975.51.35L1129.95 0h-.76z"/><path d="M1086.92 62.018a37.387 37.387 0 001.59-11.12l2.97 4.483 5.26 1.164a37.042 37.042 0 00-9.82 5.473zM1048 119.146l35.13-51.084-.51-.35L1048 118.03v1.117z"/><path d="M1086.92 62.019a37.789 37.789 0 01-9.81 5.519l5.28 1.165 2.87 4.436c-.02-3.77.54-7.52 1.66-11.12zm194.59 270.605l-64.5-44.238.36-.524 64.5 44.238-.36.524zm64.86-91.118l-66.13-45.192.35-.512 66.14 45.18-.36.524zm29.55-42.98l-87.52-59.806.36-.512 87.52 59.794-.36.524zm-6.34-12.902l-.51-.35 60.53-88.008.52.349-60.54 88.009z"/><path d="M1365.29 191.318a35.7 35.7 0 0110.36-5.135l-5.82-1.502-3.49-4.844a35.81 35.81 0 01-1.05 11.481zm68.61-99.746a35.549 35.549 0 00-1.09 11.482l-3.49-4.844-5.82-1.49a35.623 35.623 0 0010.4-5.148zm-93.88 137.032l-.51-.349 21.49-31.254.51.361-21.49 31.242z"/><path d="M1335.73 234.298a35.858 35.858 0 0110.36-5.147l-5.83-1.491-3.49-4.844c.28 3.858-.07 7.737-1.04 11.482zm29.56-42.98a35.47 35.47 0 00-1.07 11.47l-3.5-4.833-5.82-1.502a35.639 35.639 0 0010.39-5.135zm-88.62 129.393l-.52-.361 55.29-80.37.51.361-55.28 80.37z"/><path d="M1272.38 326.394c3.14-2.265 6.64-4 10.35-5.136l-5.82-1.502-3.5-4.832c.29 3.854-.06 7.728-1.03 11.47zm63.35-92.096a35.47 35.47 0 00-1.08 11.47l-3.49-4.844-5.82-1.491a35.739 35.739 0 0010.39-5.135zm-80.16 117.085l-.52-.361 13.03-18.934.52.349-13.03 18.946z"/><path d="M1251.28 357.065a36.126 36.126 0 0110.35-5.135l-5.82-1.49-3.5-4.844c.29 3.854-.06 7.728-1.03 11.469zm21.1-30.671a34.987 34.987 0 00-1.07 11.481l-3.5-4.844-5.82-1.491a35.869 35.869 0 0010.39-5.146zm178.52-139.641l-2.45-1.607.36-.524 2.43 1.666-.34.465zm-7.63-5.205l-15.58-10.643.36-.524 15.58 10.643-.36.524zm-20.78-14.194l-15.58-10.643.36-.524 15.58 10.643-.36.524zm-20.78-14.195l-15.58-10.643.36-.524 15.58 10.655-.36.512zm-20.77-14.194l-15.58-10.643.36-.524 15.58 10.654-.36.513zm-20.78-14.195l-15.58-10.655.37-.524 15.58 10.655-.37.524zm-20.77-14.148l-15.58-10.643.36-.524 15.58 10.655-.36.512zm-20.77-14.241l-15.61-10.643.36-.524 15.58 10.654-.33.513zm-20.78-14.195l-15.58-10.643.35-.524 15.59 10.655-.36.512zm-20.77-14.194l-15.58-10.643.35-.524 15.56 10.712-.33.455zm-20.77-14.195l-15.58-10.643.35-.524 15.59 10.655-.36.512zm-20.82-14.206l-15.58-10.643.34-.524 15.59 10.654-.35.513zm158.66 170.335a62.195 62.195 0 01-11.94-1.164l.11-.618a61.94 61.94 0 0011.83 1.165c2.3 0 4.59-.128 6.87-.384l.07.628c-2.3.253-4.62.377-6.94.373zm13.18-1.397l-.14-.617a61.728 61.728 0 0017.47-6.626l.3.547a62.338 62.338 0 01-17.63 6.696zm-31.27-1.258a62.402 62.402 0 01-17.05-8.151l.35-.524a61.451 61.451 0 0016.88 8.07l-.18.605zm54.3-8.803l-.41-.512a61.814 61.814 0 0013.44-12.984l.5.384a62.43 62.43 0 01-13.53 13.1v.012zm-76.4-3.156a62.044 62.044 0 01-12.51-14.183l.54-.337a61.162 61.162 0 0012.34 14.031l-.37.489zm93.55-15.137l-.54-.338a61.168 61.168 0 007.26-17.199l.6.151a62.237 62.237 0 01-7.32 17.351v.035zm-109.15-4.495a62.195 62.195 0 01-5.82-17.921l.62-.105c1.03 6.175 3 12.159 5.82 17.746l-.62.28zm117.69-19.074l-.62-.093c.42-2.911.63-5.85.64-8.792 0-3.304-.27-6.602-.81-9.862l.63-.105c.53 3.296.8 6.629.81 9.967a62.405 62.405 0 01-.65 8.85v.035zm-124.23-5.112a62.462 62.462 0 01-.13-3.877c.01-5.012.62-10.005 1.82-14.87l.62.151a61.05 61.05 0 00-1.81 14.742c0 1.269 0 2.562.12 3.843l-.62.011zm122.14-19.737a61.148 61.148 0 00-7.5-17.094l.54-.338a62.593 62.593 0 017.58 17.257l-.62.175zm-118.03-4.833l-.59-.209c1.8-5.06 4.24-9.866 7.27-14.299.54-.781 1.11-1.561 1.69-2.329l.5.372c-.58.769-1.16 1.549-1.66 2.329a61.156 61.156 0 00-7.21 14.136zm106.92-17.338a61.87 61.87 0 00-13.67-12.809 63.415 63.415 0 00-11.31-6.125l.25-.57a62.922 62.922 0 0125.22 19.061l-.49.443zm-93.99-3.866l-.46-.419a61.678 61.678 0 0114.81-11.715l.32.536a61.578 61.578 0 00-14.67 11.54v.058zm20.26-14.404l-.26-.57a62.738 62.738 0 0118.25-4.938l.08.617a62.655 62.655 0 00-18.07 4.833v.058zm42.85-2.702a62.05 62.05 0 00-18.54-2.585V85.4h.83c6.06 0 12.1.882 17.91 2.62l-.2.594z"/><path d="M1393.84 147.687l-3.49-18.503.61-.117 3.5 18.515-.62.105zm-4.66-24.675l-3.49-18.503.62-.116 3.49 18.503-.62.116zm-4.66-24.674l-.82-4.379.61-.105.83 4.367-.62.117z"/><path d="M1382.81 86.914a35.835 35.835 0 007.39 8.873l-5.9-.966-5.16 2.992a35.377 35.377 0 003.67-10.899z"/></g></g><defs><linearGradient id="paint0_linear_86_486" x1="720" y1="0" x2="720" y2="528" gradientUnits="userSpaceOnUse"><stop stop-color="#F1F1F1"/><stop offset=".163" stop-color="#F0F2F1"/><stop offset=".433" stop-color="#EBEDEC"/><stop offset=".725" stop-color="#E6E8E7"/><stop offset="1" stop-color="#DEE2E1"/></linearGradient></defs></svg>