<svg width="34" height="34" fill="none" xmlns="http://www.w3.org/2000/svg"><rect width="34" height="34" rx="10" fill="#fff"/><g clip-path="url(#clip0_38_1478)" fill="#78C081"><path d="M25.324 18.645H8.676a.996.996 0 01-.714-.304 1.052 1.052 0 01-.295-.734v-5.903c0-.275.107-.539.296-.733a.998.998 0 01.713-.304h16.648c.267 0 .524.11.713.304.19.194.296.458.296.733v5.903c0 .275-.106.54-.295.734a.996.996 0 01-.714.304zm-16.648-7.24a.288.288 0 00-.206.087.304.304 0 00-.085.212v5.903c0 .08.03.156.085.212a.287.287 0 00.206.088h16.648a.287.287 0 00.206-.088.304.304 0 00.085-.212v-5.903c0-.08-.03-.155-.085-.212a.288.288 0 00-.206-.087H8.676z"/><path d="M21.319 14.125H12.68a1.94 1.94 0 01-1.387-.592 2.05 2.05 0 01-.576-1.426v-1.071c0-.098.038-.192.105-.261a.354.354 0 01.508 0 .375.375 0 01.105.26v1.072c0 .34.132.665.365.905.234.24.55.375.88.376h8.638c.33-.001.647-.136.88-.376a1.3 1.3 0 00.365-.905v-1.071c0-.098.038-.192.105-.261a.354.354 0 01.508 0 .375.375 0 01.105.26v1.072c0 .535-.207 1.048-.576 1.427a1.94 1.94 0 01-1.387.591z"/><path d="M21.532 12.765h-9.064a.354.354 0 01-.254-.108.374.374 0 010-.522.354.354 0 01.254-.108h9.064a.36.36 0 01.254.108.374.374 0 010 .522.354.354 0 01-.254.108zm1.268 5.88a.354.354 0 01-.254-.108.374.374 0 01-.105-.261v-.162c0-.265-.103-.52-.286-.708a.963.963 0 00-.689-.293h-8.93a.963.963 0 00-.69.293 1.017 1.017 0 00-.285.709v.16a.374.374 0 01-.105.262.354.354 0 01-.508 0 .374.374 0 01-.105-.261v-.162c0-.46.179-.903.496-1.229a1.67 1.67 0 011.197-.51h8.931c.45 0 .88.184 1.197.51.317.326.496.768.496 1.23v.161a.377.377 0 01-.105.261.36.36 0 01-.255.108zm-12.522 4.531a.354.354 0 01-.254-.108.374.374 0 010-.522.354.354 0 01.254-.108 2.416 2.416 0 001.728-.737c.458-.471.716-1.11.717-1.776 0-.098.038-.192.106-.261a.354.354 0 01.507 0 .37.37 0 01.105.26c.001 1.793-1.418 3.252-3.163 3.252zm13.445 0c-1.745 0-3.164-1.46-3.164-3.251 0-.098.038-.192.105-.261a.354.354 0 01.508 0 .375.375 0 01.105.26c.001.667.259 1.306.717 1.777.459.47 1.08.736 1.729.737.095 0 .186.039.253.108a.374.374 0 010 .522.354.354 0 01-.253.108zM17 23.334a.354.354 0 01-.254-.109.374.374 0 01-.105-.26v-3.198c0-.098.038-.192.105-.26a.354.354 0 01.508 0 .371.371 0 01.105.26v3.198a.374.374 0 01-.105.26.354.354 0 01-.254.108z"/></g><defs><clipPath id="clip0_38_1478"><path fill="#fff" transform="translate(7 10)" d="M0 0h20v14H0z"/></clipPath></defs></svg>