<svg width="34" height="34" fill="none" xmlns="http://www.w3.org/2000/svg"><rect width="34" height="34" rx="10" fill="#fff"/><path d="M27.408 18.73v-.033l-.113-.118-3.564-4.746V8.386l-.31-.325h-12.64l-.31.325v5.447l-3.564 4.746-.113.119v.031l-.025.034.025.021v1.703c0 .373.142.73.393.995.251.263.592.412.947.412h17.934c.355 0 .696-.149.947-.413.251-.263.392-.621.393-.994v-1.703l.025-.021-.025-.034zM11.09 8.71h12.022v4.912H11.09V8.71zm-.16 5.561h12.342l3.08 4.102H7.85l3.08-4.102zm15.86 6.216a.784.784 0 01-.212.536.705.705 0 01-.51.222H8.134a.705.705 0 01-.51-.222.778.778 0 01-.211-.536v-1.465h19.376v1.465z" fill="#78C081"/><path d="M13.644 10.357l-.31.325v1.902l.31.325h6.915l.31-.325v-1.902l-.31-.325h-6.915zm6.606 1.902h-6.297v-1.252h6.297v1.252zm-6.427 11.458c.015-.205.2-.451.495-.781l-.451-.445c-.798.894-.931 1.409-.087 2.518.257.337.361.642.312.907-.07.371-.427.583-.43.585l.148.285.146.287c.025-.015.61-.352.741-1.022.09-.464-.055-.95-.433-1.447-.323-.425-.455-.69-.44-.887zm3.139 0c.014-.205.2-.451.495-.781l-.452-.445c-.798.894-.93 1.409-.086 2.518.256.337.36.642.31.907-.069.371-.426.583-.43.585l.15.285.146.287c.024-.014.61-.352.74-1.022.09-.464-.055-.95-.433-1.447-.323-.425-.455-.69-.44-.887zm3.138 0c.014-.205.2-.451.494-.781l-.451-.445c-.798.894-.931 1.409-.087 2.518.256.337.361.642.311.907-.07.371-.426.583-.43.585l.149.285.146.287c.025-.014.61-.352.741-1.022.09-.464-.055-.95-.433-1.447-.323-.425-.455-.69-.44-.887zm.9-3.576a.5.5 0 11-1 0 .5.5 0 011 0zm2 0a.5.5 0 11-1 0 .5.5 0 011 0zm2 0a.5.5 0 11-1 0 .5.5 0 011 0z" fill="#78C081"/></svg>