<svg width="34" height="34" fill="none" xmlns="http://www.w3.org/2000/svg"><rect width="34" height="34" rx="10" fill="#fff"/><g clip-path="url(#clip0_38_1495)" fill="#78C081"><path d="M17.97 11.29v3.566c0 .152.13.276.293.276h7.181c.162 0 .293-.124.293-.276V11.29c0-.153-.13-.276-.293-.276h-7.181c-.162 0-.293.123-.293.276zm.586 1.465h6.595v.637h-6.595v-.637zm0 1.825v-.637h6.595v.637h-6.595zm6.595-3.014v.637h-6.595v-.637h6.595zm-16.595-.551c-.162 0-.293.123-.293.276v3.565c0 .152.13.276.293.276h7.181c.162 0 .293-.124.293-.276V11.29c0-.153-.13-.276-.293-.276H8.556zm.293 1.74h6.595v.637H8.85v-.637zm0 1.825v-.637h6.595v.637H8.85zm6.595-3.014v.637H8.85v-.637h6.595z"/><path d="M21.094 24.038a.264.264 0 000-.39.306.306 0 00-.414 0l-.29.273v-.078c0-.124.035-.171.105-.265a.885.885 0 00.211-.581.885.885 0 00-.21-.582c-.07-.094-.105-.14-.105-.265s.035-.172.104-.265a.885.885 0 00.211-.582.918.918 0 00-.027-.23h2.875a.332.332 0 01.078.23c0 .125-.035.172-.105.265a.885.885 0 00-.21.582c0 .299.121.462.21.582.07.093.105.14.105.265 0 .124-.035.171-.105.265a.885.885 0 00-.21.581v.078l-.29-.273a.306.306 0 00-.414 0 .267.267 0 00-.086.195c0 .071.029.142.086.195l.79.743c.114.108.3.108.414 0l.789-.743a.264.264 0 000-.39.306.306 0 00-.415 0l-.289.273v-.078c0-.124.035-.171.105-.265a.879.879 0 00.211-.581c0-.3-.122-.463-.21-.582-.07-.094-.106-.14-.106-.265s.035-.172.105-.265a.885.885 0 00.211-.582.919.919 0 00-.027-.23h1.727c.597 0 1.082-.456 1.082-1.018v-9.21c0-.562-.485-1.018-1.082-1.018H12.791c-.162 0-.293.123-.293.275 0 .153.13.276.293.276h13.127c.274 0 .496.21.496.467v9.21c0 .258-.223.467-.496.467h-2.011a.459.459 0 01-.005-.066c0-.124.035-.171.105-.265a.986.986 0 00.17-.306h1.267c.162 0 .293-.123.293-.275v-3.566c0-.152-.13-.275-.293-.275h-7.181c-.162 0-.293.123-.293.275v3.566c0 .152.13.275.293.275h1.744a.876.876 0 00-.2.637h-1.124c-.162 0-.293.124-.293.276 0 .152.131.276.293.276h1.359a.332.332 0 01.078.23c0 .124-.035.17-.105.264a.885.885 0 00-.21.582c0 .299.122.462.21.582.07.093.105.14.105.265 0 .124-.035.171-.105.265a.885.885 0 00-.21.581v.078l-.29-.273a.306.306 0 00-.414 0 .267.267 0 00-.086.195c0 .071.029.142.086.195l.79.743c.114.108.3.108.414 0l.789-.743zm4.057-5.893h-6.595v-.636h6.595v.636zm0-1.825v.637h-6.595v-.637h6.595zm-6.595 3.014v-.637h6.595v.637h-6.595zm1.834 1.122c0-.124.035-.171.105-.265a.986.986 0 00.17-.306h2.855a.875.875 0 00-.201.637h-2.924a.444.444 0 01-.005-.066z"/><path d="M12.906 23.648a.267.267 0 00-.086.195c0 .071.029.142.086.195l.79.743c.114.108.3.108.414 0l.789-.742a.264.264 0 000-.39.306.306 0 00-.414 0l-.29.272v-.078c0-.124.035-.171.105-.265a.879.879 0 00.211-.581c0-.3-.122-.463-.21-.582-.07-.094-.106-.14-.106-.265s.035-.172.105-.265a.885.885 0 00.211-.582.923.923 0 00-.027-.23h2.832c.162 0 .293-.123.293-.275 0-.152-.132-.276-.293-.276H14.2a.46.46 0 01-.005-.066c0-.124.035-.171.105-.264.057-.077.127-.17.17-.306h1.267c.162 0 .293-.124.293-.276v-3.566c0-.152-.13-.275-.293-.275H8.556c-.162 0-.293.123-.293.275v3.566c0 .152.13.276.293.276H10.3a.875.875 0 00-.201.636H8.082c-.273 0-.496-.21-.496-.467v-9.21c0-.257.223-.467.496-.467h3.341c.162 0 .293-.123.293-.276 0-.152-.13-.275-.292-.275H8.082c-.597 0-1.082.457-1.082 1.018v9.21c0 .562.485 1.019 1.082 1.019h2.253a.332.332 0 01.078.23c0 .124-.035.17-.104.264-.09.12-.211.283-.211.582s.122.462.21.582c.07.093.105.14.105.265 0 .124-.035.171-.104.265a.885.885 0 00-.211.581v.078l-.29-.273a.306.306 0 00-.414 0 .267.267 0 00-.086.195c0 .071.029.142.086.195l.79.743c.114.108.3.108.414 0l.789-.743a.264.264 0 000-.39.306.306 0 00-.414 0l-.29.273v-.078c0-.124.036-.171.105-.265a.885.885 0 00.211-.581c0-.3-.122-.463-.21-.582-.07-.094-.105-.14-.105-.265s.035-.172.104-.265a.885.885 0 00.211-.582.923.923 0 00-.027-.23h2.875a.332.332 0 01.078.23c0 .125-.035.172-.105.265-.088.12-.21.283-.21.582s.122.462.21.582c.07.093.105.14.105.265 0 .124-.035.171-.105.265-.088.12-.21.283-.21.581v.078l-.29-.273a.306.306 0 00-.414 0zm2.538-5.503H8.85v-.636h6.595v.636zm0-1.825v.637H8.85v-.637h6.595zM8.85 19.334v-.637h6.595v.637H8.85zm1.835 1.122c0-.124.035-.171.104-.265a.986.986 0 00.17-.306h2.854a.875.875 0 00-.2.637h-2.924a.459.459 0 01-.004-.066z"/></g><defs><clipPath id="clip0_38_1495"><path fill="#fff" transform="rotate(90 9 18)" d="M0 0h16v20H0z"/></clipPath></defs></svg>