<svg width="34" height="34" fill="none" xmlns="http://www.w3.org/2000/svg"><rect width="34" height="34" rx="10" fill="#fff"/><g clip-path="url(#clip0_86_1807)" fill="#78C081"><path d="M17 7.625A9.375 9.375 0 1026.375 17 9.385 9.385 0 0017 7.625zm0 18.125A8.75 8.75 0 1125.75 17 8.76 8.76 0 0117 25.75z"/><path d="M17 10.125A6.875 6.875 0 1023.875 17 6.883 6.883 0 0017 10.125zm0 13.125A6.25 6.25 0 1123.25 17 6.257 6.257 0 0117 23.25z"/><path d="M18.48 15.854a1.885 1.885 0 00-.183-.204 3.73 3.73 0 01.434-.875c.098-.142.188-.267.268-.38.379-.53.607-.85.607-1.399 0-.792-.936-1.647-2.448-1.647a2.812 2.812 0 00-2.272.968 1.88 1.88 0 00-.377 1.912l.757 2.06a1.852 1.852 0 00-.085.263c-.32.063-.647.084-.973.062a28.707 28.707 0 01-.463-.043c-.649-.063-1.04-.1-1.515.174a1.464 1.464 0 00-.649 1.183 2.988 2.988 0 00.446 1.76A2.813 2.813 0 0014 21.173c.134.026.27.038.405.039a1.835 1.835 0 001.44-.668l1.406-1.687c.091-.012.181-.03.27-.056.215.245.396.518.54.811l.194.422c.27.594.433.952.908 1.226.181.1.386.152.593.149.665 0 1.49-.461 2.058-1.445a2.812 2.812 0 00.297-2.452 1.879 1.879 0 00-1.466-1.283l-2.166-.374zM17 18.25a1.25 1.25 0 110-2.5 1.25 1.25 0 010 2.5zm-1.64-5.526a2.195 2.195 0 011.798-.75c1.174 0 1.823.604 1.823 1.022 0 .334-.11.503-.49 1.036-.083.115-.174.243-.274.388a4.325 4.325 0 00-.454.87 1.864 1.864 0 00-2.065.364l-.603-1.64a1.27 1.27 0 01.266-1.29zm.006 7.42a1.27 1.27 0 01-1.25.414 2.195 2.195 0 01-1.548-1.182 2.442 2.442 0 01-.364-1.393.888.888 0 01.338-.697c.289-.167.49-.156 1.142-.093.14.014.297.03.473.043.327.024.655.01.978-.04a1.878 1.878 0 001.35 1.605l-1.12 1.342zm6.157-2.426a2.196 2.196 0 01-.25 1.932c-.586 1.017-1.435 1.277-1.796 1.068-.29-.167-.38-.346-.652-.943a28.065 28.065 0 00-.2-.431 4.325 4.325 0 00-.526-.828 1.857 1.857 0 00.718-1.97l1.722.298a1.27 1.27 0 01.984.874zM17 9.5a.312.312 0 100-.625.312.312 0 000 .625zm0 15.625a.312.312 0 100-.625.312.312 0 000 .625zm-7.812-7.812a.312.312 0 100-.625.312.312 0 000 .625zm15.625 0a.312.312 0 100-.625.312.312 0 000 .625z"/></g><defs><clipPath id="clip0_86_1807"><path fill="#fff" transform="translate(7 7)" d="M0 0h20v20H0z"/></clipPath></defs></svg>