<svg width="34" height="34" fill="none" xmlns="http://www.w3.org/2000/svg"><rect width="34" height="34" rx="10" fill="#fff"/><g clip-path="url(#clip0_86_1841)" fill="#78C081"><path d="M25 27H9a2.002 2.002 0 01-2-2V9a2.002 2.002 0 012-2h16a2.002 2.002 0 012 2v16a2.002 2.002 0 01-2 2zm1.333-18c0-.736-.597-1.333-1.333-1.333H9c-.736 0-1.333.597-1.333 1.333v16c0 .736.597 1.333 1.333 1.333h16c.736 0 1.333-.597 1.333-1.333V9z"/><path d="M9.5 23.333a1.167 1.167 0 110 2.334 1.167 1.167 0 010-2.334zM9.5 25a.5.5 0 100-1 .5.5 0 000 1zm15 .667a1.167 1.167 0 110-2.334 1.167 1.167 0 010 2.334zm0-1.667a.5.5 0 100 1 .5.5 0 000-1zm-15-13.333a1.167 1.167 0 110-2.334 1.167 1.167 0 010 2.334zM9.5 9a.5.5 0 100 1 .5.5 0 000-1zm15 1.667a1.167 1.167 0 110-2.334 1.167 1.167 0 010 2.334zM24.5 9a.5.5 0 100 1 .5.5 0 000-1zm.15 12.343l-.6 1a.67.67 0 01-.572.324H10.522a.67.67 0 01-.572-.324l-.6-1a.667.667 0 01.572-1.01h14.156a.667.667 0 01.572 1.01zM9.922 21l.6 1h12.956l.6-1H9.922zm14.728-2.657l-.6 1a.67.67 0 01-.572.324H10.522a.67.67 0 01-.572-.324l-.6-1a.667.667 0 01.572-1.01h14.156a.667.667 0 01.572 1.01zM9.922 18l.6 1h12.956l.6-1H9.922zm14.728-2.657l-.6 1a.67.67 0 01-.572.324H10.522a.67.67 0 01-.572-.324l-.6-1a.667.667 0 01.572-1.01h14.156a.667.667 0 01.572 1.01zM9.922 15l.6 1h12.956l.6-1H9.922zm14.128-1.657a.67.67 0 01-.572.324H10.522a.67.67 0 01-.572-.324l-.6-1a.667.667 0 01.572-1.01h14.156a.667.667 0 01.572 1.01l-.6 1zM9.921 12l.6 1h12.956l.6-1H9.922z"/></g><defs><clipPath id="clip0_86_1841"><path fill="#fff" transform="matrix(1 0 0 -1 7 27)" d="M0 0h20v20H0z"/></clipPath></defs></svg>