<svg width="34" height="34" fill="none" xmlns="http://www.w3.org/2000/svg"><rect width="34" height="34" rx="10" fill="#fff"/><g clip-path="url(#clip0_86_1825)"><path d="M19.564 7.91c1.523 0 6.527 8.295 6.527 11.482 0 3.7-2.922 6.699-6.527 6.699-.85 0-1.678-.167-2.45-.488a.483.483 0 01-.257-.623.462.462 0 01.607-.264 5.45 5.45 0 002.1.418c3.09 0 5.595-2.61 5.595-5.742-.104-3.335-4.69-10.003-5.631-10.519-.968.548-3.957 5.543-4.709 7.374a.462.462 0 01-.614.246.484.484 0 01-.24-.63c.854-2.225 4.27-7.836 5.6-7.954zm-2.33 14.832c.256 0 .465.214.465.478a.467.467 0 01-.466.479c-.716 0-1.27.957-2.33.957s-1.598-.957-2.332-.957c-.733 0-1.258.957-2.33.957-.747 0-1.478-.375-2.192-1.094a.487.487 0 01-.007-.677.458.458 0 01.66-.007c.554.558 1.066.82 1.538.82.654 0 1.252-.956 2.331-.956 1.08 0 1.63.957 2.33.957.7 0 1.189-.957 2.332-.957zm-4-2.914c1.122 0 1.664.957 2.335.957.469.005.979-.257 1.532-.819a.458.458 0 01.66.004c.18.188.179.49-.004.677-.716.726-1.448 1.095-2.198 1.095-1.079 0-1.587-.957-2.326-.957-.74 0-1.261.957-2.33.957-1.068 0-1.595-.957-2.332-.957a.472.472 0 01-.466-.479c0-.264.209-.478.466-.478 1.116 0 1.646.957 2.33.957.683 0 1.21-.957 2.332-.957zm4-2.828c.256 0 .465.214.465.479a.477.477 0 01-.466.478c-.774 0-1.238.954-2.33.957-1.09.003-1.588-.957-2.332-.957-.744 0-1.237.957-2.33.957-.747 0-1.478-.375-2.192-1.094a.487.487 0 01-.007-.676.458.458 0 01.66-.007c.554.557 1.066.82 1.538.82.676-.003 1.23-.957 2.331-.957 1.1 0 1.634.959 2.33.957.695-.002 1.215-.957 2.332-.957z" fill="#78C081"/></g><defs><clipPath id="clip0_86_1825"><path fill="#fff" transform="translate(7 7)" d="M0 0h20v20H0z"/></clipPath></defs></svg>