<svg width="34" height="34" fill="none" xmlns="http://www.w3.org/2000/svg"><rect width="34" height="34" rx="10" fill="#fff"/><path d="M26.587 24.578h-.276V10.39c0-.97-.79-1.76-1.76-1.76h-.456a1.241 1.241 0 00-1.205-.948H10.924c-.584 0-1.074.405-1.205.948h-.27c-.97 0-1.76.79-1.76 1.76v14.189h-.276a.414.414 0 00-.413.413v.915c0 .228.185.413.413.413h19.174a.414.414 0 00.413-.413v-.915a.414.414 0 00-.413-.413zM8.27 10.388a1.18 1.18 0 011.178-1.177h1.842a.291.291 0 000-.582h-.956a.657.657 0 01.588-.366H22.89c.258 0 .48.15.588.366h-10.91a.291.291 0 100 .582h11.983c.65 0 1.178.529 1.178 1.178v.094H8.27v-.094zm0 1.776h1.998c.403 0 .731.328.731.731v9.946a.732.732 0 01-.731.731H8.27V12.164zm-.688 13.573v-.576h1.456a.291.291 0 000-.583H8.27v-.423h1.998c.724 0 1.313-.59 1.313-1.314v-9.946c0-.724-.589-1.313-1.313-1.313H8.27v-.516h8.438v2.987a.291.291 0 00.582 0v-2.987h8.438v.515H23.73c-.724 0-1.314.59-1.314 1.314v9.946c0 .724.59 1.314 1.314 1.314h1.998v.423H17.29v-9.344a.291.291 0 00-.582 0v9.344h-6.415a.291.291 0 100 .583h16.123v.576H7.584zm18.146-13.573v11.409H23.73a.732.732 0 01-.73-.733v-9.946c0-.403.328-.73.731-.73h1.998z" fill="#78C081"/><path d="M10.092 12.672H8.957a.291.291 0 000 .582h1.135a.291.291 0 000-.582zm0 1.09H8.957a.291.291 0 000 .582h1.135a.291.291 0 000-.582zm0 1.09H8.957a.291.291 0 000 .582h1.135a.291.291 0 000-.582zm0 1.09H8.957a.291.291 0 100 .582h1.135a.291.291 0 000-.582zm0 1.09H8.957a.291.291 0 100 .582h1.135a.291.291 0 000-.582zm0 1.09H8.957a.291.291 0 100 .583h1.135a.291.291 0 000-.583zm0 1.09H8.957a.291.291 0 100 .583h1.135a.291.291 0 000-.583zm0 1.09H8.957a.291.291 0 000 .583h1.135a.291.291 0 100-.583zm0 1.09H8.957a.291.291 0 000 .583h1.135a.291.291 0 000-.583zm0 1.09H8.957a.291.291 0 000 .583h1.135a.291.291 0 100-.583zm5.665-9.81h-3.189a.291.291 0 100 .582h3.19a.291.291 0 100-.582zm0-1.09h-3.189a.291.291 0 100 .582h3.19a.291.291 0 100-.582zm0 11.998h-3.189a.291.291 0 100 .583h3.19a.291.291 0 100-.582zm0-9.818h-3.189a.291.291 0 100 .582h3.19a.291.291 0 100-.582zm0 1.09h-3.189a.291.291 0 100 .582h3.19a.291.291 0 100-.582zm0 1.09h-3.189a.291.291 0 100 .582h3.19a.291.291 0 100-.582zm0 1.09h-3.189a.291.291 0 100 .582h3.19a.291.291 0 100-.582zm0 1.09h-3.189a.291.291 0 100 .583h3.19a.291.291 0 100-.583zm0 1.09h-3.189a.291.291 0 100 .583h3.19a.291.291 0 100-.583zm0 1.09h-3.189a.291.291 0 100 .583h3.19a.291.291 0 100-.583zm0 1.09h-3.189a.291.291 0 100 .583h3.19a.291.291 0 100-.583zm0 1.09h-3.189a.291.291 0 100 .583h3.19a.291.291 0 100-.583zm9.287-9.81h-1.136a.291.291 0 100 .582h1.136a.291.291 0 000-.582zm0 1.09h-1.136a.291.291 0 000 .582h1.136a.291.291 0 000-.582zm0 1.09h-1.136a.291.291 0 000 .582h1.136a.291.291 0 000-.582zm0 1.09h-1.136a.291.291 0 000 .582h1.136a.291.291 0 000-.582zm0 1.09h-1.136a.291.291 0 000 .582h1.136a.291.291 0 000-.582zm0 1.09h-1.136a.291.291 0 000 .583h1.136a.291.291 0 000-.583zm0 1.09h-1.136a.291.291 0 100 .583h1.136a.291.291 0 000-.583zm0 1.09h-1.136a.291.291 0 000 .583h1.136a.291.291 0 100-.583zm0 1.09h-1.136a.291.291 0 000 .583h1.136a.291.291 0 000-.583zm0 1.09h-1.136a.291.291 0 000 .583h1.136a.291.291 0 000-.583zm-3.612-9.81h-3.228a.291.291 0 000 .582h3.228a.291.291 0 100-.582zm0-1.09h-3.228a.291.291 0 000 .582h3.228a.291.291 0 100-.582zm0 11.998h-3.228a.291.291 0 000 .583h3.228a.291.291 0 100-.582zm0-9.818h-3.228a.291.291 0 000 .582h3.228a.291.291 0 100-.582zm0 1.09h-3.228a.291.291 0 000 .582h3.228a.291.291 0 100-.582zm0 1.09h-3.228a.291.291 0 000 .582h3.228a.291.291 0 100-.582zm0 1.09h-3.228a.291.291 0 000 .582h3.228a.291.291 0 100-.582zm0 1.09h-3.228a.291.291 0 000 .583h3.228a.291.291 0 100-.583zm0 1.09h-3.228a.291.291 0 100 .583h3.228a.291.291 0 100-.583zm0 1.09h-3.228a.291.291 0 000 .583h3.228a.291.291 0 100-.583zm0 1.09h-3.228a.291.291 0 000 .583h3.228a.291.291 0 100-.583zm0 1.09h-3.228a.291.291 0 000 .583h3.228a.291.291 0 100-.583z" fill="#78C081"/></svg>