<svg width="34" height="34" fill="none" xmlns="http://www.w3.org/2000/svg"><rect width="34" height="34" rx="10" fill="#fff"/><g clip-path="url(#clip0_86_1836)" fill="#78C081"><path fill-rule="evenodd" clip-rule="evenodd" d="M21.348 23.402a.03.03 0 01-.03-.031v-.991a.296.296 0 00-.286-.299h-.014a.296.296 0 00-.286.3v.99c0 .347.276.629.616.629h2.589c.34 0 .616-.282.616-.63v-.99a.296.296 0 00-.285-.299h-.015a.296.296 0 00-.285.3v.99a.03.03 0 01-.031.031h-2.589zm-8.542-7.412a.29.29 0 00.414 0l1.917-1.957a.706.706 0 00-.06-1.048 4.135 4.135 0 00-2.143-.904l-.01-.002a.692.692 0 00-.755.699v2.767c0 .165.131.299.293.299a.296.296 0 00.293-.299v-2.767c0-.061.052-.11.114-.103a3.555 3.555 0 011.842.778.107.107 0 01.011.157l-1.916 1.956a.303.303 0 000 .423z"/><path fill-rule="evenodd" clip-rule="evenodd" d="M8.289 15.858a.699.699 0 00.683.78h2.712a.296.296 0 00.293-.299.296.296 0 00-.293-.298H8.972a.104.104 0 01-.1-.117c.077-.706.35-1.351.762-1.88a.102.102 0 01.154-.011l1.916 1.956a.29.29 0 00.415 0 .303.303 0 000-.423l-1.917-1.956a.678.678 0 00-1.027.062 4.313 4.313 0 00-.886 2.186z"/><path fill-rule="evenodd" clip-rule="evenodd" d="M11.99 20.599a.691.691 0 00.765-.698v-2.767a.296.296 0 00-.293-.299.296.296 0 00-.293.3V19.9c0 .061-.052.11-.114.103a3.555 3.555 0 01-1.842-.778.107.107 0 01-.011-.157l1.917-1.956a.303.303 0 000-.423.289.289 0 00-.415 0l-1.916 1.956a.714.714 0 00.06 1.048m2.142.904a4.136 4.136 0 01-2.142-.904l2.142.905z"/><path fill-rule="evenodd" clip-rule="evenodd" d="M14.722 19.07a.68.68 0 001.027-.062 4.313 4.313 0 00.886-2.187.7.7 0 00-.683-.78H13.24a.296.296 0 00-.293.299c0 .165.13.299.293.299h2.71c.06 0 .109.053.102.116a3.708 3.708 0 01-.762 1.88.102.102 0 01-.154.011L13.22 16.69a.289.289 0 00-.415 0 .303.303 0 000 .423l1.917 1.956z"/><path fill-rule="evenodd" clip-rule="evenodd" d="M11.39 16.34c0 .604.48 1.093 1.072 1.093.592 0 1.072-.49 1.072-1.093 0-.604-.48-1.094-1.072-1.094-.592 0-1.072.49-1.072 1.094zm1.072.495a.49.49 0 01-.485-.495.49.49 0 01.485-.496.49.49 0 01.486.496.49.49 0 01-.486.495zm9.408-.845a.29.29 0 00.415 0l1.917-1.957a.712.712 0 00-.06-1.048 4.135 4.135 0 00-2.143-.904.694.694 0 00-.765.697v2.767c0 .165.131.299.293.299a.296.296 0 00.293-.299v-2.767c0-.061.053-.11.114-.103a3.555 3.555 0 011.842.778.107.107 0 01.012.157l-1.917 1.956a.303.303 0 000 .423z"/><path fill-rule="evenodd" clip-rule="evenodd" d="M17.354 15.858a.697.697 0 00.684.78h2.71a.296.296 0 00.294-.299.296.296 0 00-.293-.298h-2.711a.104.104 0 01-.102-.117 3.71 3.71 0 01.763-1.88.102.102 0 01.154-.011l1.917 1.956c.114.117.3.117.414 0a.303.303 0 000-.423l-1.917-1.956a.68.68 0 00-1.027.062 4.314 4.314 0 00-.886 2.186z"/><path fill-rule="evenodd" clip-rule="evenodd" d="M21.055 20.599a.694.694 0 00.765-.698v-2.767a.296.296 0 00-.293-.299.296.296 0 00-.293.3V19.9c0 .061-.052.11-.114.103a3.555 3.555 0 01-1.842-.778.107.107 0 01-.01-.157l1.916-1.956a.303.303 0 000-.423.289.289 0 00-.414 0l-1.917 1.956c-.294.3-.26.788.06 1.048m2.142.905a4.136 4.136 0 01-2.142-.905l2.142.905z"/><path fill-rule="evenodd" clip-rule="evenodd" d="M23.788 19.07a.68.68 0 001.026-.063 4.312 4.312 0 00.887-2.186.697.697 0 00-.684-.78h-2.711a.296.296 0 00-.293.299c0 .165.131.299.293.299h2.711c.06 0 .108.053.101.116a3.709 3.709 0 01-.762 1.88.102.102 0 01-.154.011l-1.917-1.956a.289.289 0 00-.414 0 .303.303 0 000 .423l1.917 1.956z"/><path fill-rule="evenodd" clip-rule="evenodd" d="M17.328 16.34c0 2.366 1.88 4.285 4.2 4.285 2.319 0 4.199-1.919 4.199-4.285 0-2.367-1.88-4.286-4.2-4.286-2.319 0-4.2 1.919-4.2 4.286zm4.2 3.687c-1.996 0-3.614-1.65-3.614-3.688 0-2.036 1.618-3.687 3.613-3.687 1.996 0 3.614 1.65 3.614 3.688 0 2.036-1.618 3.687-3.614 3.687z"/><path fill-rule="evenodd" clip-rule="evenodd" d="M20.456 16.34c0 .604.48 1.093 1.071 1.093.592 0 1.072-.49 1.072-1.093 0-.604-.48-1.094-1.072-1.094-.591 0-1.071.49-1.071 1.094zm1.071.495a.49.49 0 01-.485-.495.49.49 0 01.485-.496.49.49 0 01.486.496.49.49 0 01-.486.495zM9.446 23.37c0 .348.277.63.617.63h2.589c.34 0 .616-.282.616-.63v-.99a.296.296 0 00-.286-.299h-.014a.296.296 0 00-.286.3v.99a.03.03 0 01-.03.031h-2.589a.03.03 0 01-.03-.031v-.991a.296.296 0 00-.286-.299h-.015a.296.296 0 00-.286.3v.99zm6.309-3.044c0 .165.13.3.293.3h1.894a.296.296 0 00.293-.3.296.296 0 00-.293-.299h-1.894a.296.296 0 00-.293.3z"/><path d="M20.732 22.38c0-.163.127-.295.286-.299h-8.036a.296.296 0 01.286.3v.298h7.464v-.299zm-8.05 0c0-.163.127-.295.286-.299H9.747a.296.296 0 01.285.3v.298h2.65v-.299zm8.636 0v.3h2.65v-.3c0-.163.127-.295.285-.299h-3.221a.296.296 0 01.286.3z"/><path d="M8.082 22.081a.502.502 0 01-.496-.506v-10.47c0-.28.222-.507.496-.507h17.836c.274 0 .496.227.496.506v10.47c0 .28-.222.507-.496.507h-1.65a.296.296 0 01.285.3v.298h1.365c.597 0 1.082-.494 1.082-1.104v-10.47c0-.61-.485-1.105-1.082-1.105H8.082C7.485 10 7 10.494 7 11.104v10.47c0 .61.485 1.105 1.082 1.105h1.364v-.299c0-.163.128-.295.286-.299h-1.65z"/><path d="M12.178 12.663a.692.692 0 01.746-.584 4.178 4.178 0 00-1.449.094c-.927.275-1.63.764-2.137 1.347a.678.678 0 01.753-.002 3.275 3.275 0 011.522-.764c.183-.045.372-.076.565-.091zm2.903.327c.286.235.34.656.13.955.481.575.793 1.304.854 2.105a.7.7 0 01.57.771 4.313 4.313 0 01-.886 2.186.68.68 0 01-.94.137 3.56 3.56 0 01-2.063.872.691.691 0 01-.756.583 4.136 4.136 0 01-2.142-.905.714.714 0 01-.134-.96 3.712 3.712 0 01-.854-2.105.699.699 0 01-.575-.695 3.865 3.865 0 00-.022.405c0 2.368 1.88 4.286 4.2 4.286 2.318 0 4.199-1.918 4.199-4.286a4.31 4.31 0 00-1.581-3.35z"/></g><defs><clipPath id="clip0_86_1836"><path fill="#fff" transform="translate(7 10)" d="M0 0h20v14H0z"/></clipPath></defs></svg>