<svg width="34" height="34" fill="none" xmlns="http://www.w3.org/2000/svg"><rect width="34" height="34" rx="10" fill="#fff"/><g clip-path="url(#clip0_86_1802)" fill="#78C081"><path d="M26.826 21.552l-2.05-1.026-1.304-3.393a.31.31 0 00-.175-.178L15.2 13.719a.313.313 0 00-.335.068l-1.08 1.08a.313.313 0 00-.067.334l3.236 8.096a.312.312 0 00.178.175l3.393 1.304 1.026 2.05a.312.312 0 00.23.174.261.261 0 00.05 0 .313.313 0 00.22-.092l4.856-4.857a.313.313 0 00.092-.27.313.313 0 00-.174-.23zM14.373 15.16l.174-.172 4.03 4.03a1.839 1.839 0 10.442-.442l-4.03-4.03.172-.174 7.777 3.111 1.226 3.19-3.489 3.49-3.19-1.227-3.112-7.776zm5.705 3.703a1.214 1.214 0 11-.003 2.428 1.214 1.214 0 01.003-2.428zm1.84 7.295l-.782-1.562 3.458-3.458 1.562.781-4.239 4.24z"/><path d="M12.976 23.719a.321.321 0 00-.442 0l-.397.397a8.58 8.58 0 01-.156-9.96 1.603 1.603 0 002.181-2.17 8.58 8.58 0 019.96.156l-.403.392a.312.312 0 000 .442l1.378 1.368a.312.312 0 00.44 0l1.37-1.37a.311.311 0 000-.443l-1.37-1.37a.313.313 0 00-.44 0l-.53.527a9.204 9.204 0 00-9.234-1.074l1.801-1.797a.958.958 0 10-.447-.442l-3.04 3.045a1.605 1.605 0 00-2.227 2.227l-3.045 3.04a.96.96 0 10.442.443l1.802-1.797a9.205 9.205 0 001.069 9.234l-.529.53a.313.313 0 000 .44l1.37 1.37a.312.312 0 00.443 0l1.372-1.37a.313.313 0 000-.44l-1.367-1.378zM25.32 11.82l.928.928-.928.929-.928-.929.928-.928zm-8.008-4.097a.333.333 0 11.473.469.333.333 0 01-.473-.469zm-5.25 4.34a.975.975 0 011.385 0 .98.98 0 11-1.384 0zM8.194 17.78a.333.333 0 01-.469-.468.334.334 0 01.54.107.331.331 0 01-.071.361zm4.56 8.458l-.928-.928.929-.928.928.928-.928.928z"/></g><defs><clipPath id="clip0_86_1802"><path fill="#fff" transform="translate(7 7)" d="M0 0h20v20H0z"/></clipPath></defs></svg>