<svg width="34" height="34" fill="none" xmlns="http://www.w3.org/2000/svg"><rect width="34" height="34" rx="10" fill="#fff"/><g clip-path="url(#clip0_167_62)" fill="#78C081"><path d="M8.875 26.688h16.25a1.565 1.565 0 001.563-1.563V8.875a1.564 1.564 0 00-1.563-1.563H8.875a1.564 1.564 0 00-1.563 1.563v16.25a1.564 1.564 0 001.563 1.563zm-.938-1.563V8.875a.93.93 0 01.094-.402l3.125 3.125a.93.93 0 00-.094.402v10a.93.93 0 00.094.402l-3.125 3.125a.922.922 0 01-.094-.402zM25.97 8.473a.922.922 0 01.093.402v16.25c0 .14-.032.276-.093.402l-3.125-3.125a.927.927 0 00.093-.402V12a.923.923 0 00-.093-.402l3.125-3.125zm-3.657 12.59h-4.375v-.625h4.375v.625zm0-1.25h-4.375v-.625h4.375v.625zm0-1.25h-4.375v-.625h4.375v.625zm0-1.25h-4.375v-.625h4.375v.625zm0-1.25h-4.375v-.625h4.375v.624zm0-1.25h-4.375v-.626h4.375v.626zm0-1.25h-4.375v-.626h4.375v.626zm-4.375 8.124h4.375V22a.313.313 0 01-.312.313h-4.063v-.625zM22.313 12v.313h-4.375v-.626H22a.313.313 0 01.313.313zm-5 10.313h-.625V11.688h.625v10.624zm-5.625-9.375h4.376v.624h-4.375v-.624zm0 1.25h4.376v.624h-4.375v-.624zm0 1.25h4.376v.624h-4.375v-.625zm0 1.25h4.376v.625h-4.375v-.625zm0 1.25h4.376v.625h-4.375v-.625zm0 1.25h4.376v.625h-4.375v-.625zm0 1.25h4.376v.625h-4.375v-.625zm0 1.562v-.313h4.376v.625H12a.313.313 0 01-.313-.312zm4.376-9.688h-4.375V12a.313.313 0 01.312-.313h4.063v.626zm-7.188 13.75a.922.922 0 01-.402-.093l3.125-3.125a.927.927 0 00.402.093h10a.93.93 0 00.402-.093l3.125 3.125a.93.93 0 01-.402.093H8.875zm16.25-18.125c.14.001.276.033.402.094l-3.125 3.125a.923.923 0 00-.402-.094H12a.927.927 0 00-.402.094L8.473 8.031a.926.926 0 01.402-.094h16.25z"/><path d="M21.063 23.563h-8.125a.938.938 0 000 1.875h8.124a.938.938 0 000-1.875zm0 1.25h-8.125a.313.313 0 110-.625h8.124a.313.313 0 110 .625zm-8.125-14.375h8.124a.938.938 0 000-1.876h-8.125a.937.937 0 000 1.876zm0-1.25h8.124a.313.313 0 110 .624h-8.125a.313.313 0 110-.624zM24.5 22a.938.938 0 00.938-.938v-8.125a.938.938 0 00-1.875 0v8.126A.938.938 0 0024.5 22zm-.313-9.063a.313.313 0 11.625 0v8.126a.313.313 0 11-.625 0v-8.125zM9.5 12a.938.938 0 00-.938.938v8.124a.937.937 0 001.876 0v-8.125A.938.938 0 009.5 12zm.313 9.063a.313.313 0 11-.626 0v-8.125a.313.313 0 11.626 0v8.124z"/></g><defs><clipPath id="clip0_167_62"><path fill="#fff" transform="rotate(180 13.5 13.5)" d="M0 0h20v20H0z"/></clipPath></defs></svg>