<svg width="34" height="34" fill="none" xmlns="http://www.w3.org/2000/svg"><rect width="34" height="34" rx="10" fill="#fff"/><g clip-path="url(#clip0_38_1486)" fill="#78C081"><path fill-rule="evenodd" clip-rule="evenodd" d="M19.075 18.668c0 .323.272.585.608.585h1.658a.597.597 0 00.608-.585v-.607a.597.597 0 00-.608-.584h-1.658a.597.597 0 00-.608.584v.607zm.608.022a.022.022 0 01-.023-.022v-.607c0-.012.01-.021.023-.021h1.658c.012 0 .022.01.022.021v.607c0 .012-.01.022-.022.022h-1.658zm2.943 4.83c0 .155.131.281.293.281h.947a.597.597 0 00.609-.584v-1.213a.597.597 0 00-.609-.585h-.947a.287.287 0 00-.293.282c0 .155.131.28.293.28h.947c.012 0 .023.01.023.023v1.213c0 .012-.01.022-.023.022h-.947a.287.287 0 00-.293.281zm-3.551-2.426c0 .323.272.585.608.585h1.658a.597.597 0 00.608-.585v-.607a.597.597 0 00-.608-.584h-1.658a.597.597 0 00-.608.585v.606zm.608.022a.022.022 0 01-.023-.022v-.607c0-.012.01-.021.023-.021h1.658c.012 0 .022.01.022.021v.607c0 .012-.01.022-.022.022h-1.658zM12.05 25.34c0 .364.309.66.688.66h1.105c.38 0 .688-.296.688-.66v-.834a.287.287 0 00-.293-.282.287.287 0 00-.293.282v.833a.1.1 0 01-.102.098h-1.105a.1.1 0 01-.101-.098v-.832a.287.287 0 00-.293-.282.287.287 0 00-.293.282v.832zm8.107.097a.1.1 0 01-.102-.098v-.832a.287.287 0 00-.293-.282.287.287 0 00-.293.282v.832c0 .365.308.661.688.661h1.105c.38 0 .687-.296.687-.66v-.834a.287.287 0 00-.293-.282.287.287 0 00-.293.282v.833a.1.1 0 01-.101.098h-1.105zm-8.107-4.912c0 1.684 1.422 3.049 3.174 3.049 1.753 0 3.174-1.365 3.174-3.049 0-1.683-1.421-3.048-3.174-3.048-1.752 0-3.173 1.365-3.173 3.048zm3.174 2.486c-1.429 0-2.587-1.113-2.587-2.486 0-1.372 1.158-2.485 2.587-2.485 1.43 0 2.588 1.113 2.588 2.485 0 1.373-1.159 2.486-2.588 2.486z"/><path fill-rule="evenodd" clip-rule="evenodd" d="M15.224 23.574a.287.287 0 00.293-.282v-5.534a.287.287 0 00-.293-.281.287.287 0 00-.293.281v5.535c0 .155.132.281.293.281z"/><path fill-rule="evenodd" clip-rule="evenodd" d="M12.05 20.525c0 .156.132.282.294.282h5.76a.287.287 0 00.294-.282.287.287 0 00-.293-.281h-5.761a.287.287 0 00-.293.281z"/><path fill-rule="evenodd" clip-rule="evenodd" d="M12.98 22.681c.115.11.3.11.415 0l4.073-3.913a.274.274 0 000-.398.302.302 0 00-.414 0l-4.074 3.913a.274.274 0 000 .398z"/><path fill-rule="evenodd" clip-rule="evenodd" d="M17.468 22.681a.274.274 0 000-.398l-4.073-3.913a.302.302 0 00-.415 0 .274.274 0 000 .398l4.074 3.913a.3.3 0 00.414 0zm-2.046-9.58a.28.28 0 00.203-.347l-.06-.205-.214-.731a.684.684 0 00-.662-.482H8.973a.684.684 0 00-.662.482l-.214.73-.06.206a.28.28 0 00.203.347.308.308 0 00.088.01.291.291 0 00.273-.205l.105-.357.17-.579a.101.101 0 01.097-.071h5.716c.045 0 .085.029.098.071l.169.579.105.357a.291.291 0 00.29.206.307.307 0 00.071-.01zm-5.226-3.606c0 .155.131.281.293.281h2.683a.287.287 0 00.293-.281.287.287 0 00-.293-.282H10.49a.287.287 0 00-.293.282z"/><path d="M14.75 9.495a.31.31 0 01-.315.303.31.31 0 01-.316-.303.31.31 0 01.316-.304.31.31 0 01.316.304zm-5.208 0a.31.31 0 01-.316.303.31.31 0 01-.315-.303.31.31 0 01.315-.304.31.31 0 01.316.304z"/><path fill-rule="evenodd" clip-rule="evenodd" d="M25.76 13.101a.28.28 0 00.203-.347l-.06-.205-.214-.731a.684.684 0 00-.662-.482h-5.716a.684.684 0 00-.662.482l-.214.73-.06.206a.28.28 0 00.203.347.305.305 0 00.089.01.291.291 0 00.272-.205l.105-.357.17-.579a.101.101 0 01.097-.071h5.716c.046 0 .085.029.098.071l.17.579.104.357a.291.291 0 00.291.206.305.305 0 00.07-.01zm-5.225-3.606c0 .155.13.281.293.281h2.683a.287.287 0 00.293-.281.287.287 0 00-.293-.282h-2.683a.287.287 0 00-.293.282z"/><path d="M25.09 9.495a.31.31 0 01-.317.303.31.31 0 01-.315-.303.31.31 0 01.316-.304.31.31 0 01.315.304zm-5.21 0a.31.31 0 01-.315.303.31.31 0 01-.316-.303.31.31 0 01.316-.304.31.31 0 01.316.304z"/><path fill-rule="evenodd" clip-rule="evenodd" d="M15.974 16.827a.287.287 0 00.293-.282v-1.971a.674.674 0 00-.688-.66h-1.302a.1.1 0 01-.101-.098v-.986a.287.287 0 00-.293-.281.287.287 0 00-.293.281v.986c0 .365.308.66.687.66h1.303a.1.1 0 01.101.098v1.971c0 .156.131.282.293.282zm2.052 0a.287.287 0 00.293-.282v-1.971a.1.1 0 01.102-.098h1.302c.38 0 .687-.295.687-.66v-.986a.287.287 0 00-.293-.281.287.287 0 00-.293.281v.986a.1.1 0 01-.101.098H18.42a.674.674 0 00-.688.66v1.971c0 .156.131.282.293.282z"/><path fill-rule="evenodd" clip-rule="evenodd" d="M22.919 23.801a.287.287 0 01-.293-.281c0-.155.131-.281.293-.281h.293v-1.257h-.293a.287.287 0 01-.293-.281c0-.156.131-.282.293-.282h.293v-4.267c0-.49-.414-.888-.924-.888h-3.97v.281a.287.287 0 01-.292.282.287.287 0 01-.293-.282v-.281h-1.466v.281a.287.287 0 01-.293.282.287.287 0 01-.293-.282v-.281h-3.968c-.511 0-.925.397-.925.888v6.747c0 .49.414.888.925.888h.338v-.281c0-.156.131-.282.293-.282.162 0 .293.126.293.282v.28h1.308v-.28c0-.156.131-.282.293-.282.162 0 .293.126.293.282v.28h4.938v-.28c0-.156.131-.282.293-.282.162 0 .293.126.293.282v.28h1.308v-.28c0-.156.131-.282.293-.282.162 0 .293.126.293.282v.28h.338c.511 0 .925-.396.925-.887v-.098h-.293zm-8.8-6.974h8.169c.186 0 .338.145.338.325v6.747c0 .18-.152.325-.338.325H11.713a.332.332 0 01-.339-.325v-6.747c0-.18.151-.325.338-.325h2.408z"/><path d="M15.625 12.754a.28.28 0 01-.203.347.307.307 0 01-.07.01h.385c.51 0 .925-.396.925-.887V8.888c0-.49-.414-.888-.925-.888H7.924C7.414 8 7 8.398 7 8.888v3.336c0 .49.414.888.924.888h.386a.308.308 0 01-.07-.01.28.28 0 01-.203-.348l.06-.205h-.173a.332.332 0 01-.338-.325V8.888c0-.18.152-.325.338-.325h7.813c.187 0 .339.146.339.325v3.336c0 .18-.152.325-.339.325h-.172l.06.205z"/><path d="M15.06 12.906l-.104-.357h-6.25l-.105.357a.291.291 0 01-.273.206h5.262v-.282c0-.155.13-.281.293-.281.162 0 .293.126.293.281v.282h1.158a.291.291 0 01-.273-.206zm10.903-.152a.28.28 0 01-.203.347.305.305 0 01-.07.01h.386c.51 0 .924-.397.924-.887V8.888c0-.49-.414-.888-.924-.888h-7.813c-.51 0-.925.398-.925.888v3.336c0 .49.415.888.925.888h.385a.305.305 0 01-.07-.01.28.28 0 01-.203-.348l.06-.205h-.172a.332.332 0 01-.339-.325V8.888c0-.18.152-.325.339-.325h7.813c.186 0 .338.145.338.325v3.336c0 .18-.152.325-.338.325h-.173l.06.205z"/><path d="M25.4 12.906l-.106-.357h-6.25l-.105.357a.291.291 0 01-.272.206h1.157v-.282c0-.155.131-.281.293-.281.162 0 .293.126.293.281v.282h5.262a.291.291 0 01-.273-.206z"/></g><defs><clipPath id="clip0_38_1486"><path fill="#fff" transform="translate(7 8)" d="M0 0h20v18H0z"/></clipPath></defs></svg>