<svg width="589" height="141" fill="none" xmlns="http://www.w3.org/2000/svg"><path d="M1 140c8.174-5.174 28.016-1.107 40.83-4.058 10.183-3.101 15.74-4.472 23.709-14.147 5.561-9.427 10.759-18.045 9.071-28.923-1.412-9.105-28.554-17.814-35.405-6.81-3.528 1.264-2.84 9.489-1.81 11.814 2.442 5.508 5.494 9.577 11.855 13.126 14.356 8.009 44.995 13.059 64.046 0 118.49-81.222 216.153-51.418 251.459-47.254 23.71 2.796 43.128 28.042 40.068 41.001-3.705 15.687-23.276 23.01-37.765 23.01-17.916 0-36.557-11.134-36.557-29.956 0-21.429 27.346-30.91 53.391-34.055 20.49-2.475 32.755-2.132 53.029 1.312C491.406 74.316 563.5 63.748 588 1" stroke="#5CCD6A" stroke-linecap="round" stroke-dasharray="8 8"/></svg>