<svg width="529" height="80" fill="none" xmlns="http://www.w3.org/2000/svg"><path d="M1 13.315c12.04 11.338 79.71 30.97 87.743 38.17 12.387 11.1 25.394 19.094 42.375 24.483 30.413 9.652 69.765-5.528 88.318-20.435 12.653-11.433 15.527-21.694 15.527-31.956 0-13.34-15.527-22.577-27.1-22.577-11.573 0-22.293 0-32.438 12.315-16.753 20.337 3.234 46.151 27.532 50.696 31.605 5.91 50.828 12.927 80.457 3.009 26.651-8.922 45.487-16.561 70.08-23.905 17.63-5.264 43.542 1.333 55.899 4.86 42.57 12.148 73.888-3.416 118.607 28.587" stroke="#5CCD6A" stroke-linecap="round" stroke-dasharray="8 8"/></svg>