<svg width="32" height="32" fill="none" xmlns="http://www.w3.org/2000/svg"><g clip-path="url(#clip0_86_1397)"><path d="M16 .5A11.516 11.516 0 0127.5 12c0 2.052-.668 4.265-1.706 6.46-1.037 2.19-2.43 4.332-3.844 6.231-2.827 3.795-5.715 6.582-5.95 6.807-.235-.225-3.123-3.012-5.95-6.807-1.415-1.9-2.807-4.04-3.844-6.231C5.168 16.265 4.5 14.052 4.5 12A11.516 11.516 0 0116 .5zM16 18h0a6.004 6.004 0 006-6v0a6 6 0 10-6 6z" fill="#78C081" stroke="#577A5B"/></g><defs><clipPath id="clip0_86_1397"><path fill="#fff" d="M0 0h32v32H0z"/></clipPath></defs></svg>