<svg width="196" height="61" fill="none" xmlns="http://www.w3.org/2000/svg"><path fill-rule="evenodd" clip-rule="evenodd" d="M68.914 60.908c-7.34.208-15.451.51-20.351-4.65-5.135-5.41-5.85-13.539-3.472-20.445 2.155-6.258 8.434-9.865 14.82-12.508 6.025-2.494 12.606-3.698 18.704-1.367 6.615 2.529 12.254 7.373 14.055 13.89 1.861 6.74.036 14.124-4.883 19.317-4.636 4.894-11.92 5.566-18.873 5.763z" fill="#78C081" fill-opacity=".15"/><path d="M74.034 29.902V15.39h7.391c1.8 0 3.1.387 3.904 1.161.816.76 1.225 1.99 1.225 3.69s-.409 2.937-1.225 3.711c-.803.774-2.104 1.161-3.903 1.161h-4.464v4.79h-2.928zm2.928-7.525h4.297c.83 0 1.433-.166 1.807-.498.387-.345.581-.891.581-1.638 0-.732-.194-1.264-.581-1.596-.374-.346-.976-.518-1.807-.518h-4.297v4.25zm14.914 7.712c-1.398 0-2.429-.263-3.093-.788-.65-.539-.976-1.396-.976-2.57 0-1.203.36-2.06 1.08-2.571.72-.526 1.882-.788 3.487-.788h3.24c-.056-.733-.285-1.258-.686-1.576-.388-.331-.996-.497-1.827-.497-1.343 0-2.132.477-2.367 1.43h-2.699c.166-1.327.658-2.287 1.474-2.882.817-.608 2.049-.912 3.696-.912 1.8 0 3.107.373 3.924 1.12.816.732 1.225 1.92 1.225 3.566v6.281h-2.74v-1.015c-.79.801-2.035 1.202-3.738 1.202zm-1.329-3.483c0 .746.672 1.12 2.014 1.12.941 0 1.647-.166 2.118-.498.484-.346.796-.878.934-1.596v-.25h-2.512c-1.702 0-2.554.409-2.554 1.224zm9.728-.146h2.699c.263.844 1.142 1.265 2.637 1.265 1.439 0 2.159-.29 2.159-.87 0-.526-.907-.912-2.72-1.161-1.688-.194-2.886-.553-3.592-1.078-.705-.54-1.058-1.34-1.058-2.405 0-1.12.373-1.942 1.121-2.467.747-.54 1.931-.809 3.55-.809 1.675 0 2.92.29 3.737.871.831.567 1.322 1.486 1.474 2.757h-2.699a1.583 1.583 0 00-.83-.953c-.388-.208-.962-.311-1.724-.311-1.314 0-1.972.27-1.972.808 0 .498.831.857 2.492 1.078 1.827.263 3.093.643 3.799 1.14.706.484 1.059 1.251 1.059 2.302 0 1.16-.395 2.031-1.184 2.612-.775.567-2.007.85-3.695.85-1.661 0-2.914-.29-3.758-.87-.844-.581-1.343-1.5-1.495-2.758zm17.016 3.629c-1.897 0-3.274-.435-4.132-1.306-.844-.885-1.266-2.308-1.266-4.27 0-1.95.429-3.366 1.287-4.25.858-.886 2.228-1.328 4.111-1.328 1.716 0 3.003.353 3.861 1.058.859.69 1.364 1.803 1.516 3.337h-2.699c-.152-.65-.436-1.12-.851-1.41-.415-.29-1.004-.435-1.765-.435-.955 0-1.654.242-2.097.726-.429.47-.644 1.237-.644 2.301 0 1.05.215 1.817.644 2.301.443.484 1.142.726 2.097.726 1.467 0 2.339-.615 2.616-1.845h2.699c-.152 1.534-.657 2.653-1.516 3.358-.858.691-2.145 1.037-3.861 1.037zm10.959 0c-1.398 0-2.429-.263-3.094-.788-.65-.539-.976-1.396-.976-2.57 0-1.203.36-2.06 1.08-2.571.72-.526 1.882-.788 3.488-.788h3.239c-.056-.733-.284-1.258-.685-1.576-.388-.331-.997-.497-1.827-.497-1.343 0-2.132.477-2.367 1.43h-2.699c.166-1.327.657-2.287 1.474-2.882.816-.608 2.048-.912 3.695-.912 1.8 0 3.108.373 3.924 1.12.817.732 1.225 1.92 1.225 3.566v6.281h-2.74v-1.015c-.789.801-2.035 1.202-3.737 1.202zm-1.329-3.483c0 .746.671 1.12 2.014 1.12.941 0 1.647-.166 2.117-.498.485-.346.796-.878.935-1.596v-.25h-2.512c-1.703 0-2.554.409-2.554 1.224zm10.184 3.296V14.353h2.741v15.55h-2.741zm9.814-14.512h3.094l4.983 11.444 4.962-11.444h3.114l-6.436 14.512h-3.281l-6.436-14.512zm17.76 13.372c-.872-.884-1.308-2.301-1.308-4.25 0-1.949.436-3.365 1.308-4.25.872-.884 2.284-1.327 4.236-1.327 1.937 0 3.335.443 4.193 1.327.872.885 1.308 2.301 1.308 4.25 0 .194-.013.484-.041.87h-8.201c.18 1.563 1.1 2.343 2.761 2.343 1.246 0 2.07-.421 2.471-1.264h2.824c-.277 1.34-.865 2.28-1.765 2.82-.9.538-2.083.808-3.55.808-1.952 0-3.364-.442-4.236-1.327zm4.256-7.463c-.775 0-1.391.159-1.847.477-.457.317-.748.843-.872 1.575h5.439c-.124-.732-.415-1.258-.872-1.575-.443-.318-1.059-.477-1.848-.477zm10.143 8.603h-2.74v-10.78h2.74V20.2c.72-.843 1.883-1.265 3.488-1.265 1.523 0 2.63.387 3.322 1.161.706.774 1.059 2.018 1.059 3.732v6.074h-2.741v-6.074c0-.816-.2-1.41-.602-1.783-.387-.373-1.003-.56-1.847-.56-.956 0-1.641.242-2.056.726-.415.47-.623 1.237-.623 2.301v5.39zm13.785-10.78h2.948v2.55h-2.948v4.146c0 .54.125.933.374 1.182.249.235.664.352 1.245.352h1.516v2.55h-1.599c-1.494 0-2.581-.297-3.259-.891-.678-.595-1.017-1.548-1.017-2.861v-4.478h-1.578v-2.55h1.578v-2.343h2.74v2.343z" fill="#495E4C"/><path d="M76.572 45.658h2.934v1.696h-2.934v7.887h-1.809v-7.887h-1.698v-1.696h1.698v-.331c0-1.376.302-2.377.905-3.004.602-.627 1.568-.94 2.897-.94h1.052v1.695h-.96c-.726 0-1.255.179-1.587.535-.332.356-.498.928-.498 1.714v.331zm8.108 9.583h-1.808v-9.583h1.808v1.235c.628-.921 1.723-1.382 3.285-1.382h.83v1.695h-1.347c-.984 0-1.691.258-2.122.774-.43.504-.646 1.327-.646 2.47v4.791zm7.847-1.031c-.763-.787-1.144-2.04-1.144-3.76 0-1.72.381-2.973 1.144-3.76.775-.786 2.024-1.179 3.746-1.179 1.71 0 2.94.393 3.691 1.18.763.786 1.144 2.039 1.144 3.759 0 .061-.006.153-.018.276v.277h-7.862c.062.958.339 1.664.83 2.119.505.454 1.25.682 2.234.682 1.44 0 2.356-.492 2.75-1.475h1.882c-.258 1.13-.787 1.923-1.587 2.378-.788.454-1.809.681-3.064.681-1.722 0-2.97-.393-3.746-1.179zm3.765-7.114c-.923 0-1.637.203-2.141.608-.492.393-.787 1.038-.886 1.935H99.3c-.099-.91-.394-1.56-.886-1.954-.48-.393-1.187-.59-2.122-.59zm7.993 5.234h1.79c.16.515.468.89.923 1.124.455.233 1.101.35 1.938.35 1.636 0 2.454-.393 2.454-1.18 0-.356-.221-.639-.664-.847-.443-.21-1.156-.387-2.141-.535-1.513-.196-2.583-.516-3.211-.958-.615-.455-.923-1.118-.923-1.99 0-.934.326-1.628.978-2.083.653-.467 1.68-.7 3.082-.7 1.403 0 2.461.246 3.175.737.713.48 1.156 1.253 1.328 2.322h-1.79c-.16-.516-.455-.89-.886-1.124-.43-.233-1.051-.35-1.863-.35-1.514 0-2.27.375-2.27 1.124 0 .344.215.62.646.83.43.196 1.113.368 2.048.515 1.587.246 2.688.578 3.303.995.628.418.942 1.057.942 1.917 0 1.941-1.421 2.912-4.263 2.912-1.415 0-2.492-.246-3.23-.738-.738-.491-1.193-1.265-1.366-2.322zm12.555-10.91h1.808v5.528c.664-.958 1.827-1.437 3.488-1.437 1.39 0 2.405.338 3.045 1.014.64.675.96 1.75.96 3.224v5.492h-1.79V49.75c0-.884-.222-1.529-.665-1.934-.443-.406-1.132-.609-2.067-.609-1.045 0-1.802.258-2.27.774-.467.504-.701 1.327-.701 2.47v4.791h-1.808V41.42zm23.305 13.969c-1.279 0-2.214-.228-2.805-.682-.59-.455-.886-1.186-.886-2.193 0-1.045.326-1.788.978-2.23.665-.455 1.729-.682 3.193-.682h3.267c0-.872-.222-1.505-.665-1.898-.443-.406-1.15-.608-2.122-.608-.775 0-1.372.129-1.79.387-.419.245-.701.645-.849 1.198h-1.79c.172-1.106.615-1.91 1.329-2.414.713-.504 1.771-.756 3.174-.756 1.575 0 2.719.326 3.432.977.726.639 1.089 1.664 1.089 3.077v5.676h-1.808v-1.235c-.726.922-1.975 1.383-3.747 1.383zm-1.882-2.949c0 .48.184.83.554 1.05.381.21.965.314 1.753.314 1.046 0 1.827-.19 2.343-.572.53-.38.856-.989.979-1.824v-.442h-2.806c-1.882 0-2.823.491-2.823 1.474zm11.607 2.801v-9.583h1.809v9.583h-1.809zm-.018-11.444c-.185-.184-.277-.491-.277-.921 0-.43.092-.737.277-.922.184-.184.492-.276.922-.276.431 0 .739.092.923.276.185.185.277.492.277.922 0 .43-.092.737-.277.921-.184.184-.492.277-.923.277-.43 0-.738-.093-.922-.277zm7.845 11.444h-1.809v-9.583h1.809v1.235c.627-.921 1.722-1.382 3.285-1.382h.83v1.695h-1.347c-.984 0-1.692.258-2.122.774-.431.504-.646 1.327-.646 2.47v4.791z" fill="#78C081"/><path fill-rule="evenodd" clip-rule="evenodd" d="M2.523 23.524C.181 31.87-.355 40.616.203 49.204c-.253 2.73 1.233 5.366 3.208 7.247 2.89 2.737 8.585 2.364 12.322 1.978 6.807-.649 9.834-6.856 10.233-12.835.305-10.336.38-21.196.358-31.55-.005-.295-.004-.604-.003-.923.002-1.364.006-2.888-.411-4.098-1.012-3.38-4.162-4.593-7.326-3.944-.64.203-1.256.47-1.838.798a29.129 29.129 0 00-5.295 3.677 28.937 28.937 0 00-7.542 10.069c-.17.348-.344.824-.505 1.265-.09.25-.178.488-.258.685-.165.409-.334.98-.482 1.48l-.14.471zm-2.32 25.68c.987-8.74 2.376-17.444 5.538-25.67a26.538 26.538 0 018.28-11.074c.34-.285.843-.655 1.254-.957.083-.06.162-.117.234-.171 0 0 2.548-2.172 3.928-2.29 1.38-.119 2.137-.022 2.448 1.47l.097.714.022.788c-.022 3.577-.038 10.187 0 13.828.046 5.251.109 10.502.233 15.75l.085 3.829a16.977 16.977 0 01-.418 3.546c-.598 2.758-2.118 5.443-4.875 6.529-1.775.634-3.703.882-5.572 1.1-2.19.189-4.483.301-6.504-.585-2.47-1.438-4.464-3.928-4.75-6.807z" fill="#78C081"/><path d="M55.647 25.828c1.197 2.96 3.377 7.588 4.13 13.147-.54-10.16-1.243-10.187-1.59-11.745a50.844 50.844 0 00-2.23-7.33C53.302 13.748 48.54 8.685 42.486 5.573a5.395 5.395 0 00-1.656-.577c-.333-.018-.526-.073-.99-.073-3.16-.176-5.55 1.843-6.095 4.807-.286 1.284-.209 2.86-.209 4.126-.037 6.871-.052 15.398.063 22.308.046 2.484.078 4.968.146 7.452-.01 1.34.093 2.68.311 4.005 1.043 6.015 4.523 10.663 11.172 10.93 3.306.235 6.833.371 9.909-1.092 2.412-1.303 3.395-3.504 4.101-5.933.462-1.588 1.088-3.213 3.717-5.81-2.629 1.558-3.5 2.342-5.258 6.75-2.356 3.924-4.048 4.403-8.45 4.133a32.448 32.448 0 01-3.654-.486c-1.096-.215-2.294-.422-3.275-.94-3.023-1.51-4.271-4.898-4.623-8.044a21.083 21.083 0 01-.084-3.431c.106-4.324.23-10.528.23-14.909s.066-10.64 0-14.957c.013-1.279-.264-3.234.405-4.315.473-.777 1.247-1.019 2.525-.422 5.404 2.572 9.82 6.767 12.598 11.97.809 1.629 1.761 3.483 2.28 4.764zM30.182 12.227a.898.898 0 00-1.61-.794L24.333 20a.898.898 0 001.61.794l4.24-8.568z" fill="#78C081"/><path d="M29.119 12.227a.898.898 0 011.61-.794L34.968 20a.898.898 0 01-1.61.794l-4.24-8.568z" fill="#78C081"/><path d="M28.721.896a.897.897 0 011.795 0v11.355a.897.897 0 01-1.795 0V.896zM56.456 55.11a50.246 50.246 0 00-1.707-2.982c-.303-.488-.62-.952-.93-1.414-.08-.12-.17-.23-.256-.346-.086-.116-.18-.225-.273-.339-.094-.113-.196-.22-.3-.336a1.666 1.666 0 00-.165-.161c-.056-.055-.116-.11-.17-.17.365.074.707.2 1.01.37.154.083.3.174.437.272a4.5 4.5 0 01.397.307c.492.427.904.907 1.222 1.426.322.515.559 1.06.707 1.624a3.33 3.33 0 01.028 1.748z" fill="#78C081"/><path d="M56.193 49.34a3.78 3.78 0 00-1.2-1.546 5.642 5.642 0 00-1.734-.91 9.963 9.963 0 00-1.968-.398 33.328 33.328 0 00-2.076-.148l.587-.586c.113.855.246 1.705.339 2.563.056.427.096.86.166 1.256.027.203.07.396.121.585.053.189.12.375.201.555.33.733.857 1.37 1.53 1.85.707.51 1.541.845 2.428.971a4.782 4.782 0 01-2.756-.498 4.862 4.862 0 01-2.048-1.94 4.762 4.762 0 01-.483-1.325c-.101-.46-.157-.885-.224-1.3-.134-.86-.247-1.713-.36-2.568l-.084-.636.674.05c.723.05 1.443.137 2.155.26.733.12 1.444.332 2.115.63.679.304 1.28.74 1.762 1.28.48.519.779 1.166.855 1.855zm1.226-.332a3.726 3.726 0 01-.479-1.252 5.392 5.392 0 01-.082-1.348 7.805 7.805 0 01.643-2.52 8.274 8.274 0 011.324-2.131c.281-.32.597-.6.94-.832a6.33 6.33 0 011.072-.562c.365-.16.737-.278 1.103-.39.366-.113.726-.211 1.093-.311.726-.19 1.434-.377 2.104-.62a6.35 6.35 0 001.802-.969 4.432 4.432 0 001.365-1.742c.238-.591.437-1.216.656-1.822-.061.177.14.8.173 1.014.184 1.138.263 2.284.236 3.419a17.941 17.941 0 01-.16 2.212l-.045.281-.155.8c-.073.35-.152.703-.248 1.056a7.098 7.098 0 01-.886 1.987 6.82 6.82 0 01-.638.82c-.236.248-.47.474-.713.69-.486.432-1.002.82-1.546 1.158a10.448 10.448 0 01-3.502 1.396 13.93 13.93 0 004.462-3.275 8.238 8.238 0 001.096-1.476 6.259 6.259 0 00.62-1.755c.069-.319.127-.647.178-.985l.073-.512.038-.258.03-.238c.062-.672.09-1.35.082-2.034-.001-.694.395-.025-.275.514a6.861 6.861 0 01-2.167 1.14c-.746.248-1.497.407-2.225.567-.729.16-1.457.309-2.124.525a5.197 5.197 0 00-.948.403 3.996 3.996 0 00-.829.612 7.518 7.518 0 00-1.369 1.753 7.359 7.359 0 00-.863 2.186 4.324 4.324 0 00.164 2.499z" fill="#78C081"/></svg>