<svg width="24" height="31" fill="none" xmlns="http://www.w3.org/2000/svg"><g clip-path="url(#clip0_86_1746)"><path d="M12 .5c3.054.004 5.978 1.181 8.133 3.269 2.154 2.086 3.363 4.912 3.367 7.857 0 1.98-.666 4.12-1.703 6.245-1.037 2.12-2.428 4.194-3.843 6.033-2.83 3.68-5.72 6.382-5.95 6.594v.002h-.007l-.002-.002c-.229-.212-3.12-2.914-5.95-6.594-1.414-1.84-2.806-3.913-3.841-6.033C1.166 15.746.5 13.606.5 11.625c.004-2.944 1.213-5.77 3.367-7.856C6.022 1.68 8.947.504 12 .5zm0 16.953h0a6.09 6.09 0 004.236-1.702A5.748 5.748 0 0018 11.625v0a5.71 5.71 0 00-1.015-3.244 5.966 5.966 0 00-2.694-2.143 6.165 6.165 0 00-3.459-.33 6.057 6.057 0 00-3.069 1.59 5.779 5.779 0 00-1.647 2.987 5.674 5.674 0 00.343 3.376 5.868 5.868 0 002.214 2.614 6.127 6.127 0 003.327.978z" fill="#78C081" stroke="#577A5B"/></g><defs><clipPath id="clip0_86_1746"><path fill="#fff" d="M0 0h24v31H0z"/></clipPath></defs></svg>