<svg width="30" height="30" fill="none" xmlns="http://www.w3.org/2000/svg"><rect width="30" height="30" rx="10" fill="#fff"/><g clip-path="url(#clip0_172_1126)" fill="#78C081"><path fill-rule="evenodd" clip-rule="evenodd" d="M16.867 16.483c0 .287.245.52.548.52h1.492a.534.534 0 00.547-.52v-.54a.534.534 0 00-.547-.52h-1.492a.534.534 0 00-.548.52v.54zm.548.019a.02.02 0 01-.02-.02v-.538a.02.02 0 01.02-.02h1.492a.02.02 0 01.02.02v.539c0 .01-.01.019-.02.019h-1.492zm2.648 4.294c0 .138.118.25.264.25h.853a.534.534 0 00.547-.52v-1.078a.534.534 0 00-.548-.52h-.852a.257.257 0 00-.264.25c0 .138.118.25.264.25h.853a.02.02 0 01.02.02v1.078c0 .01-.01.02-.02.02h-.853a.257.257 0 00-.264.25zm-3.196-2.156c0 .286.245.519.548.519h1.492a.534.534 0 00.547-.52V18.1a.534.534 0 00-.547-.52h-1.492a.534.534 0 00-.548.52v.54zm.548.018a.02.02 0 01-.02-.019V18.1c0-.01.009-.02.02-.02h1.492a.02.02 0 01.02.02v.54c0 .01-.01.018-.02.018h-1.492zm-6.869 3.755c0 .324.277.587.619.587h.994c.342 0 .619-.263.619-.587v-.741a.257.257 0 00-.264-.25.257.257 0 00-.264.25v.74a.09.09 0 01-.091.088h-.995a.09.09 0 01-.09-.087v-.741a.257.257 0 00-.265-.25.257.257 0 00-.263.25v.74zm7.295.087a.09.09 0 01-.091-.087v-.741a.257.257 0 00-.264-.25.257.257 0 00-.264.25v.74c0 .325.277.588.62.588h.994c.341 0 .618-.263.618-.587v-.741a.257.257 0 00-.263-.25.257.257 0 00-.264.25v.74a.09.09 0 01-.091.088h-.995zm-7.295-4.366c0 1.496 1.279 2.71 2.856 2.71s2.856-1.214 2.856-2.71c0-1.497-1.279-2.71-2.856-2.71s-2.856 1.213-2.856 2.71zm2.856 2.21c-1.286 0-2.329-.99-2.329-2.21s1.043-2.21 2.329-2.21c1.286 0 2.329.99 2.329 2.21s-1.043 2.21-2.33 2.21z"/><path fill-rule="evenodd" clip-rule="evenodd" d="M13.402 20.843a.257.257 0 00.264-.25v-4.92a.257.257 0 00-.264-.25.257.257 0 00-.264.25v4.92c0 .139.118.25.264.25z"/><path fill-rule="evenodd" clip-rule="evenodd" d="M10.546 18.134c0 .138.118.25.263.25h5.185a.257.257 0 00.264-.25.257.257 0 00-.264-.25H10.81a.257.257 0 00-.263.25z"/><path fill-rule="evenodd" clip-rule="evenodd" d="M11.382 20.05c.103.098.27.098.373 0l3.666-3.479a.241.241 0 000-.354.274.274 0 00-.372 0l-3.667 3.48a.241.241 0 000 .353z"/><path fill-rule="evenodd" clip-rule="evenodd" d="M15.421 20.05a.241.241 0 000-.354l-3.666-3.479a.274.274 0 00-.373 0 .241.241 0 000 .354l3.667 3.479c.103.098.27.098.373 0zm-1.841-8.516a.249.249 0 00.182-.308l-.054-.183-.193-.65a.615.615 0 00-.595-.428H7.776a.615.615 0 00-.596.428l-.193.65-.054.183a.249.249 0 00.183.308.274.274 0 00.08.01.262.262 0 00.245-.183l.094-.318.153-.514a.09.09 0 01.088-.063h5.144a.09.09 0 01.088.063l.152.514.095.318a.262.262 0 00.261.183.273.273 0 00.064-.01zM8.877 8.329c0 .138.118.25.263.25h2.415a.257.257 0 00.264-.25.257.257 0 00-.264-.25H9.14a.257.257 0 00-.263.25z"/><path d="M12.976 8.329c0 .148-.128.27-.284.27a.277.277 0 01-.284-.27c0-.15.127-.27.284-.27.156 0 .284.12.284.27zm-4.688 0c0 .148-.127.27-.284.27a.277.277 0 01-.284-.27c0-.15.127-.27.284-.27.157 0 .284.12.284.27z"/><path fill-rule="evenodd" clip-rule="evenodd" d="M22.884 11.534a.249.249 0 00.183-.308l-.054-.183-.193-.65a.615.615 0 00-.596-.428H17.08a.615.615 0 00-.595.428l-.193.65-.054.183a.249.249 0 00.182.308.27.27 0 00.325-.173l.095-.318.152-.514a.09.09 0 01.088-.063h5.144a.09.09 0 01.088.063l.153.514.094.318a.262.262 0 00.262.183.23.23 0 00.063-.01zm-4.703-3.205c0 .138.118.25.264.25h2.415a.257.257 0 00.263-.25.257.257 0 00-.263-.25h-2.415a.257.257 0 00-.264.25z"/><path d="M22.28 8.329c0 .148-.127.27-.284.27a.277.277 0 01-.284-.27c0-.15.127-.27.284-.27.157 0 .284.12.284.27zm-4.687 0c0 .148-.128.27-.285.27a.277.277 0 01-.284-.27c0-.15.127-.27.284-.27.157 0 .285.12.285.27z"/><path fill-rule="evenodd" clip-rule="evenodd" d="M14.077 14.846a.257.257 0 00.263-.25v-1.752c0-.325-.277-.587-.618-.587H12.55a.09.09 0 01-.092-.087v-.876a.257.257 0 00-.264-.25.257.257 0 00-.263.25v.876c0 .324.277.587.619.587h1.171a.09.09 0 01.092.087v1.752c0 .138.118.25.264.25zm1.846 0a.257.257 0 00.264-.25v-1.752a.09.09 0 01.091-.087h1.172c.342 0 .62-.263.62-.587v-.876a.257.257 0 00-.264-.25.257.257 0 00-.264.25v.876a.09.09 0 01-.092.087h-1.17c-.342 0-.62.262-.62.587v1.752c0 .138.119.25.264.25z"/><path fill-rule="evenodd" clip-rule="evenodd" d="M20.327 21.046a.257.257 0 01-.264-.25c0-.139.118-.25.264-.25h.263v-1.118h-.263a.257.257 0 01-.264-.25c0-.138.118-.25.264-.25h.263v-3.793c0-.436-.372-.79-.831-.79h-3.572v.25c0 .139-.118.25-.264.25a.257.257 0 01-.263-.25v-.25h-1.32v.25c0 .139-.118.25-.263.25a.257.257 0 01-.264-.25v-.25h-3.572c-.46 0-.832.354-.832.79v5.998c0 .436.373.789.832.789h.305v-.25c0-.139.118-.25.263-.25.146 0 .264.111.264.25v.25h1.177v-.25c0-.139.118-.25.264-.25.146 0 .264.111.264.25v.25h4.444v-.25c0-.139.118-.25.264-.25.146 0 .264.111.264.25v.25h1.177v-.25c0-.139.118-.25.264-.25.145 0 .263.111.263.25v.25h.305c.46 0 .831-.354.831-.79v-.086h-.263zm-7.92-6.2h7.352c.168 0 .304.13.304.289v5.998c0 .16-.136.288-.304.288H10.24a.297.297 0 01-.304-.288v-5.998c0-.16.136-.289.304-.289h2.167z"/><path d="M13.762 11.226a.249.249 0 01-.182.308.273.273 0 01-.064.01h.347c.46 0 .832-.353.832-.79V7.79c0-.436-.372-.79-.832-.79H6.832C6.372 7 6 7.354 6 7.79v2.965c0 .436.373.789.832.789h.347a.274.274 0 01-.063-.01.249.249 0 01-.183-.308l.054-.183h-.155a.297.297 0 01-.305-.288V7.79c0-.16.137-.29.305-.29h7.031c.169 0 .305.13.305.29v2.965a.297.297 0 01-.305.288h-.155l.054.183z"/><path d="M13.255 11.361l-.095-.318H7.535l-.094.318a.262.262 0 01-.246.183h4.736v-.25c0-.139.118-.25.263-.25.146 0 .264.111.264.25v.25H13.5a.262.262 0 01-.245-.183zm9.812-.135a.249.249 0 01-.183.308.272.272 0 01-.063.01h.347c.46 0 .832-.353.832-.79V7.79c0-.436-.372-.79-.832-.79h-7.031c-.46 0-.832.354-.832.79v2.965c0 .436.372.789.832.789h.346a.27.27 0 01-.063-.01.249.249 0 01-.182-.308l.054-.183h-.155a.297.297 0 01-.305-.288V7.79c0-.16.136-.29.305-.29h7.031c.168 0 .305.13.305.29v2.965c0 .16-.137.288-.305.288h-.155l.054.183z"/><path d="M22.56 11.361l-.095-.318H16.84l-.095.318a.262.262 0 01-.245.183h1.042v-.25c0-.139.118-.25.264-.25.145 0 .263.111.263.25v.25h4.736a.262.262 0 01-.246-.183z"/></g><defs><clipPath id="clip0_172_1126"><path fill="#fff" transform="translate(6 7)" d="M0 0h18v16H0z"/></clipPath></defs></svg>