<svg width="30" height="30" fill="none" xmlns="http://www.w3.org/2000/svg"><rect width="30" height="30" rx="10" fill="#fff"/><g clip-path="url(#clip0_92_159)" fill="#78C081"><path d="M23.715 21.82h-.25V9.05c0-.874-.718-1.584-1.6-1.584h-.415a1.126 1.126 0 00-1.095-.853H9.475c-.53 0-.975.364-1.094.853h-.246c-.882 0-1.6.71-1.6 1.584v12.77h-.25a.374.374 0 00-.376.372v.823c0 .205.169.372.376.372h17.43a.374.374 0 00.376-.372v-.823a.374.374 0 00-.376-.372zM7.065 9.05c0-.584.48-1.06 1.07-1.06H9.81a.263.263 0 00.265-.262.263.263 0 00-.265-.262h-.869c.098-.195.3-.33.535-.33h10.879a.6.6 0 01.535.33h-9.92a.263.263 0 00-.265.262c0 .145.119.262.265.262h10.894c.59 0 1.07.476 1.07 1.06v.085H7.065V9.05zm0 1.598H8.88c.366 0 .665.295.665.658v8.95a.662.662 0 01-.665.66H7.065V10.647zm-.626 12.215v-.518h1.324a.263.263 0 00.264-.263.264.264 0 00-.264-.262h-.698v-.38H8.88a1.19 1.19 0 001.194-1.183v-8.951a1.19 1.19 0 00-1.194-1.183H7.065V9.66h7.67v2.689c0 .144.119.262.265.262a.263.263 0 00.265-.262v-2.69h7.67v.464H21.12a1.19 1.19 0 00-1.194 1.183v8.95a1.19 1.19 0 001.194 1.183h1.816v.381h-7.67v-8.41a.263.263 0 00-.265-.262.263.263 0 00-.265.263v8.41h-5.83a.263.263 0 00-.266.261c0 .145.119.262.265.262h14.657v.519H6.44zm16.496-12.215v10.267H21.12a.662.662 0 01-.665-.658v-8.951c0-.363.299-.658.665-.658h1.816z"/><path d="M8.72 11.104H7.688a.263.263 0 00-.265.263c0 .144.119.262.265.262H8.72a.263.263 0 00.265-.262.263.263 0 00-.265-.263zm0 .982H7.688a.263.263 0 00-.265.262c0 .144.119.262.265.262H8.72a.263.263 0 00.265-.262.263.263 0 00-.265-.262zm0 .981H7.688a.263.263 0 00-.265.262c0 .144.119.262.265.262H8.72a.263.263 0 00.265-.262.263.263 0 00-.265-.262zm0 .981H7.688a.264.264 0 00-.265.262c0 .145.119.262.265.262H8.72a.263.263 0 00.265-.262.264.264 0 00-.265-.262zm0 .981H7.688a.263.263 0 00-.265.262c0 .145.119.262.265.262H8.72a.264.264 0 00.265-.262.263.263 0 00-.265-.262zm0 .981H7.688a.263.263 0 00-.265.262c0 .145.119.262.265.262H8.72a.263.263 0 00.265-.262.263.263 0 00-.265-.262zm0 .981H7.688a.263.263 0 00-.265.262c0 .145.119.262.265.262H8.72a.263.263 0 00.265-.262.263.263 0 00-.265-.262zm0 .981H7.688a.264.264 0 00-.265.262c0 .145.119.262.265.262H8.72a.263.263 0 00.265-.262.264.264 0 00-.265-.262zm0 .981H7.688a.263.263 0 00-.265.262c0 .145.119.262.265.262H8.72a.264.264 0 00.265-.262.263.263 0 00-.265-.262zm0 .981H7.688a.263.263 0 00-.265.262c0 .145.119.262.265.262H8.72a.264.264 0 00.265-.262.263.263 0 00-.265-.262zm5.15-8.83h-2.899a.263.263 0 00-.265.263c0 .144.119.262.265.262h2.9a.263.263 0 00.264-.262.263.263 0 00-.265-.263zm0-.981h-2.899a.264.264 0 00-.265.263c0 .144.119.262.265.262h2.9a.264.264 0 00.264-.262.264.264 0 00-.265-.263zm0 10.8h-2.899a.264.264 0 00-.265.262c0 .145.119.262.265.262h2.9a.264.264 0 00.264-.262.264.264 0 00-.265-.262zm0-8.837h-2.899a.263.263 0 00-.265.262c0 .144.119.262.265.262h2.9a.263.263 0 00.264-.262.263.263 0 00-.265-.262zm0 .981h-2.899a.263.263 0 00-.265.262c0 .144.119.262.265.262h2.9a.264.264 0 00.264-.262.263.263 0 00-.265-.262zm0 .981h-2.899a.264.264 0 00-.265.262c0 .145.119.262.265.262h2.9a.264.264 0 00.264-.262.263.263 0 00-.265-.262zm0 .981h-2.899a.264.264 0 00-.265.262c0 .145.119.262.265.262h2.9a.264.264 0 00.264-.262.264.264 0 00-.265-.262zm0 .981h-2.899a.263.263 0 00-.265.262c0 .145.119.262.265.262h2.9a.263.263 0 00.264-.262.263.263 0 00-.265-.262zm0 .981h-2.899a.263.263 0 00-.265.262c0 .145.119.262.265.262h2.9a.263.263 0 00.264-.262.263.263 0 00-.265-.262zm0 .981h-2.899a.264.264 0 00-.265.262c0 .145.119.262.265.262h2.9a.264.264 0 00.264-.262.264.264 0 00-.265-.262zm0 .981h-2.899a.264.264 0 00-.265.262c0 .145.119.262.265.262h2.9a.264.264 0 00.264-.262.264.264 0 00-.265-.262zm0 .981h-2.899a.264.264 0 00-.265.262c0 .145.119.262.265.262h2.9a.264.264 0 00.264-.262.264.264 0 00-.265-.262zm8.442-8.83H21.28a.263.263 0 00-.265.263c0 .144.119.262.265.262h1.032a.263.263 0 00.265-.262.263.263 0 00-.265-.263zm0 .982H21.28a.263.263 0 00-.265.262c0 .144.119.262.265.262h1.032a.263.263 0 00.265-.262.263.263 0 00-.265-.262zm0 .981H21.28a.263.263 0 00-.265.262c0 .144.119.262.265.262h1.032a.263.263 0 00.265-.262.263.263 0 00-.265-.262zm0 .981H21.28a.263.263 0 00-.265.262c0 .145.119.262.265.262h1.032a.263.263 0 00.265-.262.263.263 0 00-.265-.262zm0 .981H21.28a.263.263 0 00-.265.262c0 .145.119.262.265.262h1.032a.263.263 0 00.265-.262.263.263 0 00-.265-.262zm0 .981H21.28a.263.263 0 00-.265.262c0 .145.119.262.265.262h1.032a.263.263 0 00.265-.262.263.263 0 00-.265-.262zm0 .981H21.28a.263.263 0 00-.265.262c0 .145.119.262.265.262h1.032a.263.263 0 00.265-.262.263.263 0 00-.265-.262zm0 .981H21.28a.263.263 0 00-.265.262c0 .145.119.262.265.262h1.032a.263.263 0 00.265-.262.263.263 0 00-.265-.262zm0 .981H21.28a.263.263 0 00-.265.262c0 .145.119.262.265.262h1.032a.263.263 0 00.265-.262.263.263 0 00-.265-.262zm0 .981H21.28a.263.263 0 00-.265.262c0 .145.119.262.265.262h1.032a.263.263 0 00.265-.262.263.263 0 00-.265-.262zm-3.283-8.83h-2.935a.263.263 0 00-.264.263c0 .144.118.262.264.262h2.935a.263.263 0 00.265-.262.263.263 0 00-.265-.263zm0-.981h-2.935a.263.263 0 00-.264.263c0 .144.118.262.264.262h2.935a.264.264 0 00.265-.262.264.264 0 00-.265-.263zm0 10.8h-2.935a.263.263 0 00-.264.262c0 .145.118.262.264.262h2.935a.264.264 0 00.265-.262.264.264 0 00-.265-.262zm0-8.837h-2.935a.263.263 0 00-.264.262c0 .144.118.262.264.262h2.935a.263.263 0 00.265-.262.263.263 0 00-.265-.262zm0 .981h-2.935a.263.263 0 00-.264.262c0 .144.118.262.264.262h2.935a.264.264 0 00.265-.262.263.263 0 00-.265-.262zm0 .981h-2.935a.263.263 0 00-.264.262c0 .145.118.262.264.262h2.935a.264.264 0 00.265-.262.263.263 0 00-.265-.262zm0 .981h-2.935a.263.263 0 00-.264.262c0 .145.118.262.264.262h2.935a.264.264 0 00.265-.262.264.264 0 00-.265-.262zm0 .981h-2.935a.263.263 0 00-.264.262c0 .145.118.262.264.262h2.935a.263.263 0 00.265-.262.263.263 0 00-.265-.262zm0 .981h-2.935a.263.263 0 00-.264.262c0 .145.118.262.264.262h2.935a.263.263 0 00.265-.262.263.263 0 00-.265-.262zm0 .981h-2.935a.263.263 0 00-.264.262c0 .145.118.262.264.262h2.935a.264.264 0 00.265-.262.264.264 0 00-.265-.262zm0 .981h-2.935a.263.263 0 00-.264.262c0 .145.118.262.264.262h2.935a.264.264 0 00.265-.262.264.264 0 00-.265-.262zm0 .981h-2.935a.263.263 0 00-.264.262c0 .145.118.262.264.262h2.935a.264.264 0 00.265-.262.264.264 0 00-.265-.262z"/></g><defs><clipPath id="clip0_92_159"><path fill="#fff" transform="translate(5 6)" d="M0 0h20v18H0z"/></clipPath></defs></svg>