<svg width="30" height="30" fill="none" xmlns="http://www.w3.org/2000/svg"><rect width="30" height="30" rx="10" fill="#fff"/><g clip-path="url(#clip0_92_169)" fill="#78C081"><path d="M8.594 23.734h13.812a1.33 1.33 0 001.328-1.328V8.594a1.33 1.33 0 00-1.328-1.328H8.594a1.33 1.33 0 00-1.328 1.328v13.812a1.33 1.33 0 001.328 1.328zm-.797-1.328V8.594a.78.78 0 01.08-.342l2.656 2.657a.79.79 0 00-.08.341v8.5a.79.79 0 00.08.342l-2.656 2.656a.783.783 0 01-.08-.342zM23.123 8.252a.78.78 0 01.08.342v13.812a.787.787 0 01-.08.342l-2.656-2.657a.787.787 0 00.08-.341v-8.5a.784.784 0 00-.08-.341l2.656-2.657zm-3.107 10.701h-3.72v-.531h3.72v.531zm0-1.062h-3.72v-.532h3.72v.532zm0-1.063h-3.72v-.531h3.72v.531zm0-1.062h-3.72v-.532h3.72v.532zm0-1.063h-3.72v-.531h3.72v.531zm0-1.062h-3.72v-.532h3.72v.532zm0-1.063h-3.72v-.531h3.72v.531zm-3.72 6.906h3.72v.266a.266.266 0 01-.266.266h-3.453v-.532zm3.72-8.234v.266h-3.72v-.532h3.454a.266.266 0 01.266.266zm-4.25 8.766h-.532v-9.032h.532v9.032zm-4.782-7.97h3.72v.532h-3.72v-.531zm0 1.063h3.72v.532h-3.72v-.532zm0 1.063h3.72v.531h-3.72v-.531zm0 1.062h3.72v.532h-3.72v-.532zm0 1.063h3.72v.531h-3.72v-.531zm0 1.062h3.72v.532h-3.72v-.532zm0 1.063h3.72v.531h-3.72v-.531zm0 1.328v-.266h3.72v.532H11.25a.266.266 0 01-.266-.266zm3.72-8.234h-3.72v-.266a.266.266 0 01.266-.266h3.453v.532zm-6.11 11.687a.783.783 0 01-.342-.08l2.657-2.656c.106.052.223.08.341.08h8.5a.79.79 0 00.342-.08l2.656 2.656a.788.788 0 01-.342.08H8.594zM22.406 7.797a.78.78 0 01.342.08l-2.657 2.656a.784.784 0 00-.341-.08h-8.5a.787.787 0 00-.341.08L8.252 7.877a.788.788 0 01.342-.08h13.812z"/><path d="M18.953 21.078h-6.906a.797.797 0 000 1.594h6.906a.797.797 0 000-1.594zm0 1.063h-6.906a.266.266 0 010-.532h6.906a.266.266 0 010 .532zM12.047 9.922h6.906a.797.797 0 100-1.594h-6.906a.797.797 0 100 1.594zm0-1.063h6.906a.266.266 0 010 .532h-6.906a.266.266 0 010-.532zm9.828 10.891a.797.797 0 00.797-.797v-6.906a.797.797 0 00-1.594 0v6.906a.797.797 0 00.797.797zm-.266-7.703a.266.266 0 01.532 0v6.906a.266.266 0 01-.532 0v-6.906zM9.125 11.25a.797.797 0 00-.797.797v6.906a.797.797 0 101.594 0v-6.906a.797.797 0 00-.797-.797zm.266 7.703a.266.266 0 01-.532 0v-6.906a.266.266 0 01.532 0v6.906z"/></g><defs><clipPath id="clip0_92_169"><path fill="#fff" transform="rotate(180 12 12)" d="M0 0h17v17H0z"/></clipPath></defs></svg>