<svg width="30" height="30" fill="none" xmlns="http://www.w3.org/2000/svg"><rect width="30" height="30" rx="10" fill="#fff"/><g clip-path="url(#clip0_92_151)" fill="#78C081"><path d="M22.491 16.41H7.51a.919.919 0 01-.643-.26.88.88 0 01-.266-.63v-5.06a.88.88 0 01.266-.628.92.92 0 01.643-.26h14.98a.92.92 0 01.643.26.88.88 0 01.266.629v5.06a.88.88 0 01-.266.628.919.919 0 01-.643.26zM7.51 10.204a.265.265 0 00-.186.075.254.254 0 00-.077.182v5.06c0 .067.028.133.077.181.05.048.116.075.186.075h14.98c.07 0 .137-.027.186-.075a.254.254 0 00.077-.182v-5.06a.254.254 0 00-.077-.18.265.265 0 00-.186-.076H7.51z"/><path d="M18.887 12.536h-7.774c-.469 0-.918-.183-1.249-.508a1.713 1.713 0 01-.518-1.222v-.918c0-.084.034-.165.095-.224a.327.327 0 01.457 0c.06.06.094.14.094.224v.918c0 .291.119.57.33.776.21.205.494.321.791.322h7.774c.298-.001.582-.117.792-.322.21-.206.328-.485.329-.776v-.918c0-.084.034-.165.094-.224a.326.326 0 01.457 0c.06.06.095.14.095.224v.918c0 .459-.187.899-.518 1.223-.332.324-.78.507-1.25.507z"/><path d="M19.079 11.37H10.92a.327.327 0 01-.228-.093.313.313 0 010-.447.327.327 0 01.228-.092h8.158c.086 0 .168.033.228.092a.313.313 0 010 .447.327.327 0 01-.228.093zm1.141 5.04a.326.326 0 01-.229-.093.313.313 0 01-.094-.223v-.139a.85.85 0 00-.257-.607.888.888 0 00-.62-.252h-8.038a.888.888 0 00-.62.252.85.85 0 00-.258.607v.139a.313.313 0 01-.094.223.326.326 0 01-.457 0 .313.313 0 01-.095-.223v-.139c0-.395.161-.774.447-1.054.286-.28.673-.436 1.077-.437h8.038c.404 0 .792.158 1.077.438.286.279.447.658.447 1.053v.139a.308.308 0 01-.095.224.322.322 0 01-.23.092zM8.95 20.293a.327.327 0 01-.228-.092.313.313 0 010-.448.327.327 0 01.228-.092c.583 0 1.143-.228 1.555-.632.413-.404.645-.951.646-1.522 0-.084.034-.165.095-.224a.326.326 0 01.457 0c.06.06.094.14.094.224 0 1.536-1.277 2.786-2.847 2.786zm12.1 0c-1.57 0-2.847-1.25-2.847-2.786 0-.084.034-.165.095-.224a.327.327 0 01.457 0c.06.06.094.14.094.224.001.57.233 1.118.646 1.522.412.404.972.631 1.555.632.086 0 .168.033.229.092a.313.313 0 010 .448.327.327 0 01-.229.092zm-6.05.135a.327.327 0 01-.228-.092.313.313 0 01-.095-.224v-2.74c0-.084.034-.165.095-.224a.327.327 0 01.457 0c.06.06.094.14.094.224v2.74a.313.313 0 01-.095.224.327.327 0 01-.228.093z"/></g><defs><clipPath id="clip0_92_151"><path fill="#fff" transform="translate(6 9)" d="M0 0h18v12H0z"/></clipPath></defs></svg>