<svg width="30" height="30" fill="none" xmlns="http://www.w3.org/2000/svg"><rect width="30" height="30" rx="10" fill="#fff"/><g clip-path="url(#clip0_172_1136)" fill="#78C081"><path d="M15.873 10.005v3.12c0 .132.118.24.263.24H22.6c.145 0 .264-.108.264-.24v-3.12c0-.134-.119-.242-.264-.242h-6.464c-.145 0-.263.108-.263.242zm.527 1.28h5.936v.558H16.4v-.557zm0 1.598v-.557h5.936v.557H16.4zm5.936-2.637v.557H16.4v-.557h5.936zM7.4 9.763c-.146 0-.264.108-.264.242v3.12c0 .132.118.24.264.24h6.464c.145 0 .263-.108.263-.24v-3.12c0-.134-.118-.242-.263-.242H7.4zm.264 1.523H13.6v.557H7.664v-.557zm0 1.597v-.557H13.6v.557H7.664zm5.936-2.637v.557H7.664v-.557H13.6z"/><path d="M18.684 21.159a.227.227 0 000-.341.281.281 0 00-.372 0l-.26.237v-.067c0-.109.031-.15.094-.232.08-.104.19-.247.19-.509a.762.762 0 00-.19-.509c-.063-.082-.095-.123-.095-.232 0-.109.032-.15.095-.232a.787.787 0 00.165-.71h2.587a.289.289 0 01.071.201c0 .11-.032.15-.094.232-.08.105-.19.248-.19.51 0 .26.11.404.19.508.063.082.094.123.094.232 0 .11-.032.15-.094.232-.08.105-.19.248-.19.51v.066l-.26-.238a.281.281 0 00-.373 0 .23.23 0 00-.077.171.23.23 0 00.077.17l.71.65a.28.28 0 00.373 0l.71-.65a.227.227 0 000-.34.281.281 0 00-.373 0l-.26.237v-.067c0-.109.032-.15.094-.232.08-.104.19-.247.19-.509a.762.762 0 00-.19-.509c-.062-.082-.094-.123-.094-.232 0-.109.032-.15.094-.232a.762.762 0 00.19-.509.783.783 0 00-.024-.2h1.554c.537 0 .974-.4.974-.892V9.615c0-.49-.437-.89-.974-.89H11.212c-.146 0-.264.107-.264.24 0 .134.118.242.264.242h11.814c.246 0 .447.183.447.408v8.06c0 .225-.2.408-.447.408h-1.81a.393.393 0 01-.004-.058c0-.109.032-.15.094-.231a.875.875 0 00.154-.268h1.14c.145 0 .264-.108.264-.241v-3.12c0-.133-.119-.241-.264-.241h-6.464c-.145 0-.263.108-.263.24v3.12c0 .134.118.242.263.242h1.57a.754.754 0 00-.18.557h-1.011c-.146 0-.264.108-.264.241 0 .134.118.242.264.242h1.223c.047.063.07.106.07.2 0 .11-.031.15-.094.232-.08.105-.19.248-.19.51 0 .26.11.404.19.508.063.082.094.123.094.232 0 .11-.031.15-.094.232a.762.762 0 00-.19.51v.066l-.26-.238a.281.281 0 00-.373 0 .23.23 0 00-.077.171.23.23 0 00.077.17l.71.65a.28.28 0 00.373 0l.71-.65zm3.652-5.157H16.4v-.557h5.936v.557zm0-1.597v.558H16.4v-.558h5.936zM16.4 17.042v-.557h5.936v.557H16.4zm1.652.982c0-.109.031-.15.094-.231a.875.875 0 00.153-.268h2.569a.754.754 0 00-.181.557h-2.631a.393.393 0 01-.005-.058z"/><path d="M11.316 20.817a.23.23 0 00-.078.171.23.23 0 00.078.17l.71.65a.28.28 0 00.373 0l.71-.65a.227.227 0 000-.34.281.281 0 00-.373 0l-.26.237v-.067c0-.109.031-.15.094-.232.08-.104.19-.247.19-.509 0-.261-.11-.404-.19-.509-.063-.082-.094-.123-.094-.232 0-.109.031-.15.094-.232.08-.104.19-.247.19-.509a.788.788 0 00-.025-.2h2.55c.145 0 .263-.108.263-.242 0-.133-.118-.24-.264-.24H12.48a.394.394 0 01-.004-.059c0-.108.031-.15.094-.231a.874.874 0 00.153-.268h1.14c.146 0 .264-.108.264-.241v-3.12c0-.133-.118-.241-.263-.241H7.4c-.146 0-.264.108-.264.241v3.12c0 .133.118.24.264.24h1.57a.754.754 0 00-.18.558H6.974c-.246 0-.447-.183-.447-.409V9.615c0-.225.2-.408.447-.408H9.98c.146 0 .264-.108.264-.241 0-.134-.118-.242-.264-.242H6.974c-.537 0-.974.4-.974.891v8.06c0 .49.437.89.974.89H9c.047.064.07.107.07.201 0 .11-.03.15-.093.232a.763.763 0 00-.19.51c0 .26.11.404.19.508.062.082.094.123.094.232 0 .11-.032.15-.094.232a.762.762 0 00-.19.51v.066l-.26-.238a.281.281 0 00-.373 0 .23.23 0 00-.077.171.23.23 0 00.077.17l.71.65a.28.28 0 00.373 0l.71-.65a.227.227 0 000-.34.281.281 0 00-.373 0l-.26.237v-.067c0-.109.032-.15.094-.232a.763.763 0 00.19-.509.762.762 0 00-.19-.509c-.062-.082-.094-.123-.094-.232 0-.109.032-.15.094-.232a.785.785 0 00.165-.71h2.588c.047.064.07.107.07.201 0 .11-.03.15-.094.232-.08.105-.19.248-.19.51 0 .26.11.404.19.508.063.082.095.123.095.232 0 .11-.032.15-.095.232-.08.105-.19.248-.19.51v.066l-.26-.238a.281.281 0 00-.373 0zm2.284-4.815H7.664v-.557H13.6v.557zm0-1.597v.558H7.664v-.558H13.6zm-5.936 2.637v-.557H13.6v.557H7.664zm1.651.982c0-.109.032-.15.094-.231a.873.873 0 00.154-.268h2.568a.754.754 0 00-.18.557H9.319a.389.389 0 01-.004-.058z"/></g><defs><clipPath id="clip0_172_1136"><path fill="#fff" transform="rotate(90 8 16)" d="M0 0h14v18H0z"/></clipPath></defs></svg>