<svg width="28" height="28" fill="none" xmlns="http://www.w3.org/2000/svg"><g clip-path="url(#clip0_86_1641)" filter="url(#filter0_i_86_1641)"><path fill-rule="evenodd" clip-rule="evenodd" d="M14 0C6.268 0 0 6.268 0 14s6.268 14 14 14 14-6.268 14-14S21.732 0 14 0zm4.045 15.124a1.3 1.3 0 00.602-1.123 1.301 1.301 0 00-.602-1.123l-5.231-5.23a1.308 1.308 0 00-1.849 1.849l4.505 4.505-4.527 4.528a1.307 1.307 0 001.848 1.848l5.254-5.254z" fill="#5CCD6A"/><path d="M18.266 14.948a1.32 1.32 0 01-.22.176l-5.255 5.254a1.303 1.303 0 01-1.848 0 1.307 1.307 0 010-1.848L15.47 14l-4.505-4.504a1.307 1.307 0 111.849-1.85l5.231 5.231A1.301 1.301 0 0118.647 14a1.3 1.3 0 01-.38.947z" fill="#fff"/></g><defs><clipPath id="clip0_86_1641"><path fill="#fff" d="M0 0h28v28H0z"/></clipPath><filter id="filter0_i_86_1641" x="0" y="-2" width="30" height="30" filterUnits="userSpaceOnUse" color-interpolation-filters="sRGB"><feFlood flood-opacity="0" result="BackgroundImageFix"/><feBlend in="SourceGraphic" in2="BackgroundImageFix" result="shape"/><feColorMatrix in="SourceAlpha" values="0 0 0 0 0 0 0 0 0 0 0 0 0 0 0 0 0 0 127 0" result="hardAlpha"/><feOffset dx="2" dy="-2"/><feGaussianBlur stdDeviation="2.5"/><feComposite in2="hardAlpha" operator="arithmetic" k2="-1" k3="1"/><feColorMatrix values="0 0 0 0 0.112937 0 0 0 0 0.3625 0 0 0 0 0.107844 0 0 0 0.2 0"/><feBlend in2="shape" result="effect1_innerShadow_86_1641"/></filter></defs></svg>