<svg width="70" height="40" fill="none" xmlns="http://www.w3.org/2000/svg"><rect x=".5" y=".5" width="69" height="39" rx="19.5" stroke="#78C081"/><path d="M19.436 22.545c1.893 1.588 4.039 3.39 8.189 3.39s6.296-1.802 8.189-3.39c1.79-1.503 3.336-2.8 6.56-2.8 3.226 0 4.772 1.297 6.562 2.8a1.27 1.27 0 001.763-.132 1.205 1.205 0 00-.135-1.725c-1.893-1.589-4.039-3.39-8.19-3.39-4.15 0-6.295 1.801-8.188 3.39-1.79 1.502-3.336 2.8-6.561 2.8s-4.771-1.297-6.561-2.8a1.269 1.269 0 00-1.763.132 1.205 1.205 0 00.135 1.725z" fill="#78C081"/><path d="M19.436 15.854c1.893 1.59 4.039 3.39 8.189 3.39s6.296-1.8 8.189-3.39c1.79-1.502 3.336-2.8 6.56-2.8 3.226 0 4.772 1.298 6.562 2.8a1.27 1.27 0 001.763-.132 1.205 1.205 0 00-.135-1.724c-1.893-1.59-4.039-3.39-8.19-3.39-4.15 0-6.295 1.8-8.188 3.39-1.79 1.502-3.336 2.8-6.561 2.8s-4.771-1.298-6.561-2.8a1.269 1.269 0 00-1.763.132 1.204 1.204 0 00.135 1.724zm31.128 11.523c-1.893-1.588-4.039-3.39-8.19-3.39-4.15 0-6.295 1.802-8.188 3.39-1.79 1.503-3.336 2.8-6.561 2.8s-4.771-1.297-6.561-2.8a1.27 1.27 0 00-1.763.132 1.205 1.205 0 00.135 1.725c1.893 1.589 4.039 3.39 8.189 3.39s6.295-1.801 8.189-3.39c1.79-1.502 3.336-2.8 6.56-2.8 3.226 0 4.772 1.298 6.562 2.8a1.27 1.27 0 001.763-.132 1.205 1.205 0 00-.135-1.725z" fill="#78C081"/></svg>