<svg width="70" height="40" fill="none" xmlns="http://www.w3.org/2000/svg"><rect x=".5" y=".5" width="69" height="39" rx="19.5" stroke="#78C081"/><path fill-rule="evenodd" clip-rule="evenodd" d="M31.18 29.006c0 1.84 1.448 3.336 3.23 3.336 1.781 0 3.23-1.496 3.23-3.335 0-1.84-1.449-3.335-3.23-3.335-1.782 0-3.23 1.495-3.23 3.334zm3.23 1.694c-.903 0-1.64-.76-1.64-1.694 0-.933.737-1.693 1.64-1.693.903 0 1.64.76 1.64 1.694 0 .933-.737 1.693-1.64 1.693z" fill="#78C081"/><path fill-rule="evenodd" clip-rule="evenodd" d="M34.41 27.313a.808.808 0 00.795-.82V14.95a.808.808 0 00-.795-.82.808.808 0 00-.795.82v11.541c0 .454.356.821.795.821z" fill="#78C081"/><path fill-rule="evenodd" clip-rule="evenodd" d="M34.41 33.984c-2.662 0-4.82-2.228-4.82-4.977 0-1.713.837-3.225 2.116-4.121a.828.828 0 00.348-.68V11.682c0-1.344 1.055-2.433 2.356-2.433 1.3 0 2.355 1.089 2.355 2.433v12.526c0 .272.13.526.349.679a5.017 5.017 0 012.115 4.12c0 2.75-2.158 4.978-4.82 4.978zM28 29.007c0 3.655 2.87 6.619 6.41 6.619s6.41-2.964 6.41-6.62c0-2.12-.966-4.006-2.465-5.216V11.68c0-2.25-1.766-4.074-3.945-4.074-2.18 0-3.946 1.824-3.946 4.075V23.79A6.688 6.688 0 0028 29.007zm11.946-7.474c0 .453.356.821.795.821h2.464a.808.808 0 00.795-.82.808.808 0 00-.795-.822H40.74a.808.808 0 00-.795.821zm0-3.283c0 .453.356.82.795.82h2.464a.808.808 0 00.795-.82.808.808 0 00-.795-.822H40.74a.808.808 0 00-.795.821zm0-3.285c0 .453.356.82.795.82h2.464a.808.808 0 00.795-.82.808.808 0 00-.795-.821H40.74a.808.808 0 00-.795.82zm0-3.285c0 .454.356.821.795.821h2.464a.808.808 0 00.795-.82.808.808 0 00-.795-.821H40.74a.808.808 0 00-.795.82z" fill="#78C081"/></svg>