<svg width="70" height="40" fill="none" xmlns="http://www.w3.org/2000/svg"><rect x=".5" y=".5" width="69" height="39" rx="19.5" stroke="#78C081"/><path d="M35 6a14 14 0 1014 14A14.016 14.016 0 0035 6zm0 27.067A13.066 13.066 0 1148.067 20 13.082 13.082 0 0135 33.067z" fill="#78C081"/><path d="M35 33.067A13.066 13.066 0 1148.067 20 13.082 13.082 0 0135 33.067z" fill="#78C081"/><path d="M26.155 25.828c-1.581-2.043-2.34-4.557-2.137-7.085.202-2.53 1.35-4.905 3.238-6.699 1.888-1.793 4.39-2.884 7.051-3.076 2.662-.193 5.308.528 7.459 2.03l-15.611 14.83z" fill="#fff"/><path fill-rule="evenodd" clip-rule="evenodd" d="M43 10.928a.449.449 0 00-.181-.339c-2.333-1.803-5.287-2.72-8.29-2.574-3.004.146-5.844 1.346-7.97 3.366-2.127 2.02-3.39 4.718-3.543 7.572-.154 2.853.812 5.66 2.71 7.875a.488.488 0 00.356.172h.025a.513.513 0 00.348-.137l16.4-15.58a.465.465 0 00.144-.355zm-18.982 7.814c-.202 2.53.556 5.043 2.137 7.086l15.611-14.83c-2.151-1.502-4.797-2.223-7.459-2.03-2.662.192-5.163 1.283-7.05 3.076-1.888 1.794-3.037 4.17-3.24 6.698z" fill="#fff"/><path d="M34.745 31.058a11.543 11.543 0 01-6.493-1.96L43.944 14.19a10.22 10.22 0 012.063 6.168c-.003 2.837-1.19 5.556-3.302 7.563-2.112 2.006-4.975 3.134-7.961 3.137z" fill="#fff"/><path fill-rule="evenodd" clip-rule="evenodd" d="M44.39 13.18a.491.491 0 00-.36-.18.53.53 0 00-.38.138l-16.505 15.68a.47.47 0 00-.144.36.452.452 0 00.189.343c2.151 1.614 4.814 2.487 7.555 2.48 3.249-.004 6.364-1.232 8.662-3.415 2.297-2.182 3.59-5.142 3.593-8.228.008-2.604-.911-5.134-2.61-7.178zM28.252 29.1a11.543 11.543 0 006.494 1.96c2.986-.004 5.85-1.132 7.96-3.138 2.112-2.006 3.3-4.726 3.303-7.563a10.22 10.22 0 00-2.063-6.168L28.25 29.1z" fill="#fff"/><path d="M33 14.21a1.211 1.211 0 102.422 0 1.211 1.211 0 00-2.422 0zm1.488 0a.278.278 0 11-.556 0 .278.278 0 01.556 0zM43.21 19a1.21 1.21 0 100 2.421 1.21 1.21 0 000-2.42zm0 1.488a.278.278 0 110-.556.278.278 0 010 .556zM27.5 15a2.5 2.5 0 100 5 2.5 2.5 0 000-5zm0 3.628a1.127 1.127 0 110-2.255 1.127 1.127 0 010 2.255zm14.14 7.446l-.242-.084a2.305 2.305 0 00-.069-1.552 2.357 2.357 0 00-1.042-1.168l.106-.506a.523.523 0 00-.078-.399.548.548 0 00-.748-.152.53.53 0 00-.233.337l-.043.21a1.87 1.87 0 00-.892-.655 1.905 1.905 0 00-1.112-.041 1.877 1.877 0 00-.94.585 1.823 1.823 0 00-.435 1.005c-.058.022-.11.052-.166.077l-.332-.383a.544.544 0 00-.947.305.524.524 0 00.126.386l.294.336a2.441 2.441 0 00-.415 2.572l-.256.188a.524.524 0 00-.108.743.542.542 0 00.756.106l.226-.166a2.578 2.578 0 002.565.537l.068.25a.532.532 0 00.25.323.549.549 0 00.739-.192.523.523 0 00.055-.402l-.154-.57c.044-.043.088-.084.128-.13a2.396 2.396 0 001.314-.165c.299-.127.568-.313.79-.546l.434.152a.551.551 0 00.582-.145.529.529 0 00.086-.584.53.53 0 00-.307-.272zm-2.532.527c-.141 0-.282-.023-.416-.067a.548.548 0 00-.629.22 1.44 1.44 0 01-.378.4l-.012.009a1.48 1.48 0 01-1.251.214 1.473 1.473 0 01-.572-.307 1.417 1.417 0 01-.318-1.765c.105-.19.252-.353.43-.48a1.48 1.48 0 01.6-.25.542.542 0 00.344-.215.523.523 0 00.093-.391.767.767 0 01.125-.565.805.805 0 011.067-.229.78.78 0 01.354.462c.031.112.1.21.193.28.094.07.21.109.327.109.01 0 .031 0 .053-.002.348 0 .681.138.926.38a1.275 1.275 0 01-.005 1.823 1.33 1.33 0 01-.93.375z" fill="#78C081"/></svg>