<svg width="70" height="40" fill="none" xmlns="http://www.w3.org/2000/svg"><rect x=".5" y=".5" width="69" height="39" rx="19.5" stroke="#78C081"/><g clip-path="url(#clip0_4964_8)"><path d="M48.616 13.885L35.394 6.107a.78.78 0 00-.788 0l-13.222 7.778a.777.777 0 00-.384.67v18.667c0 .43.348.778.778.778h7.048a.778.778 0 00.775-.724c.103-1.758.58-3.474 1.402-5.031a5.978 5.978 0 002.918 1.001c.178.014.354.021.528.021a5.873 5.873 0 004.264-1.769 5.688 5.688 0 001.103-3.99c-.022-1.394-.043-2.838 1.957-5.237A.778.778 0 0041.261 17c-4.83-.542-10.327 1.817-12.002 5.14a4.394 4.394 0 00.589 4.966C28.911 28.746 28.191 30.12 28 32h-5V15l12-7 12 7v17H32.667c-.43 0-.838.5-.838 1s.408 1 .838 1h15.555c.43 0 .778-.348.778-.778V14.556a.777.777 0 00-.384-.67zm-17.97 8.956c1.108-2.195 4.92-4.324 9.03-4.366a7.766 7.766 0 00-1.416 5.057 4.212 4.212 0 01-.722 2.953 4.401 4.401 0 01-3.496 1.21 4.493 4.493 0 01-2.213-.751 7.986 7.986 0 012.747-2.3.778.778 0 10-.696-1.392 9.47 9.47 0 00-3.075 2.503 2.791 2.791 0 01-.158-2.914z" fill="#78C081"/></g><defs><clipPath id="clip0_4964_8"><path fill="#fff" transform="translate(21 6)" d="M0 0h28v28H0z"/></clipPath></defs></svg>