<svg width="70" height="40" fill="none" xmlns="http://www.w3.org/2000/svg"><rect x=".5" y=".5" width="69" height="39" rx="19.5" stroke="#78C081"/><g clip-path="url(#clip0_4964_11)"><path fill-rule="evenodd" clip-rule="evenodd" d="M29.581 11.32C30.554 9.357 32.614 8 35 8c2.386 0 4.446 1.356 5.419 3.32.25-.023.504-.035.76-.035 4.32 0 7.821 3.418 7.821 7.635s-3.501 7.635-7.82 7.635h-1.83a4.306 4.306 0 01-1.18 4.163c-1.75 1.71-4.59 1.71-6.34 0a4.306 4.306 0 01-1.18-4.163h-1.83c-4.319 0-7.82-3.418-7.82-7.635s3.501-7.635 7.82-7.635c.257 0 .51.012.761.036zm2.985 14.865l.016-.026c.113-.178.249-.346.407-.5a2.897 2.897 0 013.357-.484l-3.852 3.76a2.721 2.721 0 01.072-2.75zm1.088 3.883a2.897 2.897 0 003.357-.483 2.729 2.729 0 00.495-3.277l-3.852 3.76zm4.902-5.115a4.462 4.462 0 00-.385-.427c-1.751-1.71-4.59-1.71-6.342 0-.14.136-.268.279-.385.427H28.82c-3.413 0-6.18-2.701-6.18-6.033 0-3.332 2.767-6.034 6.18-6.034.385 0 .761.035 1.126.1.398.072.79-.15.923-.523.597-1.667 2.222-2.861 4.131-2.861 1.909 0 3.534 1.194 4.13 2.861a.823.823 0 00.923.523c.365-.065.741-.1 1.127-.1 3.413 0 6.18 2.702 6.18 6.034s-2.767 6.033-6.18 6.033h-2.624zM35 16.52c-.45 0-.82.362-.82.8v2.137c0 .438.37.8.82.8.45 0 .82-.362.82-.8V17.32a.815.815 0 00-.82-.801zm-2.461.8c0-1.322 1.106-2.402 2.461-2.402 1.355 0 2.46 1.08 2.46 2.403v2.136c0 1.323-1.105 2.402-2.46 2.402s-2.461-1.08-2.461-2.402V17.32zm-5.906 0c0-1.324 1.104-2.402 2.46-2.402h1.641a.81.81 0 01.82.801.81.81 0 01-.82.8h-1.64c-.45 0-.82.362-.82.802v2.135c0 .44.37.801.82.801h1.586a.81.81 0 01.82.801.81.81 0 01-.82.801h-1.586c-1.357 0-2.461-1.078-2.461-2.403V17.32zm13.997 1.74c-.14-.04-.398-.06-.798.045a.823.823 0 01-1.004-.566.8.8 0 01.58-.981c1.199-.314 2.327-.06 2.831.829.41.723.216 1.55-.34 2.134h.729a.81.81 0 01.82.8.81.81 0 01-.82.801h-3.281a.818.818 0 01-.784-.564.79.79 0 01.321-.898l1.69-1.126c.154-.104.212-.207.231-.267.019-.059.007-.09-.001-.105-.007-.01-.04-.064-.174-.102z" fill="#78C081"/></g><defs><clipPath id="clip0_4964_11"><path fill="#fff" transform="translate(21 8)" d="M0 0h28v24H0z"/></clipPath></defs></svg>