<svg width="70" height="40" fill="none" xmlns="http://www.w3.org/2000/svg"><rect x=".5" y=".5" width="69" height="39" rx="19.5" stroke="#78C081"/><g clip-path="url(#clip0_4964_10)" fill="#78C081"><path d="M40.091 12.17c-1.5-1.826-3.05-3.713-4.3-5.74A.929.929 0 0035 6a.923.923 0 00-.788.43c-1.25 2.025-2.802 3.914-4.301 5.739C26.87 15.869 24 19.363 24 23.5 24 29.29 28.933 34 35 34c6.066 0 11-4.71 11-10.5 0-4.135-2.87-7.63-5.909-11.33zM35 32.25c-5.055 0-9.167-3.925-9.167-8.75 0-3.533 2.68-6.795 5.52-10.252 1.24-1.508 2.512-3.057 3.647-4.716 1.135 1.66 2.407 3.21 3.647 4.718 2.84 3.455 5.52 6.718 5.52 10.25 0 4.825-4.113 8.75-9.167 8.75z"/><path d="M32.25 16.5c-1.516 0-2.75 1.178-2.75 2.625s1.234 2.625 2.75 2.625S35 20.572 35 19.125 33.766 16.5 32.25 16.5zm0 3.5c-.506 0-.917-.392-.917-.875s.411-.875.917-.875.917.392.917.875-.411.875-.917.875zm5.5 5.25c-1.516 0-2.75 1.178-2.75 2.625s1.234 2.625 2.75 2.625 2.75-1.178 2.75-2.625-1.234-2.625-2.75-2.625zm0 3.5c-.504 0-.917-.394-.917-.875s.413-.875.917-.875.917.394.917.875-.413.875-.917.875zm2.48-10.243a.948.948 0 00-1.296 0l-9.166 8.75a.848.848 0 000 1.237c.18.17.414.256.649.256a.937.937 0 00.647-.256l9.166-8.75a.848.848 0 000-1.237z"/></g><defs><clipPath id="clip0_4964_10"><path fill="#fff" transform="translate(24 6)" d="M0 0h22v28H0z"/></clipPath></defs></svg>