<svg width="28" height="28" fill="none" xmlns="http://www.w3.org/2000/svg"><g clip-path="url(#clip0_86_1636)"><path fill-rule="evenodd" clip-rule="evenodd" d="M14 0c7.732 0 14 6.268 14 14s-6.268 14-14 14S0 21.732 0 14 6.268 0 14 0zM9.955 15.124a1.3 1.3 0 01-.602-1.123 1.302 1.302 0 01.602-1.123l5.231-5.23a1.308 1.308 0 011.849 1.849l-4.505 4.505 4.528 4.528a1.307 1.307 0 01-1.849 1.848l-5.254-5.254z" fill="#fff"/><path d="M9.734 14.948c.068.068.143.126.22.176l5.255 5.254a1.303 1.303 0 001.848 0 1.305 1.305 0 000-1.848L12.53 14l4.505-4.504a1.307 1.307 0 10-1.849-1.85l-5.231 5.231A1.302 1.302 0 009.353 14a1.3 1.3 0 00.38.947z" fill="#D9FADD"/></g><defs><clipPath id="clip0_86_1636"><path fill="#fff" transform="matrix(-1 0 0 1 28 0)" d="M0 0h28v28H0z"/></clipPath></defs></svg>