<svg width="141" height="125" fill="none" xmlns="http://www.w3.org/2000/svg"><g opacity=".5" clip-path="url(#clip0_100_914)"><path d="M6.082 22.155a6.24 6.24 0 011.535-.704l.286-1.529 2.591-.098.405 1.508a6.465 6.465 0 011.585.584l1.292-.88 1.9 1.755-.782 1.348c.3.477.537.991.703 1.53l1.535.287.098 2.581-1.514.4a6.263 6.263 0 01-.586 1.582l.884 1.284-1.753 1.906-1.366-.799a6.24 6.24 0 01-1.535.704l-.289 1.529-2.588.098-.405-1.508a6.373 6.373 0 01-1.584-.584l-1.275.887-1.9-1.755.783-1.35a6.387 6.387 0 01-.706-1.528l-1.554-.282-.092-2.587 1.514-.4a6.25 6.25 0 01.586-1.582l-.887-1.284 1.762-1.896 1.357.783zm1.452 3.41a2.763 2.763 0 00.585 4.239 2.787 2.787 0 003.085-.118 2.77 2.77 0 001.071-2.884 2.766 2.766 0 00-.814-1.387 2.788 2.788 0 00-3.927.15zm117.32 51.195c.478-.3.994-.536 1.535-.7l.285-1.53 2.592-.098.405 1.508c.552.123 1.085.32 1.584.584l1.293-.884 1.9 1.756-.786 1.352c.304.475.541.99.706 1.529l1.535.287.099 2.578-1.514.404a6.398 6.398 0 01-.586 1.578l.884 1.288-1.762 1.893-1.345-.771c-.479.3-.995.537-1.535.703l-.289 1.53-2.591.097-.402-1.507a6.251 6.251 0 01-1.585-.585l-1.292.884-1.904-1.755.786-1.352a6.213 6.213 0 01-.706-1.529l-1.535-.287-.101-2.579 1.513-.403a6.36 6.36 0 01.587-1.578l-.885-1.288 1.763-1.893 1.354.78-.003-.012zm1.452 3.41a2.768 2.768 0 00-.49 3.04 2.777 2.777 0 002.633 1.614 2.781 2.781 0 002.504-1.805 2.76 2.76 0 00-.717-2.996 2.789 2.789 0 00-3.93.147zM9.518 8.353a2.9 2.9 0 01.721-.334l.132-.715 1.204-.043.19.7c.256.057.502.148.734.27l.614-.41.884.816-.377.636c.14.222.251.462.328.713l.715.131.046 1.2-.703.189c-.058.255-.15.502-.273.734l.412.611-.82.866-.614-.364a2.883 2.883 0 01-.737.327l-.135.713-1.194.049-.188-.7a2.97 2.97 0 01-.737-.273l-.614.41-.88-.813.37-.634c-.14-.22-.25-.46-.328-.709l-.715-.135-.046-1.198.706-.187c.057-.256.148-.502.27-.734l-.408-.596.829-.881.614.36zm.675 1.587a1.285 1.285 0 001.005 2.153 1.296 1.296 0 001.161-.834 1.283 1.283 0 00-1.256-1.736 1.297 1.297 0 00-.904.417h-.006z" fill="#B4FFCD"/><path d="M17.399 116.077l-3.202 1.302s1.099 2.679-1.677 3.866a2.802 2.802 0 01-3.184-.612 3.079 3.079 0 01-.835-2.676c.178-1.113 1.035-2.41 3.35-2.911l-2.947-7.202-3.166 1.29 1.723 4.212s-3.973 2.954-1.968 7.829c1.915 4.664 6.558 4.034 8.357 3.303 1.372-.551 5.92-2.802 3.549-8.401zM5.09 107.663l3.215-1.309-1.228-2.99-3.214 1.31 1.228 2.989zm124.219-71.756l2.962 1.224s1.044-2.477 3.648-1.444c.505.191.938.534 1.239.981.301.447.455.977.44 1.515a2.86 2.86 0 01-1.228 2.303c-.85.611-2.269.917-4.117-.279l-2.803 6.655 2.932 1.224 1.639-3.9s4.557.66 6.448-3.853c1.817-4.315-1.646-6.94-3.31-7.646-1.253-.508-5.717-2.012-7.85 3.22zm2.536 13.584l-2.973-1.242-1.164 2.767 2.973 1.242 1.164-2.767z" fill="#EBEBEB"/><path d="M122.984 5.071l-3.611 10.15a1.734 1.734 0 00.869 2.141 1.753 1.753 0 002.306-.703l5.361-9.462a1.366 1.366 0 00-.676-1.936l-2.435-.997a1.373 1.373 0 00-1.814.807zm-2.496 18.97a2.637 2.637 0 01-2.831.743 2.63 2.63 0 01-1.772-2.321 2.626 2.626 0 012.985-2.76 2.64 2.64 0 012.013 1.45 2.608 2.608 0 01-.395 2.889z" fill="#E0E0E0"/><path d="M123.549 53.798a18.599 18.599 0 002.309-12.685 6.08 6.08 0 00-.108-.517c-.307-1.502-.562-2.722-1.292-3.994-.074-.162-.148-.306-.228-.477-.079-.172-.159-.306-.242-.468a18.723 18.723 0 00-6.475-6.8 18.815 18.815 0 00-8.974-2.812C107.458 15.85 100.307 6.53 90.731 2.802 81.155-.926 69.547 1.147 61.837 7.934 53.677 1.869 42.421.18 32.851 3.6S15.658 15.445 13.233 25.292c-.74 3.013-1.047 6.202-2.589 8.894-1.166 2.033-2.95 3.627-4.473 5.407a25.678 25.678 0 00-5.237 9.811 25.614 25.614 0 00-.592 11.097 25.654 25.654 0 004.165 10.308 25.77 25.77 0 008.142 7.596c-5.155 7.052-3.346 18.157 3.783 23.224 4.092 2.909 9.551 4.025 12.67 7.952 1.327 1.673 2.095 3.709 3.246 5.505 3.914 6.116 12.612 8.603 19.189 5.505l34.933-8.836a46.176 46.176 0 0032.83-10.413c3.349-2.798 6.358-6.162 7.807-10.282 1.449-4.12 1.105-9.016-1.679-12.365 6.592-6.758 5.637-19.205-1.879-24.897z" fill="#E9E9E9"/><path d="M20.89 91.579a6.572 6.572 0 01.067-1.754l-1.292-.995 1.124-2.449 1.597.335a6.676 6.676 0 011.294-1.197l-.215-1.61 2.537-.938.89 1.362a6.686 6.686 0 011.76.067l.998-1.291 2.452 1.12-.353 1.592c.454.375.856.808 1.195 1.29l1.617-.215.936 2.531-1.368.889a6.66 6.66 0 01-.044 1.741l1.292.995L34.25 95.5l-1.597-.335a6.452 6.452 0 01-1.292 1.194l.212 1.614-2.536.937-.892-1.365a6.621 6.621 0 01-1.758-.064l-.998 1.292-2.451-1.123.335-1.595a6.553 6.553 0 01-1.195-1.29l-1.615.216-.936-2.531 1.366-.893-.004.022zm3.865.258a2.886 2.886 0 002.605 1.88 2.902 2.902 0 002.74-1.684 2.887 2.887 0 00-3.637-3.912 2.896 2.896 0 00-1.888 2.602c-.014.38.047.758.18 1.114z" fill="#fff"/><path d="M89.344 26.96c.27-.17.56-.303.865-.395l.16-.866 1.461-.055.228.85c.31.069.61.179.89.328l.728-.496 1.071.988-.442.758c.17.269.305.559.4.863l.865.162.055 1.452-.85.227a3.67 3.67 0 01-.332.89l.498.725-.992 1.067-.762-.44c-.27.169-.56.301-.865.394l-.163.866-1.458.055-.228-.85a3.574 3.574 0 01-.893-.328l-.728.496-1.071-.988.442-.762a3.566 3.566 0 01-.415-.86l-.869-.161-.052-1.453.854-.23c.069-.309.18-.607.331-.886l-.494-.719.992-1.067.774.434zm.816 1.92a1.557 1.557 0 00.331 2.388 1.57 1.57 0 002.288-.789 1.554 1.554 0 00-.405-1.685 1.568 1.568 0 00-2.223.086h.01zm-50.647 78.63a4.587 4.587 0 01.035-1.235l-.905-.69.786-1.713 1.121.222c.264-.317.568-.597.904-.834l-.149-1.129 1.769-.656.62.951a4.61 4.61 0 011.23.048l.694-.907 1.714.786-.224 1.119c.318.261.6.563.837.899l1.128-.151.658 1.766-.955.623a4.69 4.69 0 01-.06 1.236l.903.692-.785 1.711-1.12-.222a4.683 4.683 0 01-.902.836l.152 1.116-1.771.654-.621-.951a4.5 4.5 0 01-1.21-.051l-.694.906-1.715-.786.224-1.119a4.582 4.582 0 01-.836-.899l-1.122.152-.657-1.766.958-.622-.007.014zm2.698.18a2.017 2.017 0 001.822 1.314 2.023 2.023 0 001.916-1.179 2.016 2.016 0 00-1.371-2.806 2.025 2.025 0 00-2.367 2.671z" fill="#78C081"/><path d="M92.112 94.425c.349-.219.725-.39 1.12-.51l.209-1.12 1.888-.07.307 1.098c.402.09.79.233 1.155.425l.942-.642 1.385 1.278-.571.985c.211.348.376.722.491 1.113l1.121.211.073 1.878-1.102.306c-.09.4-.234.787-.427 1.15l.645.939-1.283 1.379-.989-.569a4.58 4.58 0 01-1.108.486l-.209 1.12-1.888.07-.307-1.098a4.652 4.652 0 01-1.155-.425l-.94.642-1.387-1.278.574-.985a4.573 4.573 0 01-.516-1.113l-1.12-.208-.074-1.88 1.105-.307c.09-.4.233-.787.427-1.15l-.644-.939 1.283-1.379.985.569.01.025zm1.059 2.484a2.016 2.016 0 001.562 3.389 2.02 2.02 0 001.895-2.484 2.016 2.016 0 00-1.266-1.425 2.032 2.032 0 00-2.191.52zM27.08 55.878a3.955 3.955 0 00-2.518-2.321c-.977-.279-2.128-.169-2.89-.838-.362-.306-.576-.77-.896-1.132a3.663 3.663 0 00-2.296-1.07c-2.868-.386-5.5 1.569-6.543 3.856-1.173.774-2.367 1.563-3.251 2.652-.885 1.089-1.431 2.541-1.106 3.902.243 1 .921 1.853 1.17 2.85.224.918.074 1.872.148 2.808.073.936.472 1.963 1.35 2.306 1.081.419 2.423-.373 3.424.217.678.4.896 1.278 1.452 1.835.96.97 2.582.722 3.878.275a21.014 21.014 0 004.276-2.034 8.489 8.489 0 002.35-2 3.877 3.877 0 00.822-2.893c-.104-.611-.405-1.205-.442-1.835-.07-1.107.663-2.082 1.056-3.12a4.775 4.775 0 00.015-3.458z" fill="#fff"/><path d="M24.936 67.885l-2.803 1.923-.003.003 2.868 1.013-.062-2.94z" fill="#F5F5F5"/><path d="M15.8 60.955a1.147 1.147 0 01-.713 1.062 1.159 1.159 0 01-1.258-.25 1.148 1.148 0 01.816-1.962 1.15 1.15 0 011.154 1.15zm3.588 0a1.15 1.15 0 01-.712 1.067 1.161 1.161 0 01-1.58-.838 1.148 1.148 0 01.492-1.185 1.16 1.16 0 011.46.142c.217.216.34.508.34.814zm3.586 0a1.146 1.146 0 01-.712 1.062 1.159 1.159 0 01-1.258-.25 1.149 1.149 0 01.816-1.962 1.156 1.156 0 011.154 1.15z" fill="#495E4C"/><path d="M114.964 36.461c-.261-.419-.816-.52-1.311-.563a21.526 21.526 0 00-5.357.187c-.614.098-1.517.043-1.578-.587a.882.882 0 01.651-.81c.614-.233 1.28-.123 1.928-.138.648-.016 1.381-.23 1.642-.82.396-.896-.632-1.835-1.605-1.966-.974-.132-1.996.125-2.932-.166l-2.048.043a17.846 17.846 0 00-4.477.649c-.408.113-.89.33-.92.749-.031.419.395.694.592 1.058.396.734-.249 1.654-1.032 1.942-.783.288-1.651.174-2.483.236-.833.06-1.76.412-2.036 1.198-.218.612.043 1.325-.148 1.952-.242.798-1.126 1.223-1.95 1.363-.822.141-1.694.123-2.455.471a2.703 2.703 0 00-1.289 1.231 2.688 2.688 0 00.675 3.29c.47.392 1.058.614 1.67.63.59 0 1.17-.163 1.756-.193.432-.033.862.075 1.228.306a3.096 3.096 0 002.15 2.78c.813.217 1.685.08 2.508.254s1.673.871 1.516 1.694c-.113.59-.7 1.021-.746 1.618-.058.73.737 1.263 1.471 1.33.734.067 1.464-.16 2.198-.116.734.043 1.554.507 1.572 1.238.019.817-.945 1.392-.961 2.205-.015.682.639 1.187 1.277 1.431.639.245 1.357.374 1.861.835.504.462.586 1.45-.04 1.725 1.013-.033 1.606-1.498.921-2.223-.436-.45-1.167-.572-1.501-1.101-.375-.587-.049-1.4.491-1.835.54-.434 1.228-.633 1.873-.917.645-.285 1.274-.738 1.44-1.413.245-1.013-.728-1.973-1.75-2.2-1.023-.226-2.082.031-3.126.092-1.044.062-2.232-.15-2.821-1.012l3.414-1.618a1.293 1.293 0 00.758-.654c.191-.584-.479-1.061-1.041-1.315l-2.222-1.006a1.303 1.303 0 00-.089-.395c1.35-.55 2.876-.34 4.322-.144 1.446.196 2.991.35 4.299-.305 1.308-.655 2.149-2.422 1.305-3.612-.452-.64-1.327-1.08-1.348-1.866 0-.648.614-1.137 1.228-1.345.614-.208 1.295-.251 1.867-.563.571-.312.997-1.086.653-1.624z" fill="#fff"/><path d="M98.75 41.272c.611 0 1.106-.493 1.106-1.101s-.495-1.101-1.105-1.101-1.106.493-1.106 1.1c0 .609.495 1.102 1.106 1.102zm4.535-1.102a1.094 1.094 0 01-.682 1.018 1.11 1.11 0 01-1.204-.239 1.1 1.1 0 01.781-1.88 1.1 1.1 0 011.105 1.101zm2.328 1.102c.61 0 1.105-.493 1.105-1.101s-.495-1.101-1.105-1.101c-.611 0-1.106.493-1.106 1.1 0 .609.495 1.102 1.106 1.102z" fill="#495E4C"/><path d="M28.246 14.809a6.315 6.315 0 00-3.48 1.027 6.278 6.278 0 00-2.334 2.77 6.25 6.25 0 001.24 6.815c-3.022.642-4.944 4.168-4.148 7.135.795 2.966 3.99 4.994 7.061 4.783 3.07-.211 5.834-2.447 6.966-5.319A6.266 6.266 0 0035.768 35a6.303 6.303 0 009.509-2.612c1.36 2.523 5.234 2.942 7.454 1.125 2.22-1.817 2.727-5.2 1.664-7.85-1.062-2.652-3.43-4.628-6.03-5.833 1.661-1.492 1.87-4.226.685-6.116-1.185-1.89-3.515-2.906-5.76-2.79-2.244.117-4.338 1.245-5.916 2.82a4.591 4.591 0 00-1.889-2.313 4.62 4.62 0 00-5.63.592 4.581 4.581 0 00-1.363 2.654" fill="#fff"/><path d="M31.657 20.27l2.886 5.062a.942.942 0 001.185.404.944.944 0 00.528-1.187l-1.983-5.52a.744.744 0 00-1.035-.413l-1.268.64a.74.74 0 00-.313 1.015zm6.896 7.732a1.415 1.415 0 01-.701 1.413 1.429 1.429 0 01-2.06-.773 1.414 1.414 0 01.408-1.523 1.427 1.427 0 012.353.883z" fill="#495E4C"/><path d="M40.987 17.258l.096 5.025a.808.808 0 00.73.792.816.816 0 00.89-.682l.787-5.01a.636.636 0 00-.352-.672.643.643 0 00-.262-.064l-1.228-.037a.643.643 0 00-.66.648zm2.033 8.695a1.224 1.224 0 01-1.114.785 1.232 1.232 0 01-1.154-.724 1.219 1.219 0 01.229-1.34 1.229 1.229 0 012.039 1.279z" fill="#E0E0E0"/><path d="M101.614 71.615l-2.613 7.34a1.264 1.264 0 00.63 1.553 1.273 1.273 0 001.669-.51l3.881-6.851a.984.984 0 00-.143-1.168.991.991 0 00-.345-.236l-1.762-.722a1.005 1.005 0 00-1.112.25.987.987 0 00-.205.344zm-1.806 13.732a1.908 1.908 0 01-2.049.537 1.907 1.907 0 01-1.282-1.681 1.893 1.893 0 011.07-1.823 1.914 1.914 0 012.549.877 1.9 1.9 0 01.088 1.45 1.9 1.9 0 01-.376.64zM59.369 17.723h2.487s0-2.284 2.17-2.324a2.031 2.031 0 011.95 1.403 2.637 2.637 0 01-.175 2.202c-.424.762-1.348 1.453-3.024 1.132v6.132h2.456v-3.594s3.45-.972 3.45-5.131c0-3.976-3.263-4.894-4.66-4.894-1.062-.009-4.7.263-4.654 5.074zm5.901 9.807h-2.5v2.551h2.5v-2.55z" fill="#fff"/><path d="M122.275 61.75s.034-.034.104-.092a1.1 1.1 0 01.375-.187c.223-.059.458-.059.681 0 .315.07.595.248.792.502.248.323.388.716.4 1.122.01.489-.107.972-.341 1.401a8.52 8.52 0 01-2.432 2.66c-.578.43-1.178.828-1.799 1.193-.648.389-1.336.786-2.079 1.16-.772.393-1.579.718-2.41.969a9.156 9.156 0 01-1.348.306 7.412 7.412 0 01-1.433.076 2.615 2.615 0 01-1.437-.367 1.035 1.035 0 01-.433-.636 1.297 1.297 0 01.095-.777 3.97 3.97 0 01.97-1.25c.396-.372.818-.716 1.262-1.028.9-.636 1.861-1.223 2.849-1.835a14.868 14.868 0 013.23-1.53 8.055 8.055 0 011.824-.357 5.042 5.042 0 011.894.177 2.67 2.67 0 011.563 1.135 2.114 2.114 0 01.037 1.948 3.37 3.37 0 01-1.385 1.468 8.208 8.208 0 01-1.906.804 12.796 12.796 0 01-4.21.404 31.519 31.519 0 01-4.335-.612 19.419 19.419 0 01-2.183-.532 9.166 9.166 0 01-1.062-.41 2.657 2.657 0 01-.961-.65 1.074 1.074 0 01-.258-.545c-.03-.21.005-.423.101-.612a2.07 2.07 0 01.845-.826 5.463 5.463 0 012.262-.645 27.773 27.773 0 014.784 0c.811.074 1.616.194 2.413.361.402.082.801.183 1.197.306.413.091.803.26 1.152.498a1.226 1.226 0 01.515 1.147 1.55 1.55 0 01-.816.973 6.665 6.665 0 01-3.688.832 4.559 4.559 0 01-1.271-.236 1.939 1.939 0 01-1.04-.792 1.361 1.361 0 010-1.303 2.308 2.308 0 012.241-1.19c.46.036.888.248 1.194.59.298.355.443.812.405 1.273a1.42 1.42 0 01-.224.651c-.131.193-.31.349-.519.453-.418.2-.894.248-1.344.135a1.54 1.54 0 01-1.096-.799.737.737 0 01.07-.706.998.998 0 01.596-.388c.459-.06.925-.005 1.357.162a4.3 4.3 0 011.243.56c.39.26.692.632.866 1.067a1.62 1.62 0 01-.074 1.373 2.475 2.475 0 01-.997.95 3.45 3.45 0 01-1.324.426 3.958 3.958 0 01-2.665-.654 4.81 4.81 0 01-1.719-2.166 4.022 4.022 0 01-.184-2.752c.147-.46.436-.863.826-1.15a3.543 3.543 0 011.292-.56 10.104 10.104 0 012.764-.217 14.26 14.26 0 012.741.306c.919.193 1.737.71 2.303 1.456.267.384.425.833.457 1.3a3.26 3.26 0 01-.215 1.354 4.654 4.654 0 01-1.7 2.08c-.364.262-.746.5-1.143.71-.39.216-.793.409-1.206.577a4.707 4.707 0 01-2.631.328 7.682 7.682 0 01-4.345-2.786 4.886 4.886 0 01-.884-2.416 5.887 5.887 0 01.341-2.527 6.03 6.03 0 011.332-2.14 6.929 6.929 0 012.03-1.462 7.36 7.36 0 012.388-.652 6.603 6.603 0 012.463.242 3.871 3.871 0 012.011 1.321c.456.666.715 1.446.746 2.251a9.997 9.997 0 01-.805 4.554 9.21 9.21 0 01-1.139 1.975 5.554 5.554 0 01-1.685 1.49c-.655.364-1.4.536-2.149.498a3.438 3.438 0 01-1.999-.844 12.075 12.075 0 01-1.471-1.55 7.009 7.009 0 01-1.185-1.744 3.08 3.08 0 01-.233-1.018 2.962 2.962 0 01.147-1.028 5.398 5.398 0 011.026-1.743 6.32 6.32 0 013.248-2.125 4.773 4.773 0 013.657.495 5.508 5.508 0 012.179 2.783 6.903 6.903 0 01.415 3.328 4.634 4.634 0 01-1.391 2.835 5.63 5.63 0 01-2.708 1.278 8.37 8.37 0 01-2.803.12 4.264 4.264 0 01-2.333-1.096 4.756 4.756 0 01-1.265-1.994 4.871 4.871 0 01-.206-2.14 6.147 6.147 0 011.468-3.26 7.588 7.588 0 012.063-1.661 9 9 0 011.489-.664c.35-.12.534-.165.534-.165l-.135.046-.393.134a9.564 9.564 0 00-1.48.676 7.643 7.643 0 00-2.042 1.664 6.11 6.11 0 00-1.443 3.239 4.826 4.826 0 00.209 2.107 4.708 4.708 0 001.256 1.963 4.19 4.19 0 002.293 1.068c.922.113 1.856.07 2.764-.126a5.566 5.566 0 002.658-1.257 4.554 4.554 0 001.354-2.783 6.814 6.814 0 00-.408-3.29 5.387 5.387 0 00-2.149-2.722 4.622 4.622 0 00-3.546-.474 6.18 6.18 0 00-3.181 2.088 5.224 5.224 0 00-1.001 1.704 2.87 2.87 0 00-.141.982c.02.335.097.665.227.975.29.627.674 1.207 1.139 1.719.439.551.926 1.063 1.455 1.53a3.327 3.327 0 001.925.816 3.896 3.896 0 002.082-.487 5.482 5.482 0 001.643-1.455c.453-.6.829-1.253 1.12-1.945.61-1.414.88-2.95.789-4.487a4.133 4.133 0 00-.718-2.177 3.705 3.705 0 00-1.937-1.267 6.354 6.354 0 00-2.377-.238 7.135 7.135 0 00-2.339.636 6.323 6.323 0 00-3.282 3.523 5.709 5.709 0 00-.332 2.447 4.71 4.71 0 00.857 2.364 7.49 7.49 0 004.246 2.722c.86.146 1.744.04 2.545-.306.407-.166.804-.356 1.188-.569.39-.207.765-.44 1.124-.697a4.524 4.524 0 001.649-2.01c.157-.41.226-.849.202-1.287a2.387 2.387 0 00-.43-1.223 3.723 3.723 0 00-2.21-1.392 13.995 13.995 0 00-2.708-.306 9.948 9.948 0 00-2.726.211 3.425 3.425 0 00-1.229.536 2.139 2.139 0 00-.77 1.07 3.896 3.896 0 00.181 2.654 4.663 4.663 0 001.661 2.095 3.797 3.797 0 002.557.612 3.267 3.267 0 001.262-.404c.386-.208.706-.52.921-.902a1.468 1.468 0 00.068-1.242 2.187 2.187 0 00-.808-.993 4.234 4.234 0 00-1.2-.539 2.686 2.686 0 00-1.274-.159.856.856 0 00-.504.325.583.583 0 00-.052.56 1.387 1.387 0 00.983.703c.411.102.844.06 1.228-.12a1.197 1.197 0 00.66-.981 1.544 1.544 0 00-1.459-1.692 2.157 2.157 0 00-2.087 1.101 1.211 1.211 0 000 1.16c.225.345.563.601.958.724.396.133.81.21 1.228.23.418.024.837.01 1.252-.043a6.495 6.495 0 002.349-.768 1.414 1.414 0 00.743-.871 1.063 1.063 0 00-.457-1 3.185 3.185 0 00-1.1-.474c-.396-.11-.789-.212-1.188-.306-.79-.167-1.59-.288-2.395-.361a27.448 27.448 0 00-4.755-.019 5.32 5.32 0 00-2.205.612c-.332.174-.606.44-.789.768a.875.875 0 00.135.99c.259.27.573.478.921.612.34.157.69.292 1.047.404.712.218 1.436.395 2.168.529 1.419.319 2.858.538 4.307.657a12.51 12.51 0 004.167-.397 7.856 7.856 0 001.873-.786 3.244 3.244 0 001.338-1.41 1.988 1.988 0 00-.027-1.835 2.53 2.53 0 00-1.493-1.083 4.869 4.869 0 00-1.842-.174 8.107 8.107 0 00-1.802.349 14.941 14.941 0 00-3.205 1.51c-.986.612-1.95 1.196-2.846 1.836-.441.309-.859.648-1.253 1.015-.396.34-.718.756-.949 1.223a1.2 1.2 0 00-.092.719.975.975 0 00.396.584c.418.248.899.37 1.385.352.474.022.949-.003 1.418-.074.453-.067.899-.17 1.336-.305a14.64 14.64 0 002.401-.96 31.55 31.55 0 002.078-1.148 20.31 20.31 0 001.796-1.186 8.451 8.451 0 002.426-2.63c.234-.422.352-.898.344-1.38a1.91 1.91 0 00-.384-1.104 1.379 1.379 0 00-.774-.498 1.335 1.335 0 00-.672 0c-.182.044-.35.131-.491.254z" fill="#F5F5F5"/><path d="M89.822 9.655a1.771 1.771 0 01.764-.456 2.157 2.157 0 011.094 0 2.22 2.22 0 011.262.805c.395.516.618 1.143.635 1.792a4.49 4.49 0 01-.55 2.236c-.785 1.492-2.148 2.939-3.89 4.25a32.186 32.186 0 01-2.882 1.912c-1.041.612-2.15 1.257-3.331 1.854a23.715 23.715 0 01-3.86 1.568c-.703.213-1.421.371-2.149.474-.758.115-1.525.157-2.29.126a4.192 4.192 0 01-2.294-.6 1.669 1.669 0 01-.681-1.006 2.008 2.008 0 01.153-1.223c.37-.762.893-1.44 1.535-1.994a18.553 18.553 0 012.018-1.642 46.907 46.907 0 012.232-1.48c.764-.484 1.535-.976 2.333-1.456a23.853 23.853 0 015.167-2.447 13.42 13.42 0 012.917-.569 8.07 8.07 0 013.024.285c.498.15.971.374 1.403.663.443.291.812.68 1.078 1.138a3.353 3.353 0 01.055 3.089 5.406 5.406 0 01-2.204 2.336 13.02 13.02 0 01-3.043 1.279 20.3 20.3 0 01-6.733.645 50.334 50.334 0 01-6.939-1.003 32.246 32.246 0 01-3.49-.85 14.879 14.879 0 01-1.692-.658 4.333 4.333 0 01-1.535-1.037 1.676 1.676 0 01-.384-.847c-.044-.32.013-.646.162-.932A3.295 3.295 0 0169.04 14.6a8.661 8.661 0 013.607-1.022 44.471 44.471 0 017.658.022c1.296.118 2.585.312 3.859.58.642.132 1.28.307 1.916.469a5.287 5.287 0 011.842.792c.273.207.494.474.648.78a1.6 1.6 0 01.16 1.012c-.071.34-.239.653-.483.902a3.534 3.534 0 01-.804.627 10.63 10.63 0 01-3.835 1.26c-.678.085-1.362.108-2.044.067a7.173 7.173 0 01-2.045-.379 3.032 3.032 0 01-1.643-1.248 1.967 1.967 0 01-.258-1.024c.014-.356.106-.704.267-1.022a3.633 3.633 0 011.489-1.468 3.65 3.65 0 012.054-.406 2.7 2.7 0 011.886.93 2.676 2.676 0 01.635 2 2.093 2.093 0 01-1.164 1.733 3.146 3.146 0 01-2.124.208 2.423 2.423 0 01-1.72-1.248 1.122 1.122 0 01.108-1.088c.222-.31.55-.527.921-.612a2.65 2.65 0 011.096 0c.36.064.706.16 1.053.257.704.19 1.373.492 1.98.893.618.412 1.097 1 1.373 1.688.133.347.195.718.181 1.089-.022.375-.127.74-.307 1.07a3.905 3.905 0 01-1.572 1.53c-.32.184-.66.333-1.013.443-.354.113-.718.19-1.087.23a6.294 6.294 0 01-4.237-1.04 7.632 7.632 0 01-2.736-3.45 7.317 7.317 0 01-.534-2.168 5.432 5.432 0 01.24-2.227 3.67 3.67 0 011.305-1.835 5.78 5.78 0 012.057-.89 16.106 16.106 0 014.427-.342c1.47.073 2.947.131 4.384.489 1.437.358 2.806 1.095 3.66 2.312.427.61.68 1.325.73 2.067a5.13 5.13 0 01-.337 2.141c-.513 1.376-1.554 2.474-2.711 3.312a15.95 15.95 0 01-1.824 1.135c-.624.344-1.267.65-1.928.917a9.265 9.265 0 01-2.06.566c-.707.1-1.426.084-2.128-.046a11.041 11.041 0 01-3.871-1.602 10.944 10.944 0 01-3.07-2.81 7.773 7.773 0 01-1.407-3.848 9.604 9.604 0 011.437-5.86c.17-.29.384-.553.574-.832.19-.278.427-.523.663-.761a11.08 11.08 0 013.24-2.33 11.597 11.597 0 013.813-1.04 10.46 10.46 0 013.884.394 6.142 6.142 0 013.202 2.101 6.848 6.848 0 011.185 3.588 16.04 16.04 0 01-1.286 7.275 14.628 14.628 0 01-1.821 3.153 8.856 8.856 0 01-2.687 2.377 6.42 6.42 0 01-3.432.798 5.14 5.14 0 01-1.71-.42 6.321 6.321 0 01-1.47-.917 19.494 19.494 0 01-2.356-2.477 11.106 11.106 0 01-1.842-2.795 5.025 5.025 0 01-.371-1.621 4.708 4.708 0 01.236-1.63 8.53 8.53 0 011.633-2.78 10.098 10.098 0 015.186-3.395 7.581 7.581 0 015.834.79 7.852 7.852 0 012.13 1.96 10.14 10.14 0 011.348 2.477c.657 1.699.882 3.533.654 5.34a8.373 8.373 0 01-.724 2.492 6.77 6.77 0 01-1.493 2.037c-1.228 1.134-2.806 1.725-4.32 2.04a13.419 13.419 0 01-4.482.19 7.238 7.238 0 01-2.039-.612 6.548 6.548 0 01-1.688-1.141 7.641 7.641 0 01-2.03-3.19 7.798 7.798 0 01-.331-3.416 9.366 9.366 0 01.866-2.954c.39-.82.887-1.584 1.476-2.276a12.25 12.25 0 013.298-2.657c.76-.428 1.56-.787 2.385-1.07.556-.193.85-.267.85-.267l-.211.07a15.66 15.66 0 00-.632.212 14.85 14.85 0 00-2.377 1.082 12.242 12.242 0 00-3.276 2.661 10.27 10.27 0 00-1.467 2.26 9.33 9.33 0 00-.854 2.936 7.746 7.746 0 00.335 3.386 7.556 7.556 0 002.017 3.156 6.742 6.742 0 003.684 1.718c1.485.186 2.99.119 4.452-.198 1.504-.306 3.07-.918 4.274-2.022a6.752 6.752 0 001.467-2.006 8.316 8.316 0 00.713-2.468 10.934 10.934 0 00-.651-5.288 10.202 10.202 0 00-1.339-2.447 7.755 7.755 0 00-2.1-1.93c-1.649-1.033-3.782-1.265-5.744-.77a9.975 9.975 0 00-5.118 3.364 8.418 8.418 0 00-1.61 2.753 4.492 4.492 0 00-.226 1.587c.03.543.152 1.076.362 1.578a11.008 11.008 0 001.842 2.752 19.035 19.035 0 002.337 2.447 5.35 5.35 0 003.106 1.315 6.261 6.261 0 003.356-.783 8.735 8.735 0 002.647-2.34 14.737 14.737 0 001.799-3.125 15.925 15.925 0 001.271-7.208 6.71 6.71 0 00-1.16-3.514 6 6 0 00-3.126-2.046 10.34 10.34 0 00-3.856-.376A11.45 11.45 0 0077.6 6.698a10.984 10.984 0 00-3.193 2.3c-.234.235-.436.498-.654.75-.218.25-.4.531-.565.819a9.473 9.473 0 00-1.403 5.759 7.627 7.627 0 001.378 3.773 10.84 10.84 0 003.021 2.771 10.939 10.939 0 003.814 1.609c.686.126 1.387.14 2.078.043a9.03 9.03 0 002.048-.557 17.624 17.624 0 001.913-.918 16.175 16.175 0 001.805-1.125c1.142-.826 2.15-1.902 2.653-3.239.256-.663.37-1.373.331-2.082a3.898 3.898 0 00-.697-1.979 5.153 5.153 0 00-1.569-1.44 7.163 7.163 0 00-1.998-.81 22.901 22.901 0 00-4.35-.484c-1.47-.09-2.945.023-4.382.34a5.596 5.596 0 00-2.002.862 3.515 3.515 0 00-1.25 1.743 5.309 5.309 0 00-.23 2.162c.065.73.24 1.446.522 2.123a7.464 7.464 0 002.68 3.364 6.121 6.121 0 004.118 1.033 5.36 5.36 0 001.056-.226c.344-.104.675-.248.986-.428a3.733 3.733 0 001.507-1.465 2.393 2.393 0 00.11-2.028 3.52 3.52 0 00-1.31-1.614 6.739 6.739 0 00-1.94-.866c-.68-.186-1.392-.413-2.067-.257-.334.074-.63.265-.832.538a.97.97 0 00-.092.94c.145.308.375.57.663.755.288.192.61.328.949.4a2.982 2.982 0 002.014-.192 1.935 1.935 0 001.08-1.609 2.51 2.51 0 00-.601-1.88 2.529 2.529 0 00-1.778-.872 3.497 3.497 0 00-1.957.391c-.6.318-1.094.804-1.42 1.398-.153.296-.24.621-.252.954-.007.33.076.657.24.945a2.87 2.87 0 001.56 1.18 7.125 7.125 0 001.967.367c.672.04 1.346.019 2.014-.064a10.468 10.468 0 003.78-1.241c.285-.166.544-.372.77-.612.227-.23.38-.52.442-.835a1.762 1.762 0 00-.749-1.636 5.154 5.154 0 00-1.777-.765 29.854 29.854 0 00-1.907-.468 33.676 33.676 0 00-3.844-.578 44.427 44.427 0 00-7.626-.027 8.518 8.518 0 00-3.55 1.003 3.172 3.172 0 00-1.28 1.248 1.42 1.42 0 00-.147.85c.044.291.173.564.371.783.413.435.916.776 1.474 1 .548.25 1.11.467 1.686.648a32.13 32.13 0 003.475.847c2.28.498 4.593.834 6.92 1.006a20.18 20.18 0 006.687-.636 12.846 12.846 0 003.012-1.263 5.244 5.244 0 002.15-2.278 3.228 3.228 0 00-.047-2.979 3.315 3.315 0 00-1.04-1.1 5.23 5.23 0 00-1.373-.652 7.93 7.93 0 00-2.978-.278c-.982.078-1.952.265-2.892.56a23.857 23.857 0 00-5.146 2.427c-.795.477-1.569.97-2.333 1.453a45.17 45.17 0 00-2.226 1.474 17.77 17.77 0 00-2.011 1.633 6.15 6.15 0 00-1.535 1.958c-.169.366-.22.775-.148 1.17.086.387.316.727.645.949.675.4 1.45.599 2.235.572a11.78 11.78 0 002.275-.122 14.46 14.46 0 002.15-.468 23.78 23.78 0 003.846-1.53c1.189-.59 2.29-1.223 3.332-1.835a32.56 32.56 0 002.88-1.902c1.737-1.306 3.097-2.752 3.883-4.223a4.441 4.441 0 00.553-2.214 3.05 3.05 0 00-.614-1.777 2.247 2.247 0 00-2.315-.801 1.816 1.816 0 00-.77.412zM34.098 45.444s-.059 0-.17-.018l-.497-.077a7.349 7.349 0 01-1.842-.532 3.488 3.488 0 01-1.133-.82 2.589 2.589 0 01-.69-1.498 1.767 1.767 0 01.171-.918c.157-.298.387-.552.67-.737a1.58 1.58 0 011.025-.256 1.318 1.318 0 01.921.611c.202.343.29.74.252 1.135a2.898 2.898 0 01-.344 1.162 2.46 2.46 0 01-.368.51 3.98 3.98 0 01-.46.447 4.495 4.495 0 01-1.146.64 4.62 4.62 0 01-1.332.268 4.31 4.31 0 01-1.394-.14 4.06 4.06 0 01-1.308-.612 3.564 3.564 0 01-.995-1.098 4.48 4.48 0 01-.55-2.97 4.174 4.174 0 01.544-1.489c.14-.231.306-.447.494-.642.183-.208.406-.378.654-.501.258-.142.56-.178.844-.101.143.048.273.126.381.229.102.11.176.242.218.385.07.28.07.573 0 .854a3.577 3.577 0 01-.28.798c-.263.498-.549.972-.856 1.45-.31.483-.676.928-1.09 1.327-.42.402-.918.715-1.464.917a2.912 2.912 0 01-1.701.098 3.151 3.151 0 01-1.446-.85 4.371 4.371 0 01-.921-1.37c-.37-1-.562-2.057-.568-3.123a7.636 7.636 0 01.027-1.544c.043-.532.28-1.029.666-1.398a1.39 1.39 0 01.704-.306c.253-.033.51-.004.749.086.467.176.85.521 1.074.966.2.433.274.913.215 1.386a4.138 4.138 0 01-.359 1.306c-.177.4-.4.777-.663 1.125-.257.333-.546.64-.863.918a6.362 6.362 0 01-2.048 1.183c-.68.24-1.398.349-2.118.321a5.547 5.547 0 01-1.87-.403 6.18 6.18 0 01-2.456-1.792 5.686 5.686 0 01-1.112-2.157c-.027-.107-.04-.165-.04-.165s.059.227.222.633c.235.595.567 1.146.982 1.633a6.184 6.184 0 002.435 1.75c.587.233 1.21.364 1.842.385a5.704 5.704 0 002.078-.324 6.139 6.139 0 002.84-2.067 5.53 5.53 0 00.642-1.104c.185-.4.303-.826.347-1.264a2.438 2.438 0 00-.206-1.312 1.84 1.84 0 00-.997-.893 1.3 1.3 0 00-1.308.205 2.03 2.03 0 00-.6 1.282 7.306 7.306 0 00-.024 1.529 9.045 9.045 0 00.56 3.058c.21.492.515.938.896 1.315.374.39.849.67 1.372.81.533.13 1.092.097 1.606-.094a4.18 4.18 0 001.412-.872c.82-.773 1.382-1.774 1.91-2.73a2.39 2.39 0 00.273-1.53.887.887 0 00-.181-.306.846.846 0 00-.307-.19.983.983 0 00-.728.09 2.043 2.043 0 00-.614.47 3.661 3.661 0 00-.473.612c-.265.44-.442.927-.522 1.434-.164.989.02 2.003.522 2.872a3.576 3.576 0 002.214 1.648 4.314 4.314 0 003.755-.73 3.35 3.35 0 00.801-.918c.186-.35.295-.734.32-1.129.039-.37-.04-.744-.228-1.067a1.226 1.226 0 00-.85-.55 1.467 1.467 0 00-.955.235 1.878 1.878 0 00-.648.703 1.65 1.65 0 00-.169.866c.057.543.288 1.054.66 1.456.309.341.682.618 1.1.813.587.263 1.206.45 1.842.554l.494.095.16.027zm40.597 57.554H55.842c-.744 0-1.347.601-1.347 1.343v.107c0 .741.603 1.342 1.347 1.342h18.853c.744 0 1.348-.601 1.348-1.342v-.107c0-.742-.604-1.343-1.348-1.343zm-15.033 4.463h11.613s-1.544 3.077-6.045 3.077c-4.694 0-5.568-3.077-5.568-3.077z" fill="#495E4C"/><path d="M70.966 42.431a4.111 4.111 0 00-6.267-.82 4.08 4.08 0 00-1.05 4.402 4.08 4.08 0 001.429 1.885 4.108 4.108 0 004.536.195l.051-.034-2.775 11.336 8.943 2.172-.037-.051a4.05 4.05 0 01.213-4.485 4.09 4.09 0 016.265-.37 4.056 4.056 0 01.744 4.428 4.066 4.066 0 01-1.54 1.774l-.085.054 9.612 2.337c2.08-4.62 3.283-10.815.732-17.895a25.186 25.186 0 00-6.475-9.993 25.31 25.31 0 00-10.354-5.92l-1.113-.27-2.775 11.343-.054-.087z" fill="#E9E9E9"/><path d="M70.966 42.431a.79.79 0 01.056.086c.098-.45 1.087-4.541 2.742-11.348v-.037h.036l.916.221c.312.07.622.175.94.27.629.207 1.273.44 1.923.713a25.375 25.375 0 013.968 2.072 26.869 26.869 0 013.896 3.047 26.904 26.904 0 013.444 4.11c.261.385.488.796.732 1.195l.369.608c.112.21.215.425.324.64l.65 1.296.554 1.362a24.248 24.248 0 011.542 5.868 22.997 22.997 0 01-.093 6.375c-.073.54-.195 1.075-.302 1.615-.108.54-.261 1.07-.427 1.6a25.749 25.749 0 01-1.174 3.145l-.02.048h-.051l-6.71-1.63-2.905-.695-.148-.036.131-.08a4.005 4.005 0 001.616-1.837 3.94 3.94 0 00.308-1.186 3.764 3.764 0 00-.059-1.217 4.346 4.346 0 00-.163-.586 4.52 4.52 0 00-.26-.55 3.842 3.842 0 00-.731-.953 4.023 4.023 0 00-3.253-1.082 4.03 4.03 0 00-2.908 1.812c-.209.32-.368.67-.474 1.038-.112.362-.17.738-.168 1.117.004.75.218 1.484.62 2.118l.078.127-.141-.034-8.941-2.177-.054-.015.012-.053a6582.58 6582.58 0 002.783-11.334l.07.049a4.058 4.058 0 01-4.079.163 4.113 4.113 0 01-2.104-2.72 4.089 4.089 0 01.706-3.36 4.209 4.209 0 012.263-1.518 4.52 4.52 0 011.17-.129c.344.017.687.072 1.02.166a4.033 4.033 0 012.113 1.459c.07.088.132.182.188.28l-.049-.069a4.187 4.187 0 00-.842-.907 4.109 4.109 0 00-1.42-.73 4.606 4.606 0 00-1.01-.155 4.425 4.425 0 00-1.158.131 4.15 4.15 0 00-2.226 1.508 4.026 4.026 0 001.387 5.976 3.988 3.988 0 003.99-.166l.098-.06-.027.109c-.83 3.405-1.755 7.192-2.765 11.338l-.04-.065 8.941 2.167-.06.092a4.102 4.102 0 01-.643-2.189c-.002-.39.055-.778.171-1.15.108-.38.273-.74.489-1.07a4.163 4.163 0 011.791-1.535 4.163 4.163 0 014.56.766c.301.284.557.612.759.973.1.183.19.372.266.567.07.197.127.398.168.603.09.412.11.836.064 1.255a4.099 4.099 0 01-1.99 3.13l-.017-.117 2.905.706 6.707 1.631-.073.035a25.935 25.935 0 001.17-3.13c.165-.528.292-1.061.424-1.594.132-.532.23-1.067.3-1.602.328-2.1.361-4.233.098-6.34a24.143 24.143 0 00-1.526-5.865l-.551-1.357c-.215-.433-.432-.863-.645-1.291-.107-.212-.21-.428-.322-.635l-.366-.605c-.244-.402-.474-.81-.732-1.192a24.612 24.612 0 00-7.296-7.131 25.415 25.415 0 00-3.95-2.072 24.47 24.47 0 00-1.915-.715c-.318-.095-.623-.2-.935-.273l-.913-.214.044-.026c-1.674 6.81-2.685 10.888-2.81 11.333l-.056-.087z" fill="#495E4C"/><path d="M79.36 71.858l.068-.07a4.001 4.001 0 00.82-4.363 4.01 4.01 0 00-1.491-1.78 4.03 4.03 0 00-5.925 1.82 3.993 3.993 0 00.868 4.354l.043.039H64.2v10.674l.039-.046a3.97 3.97 0 012.807-1.165 4.022 4.022 0 013.326 1.757 3.987 3.987 0 01-.738 5.296 4.017 4.017 0 01-3.681.786 4.013 4.013 0 01-1.682-.964l-.071-.07v12.238h10.76s.489-4.083.977-7.187c.488-3.103 7.456-9.434 9.456-12.073.805-1.062 2.794-4.547 3.66-9.241l-9.694-.005z" fill="#E9E9E9"/><path d="M82.645 84.166a1.271 1.271 0 00-1.45-.73c-.388.098-.732.383-1.14.339a1.122 1.122 0 01-.805-.674c-.166-.326-.257-.688-.452-.997a.952.952 0 00-.9-.51c-.472.077-.767.654-1.245.663a.874.874 0 01-.689-.433c-.158-.243-.256-.5-.42-.73a1.71 1.71 0 00-2.362-.328c-.46.231-.947.997-1.013 1.778-.198 2.36-1.12 2.782-1.12 2.782 0 .784-.23 1.55-.664 2.204a4.005 4.005 0 01-1.773 1.473 4.021 4.021 0 01-4.349-.794l-.07-.071v12.238h10.76s.489-4.083.977-7.187l-.017-.077a.888.888 0 00.017-.098c.317-2.22 6.715-8.848 6.715-8.848z" fill="#5CCD6A"/><path d="M79.36 71.858l9.704-.035h.042v.042a27.413 27.413 0 01-1.865 6.024 18.66 18.66 0 01-1.784 3.225c-.788 1.02-1.708 1.987-2.656 3.004-.947 1.016-1.923 2.062-2.902 3.161a33.162 33.162 0 00-2.824 3.578 7.267 7.267 0 00-1.023 2.111c-.148.78-.244 1.593-.37 2.403-.23 1.625-.447 3.293-.652 4.991v.053H64.136V87.972l.108.11a3.924 3.924 0 003.339 1.124c.4-.05.788-.166 1.15-.34.18-.086.355-.183.522-.293.163-.114.318-.238.466-.372a3.927 3.927 0 001.186-3.692 3.923 3.923 0 00-.9-1.793 3.944 3.944 0 00-2.773-1.327 3.675 3.675 0 00-1.108.102 3.933 3.933 0 00-1.882 1.08l-.105.107V71.804h9.597l-.03.08a4.017 4.017 0 01-1.09-1.836 3.95 3.95 0 010-2.023 4.02 4.02 0 011.48-2.232 4.045 4.045 0 015.062.156 4.017 4.017 0 011.34 2.319c.059.334.08.673.06 1.011a3.945 3.945 0 01-.966 2.338c-.071.085-.132.143-.169.182l-.06.058.055-.06c.037-.044.093-.102.164-.188a3.958 3.958 0 00.937-2.818 3.864 3.864 0 00-.442-1.596 3.965 3.965 0 00-1.662-1.675 3.984 3.984 0 00-4.484.519 3.954 3.954 0 00-1.232 2.01 3.893 3.893 0 000 1.982c.19.681.559 1.3 1.069 1.79l.08.08h-9.655l.053-.053v10.674l-.102-.039a4.046 4.046 0 011.94-1.118 4.129 4.129 0 012.278.111 4.068 4.068 0 012.484 2.413 4.04 4.04 0 01-2.08 5.08c-.373.18-.774.299-1.186.35a4.035 4.035 0 01-1.244-.016 4.069 4.069 0 01-2.197-1.14l.11-.047v12.238l-.061-.061h10.761l-.06.054c.21-1.704.429-3.37.658-4.996.12-.814.222-1.614.374-2.41a7.402 7.402 0 011.04-2.147 33.583 33.583 0 012.838-3.588c.976-1.109 1.965-2.154 2.91-3.161.944-1.007 1.87-1.983 2.653-2.992a18.597 18.597 0 001.782-3.203 27.529 27.529 0 001.877-6.002l.031.039-9.692-.03z" fill="#495E4C"/><path d="M72.196 79.494a.924.924 0 01-.574.856.933.933 0 01-1.268-.675.924.924 0 01.395-.951.932.932 0 011.447.77z" fill="#5CCD6A"/><path d="M67.417 89.242c-.947.078-1.997-.304-2.44-1.148l-.733.321c0 .486.608 1.442 1.054 1.625a4.242 4.242 0 002.841.214 2.96 2.96 0 001.919-2.133c-.837.608-1.694 1.043-2.641 1.12z" fill="#000" opacity=".2"/><path d="M58.662 45.482a4.007 4.007 0 012.917.669l.075.06-1.791-11.314-1.108.175a24.84 24.84 0 00-10.607 4.952 24.724 24.724 0 00-7.143 9.25c-3.068 6.714-2.394 12.875-.732 17.554l1.181-.187 9.202-1.447-.059.082a3.996 3.996 0 001.626 5.962 4.033 4.033 0 004.395-.717 4.003 4.003 0 001.035-4.316 4.007 4.007 0 00-1.4-1.85l-.051-.032.256-.041 7.881-1.25-1.791-11.307-.035.05a3.962 3.962 0 01-2.59 1.589 4.02 4.02 0 01-2.867-.796 3.985 3.985 0 01-.871-5.44 4.011 4.011 0 012.477-1.646z" fill="#5CCD6A"/><path d="M58.662 45.482l-.269.06c-.11.024-.218.055-.324.093-.064.022-.132.041-.205.07l-.23.1a3.974 3.974 0 00-1.081.73c-.43.413-.764.916-.976 1.474a4.192 4.192 0 00-.157.486 3.94 3.94 0 00-.085.54c-.041.39-.02.784.061 1.167a3.95 3.95 0 001.499 2.377 3.977 3.977 0 002.704.785 3.943 3.943 0 002.907-1.666l.061-.088.017.105c.53 3.33 1.135 7.13 1.802 11.307v.05h-.052l-8.123 1.283.022-.105a4.02 4.02 0 011.396 1.702c.153.347.251.716.29 1.093.05.38.044.764-.019 1.142a4.112 4.112 0 01-.349 1.102 4.25 4.25 0 01-.656.973 4.092 4.092 0 01-2.019 1.204 4.031 4.031 0 01-2.394-.126 4.096 4.096 0 01-1.928-1.484 3.612 3.612 0 01-.55-1.116 4.038 4.038 0 01.6-3.607l.062.1-6.715 1.055-3.661.577h-.054l-.017-.052a24.38 24.38 0 01-1.33-6.216 22.368 22.368 0 01-.032-3.103c.044-.511.073-1.022.151-1.525.035-.244.059-.504.105-.752l.14-.744a23.09 23.09 0 011.872-5.577l.644-1.277.161-.316c.056-.104.122-.202.18-.304l.37-.6c.119-.2.243-.4.363-.596l.18-.297.203-.28.808-1.114c.127-.187.28-.355.425-.527l.437-.514.432-.51c.146-.166.31-.316.463-.475.31-.31.61-.63.926-.926l.976-.849a25.903 25.903 0 014.061-2.765 26.556 26.556 0 014.15-1.79 21.26 21.26 0 013.973-.934h.04v.039c.8 5.129 1.4 8.967 1.77 11.316v.046l-.033-.012a4.024 4.024 0 00-2.797-.761l-.19.02s.06-.013.19-.03a4.005 4.005 0 012.82.74l-.032.02c-.376-2.348-.991-6.186-1.814-11.31l.046.034c-1.345.184-2.67.498-3.954.939a24.81 24.81 0 00-8.181 4.55l-.964.847c-.315.296-.613.615-.923.924-.151.158-.313.309-.459.486-.146.178-.285.338-.43.508l-.434.511a6.72 6.72 0 00-.425.528l-.8 1.107-.203.267-.18.294-.362.596-.363.599c-.061.1-.125.199-.181.301l-.159.316c-.215.421-.427.844-.642 1.27a23.046 23.046 0 00-1.86 5.552c-.044.243-.09.487-.136.73-.047.243-.071.486-.105.749-.078.486-.108 1.007-.15 1.515-.06 1.028-.05 2.06.033 3.086.17 2.11.615 4.19 1.325 6.185l-.068-.041 3.66-.576 6.718-1.056.151-.024-.09.121a3.884 3.884 0 00-.583 3.498c.06.193.133.381.22.564.09.18.195.353.312.518a3.981 3.981 0 003.024 1.683 4.007 4.007 0 002.238-.554 3.967 3.967 0 001.526-1.667 3.852 3.852 0 00.359-2.179 3.677 3.677 0 00-.281-1.06 3.95 3.95 0 00-1.35-1.656l-.12-.083.142-.022 8.135-1.257-.044.06c-.666-4.195-1.257-7.994-1.779-11.32l.076.014a4.04 4.04 0 01-1.338 1.203 3.93 3.93 0 01-1.635.487 4.042 4.042 0 01-2.748-.808 4.016 4.016 0 01-1.572-3.606c.027-.358.11-.71.244-1.044a3.961 3.961 0 012.099-2.206l.232-.1.207-.065a2.05 2.05 0 01.327-.085c.183-.041.276-.041.276-.041z" fill="#495E4C"/><path d="M64.03 100.395h-9.733s-.488-4.083-.976-7.187c-.488-3.103-7.456-9.434-9.456-12.075-.805-1.063-2.794-4.545-3.66-9.242h9.191l-.07.073a4.003 4.003 0 00-.821 4.365c.31.727.83 1.347 1.492 1.781a4.033 4.033 0 005.929-1.822 3.995 3.995 0 00-.87-4.355l-.043-.042 8.945.066V82.63s.835-1.267 2.849-1.216c2.013.051 3.534 1.479 3.859 2.919.324 1.44.053 4.156-2.66 4.888-2.715.732-4.077-1.175-4.077-1.175l.03 12.404" fill="#fff"/><path d="M63.946 99.85c.034 0 .063.137.063.304 0 .168-.027.304-.063.304-.037 0-.064-.136-.064-.304 0-.167.027-.303.064-.303zm-.008-2.488c.062.202.085.413.066.623.022.21 0 .421-.063.623a1.605 1.605 0 01-.064-.623 1.6 1.6 0 01.061-.623zm-.004-2.488c.062.202.083.413.063.623a1.6 1.6 0 01-.06.623 1.58 1.58 0 01-.067-.623c-.021-.21 0-.421.064-.623zm-.007-2.487c.063.2.086.412.066.622.021.21 0 .422-.064.623a1.605 1.605 0 01-.063-.623c-.022-.21 0-.42.06-.622zm-.005-2.489c.062.202.083.413.063.623a1.6 1.6 0 01-.06.623 1.622 1.622 0 01-.067-.623c-.021-.21 0-.421.064-.623zm.416-1.413c0 .014-.073-.02-.16-.088a1.584 1.584 0 01-.15-.128l-.08-.085-.041-.049-.02-.024v-.012l.115-.037c.021.205 0 .412-.063.608a1.528 1.528 0 01-.088-.627l.114-.037v.013l.02.024.036.046.071.085.124.146c.09.097.122.153.122.165zm2.164.893a1.635 1.635 0 01-1.155-.27c.198.014.394.054.581.12.197.024.39.075.574.15zm2.308-.47c.02.03-.207.185-.527.292a1.202 1.202 0 01-.595.095c0-.039.244-.112.554-.214a2.21 2.21 0 01.569-.173zm1.59-1.709c-.021.204-.1.398-.228.559-.18.282-.393.46-.415.435-.022-.024.137-.243.308-.505.17-.263.3-.504.334-.49zm.338-2.318c.081.187.11.392.086.594.018.203-.02.407-.11.59a2.06 2.06 0 01-.017-.593 2.006 2.006 0 01.041-.59zm-.958-2.133c.024-.024.244.15.424.428.134.156.219.347.245.55-.032.014-.164-.214-.347-.487-.183-.272-.35-.467-.322-.49zm-2.024-1.197a1.1 1.1 0 01.588.132c.31.126.528.294.508.323a2.203 2.203 0 01-.556-.207 2.28 2.28 0 01-.54-.248zm-2.353.061a1.07 1.07 0 01.569-.207c.197-.055.406-.055.603 0a2.168 2.168 0 01-.584.117 2.544 2.544 0 01-.588.09zm-1.457.407c.063.195.085.402.063.607l-.117-.037v-.012l.02-.026.039-.049.08-.085c.046-.048.096-.092.149-.131.088-.068.151-.097.163-.085.013.012-.031.068-.102.15-.07.083-.088.102-.124.144l-.071.087-.034.046-.017.025v.012l-.117-.034a1.51 1.51 0 01.068-.612zm0-2.702c.085.446.085.904 0 1.35a3.621 3.621 0 010-1.35zm0-2.705c.085.446.085.904 0 1.35a3.621 3.621 0 010-1.35zm0-2.7c.085.446.085.904 0 1.35a3.621 3.621 0 010-1.35zm-.61-1.965c.197-.06.404-.08.61-.058l.063.063v.423c-.012.11-.03.177-.047.177s-.034-.068-.043-.177c0-.056 0-.122-.015-.195v-.228l.063.063c-.213.023-.428 0-.631-.068zm-2.206-.014a1.21 1.21 0 01.55-.061c.188-.019.376.005.553.068a1.27 1.27 0 01-.552.058 1.293 1.293 0 01-.552-.066zm-2.21-.017a2.494 2.494 0 011.106 0 1.225 1.225 0 01-.554.06c-.186.021-.374 0-.551-.06zm-2.206-.016a1.21 1.21 0 01.552-.06c.186-.02.375.003.551.068-.177.06-.365.08-.551.058a1.293 1.293 0 01-.552-.065zm-1.309.44c-.014 0-.07-.03-.15-.106a2.274 2.274 0 01-.137-.134l-.076-.082-.039-.044-.022-.02a2.29 2.29 0 00.044-.111c.206-.019.413.005.61.068a1.495 1.495 0 01-.61.058c0 .025.08-.209.041-.11v.013l.023.022.04.046.074.09c.046.058.088.112.12.158.063.08.097.14.082.153zm.803 2.178a2.31 2.31 0 01-.136-.572 2.15 2.15 0 01-.1-.579c.126.16.204.353.224.555.062.193.066.4.012.596zm-.558 2.254c.123-.372.273-.736.45-1.087a1.7 1.7 0 01-.45 1.087zm-1.724 1.562c-.014-.034.213-.166.489-.343.275-.177.473-.338.488-.311.014.026-.152.243-.427.416-.157.13-.347.212-.55.238zm-2.304.343a1.47 1.47 0 01.588-.022 1.37 1.37 0 01.591.022c-.187.074-.387.11-.588.104a1.427 1.427 0 01-.59-.104zm-2.106-.99c.024-.027.244.131.488.309.244.177.488.309.488.343a1.086 1.086 0 01-.549-.244c-.273-.177-.451-.384-.427-.408zm-1.198-1.99c.105.166.187.345.244.533a2.2 2.2 0 01.207.55c-.03.019-.197-.195-.325-.502a1.047 1.047 0 01-.126-.58zm.114-2.319a2.154 2.154 0 01-.095.579 2.103 2.103 0 01-.134.571 1.661 1.661 0 01.23-1.15zm.342-1.492c.197-.061.404-.083.61-.063.019.049-.045-.107.046.11l-.022.021-.042.042-.075.085-.134.136c-.078.075-.137.116-.15.107-.011-.01.018-.073.081-.163.032-.046.07-.102.115-.16l.073-.09a.37.37 0 01.041-.046l.022-.022c.09.216.025.06.044.107-.205.02-.413 0-.61-.064zm-2.116 0c0-.034.136-.063.305-.063.168 0 .304.03.304.063 0 .034-.136.064-.304.064-.169 0-.305-.027-.305-.064z" fill="#495E4C"/><path d="M64.06 100.395h-2.638l-7.09.051h-.044v-.044a227.253 227.253 0 00-.913-6.68c-.093-1.241-.808-2.348-1.555-3.406a38.811 38.811 0 00-2.553-3.132c-1.199-1.35-2.414-2.624-3.564-3.87a42.286 42.286 0 01-1.645-1.872 8.658 8.658 0 01-.69-.988c-.21-.335-.4-.678-.584-1.016a25.918 25.918 0 01-1.682-3.984 26.411 26.411 0 01-.927-3.558v-.051h.051l4.594.02 1.22.011h.427-1.647l-4.594.02.042-.051c.227 1.196.535 2.376.922 3.531a25.977 25.977 0 001.69 3.962c.18.338.37.678.58 1.012.206.34.435.664.686.973.508.625 1.07 1.238 1.643 1.86 1.15 1.245 2.367 2.517 3.566 3.872a38.187 38.187 0 012.558 3.176c.382.527.726 1.08 1.03 1.657.146.284.267.581.361.887.083.303.144.61.18.922.367 2.432.652 4.691.894 6.691l-.051-.047 7.093.022 1.953.015h.51l.178.017z" fill="#495E4C"/><path d="M63.42 100.395c0-.036.136-.063.304-.063.168 0 .305.027.305.063 0 .037-.137.064-.305.064-.168 0-.305-.03-.305-.064zm-2.432 0a2.952 2.952 0 011.22 0 2.952 2.952 0 01-1.22 0zm-2.434 0a2.952 2.952 0 011.22 0 2.952 2.952 0 01-1.22 0zm-2.431 0a2.952 2.952 0 011.22 0 2.952 2.952 0 01-1.22 0zm-1.901-.603c.017 0 .041.063.068.17 0 .056.025.119.037.192l.017.112v.119c-.03-.024.06.058-.063-.056.205-.021.413 0 .61.063a1.534 1.534 0 01-.61.063c0-.129-.083-.029-.064-.058v-.425c-.02-.11-.012-.178.005-.18zm-.322-2.508c.14.402.195.829.163 1.253a3.207 3.207 0 01-.163-1.253zm-.347-2.497c.092.193.143.402.152.615.05.208.059.424.026.635a3.196 3.196 0 01-.178-1.25zm-.508-2.467c.139.168.231.368.269.582.069.204.087.422.054.635-.042 0-.093-.275-.176-.604a2.472 2.472 0 01-.147-.612zm-1.294-2.164c.165.136.303.3.406.487.136.164.237.355.297.56-.029.019-.21-.2-.405-.487a1.593 1.593 0 01-.298-.56zm-1.569-1.982c.027-.022.23.18.452.45.15.152.271.33.354.528-.03.022-.23-.18-.452-.448a1.623 1.623 0 01-.354-.53zm-1.674-1.894c.024-.022.244.168.469.428.158.145.285.32.376.513-.027.025-.245-.168-.471-.428-.227-.26-.408-.489-.374-.513zm-1.718-1.856c.024-.025.244.163.488.42.16.143.291.314.386.506-.027.022-.244-.165-.489-.42-.244-.256-.41-.482-.385-.506zm-1.716-1.858c.024-.025.244.165.473.423.158.144.287.317.381.508-.027.024-.244-.165-.476-.423-.232-.258-.395-.486-.378-.508zm-1.214-1.433c.027-.022.135.068.244.2.11.13.166.242.14.276-.027.034-.135-.068-.245-.199-.11-.131-.163-.255-.139-.277z" fill="#495E4C"/></g><defs><clipPath id="clip0_100_914"><path fill="#fff" transform="translate(0 .985)" d="M0 0h141v124H0z"/></clipPath></defs></svg>