<svg width="402" height="99" fill="none" xmlns="http://www.w3.org/2000/svg"><g opacity=".5" clip-path="url(#clip0_86_1980)"><path d="M232.116 49.857s-8.874-2.906-14.537-6.269-9.488-4.666-11.474-4.376c-1.987.291-6.43.291-9.645.877-3.215.585-5.201 1.166-5.816 2.623-.614 1.457 1.991 5.543 5.206 6.419 3.215.876 9.641 4.957 9.641 4.957s-28.007 25.524-26.935 28.148c1.071 2.624 13.317 13.285 14.998 13.418 1.682.133 26.935-7.29 28.464-7.585a30.957 30.957 0 009.641-3.79 32.783 32.783 0 005.51-4.231l12.712-5.248-14.376-26.4-3.389 1.457z" fill="#fff" stroke="#495E4C" stroke-linecap="round" stroke-linejoin="round"/><path d="M219.23 74.393s6.461 5.493 7.158 7.822a8.117 8.117 0 01-.175 4.658l-4.212 1.196-2.771-13.676zm20.078-16.972l5.938 18.97 4.622-1.59-10.56-17.38z" fill="#495E4C" stroke="#495E4C" stroke-linecap="round" stroke-linejoin="round"/><path d="M195.863 49.13s11.327 1.898 13.466 2.77c2.138.872 13.774 12.691 17.904 16.336 4.13 3.645 6.277 9.333 6.43 12.978.152 3.646-1.39 8.462-3.385 9.188-1.995.727-3.368-.29-3.977-1.748-.61-1.457-.92-4.23-.92-4.23l-2.448-4.812c.165 1.9.061 3.814-.309 5.688-.61 2.769-1.682 8.602-4.13 10.063-2.448 1.462-5.358.581-5.663-.145a16.81 16.81 0 01-.61-2.043s-.767 2.624-3.049 3.355c-2.283.73-5.511-.145-5.511-.145s-2.614 2.906-4.744 2.333-4.282-2.774-4.282-2.774-7.192-4.226-13.775-8.602c-6.582-4.376-18.361-18.084-18.361-18.084l-5.664-3.355 17.295-23.046 7.358 4.376 14.375 1.898z" fill="#fff" stroke="#495E4C" stroke-linecap="round" stroke-linejoin="round"/><path d="M176.282 49.268l-11.893 21.804-1.899-1.814 13.792-19.99z" fill="#495E4C" stroke="#495E4C" stroke-linecap="round" stroke-linejoin="round"/><path d="M199.218 39.943s-6.434-.162-7.959.436c-2.614 1.021-2.753 4.376-2.753 4.957 0 .581-1.839 5.252-2.144 7.004-.304 1.752 1.834 2.624 6.735 1.021 4.901-1.602 6.273-3.65 6.273-8.025" fill="#fff"/><path d="M199.218 39.943s-6.434-.162-7.959.436c-2.614 1.021-2.753 4.376-2.753 4.957 0 .581-1.839 5.252-2.144 7.004-.304 1.752 1.834 2.624 6.735 1.021 4.901-1.602 6.273-3.65 6.273-8.025" stroke="#495E4C" stroke-linecap="round" stroke-linejoin="round"/><path d="M186.82 51.319a2.36 2.36 0 01.904-.591 2.48 2.48 0 011.087-.14c1.224.145 3.672-.145 3.824-1.898.153-1.752-.457-2.623-1.681-2.623a4.631 4.631 0 00-2.296.73l-1.838 4.522zm28.006 16.651c.719 1.184 1.425 3.015 2.753 4.493 4.862 5.397 5.359 7.149 5.359 7.149m-9.488-16.337l.305 2.906.553.922m-9.122 4.047l.152 3.5s6.273 11.67 7.193 12.983c.919 1.312.305 4.811-.305 5.542m-13.867-7.979a33.918 33.918 0 002.54 3.603c2.448 2.907 2.753 7.585 2.753 7.585m-8.264-18.23v1.894s.911 1.74 2.152 3.815" stroke="#495E4C" stroke-linecap="round" stroke-linejoin="round"/><path d="M170.667 79.865s-3.69-.984-4.727-2.23c-1.036-1.245-1.476-5.276-1.546-6.542-.07-1.267-.871-2.533.736-3.097 1.608-.565 3.764 1.125 4.579 2.814.814 1.69.871 4.01.871 4.36 0 .348 1.254 2.254 1.254 2.254s1.194 2.159-1.167 2.441z" fill="#fff" stroke="#495E4C" stroke-linecap="round" stroke-linejoin="round"/><path d="M164.816 73.75s1.307 1.246 2.266 1.183c.958-.062.291-3.13.291-3.13a4.53 4.53 0 01-1.825-.905c-.436-.373-.85-.768-1.241-1.183l.509 4.035zm12.716 13.02s-3.92.776-4.874-.49c-.954-1.267-2.88-6.332-2.806-8.092.074-1.76 4.949-6.049 7.406-7.81 2.457-1.76 3.986-2.32 5.463-1.477 1.476.843 2.657 1.901 2.213 3.38-.445 1.477-3.986 7.808-4.574 8.933-.589 1.126-1.185 5.066-1.185 5.066l-1.643.49z" fill="#fff" stroke="#495E4C" stroke-linecap="round" stroke-linejoin="round"/><path d="M176.056 71.562s-1.625 1.478-.815 2.603c.81 1.125 2.879 2.184 3.768 1.901.889-.282 3.764-3.167 4.278-4.08.514-.914-2.657-3.098-2.657-3.098a11.11 11.11 0 00-4.574 2.674zm7.871 20.604s-4.273.83-5.323-.54c-1.05-1.37-3.145-6.916-3.049-8.838.095-1.922 5.401-6.606 8.063-8.528 2.662-1.922 4.356-2.536 5.968-1.615 1.612.922 2.901 2.076 2.418 3.691-.484 1.615-4.356 8.528-5.001 9.756-.645 1.23-1.307 5.534-1.307 5.534l-1.769.54z" fill="#fff" stroke="#495E4C" stroke-linecap="round" stroke-linejoin="round"/><path d="M182.315 75.56s-1.777 1.615-.871 2.844c.906 1.228 3.145 2.383 4.112 2.075.967-.307 4.113-3.458 4.679-4.454.566-.997-2.906-3.384-2.906-3.384a12.155 12.155 0 00-5.014 2.919zm9.924 19.06s-1.128-3.217-1.128-3.512c0-.295 2.047-4.982 1.842-7.029-.205-2.047-1.947-4.392-3.049-3.807-1.102.585-3.176 2.246-5.019 4.882-1.842 2.637-2.457 4.684-1.842 5.66.614.975 4.299 4.686 5.837 5.272 1.538.585 4.696-.415 4.696-.415l-1.337-1.05z" fill="#fff" stroke="#495E4C" stroke-linecap="round" stroke-linejoin="round"/><path d="M185.068 86.035s1.334.78 2.253.78 3.276-2.05 3.175-4.102c-.1-2.05-1.433-1.56-1.433-1.56s-3.585 2.536-3.995 4.882zm49.205-38.578l15.796 32.59 9.479-3.898-16.541-32.407-8.734 3.715z" fill="#fff" stroke="#495E4C" stroke-linecap="round" stroke-linejoin="round"/><path d="M310.812 4.616l-70.963 39.657 23.458 45.693 137.827-59.441" stroke="#495E4C" stroke-linecap="round" stroke-linejoin="round"/><path d="M304.892 11.423L240 44.023l23.916 44.506L389 33.212l-84.108-21.789z" fill="#9BF9A6"/><path d="M179.079 44.979l-21.555 31.88-8.177-3.894 22.67-32.059 7.062 4.073z" fill="#fff" stroke="#495E4C" stroke-linecap="round" stroke-linejoin="round"/><path d="M107.649.207l67.714 40.877-32.642 47.674L.433 23.512" stroke="#495E4C" stroke-linecap="round" stroke-linejoin="round"/><path d="M142.288 88.758l32.642-47.674L108 3.332 12.5 26.654l129.788 62.104z" fill="#9BF9A6"/></g><defs><clipPath id="clip0_86_1980"><path fill="#fff" d="M0 0h402v99H0z"/></clipPath></defs></svg>