<svg width="141" height="126" fill="none" xmlns="http://www.w3.org/2000/svg"><g opacity=".5" clip-path="url(#clip0_101_1058)"><path d="M139.318 112.582s-52.203-1.079-74.347 0c-15.842.772-63.476 0-63.476 0s.978-34.867 0-52.541c-.63-11.273 0-45.16 0-45.16s50.709.096 67.01-.534c26.976-1.061 70.813.534 70.813.534s1.052 24.243 0 38.672c-1.064 14.719 0 59.029 0 59.029z" fill="#fff"/><path opacity=".5" d="M139.318 14.88v22.145c-9.355-.234-35.264-.709-69.227.107-36.045.865-61.39.279-68.611.067V14.881s50.71.1 67.01-.534c26.991-1.061 70.828.534 70.828.534z" fill="#92E3A9" fill-opacity=".7"/><path opacity=".2" d="M87.079 111.124l-1.264-75.179H70.406c-.685 11.83-.233 59.434-.06 75.179H87.08zM3.232 37.236l16.903-.115s1.289 58.157-1.653 74.003H4.207s.196-21.183 0-38.669c-.197-17.485-.975-35.219-.975-35.219z" fill="#92E3A9" fill-opacity=".7"/><path d="M3.233 25.526s41.865-.59 54.521 0c12.656.59 47.479-.433 52.554-.741 5.076-.308 28.158.741 28.158.741.867-6.936-.782-10.111-.782-10.111s-61.757.805-91.656 1.21c-29.899.404-42.795 0-42.795 0s.589 5.478 0 8.901z" fill="#5CCD6A"/><path d="M139.318 112.582s-52.203-1.079-74.347 0c-15.842.772-63.476 0-63.476 0s.978-34.867 0-52.541c-.63-11.273 0-45.16 0-45.16s50.709.096 67.01-.534c26.976-1.061 70.813.534 70.813.534s1.052 24.243 0 38.672c-1.064 14.719 0 59.029 0 59.029z" stroke="#495E4C" stroke-width=".4" stroke-linecap="round" stroke-linejoin="round"/><path d="M5.33 26.41s15.975-.59 34.296 0c18.32.589 46.182.21 61.053-.264 14.872-.475 32.859-.62 32.859-.62M5.33 37.121s116.004-1.176 128.189-1.176M20.134 25.526s1.61 65.009 0 77.772m15.975-77.772s-.584 71.56 0 76.574" stroke="#495E4C" stroke-width=".4" stroke-linecap="round" stroke-linejoin="round"/><path d="M52.819 25.526s.586 14.095.741 26.562c.156 12.467-.741 49.422 0 53.547M70.406 26.12s-.893 42.841-.522 57.515c.37 14.674.522 22.601.522 22.601m15.39-80.71s1.483 50.936 1.32 61.86c-.163 10.923 0 17.021 0 17.021m15.39-79.623s-.093 30.045.852 38.395c.945 8.35-.426 43.071-.426 43.071m16.009-81.466s.63 15.368.741 23.95c.111 8.584-.293 52.394.741 55.688" stroke="#495E4C" stroke-width=".4" stroke-linecap="round" stroke-linejoin="round"/><path d="M5.33 46.217s24.11-.438 39.39 0c0 0-.037 4.11 0 5.723 0 0-35.567-.293-39.39 0 0 0 .292-4.696 0-5.723zm81.007-.194v5.935s30.088-.293 33.307-.879l-.059-5.723s-22.566-.264-33.248.667z" fill="#fff" stroke="#495E4C" stroke-width=".6" stroke-linecap="round" stroke-linejoin="round"/><path d="M35.847 53.553h34.255l-.215 5.468s-14.43.33-22.2.515c-7.769.186-11.577.438-11.577.438l-.263-6.42zm84.538-1.613l.141 4.11s10.661-.742 12.228-.586v-4.11s-9.434-.149-12.369.586z" fill="#5CCD6A" stroke="#495E4C" stroke-width=".6" stroke-linecap="round" stroke-linejoin="round"/><path d="M70.102 66.621s29.27-.682 33.256-2.033v8.16s-28.599.116-33.56 1.02c0 .016-.288-5.522.304-7.147z" fill="#fff" stroke="#495E4C" stroke-width=".6" stroke-linecap="round" stroke-linejoin="round"/><path d="M72.118 66.569s-2.797 4.321-2.223 4.874c.574.553 3.412-4.685 4.28-4.822.866-.137-3.028 7.203-2.657 7.463.37.26 5.294-7.756 6.461-7.756 1.167 0-2.593 6.98-1.852 6.947.74-.033 4.208-6.814 5.468-6.947 1.26-.134-2.92 6.843-1.952 6.814.967-.03 4.846-7.445 5.646-7.048.8.397-3.983 6.458-2.716 6.955 1.267.497 4.506-6.488 6.058-6.84 1.552-.352-3.59 6.361-2.09 6.54 1.5.178 3.75-7 4.92-6.429 1.171.572-2.148 4.555-1.66 4.822.49.267 2.053-4.8 3.617-4.822 1.563-.022-1.853 4.555-1.482 5.108.37.553 1.96-1.35 1.96-1.35" stroke="#92E3A9" stroke-width=".6" stroke-linecap="round" stroke-linejoin="round"/><path d="M6.793 46.194s-1.245 2.967-.949 3.105c.297.137 1.482-2.934 2.638-2.79 1.156.145-2.097 5.379-1.341 5.353.756-.026 3.334-5.998 4.123-5.68.79.32-1.904 4.986-1.393 5.309.512.322 3.08-5.65 3.887-5.32.808.33-2.271 5.097-1.482 5.097.79 0 3.446-5.193 4.25-5.193.803 0-2.49 4.53-1.686 5.13.804.601 2.786-5.716 3.96-5.13 1.175.586-1.76 4.822-.881 5.278.878.457 3.149-5.641 3.882-5.315.734.327-2.186 5.772-1.682 5.776.504.003 3.75-6.258 4.483-5.787.734.471-2.712 5.79-2.052 5.79.66 0 4.105-6.432 4.983-6.113.878.32-2.271 4.99-1.482 5.282.789.293 2.712-3.3 3.079-3.3.366 0-1.286 3.3-.827 3.3.46 0 2.223-5.512 3.098-4.955.874.556-1.026 3.635-.586 3.783.441.149 3.224-3.965 4.028-3.375.804.59-3.131 5.423-1.886 5.423 1.245 0 3.371-5.353 4.398-5.279 1.026.075-2.053 4.77-1.245 4.845.807.074 2.419-5.282 3.297-4.99.878.294-1.245 4.036-.66 4.255.586.22 1.83-3.742 2.857-3.668 1.026.074-1.904 3.817-.66 3.961 1.245.145 1.686-4.18 2.931-4.035 1.245.144-1.574 3.972-.896 4.477.678.504 1.726-1.91 1.726-1.91" stroke="#5CCD6A" stroke-width=".6" stroke-linecap="round" stroke-linejoin="round"/><path d="M5.781 55.241l1.708-.742a4.764 4.764 0 01-.34 1.64 1.267 1.267 0 00.97-1.039l-.189.601h1.597a.416.416 0 01.182-.471c-.17.152-.067.464.137.567a.98.98 0 00.675 0 6.578 6.578 0 001.611-.638.799.799 0 00.478.913c.347.134.72.182 1.09.14l4.79-.151M5.366 58.583s.66-.853 1.25-.742c.588.111.218 1.05.436 1.198.219.149.59-1.955.953-1.198.23.465.956 1.206.956 1.206s.804-.85 1.022-.687c.219.164.66 0 .66 0h6.818m9.412-3.846s-5.509 18.001 40.602 16.05" stroke="#495E4C" stroke-width=".6" stroke-linecap="round" stroke-linejoin="round"/><path d="M67.476 69.273l1.17 1.439-1.17.73" stroke="#495E4C" stroke-linecap="round" stroke-linejoin="round"/><path d="M39.919 71.15c-3.81-1.762-10.719-.572-15.846 2.656-5.128 3.227-6.184 13.794 12.596 10.712 18.78-3.082 6.903-11.755.326-11.755" fill="#fff"/><path d="M39.919 71.15c-3.81-1.762-10.719-.572-15.846 2.656-5.128 3.227-6.184 13.794 12.596 10.712 18.78-3.082 6.903-11.755.326-11.755" stroke="#92E3A9" stroke-width=".6" stroke-linecap="round" stroke-linejoin="round"/><path d="M25.024 76.873s1.15-1.042 1.646-1.113c.496-.07-.938.961 0 1.113.937.152.74-.37 1.652-.56.912-.19 1.193.83 1.193.83s1.482-.5 2.345-.741c.864-.241.293 1.172 1.482.742 1.19-.43.653-1.09 2.523-.742 1.872.349 5.502.126 7.133 0m-16.31 3.583c.37-.897-.089-1.072.938-.615 1.026.456 1.611 1.072 2.052.615a1.319 1.319 0 011.483-.348c.437.185-.59.478.437.185a4.137 4.137 0 001.615-.86s-.259.623.823 1.183c1.082.56 1.853-.594 1.853-.594a46.08 46.08 0 014.954.078" stroke="#92E3A9" stroke-width=".6" stroke-linecap="round" stroke-linejoin="round"/><path d="M35.477 121.362l3.92-4.299v-1.113l2.995-2.738s3.653 1.265 5.395 5.72l-3.172 2.679-1.212.155-4.68 3.339s-3.246-1.128-3.246-3.743z" fill="#495E4C"/><path opacity=".3" d="M42.51 114.043s1.337 3.984 4.79 4.797m-7.28-1.715s1.215 3.209 3.798 4.236" stroke="#fff" stroke-width=".4" stroke-linecap="round" stroke-linejoin="round"/><path opacity=".2" d="M45.946 10.715l1.274-1.457h2.957a6.386 6.386 0 002.23-.968s-1.126-1.148-2.484-1.187h-2.552l-6.817-1.239L2.582 9.258a5.101 5.101 0 00.683 4.633l42.681-3.176zm17.082 3.177l1.025-.875 3.31-.037a9.43 9.43 0 00.072-3.252l-9.047-3.143c-2.323 1.45-1.38 7.307-1.38 7.307h6.02z" fill="#000" fill-opacity=".7"/><path d="M49.76 3.73s1.59-.2 2.498.539c0 0-.118.938-2.51 1.178l.012-1.717z" fill="#5CCD6A" stroke="#495E4C" stroke-width=".5" stroke-linecap="round" stroke-linejoin="round"/><path d="M46.814 3.309l-2.066-1.411-42.21 3.4c-1.853 3.004.46 5.986.46 5.986l42.476-3.54 1.491-1.462 2.946-.505c.181-.37.273-.778.266-1.19a1.864 1.864 0 00-.396-1.25l-2.967-.028z" fill="#495E4C"/><path d="M16.478 4.574L35.3 3.03a.607.607 0 01-.511.845L17.143 5.389a.604.604 0 01-.665-.606v-.209z" fill="#92E3A9"/><path opacity=".3" d="M44.712 2.552s1.359 1.514.4 4.542m1.865-3.379c.239.61.3 1.275.179 1.92M2.86 5.864s1.437 1.26.478 4.845" stroke="#fff" stroke-width=".4" stroke-linecap="round" stroke-linejoin="round"/><path opacity=".3" d="M3.667 5.625s.454.06.635 2.337l40.41-3.751a4.096 4.096 0 00-.828-1.992L3.667 5.625zM47.37 3.563c.205.331.316.712.321 1.102l2.232-.218a2.662 2.662 0 00-.278-.884H47.37z" fill="#fff"/><path d="M66.573 11.503l-4.6-1.166-.809.43-3.118-1.111s-.499-3.12 2.03-6.093l3.148 1.254.581.814 4.198 2.087s.448 2.776-1.43 3.785z" fill="#5CCD6A"/><path d="M66.573 11.503l-4.6-1.166-.809.43-3.118-1.111s-.499-3.12 2.03-6.093l3.148 1.254.581.814 4.198 2.087s.448 2.776-1.43 3.785zM58.609 9.26s2.351-2.502 1.604-5.3m1.562 5.905s1.84-2.12 1.583-4.37" stroke="#495E4C" stroke-width=".4" stroke-linecap="round" stroke-linejoin="round"/><path d="M112.487 121.276s-2.235-20.09-3.778-24.352c-1.542-4.262-3.609-18.4-3.609-18.4s4.741-.381 6.177-.395c1.436-.014 3.291-1.39 3.291-1.39-.157.282-.515.11-.779-1.615-.178-1.156-1.932-1.505-1.932-1.505s-4.209.316-7.759-.164a4.396 4.396 0 01-2.644 0c-1.292-.47-1.554-.975-.845-1.66 0 0-1.005-1.313 2.43-3.185 0 0-2.283-2.055-1.168-3.382 1.115-1.328 3.741-2.659 3.741-2.659s.11-1.003.594-1.262c.485-.26 3.12-1.34 4.567-2.343s2.078-.93 4.753-1.003c2.674-.073 5.94-.744 7.165-.186.952.434 1.394 2.133 1.394 2.133.889.282.979 1.74 1.036 2.098.262 1.598 2.1 8.222 2.917 9.372.816 1.15 1.297 3.16 1.151 4.203-.146 1.043-.521 2.255-.892 4.386-.372 2.13-1.633 9.476-2.253 11.596-.619 2.12-.965 5.798-.633 7.582l8.603 17.181" fill="#fff"/><path opacity=".4" d="M123.274 66.846s-1.777 1.073-1.777 1.756c0 0-3.378 2.573-3.767 5.603 0 0-1.872 1.9-2.283 2.763-.411.862-2.196 1.874-2.196 1.874a13.279 13.279 0 00-1.518-.056 18.86 18.86 0 01-2.534-.564 44.149 44.149 0 012.07-.098c1.191 0 2.669-.959 3.139-1.283-.18 0-.431-.434-.628-1.725-.177-1.153-1.931-1.505-1.931-1.505s-4.209.315-7.76-.161a4.603 4.603 0 01-1.799.186 1.695 1.695 0 00-.428-1.232s1.63-1.085 1.205-1.922c-.202-.4-.932-.649-1.644-.798a8.767 8.767 0 011.608-1.08s-2.284-2.054-1.169-3.382c1.115-1.328 3.75-2.653 3.75-2.653s.11-1 .594-1.262c0 0-.281 1.547 1.856 1.409 2.137-.138 5.214-1.41 5.214-1.41s5.8.161 6.977-.732c0 0 1.408 1.203 2.438 1.41 1.031.205.583 4.861.583 4.861zm5.91 8.744c-.15 1.04-.521 2.254-.893 4.385s-1.633 9.48-2.252 11.597c-.62 2.117-.966 5.798-.634 7.582l.788 1.883c-1.709-3.033-1.573-7.013-1.435-8.059.166-1.282 1.126-6.023 1.97-8.476.845-2.452.921-7.582.921-7.76 0-.177-.445 1.128-.898 2.574s-2.117 5.522-2.117 5.522c-.057-.846.639-5.793.765-6.357.127-.563 1.146-4.355 1.329-5.426.183-1.07-.664-2.255-.875-3.1-.211-.846-1.045-4.617-1.267-7.214a11.387 11.387 0 00-1.034-4.075c.232.398.412.824.535 1.268.89.282.98 1.736 1.037 2.094.261 1.599 2.1 8.223 2.916 9.375.817 1.153 1.29 3.146 1.144 4.186zm-16.55 45.833c-.815-6.925-2.445-20.108-3.473-23.722.71.932 1.517 2.438 2.084 5.34 1.141 5.842 1.489 8.414 1.537 11.093.045 1.713.01 4.87-.148 7.289z" fill="#92E3A9"/><path d="M112.28 120.511s-2.226-19.848-3.763-24.06c-1.537-4.21-3.595-18.18-3.595-18.18s4.722-.375 6.153-.389c1.43-.014 3.278-1.373 3.278-1.373-.157.278-.513.109-.777-1.596-.176-1.141-1.924-1.487-1.924-1.487s-4.192.312-7.729-.161a4.412 4.412 0 01-2.633 0c-1.287-.466-1.548-.964-.841-1.64 0 0-1.001-1.299 2.42-3.148 0 0-2.274-2.03-1.164-3.342 1.111-1.311 3.727-2.626 3.727-2.626s.11-.991.592-1.247c.482-.257 3.107-1.323 4.549-2.315 1.441-.991 2.069-.919 4.734-.991 2.664-.073 5.917-.735 7.137-.184.948.429 1.388 2.108 1.388 2.108.886.279.976 1.719 1.032 2.072.261 1.58 2.092 8.124 2.905 9.26.814 1.136 1.293 3.122 1.147 4.153-.145 1.03-.518 2.227-.889 4.333-.37 2.105-1.626 9.363-2.243 11.457-.617 2.094-.962 5.729-.631 7.491l8.57 16.975" stroke="#495E4C" stroke-width=".4" stroke-linecap="round" stroke-linejoin="round"/><path d="M100.595 71.795s.741 1.007 3.303.595c2.562-.412 5.631-2.974 5.631-2.974l1.839-.778s2.339.26 3.192-.15m-1.309.223s1.526 1.636 2.751 2.008m-1.448 6.021c1.039-.668 2.413-2.537 3.675-2.675" stroke="#495E4C" stroke-width=".4" stroke-linecap="round" stroke-linejoin="round"/><path d="M114.34 74.473c.563-1.863 2.253-3.754 2.253-3.754a8.814 8.814 0 011.039-1.748 2.962 2.962 0 011.782-1.226s-1.476-4.18-1.039-5.02m-6.532 10.894s1.146-.364 1.408-1.128m-1.666-.433s-.07 1.19-1.856 1.561m1.633-4.981s.887-.592 1.185-1.19m-6.935-4.878s-.318.893 1.011 1.263c1.329.369 4.894-.037 6.378-1.263 0 0 .366-1.04.256-1.709" stroke="#495E4C" stroke-width=".4" stroke-linecap="round" stroke-linejoin="round"/><path d="M112.8 62.725s4.356-.155 4.689-.155c.332 0 1.669-.705 1.928-1.45m-.009 6.625s.981.338 1.66.191m-3.831 6.538s-.157-1.65.992-3.984m5.85-10.573c.591 2.3 1.501 9.866 2.114 11.298.614 1.432.687 1.92.243 3.258-.445 1.34-1.163 4.572-1.163 4.572m.121 20.11c-.482-1.526-.777-3.533-.594-4.46" stroke="#495E4C" stroke-width=".4" stroke-linecap="round" stroke-linejoin="round"/><path d="M97.166 66.78s-1.233.232-1.65.9c0 0 .363.564 1.853.412 1.49-.153-.203-1.311-.203-1.311z" fill="#495E4C"/><path d="M101.561 64.45l34.825-5.173.444 6.221-34.973 3.473-1.633-.736-2.675.068a1.44 1.44 0 01-.262-1.82l2.754-.593 1.52-1.44z" fill="#5CCD6A"/><path d="M107.549 64.776l14.36-2.04a1.08 1.08 0 01.82.221 1.093 1.093 0 01.41.745l.028.282a1.085 1.085 0 01-.946 1.187l-14.384 1.75a1.083 1.083 0 01-.288-2.145z" fill="#495E4C"/><path opacity=".3" d="M136.83 65.498l-34.973 3.476-1.633-.739-2.675.068a1.41 1.41 0 01-.338-.46l2.816-.095 1.239.112 4.867-.408 1.425-2.675s1.25-.158 2.252 1.113c1.003 1.271 1.56 1.108 1.56 1.108l23.957-2.509.282-.282s-.966-2.193 0-3.983c.242-.448.52-.628.802-.625l.419 5.9z" fill="#000" fill-opacity=".7"/><path d="M101.561 64.45l34.825-5.173.444 6.221-34.973 3.473-1.633-.736-2.675.068a1.44 1.44 0 01-.262-1.82l2.754-.593 1.52-1.44z" stroke="#495E4C" stroke-width=".6" stroke-linecap="round" stroke-linejoin="round"/><path d="M136.386 59.277c2.413-.192 2.931 5.974.444 6.222-2.379.236-2.894-6.03-.444-6.222z" fill="#5CCD6A"/><path opacity=".3" d="M136.83 65.499c-.65.064-1.163-.358-1.512-1.01l.282-.282s-.966-2.193 0-3.983c.242-.448.521-.629.802-.626.845 0 1.707 1.635 1.67 2.518l.366.09c.133 1.547-.357 3.183-1.608 3.293z" fill="#000" fill-opacity=".7"/><path d="M136.386 59.277c2.413-.192 2.931 5.974.444 6.222-2.379.236-2.894-6.03-.444-6.222zm-34.825 5.173s-.69.868-.504 2.514c.064.734.342 1.431.8 2.008m-1.817-3.082a3.058 3.058 0 00.183 2.345m35.083-2.584c-2.384.237-2.843-5.756-.417-6.151" stroke="#495E4C" stroke-width=".6" stroke-linecap="round" stroke-linejoin="round"/><path d="M136.433 59.666c1.91-.166 2.321 5.165.352 5.376-1.892.206-2.289-5.206-.352-5.376z" stroke="#495E4C" stroke-width=".6" stroke-linecap="round" stroke-linejoin="round"/><path d="M136.439 60.046s.997.37 1.175 2.182c.177 1.813-.846 2.371-.846 2.371" stroke="#495E4C" stroke-width=".6" stroke-linecap="round" stroke-linejoin="round"/><path d="M114.554 78.786s-2.533.147-2.815 0c-.282-.147-1.858-3.123-1.931-4.05-.074-.928-.223-3.905-.299-5.765-.076-1.86-.07-4.758-3.562-4.14-1.559.281-1.821 1.755-2.339 5.073-.518 3.318-.037 4.2-.409 8.437-.371 4.236.074 5.919.966 8.053.893 2.133 1.222 7.56 3.598 9.567 2.377 2.007 3.309 5.871 3.309 5.871" fill="#fff"/><path opacity=".4" d="M108.343 68.122c-.639.156-3.097.282-3.257 1.103-.161.82 1.298 1.206 1.903 1.942-.022 0-2.534 0-3.097 1.226-.563 1.226.465 3.859.465 5.308 0 1.448-1.262 4.349-.296 5.854.845 1.314 1.627 4.338 1.219 7.21-.425-1.719-.718-3.382-1.126-4.371-.887-2.12-1.332-3.811-.96-8.04.371-4.228-.113-5.121.408-8.439.372-2.382.611-3.816 1.298-4.538.802-.175 1.709-.242 2.252.147 1.163.803 1.839 2.44 1.191 2.598z" fill="#92E3A9"/><path d="M114.554 78.786s-2.533.147-2.815 0c-.282-.147-1.858-3.123-1.931-4.05-.074-.928-.223-3.905-.299-5.765-.076-1.86-.07-4.758-3.562-4.14-1.559.281-1.821 1.755-2.339 5.073-.518 3.318-.037 4.2-.409 8.437-.371 4.236.074 5.919.966 8.053.893 2.133 1.222 7.56 3.598 9.567 2.377 2.007 3.309 5.871 3.309 5.871" stroke="#495E4C" stroke-width=".4" stroke-linecap="round" stroke-linejoin="round"/><path d="M109.803 74.735s-.239-.076-.38-1.525a2.66 2.66 0 00-1.367-2.046m-3.265 0s-1.037.222-1.448 1.674" stroke="#495E4C" stroke-width=".4" stroke-linecap="round" stroke-linejoin="round"/><path d="M11.924 34.664a.34.34 0 01-.31-.189c-.072-.128-.109-.377-.11-.745-.001-.634.145-1.997.44-4.09.017-.09-.015-.144-.097-.162-.083-.02-.42-.03-1.013-.029-.809.002-1.272.05-1.39.146-.119.096-.21.527-.276 1.292-.025.304-.099.797-.221 1.48-.148.82-.221 1.404-.22 1.751l.016.244c0 .232-.11.348-.332.348-.265 0-.398-.165-.4-.497 0-.266.022-.5.065-.704.071-.345.131-.678.18-.997.03-.201.066-.419.106-.654.163-.933.244-1.597.243-1.994 0-.134-.062-.207-.186-.22-.244-.028-.367-.128-.367-.3 0-.117.029-.21.088-.283a.325.325 0 01.24-.116c.247-.011.427-.052.54-.121a.593.593 0 01.232-.078c.105 0 .197.023.274.069.085.051.333.076.742.076l.82-.025c.543-.017.84-.03.892-.04.052-.011.115-.032.19-.063a.806.806 0 01.297-.078l.309.046.344-.024c.209 0 .313.09.313.273a.425.425 0 01-.115.302.386.386 0 01-.262.128.297.297 0 00-.182.078c-.051.044-.12.24-.203.588-.085.348-.167.957-.248 1.828-.078.87-.116 1.654-.114 2.35v.139c0 .054-.033.11-.1.166a.403.403 0 01-.185.105zm4.843-2.716c.029-.054.073-.377.134-.97.045-.474.195-.711.45-.712.209 0 .313.104.314.313 0 .049-.018.148-.054.297-.196.822-.294 1.512-.293 2.068.002.603.102.993.3 1.17.104.096.155.173.155.232 0 .072-.052.138-.157.198a.576.576 0 01-.282.089c-.402 0-.605-.62-.607-1.861 0-.083-.032-.124-.093-.124-.242 0-.539.016-.889.045-.35.029-.601.065-.753.11-.15.044-.242.085-.278.124-.034.036-.064.135-.092.297-.026.16-.038.327-.038.5l.001.474c0 .276-.125.414-.378.415-.211 0-.317-.138-.318-.413 0-.18.023-.41.069-.688.083-.51.167-1.39.249-2.636.01-.162.024-.266.042-.31a.372.372 0 01.139-.143.43.43 0 01.25-.081c.186 0 .279.075.28.227 0 .023-.03.216-.088.58a5.403 5.403 0 00-.091.846c0 .142.05.213.147.213.196 0 .554-.034 1.074-.1.52-.067.79-.12.807-.16zm9.921-.757c0 .03.078.08.235.152.174.081.302.16.384.233a.79.79 0 01.206.293c.055.12.082.266.083.436 0 .157-.105.37-.315.64a2.58 2.58 0 01-.813.675c-.332.18-.678.271-1.04.272a.98.98 0 01-.287-.06c-.121-.042-.182-.084-.182-.13 0-.245.173-.369.52-.37.108.002.214 0 .317-.003.104-.006.235-.04.395-.104.162-.065.315-.155.457-.27.142-.116.244-.228.307-.338a.653.653 0 00.093-.32.634.634 0 00-.227-.476c-.15-.139-.356-.208-.616-.207-.039 0-.131.031-.278.094-.146.065-.242.098-.287.098-.152 0-.248-.02-.287-.058-.037-.04-.056-.109-.056-.208 0-.069.164-.168.492-.297.322-.128.611-.323.868-.585.26-.262.39-.472.389-.628 0-.105-.055-.198-.165-.278-.107-.082-.255-.122-.442-.122-.243 0-.524.034-.844.101-.32.066-.496.13-.527.192-.03.063-.11.538-.243 1.427-.133.887-.2 1.4-.199 1.539 0 .074.004.145.012.214.006.07.01.136.01.199 0 .267-.13.402-.39.402-.072 0-.131-.051-.178-.155a.696.696 0 01-.071-.284c0-.037.032-.186.096-.448.077-.356.154-.842.23-1.46.078-.62.116-.95.116-.99a.364.364 0 00-.036-.182c-.021-.039-.072-.058-.152-.058-.032 0-.063.001-.094.003-.03.002-.06-.016-.09-.055a.228.228 0 01-.045-.141c0-.154.255-.319.766-.494.512-.177 1.122-.266 1.83-.268.26 0 .491.087.693.263.203.175.305.356.306.541 0 .133-.088.322-.266.566a2.75 2.75 0 01-.675.649zm3.897.156c-.182.004-.57.543-1.163 1.617-.2.361-.317.559-.35.592a.464.464 0 01-.184.085.825.825 0 01-.22.039c-.13 0-.197-.255-.198-.764 0-.287.06-.807.181-1.56a4.62 4.62 0 00.075-.653c0-.129.057-.193.172-.194.217 0 .326.156.327.468 0 .147-.036.434-.107.862-.083.489-.125.785-.127.891.121-.117.298-.375.532-.772.33-.543.574-.888.73-1.032.158-.147.32-.22.489-.221.127 0 .227.084.302.254.077.17.123.575.14 1.216.005.16.02.279.045.357.026.078.044.117.056.117.092 0 .29-.313.596-.939.163-.33.322-.582.475-.754.156-.172.33-.258.519-.259.158 0 .273.082.346.245.072.163.125.404.157.724.03.324.075.62.136.89.063.27.177.442.341.518.112.053.168.114.168.184 0 .069-.047.139-.14.211a.436.436 0 01-.258.11c-.156 0-.296-.096-.42-.287-.123-.19-.217-.605-.28-1.241a4.989 4.989 0 00-.08-.545c-.027-.108-.067-.161-.121-.161-.082 0-.18.079-.293.235-.11.157-.29.474-.54.953-.194.374-.342.623-.443.748-.1.124-.196.185-.29.186a.312.312 0 01-.226-.1.465.465 0 01-.127-.242 7.563 7.563 0 01-.057-.7c-.03-.618-.085-.977-.163-1.078zm13.173.84c.092 0 .138.056.139.169 0 .117-.13.286-.391.505-.26.22-.562.394-.905.524-.34.13-.654.196-.938.196a1.78 1.78 0 01-1.14-.41c-.342-.274-.513-.673-.514-1.195-.002-.952.405-1.88 1.221-2.781.819-.905 1.608-1.358 2.367-1.36.285 0 .512.087.682.263a.841.841 0 01.258.61c.001.216-.012.387-.037.511a.497.497 0 01-.222.318c-.124.085-.224.128-.3.128a.18.18 0 01-.14-.07.284.284 0 01-.06-.19c0-.055.019-.168.058-.34.04-.169.06-.295.06-.377 0-.24-.106-.36-.315-.36-.325.002-.726.19-1.205.564a4.878 4.878 0 00-1.214 1.42c-.332.573-.498 1.1-.497 1.582 0 .322.096.59.287.803.193.211.468.317.823.316.204 0 .452-.051.744-.153.293-.104.562-.242.806-.415.244-.172.389-.258.433-.258zm1.977.652c-.114.423-.221 1.017-.32 1.782l-.098.666a.64.64 0 01-.13.28c-.07.093-.135.14-.194.14-.072 0-.156-.037-.25-.112-.092-.072-.138-.131-.138-.176 0-.129.029-.308.087-.536.426-1.739.638-3.265.636-4.58l-.005-.296c-.005-.254.04-.438.133-.554.094-.115.202-.173.324-.173.057 0 .11.044.163.134a.739.739 0 01.078.373c0 .228-.022.505-.069.83-.06.409-.091.644-.093.705.349-.612.72-1.09 1.111-1.434.392-.345.756-.517 1.092-.518a.78.78 0 01.6.267.93.93 0 01.249.659c.002.767-.29 1.463-.877 2.09-.587.627-1.159.94-1.716.942a.492.492 0 01-.332-.105c-.08-.07-.164-.199-.251-.384zm2.184-2.844c-.331 0-.741.312-1.229.933-.487.622-.731 1.106-.73 1.452 0 .084.048.166.145.246.097.08.219.12.367.12.336-.001.722-.25 1.159-.747.436-.5.654-.99.653-1.469 0-.172-.036-.303-.107-.395a.307.307 0 00-.258-.14zm11.922-1.012l-.008.148c-.01.04-.065.306-.163.796l-.018.08c-.018.129-.064.634-.14 1.514l-.076.8c-.012.13-.021.313-.026.546-.014.405-.037.633-.069.686a.411.411 0 01-.154.143.384.384 0 01-.204.067c-.072 0-.13-.043-.17-.13a.732.732 0 01-.061-.316c0-.147.041-.489.125-1.023.058-.366.095-.797.112-1.29-.01-.067-.04-.103-.088-.107-.054 0-.227.089-.518.266-.338.207-.646.35-.925.43a2.633 2.633 0 01-.662.116c-.267.001-.466-.084-.596-.253-.13-.172-.195-.533-.196-1.084 0-.245.037-.556.113-.935.078-.38.175-.6.29-.657a.695.695 0 01.264-.085c.049 0 .092.026.13.078a.376.376 0 01.059.225c0 .02-.054.222-.163.605-.11.384-.165.675-.165.871 0 .312.022.51.062.592.04.081.163.121.368.12.131 0 .32-.04.567-.122a4.21 4.21 0 00.737-.326c.245-.136.433-.267.564-.393.132-.126.211-.214.24-.265.028-.052.05-.179.069-.38.003-.058.008-.11.014-.154.02-.166.03-.325.03-.477 0-.063.04-.139.124-.228.084-.09.16-.134.227-.134.075 0 .145.027.21.081a.241.241 0 01.097.195zm3.214 2.072c-.188.005-.59.563-1.205 1.676-.207.375-.328.58-.363.614a.48.48 0 01-.19.088.85.85 0 01-.228.04c-.136 0-.205-.263-.206-.792 0-.297.062-.836.188-1.615a4.8 4.8 0 00.078-.677c0-.134.059-.201.178-.201.225 0 .338.16.338.485 0 .152-.036.45-.11.893-.086.506-.13.814-.132.923.126-.122.31-.388.551-.8.343-.563.595-.92.757-1.07.164-.152.333-.229.507-.229.131 0 .235.088.313.264.08.175.128.595.145 1.26a1.4 1.4 0 00.047.37c.026.08.045.12.058.12.095 0 .3-.324.617-.972.17-.342.334-.603.493-.781.161-.179.34-.268.537-.269.164 0 .283.085.359.255.075.167.13.417.162.75.031.335.079.643.142.922.065.279.183.458.353.536.116.055.174.118.174.191 0 .071-.049.144-.146.22a.452.452 0 01-.267.112c-.162 0-.306-.098-.434-.297-.128-.197-.225-.626-.292-1.286a5.174 5.174 0 00-.083-.565c-.026-.111-.068-.166-.125-.166-.085 0-.186.08-.303.243-.115.162-.301.492-.56.988-.2.387-.354.646-.46.775-.102.128-.202.192-.3.192a.322.322 0 01-.233-.102.481.481 0 01-.131-.252 7.822 7.822 0 01-.06-.726c-.031-.64-.088-1.012-.169-1.117zm13.35 3.273c-.117 0-.206-.054-.269-.163-.063-.112-.095-.328-.095-.647-.001-.55.126-1.733.381-3.549.016-.078-.013-.125-.084-.14-.072-.018-.364-.026-.879-.025-.702.001-1.104.044-1.207.126-.102.083-.182.457-.239 1.12-.021.265-.085.693-.191 1.286-.128.71-.192 1.217-.192 1.519l.014.211c0 .201-.095.302-.287.303-.23 0-.346-.144-.347-.432 0-.23.018-.434.056-.61.062-.3.114-.589.156-.866.026-.175.057-.364.092-.567.142-.81.212-1.386.211-1.73 0-.117-.054-.18-.161-.192-.213-.024-.319-.11-.32-.26 0-.1.026-.183.077-.245a.282.282 0 01.208-.101c.215-.01.371-.045.47-.105a.514.514 0 01.2-.068c.092 0 .171.02.239.06.073.045.288.067.644.066l.71-.022c.472-.014.73-.026.775-.035.045-.01.1-.027.164-.054a.694.694 0 01.258-.068l.269.04.298-.02c.18-.001.272.078.272.237 0 .103-.033.19-.1.261a.336.336 0 01-.228.112.257.257 0 00-.157.067c-.045.038-.104.208-.177.51-.073.302-.144.83-.215 1.587a22.56 22.56 0 00-.099 2.038v.121c0 .047-.029.095-.087.145a.349.349 0 01-.16.09zm4.165-2.818c-.208.004-.651.621-1.33 1.85-.23.414-.364.64-.402.678a.53.53 0 01-.21.098.942.942 0 01-.252.044c-.15 0-.225-.291-.227-.875 0-.328.069-.923.208-1.784.057-.349.086-.598.085-.748 0-.148.066-.221.198-.222.248 0 .372.178.373.536 0 .168-.04.496-.122.986-.095.56-.143.9-.145 1.02.138-.135.341-.429.608-.883.379-.623.657-1.017.836-1.183.18-.168.367-.252.56-.252.145 0 .26.097.345.29.088.195.142.659.161 1.392.005.183.022.32.051.409.03.09.05.134.064.134.105 0 .333-.358.682-1.075.187-.378.368-.665.545-.863.178-.197.376-.295.593-.296.18 0 .313.093.396.281.083.185.143.461.18.828.034.37.086.71.156 1.019.072.308.202.506.39.593.128.06.191.13.192.21 0 .079-.054.16-.16.242a.5.5 0 01-.296.125c-.178 0-.339-.109-.48-.328-.141-.218-.248-.692-.322-1.42a5.735 5.735 0 00-.091-.624c-.03-.123-.076-.184-.138-.184-.094 0-.206.09-.335.269-.127.179-.333.542-.618 1.09-.223.428-.392.714-.508.857-.114.141-.224.212-.331.212a.356.356 0 01-.259-.114.531.531 0 01-.144-.278 8.646 8.646 0 01-.066-.8c-.035-.707-.097-1.118-.187-1.235zM57.754 19.14c-.027.15-.116.225-.267.226l-.583.004c-.066 0-.43.031-1.09.091a8.083 8.083 0 01-.424.033.703.703 0 01-.178-.04c-.046-.014-.079.003-.099.05l.003-.006c-.203 1.62-.303 2.482-.303 2.585 0 .07.007.146.02.229.013.093.02.18.02.26.002.102-.062.192-.19.272-.125.081-.21.122-.253.123-.07 0-.155-.035-.256-.106-.098-.072-.148-.158-.149-.26 0-.128.01-.264.034-.408a15.437 15.437 0 01.126-.872c.068-.419.102-.636.102-.652l.12-.966a6.896 6.896 0 01.015-.69.337.337 0 01.136-.233.475.475 0 01.294-.094c.083 0 .175.02.275.06.165.064.339.095.522.094l1.281-.106c.211-.018.404.004.578.066.176.062.264.162.265.3v.04zm1.693 3.41a8.846 8.846 0 00-.135.804c-.054.392-.086.654-.096.788a.556.556 0 01-.145.343c-.084.094-.16.141-.228.142a.423.423 0 01-.252-.09c-.084-.061-.126-.127-.126-.199a2.13 2.13 0 01.066-.505 14.34 14.34 0 00.439-3.331v-.054a2.844 2.844 0 01.018-.45.417.417 0 01.14-.228.403.403 0 01.28-.11c.09 0 .164.038.221.115.06.077.09.188.09.333.002.148-.025.406-.078.774a3.04 3.04 0 01.743-.83c.29-.22.556-.332.796-.334a.741.741 0 01.54.212c.15.143.225.323.227.54.004.58-.228 1.11-.698 1.59-.468.478-.933.718-1.396.721-.215.002-.35-.075-.406-.231zm1.627-2.22c-.23.003-.527.218-.892.649-.363.43-.543.767-.541 1.011 0 .063.033.12.097.17a.377.377 0 00.23.07c.24-.001.513-.182.82-.541.308-.362.461-.71.458-1.044 0-.111-.02-.191-.055-.24-.037-.05-.075-.074-.117-.074zm4.424 1.456c-.488.623-.96.936-1.414.94a.588.588 0 01-.44-.189.676.676 0 01-.188-.486c-.004-.477.215-.985.656-1.525.441-.542.888-.815 1.341-.818.23-.002.382.108.455.328.217-.001.326.077.328.235a2.4 2.4 0 01-.06.41 4.799 4.799 0 00-.106.888c.002.23.02.392.052.485.035.093.06.154.075.183.016.028.061.059.137.09.076.034.114.081.114.142 0 .092-.048.169-.145.23a.557.557 0 01-.302.094c-.178.001-.307-.082-.387-.25a1.413 1.413 0 01-.12-.593l-.001-.08a.61.61 0 01.005-.084zm-.165-1.5c-.19 0-.437.204-.74.608-.3.403-.45.745-.447 1.025 0 .147.034.22.098.22.222-.001.494-.19.816-.569.323-.38.484-.71.482-.992 0-.09-.023-.16-.067-.212-.042-.054-.09-.08-.142-.08zm4.994 2.074c-.018.079-.052.386-.103.922l-.086.938c-.007.074-.049.146-.126.217a.35.35 0 01-.228.107c-.12 0-.214-.031-.278-.096-.065-.062-.097-.126-.098-.193-.001-.15.055-.52.167-1.109.04-.214.082-.454.127-.72-.258.199-.528.3-.807.302-.283.002-.503-.072-.661-.222-.156-.15-.235-.363-.237-.637-.003-.432.166-.88.507-1.346.342-.466.683-.7 1.022-.703.185-.001.338.127.459.383.012-.137.017-.313.016-.529l-.018-.808a2.077 2.077 0 00-.028-.386.301.301 0 01-.018-.075c0-.093.03-.18.094-.26a.292.292 0 01.234-.12c.066 0 .142.027.227.083a.34.34 0 01.16.195c.023.075.036.187.037.334.005.713-.026 1.296-.094 1.747l-.056.413c.156-.337.358-.609.608-.815.25-.207.507-.311.77-.313a.712.712 0 01.534.215.733.733 0 01.219.538c.003.422-.072.779-.227 1.071-.154.29-.392.557-.712.8-.321.243-.652.366-.994.368-.175.001-.312-.1-.41-.302zm.21-.625a.355.355 0 00.09.24.32.32 0 00.247.095c.236-.002.482-.163.738-.482.256-.32.383-.65.38-.99-.001-.113-.021-.193-.061-.242-.038-.048-.078-.072-.12-.072a.559.559 0 00-.358.149 3.005 3.005 0 00-.438.496 4.544 4.544 0 00-.478.806zm-.743.065a7.77 7.77 0 00.07-.734c.003-.15-.006-.26-.028-.331a.49.49 0 00-.149-.223c-.08-.077-.158-.115-.235-.114-.091 0-.242.168-.452.504-.209.334-.312.653-.31.956.001.094.029.17.084.229.055.059.134.088.236.087.103 0 .244-.044.42-.13.177-.087.298-.169.364-.244zm6.539-.177a2.513 2.513 0 01-.626.753c-.236.187-.477.281-.722.283-.145.001-.293-.07-.443-.215-.148-.145-.224-.368-.226-.67-.002-.214.052-.537.162-.969.096-.356.143-.627.141-.812a.372.372 0 01.352-.229c.11 0 .197.034.261.104.067.067.1.136.1.206.002.128-.044.31-.136.546a5.05 5.05 0 00-.174.597c-.06.255-.09.419-.09.49.002.24.055.359.159.358.164 0 .385-.152.661-.454.277-.302.457-.61.54-.926.082-.308.156-.51.221-.605a.32.32 0 01.28-.145c.195-.001.294.102.296.31a.706.706 0 01-.047.184 3.243 3.243 0 00-.158 1.077c.003.467.089.746.255.836.055.03.083.068.083.113 0 .065-.047.126-.143.184a.537.537 0 01-.273.088c-.15.001-.265-.098-.348-.296-.08-.201-.123-.47-.125-.808zm4.109-.416a.7.7 0 01.238.103c.074.05.162.141.265.273.199.258.355.426.469.507.113.08.237.12.371.118.14 0 .21.04.21.123.001.079-.046.16-.142.24-.095.082-.247.124-.454.125-.32.002-.645-.246-.977-.745-.193-.294-.354-.44-.482-.44a.74.74 0 00-.138.037.455.455 0 00-.144.066c-.023.018-.04.132-.054.342l-.027.496a.284.284 0 01-.103.209.355.355 0 01-.246.09.34.34 0 01-.244-.082c-.059-.053-.089-.108-.089-.163 0-.069.022-.215.067-.44.11-.567.193-1.26.253-2.077a.453.453 0 01.134-.287.391.391 0 01.29-.131c.078 0 .142.03.193.093a.337.337 0 01.079.217c0 .065-.01.13-.033.197a4.58 4.58 0 00-.118.476 5 5 0 00-.09.547c.225-.066.399-.157.522-.273.124-.116.277-.3.46-.555a2.16 2.16 0 01.433-.464.734.734 0 01.445-.154c.09 0 .171.034.248.106.077.07.117.144.117.223 0 .066-.02.117-.064.151a.696.696 0 01-.22.096c-.133.039-.276.142-.427.31-.315.35-.562.57-.742.666zm12.87 12c.106 0 .158.065.159.194 0 .135-.15.328-.448.58a3.555 3.555 0 01-1.038.6c-.391.15-.75.224-1.076.225a2.04 2.04 0 01-1.307-.47c-.392-.315-.588-.771-.59-1.37-.002-1.092.465-2.156 1.401-3.19.939-1.038 1.844-1.557 2.715-1.56.326 0 .586.1.781.302.197.2.296.433.297.7 0 .247-.014.443-.044.586a.57.57 0 01-.254.365c-.142.097-.257.146-.343.146a.207.207 0 01-.162-.08.326.326 0 01-.07-.219c0-.062.023-.191.069-.388.045-.195.068-.339.068-.433-.001-.275-.121-.413-.361-.412-.372 0-.833.216-1.382.646a5.59 5.59 0 00-1.392 1.629c-.381.656-.572 1.26-.57 1.813 0 .37.11.677.33.922.22.242.535.363.942.362.235 0 .52-.06.853-.176.337-.12.646-.278.926-.475.28-.198.445-.296.496-.297zm3.938-2.989c-.104-.277-.341-.578-.714-.9-.352-.302-.527-.56-.528-.776a.54.54 0 01.17-.417c.112-.108.322-.206.63-.292a22.94 22.94 0 001.168-.359c.396-.136.634-.222.715-.26a.366.366 0 01.158-.037c.089 0 .133.08.134.238 0 .09-.108.21-.323.365-.215.154-.597.298-1.144.431-.345.087-.556.152-.634.196-.076.04-.114.082-.113.125 0 .098.105.237.316.42.794.692 1.193 1.56 1.195 2.607 0 .45-.117.933-.353 1.448-.236.513-.552.895-.948 1.147-.393.252-.778.378-1.156.379-.34 0-.598-.165-.774-.496a2.31 2.31 0 01-.265-1.096c-.001-.706.214-1.373.647-2 .435-.626.896-.94 1.381-.94.065 0 .146.041.243.124.09.081.154.112.194.093zm-1.758 2.738c0 .3.04.534.119.703.081.17.186.255.316.255.172 0 .405-.108.699-.321.293-.214.528-.53.706-.948.18-.419.269-.81.268-1.174 0-.302-.044-.546-.131-.732-.084-.188-.162-.283-.235-.282-.48 0-.89.294-1.232.88-.341.586-.511 1.125-.51 1.619zm13.558-2.518c.001.044.118.12.354.23.262.122.455.24.579.351.127.109.23.256.31.44.083.183.125.402.125.658.001.236-.158.557-.474.964a3.896 3.896 0 01-1.226 1.018 3.243 3.243 0 01-1.566.41 1.51 1.51 0 01-.433-.092c-.182-.062-.274-.126-.274-.194-.001-.37.261-.557.785-.558.162.003.321 0 .476-.005.156-.01.355-.062.596-.156a2.66 2.66 0 00.688-.408c.214-.174.369-.344.462-.509a.988.988 0 00.141-.481c-.001-.27-.115-.51-.342-.719-.227-.209-.536-.312-.928-.311-.058 0-.198.047-.419.142-.22.097-.364.146-.432.146-.23 0-.374-.028-.433-.087-.056-.059-.084-.163-.084-.313-.001-.103.246-.252.74-.448a3.777 3.777 0 001.31-.881c.39-.395.585-.71.585-.946-.001-.159-.083-.299-.248-.419-.163-.123-.385-.185-.667-.184-.365 0-.789.052-1.272.153-.482.098-.747.194-.794.289-.044.094-.166.81-.366 2.15-.2 1.337-.3 2.11-.299 2.319 0 .111.006.219.018.322.009.106.014.206.014.3.001.403-.195.605-.586.606-.109 0-.199-.077-.27-.233a1.06 1.06 0 01-.107-.428c0-.056.048-.281.145-.676.116-.536.232-1.269.348-2.2.116-.932.173-1.43.173-1.492a.55.55 0 00-.053-.273c-.033-.06-.109-.088-.23-.088a2.29 2.29 0 00-.141.005c-.044.003-.09-.025-.137-.084a.337.337 0 01-.067-.212c0-.232.385-.48 1.155-.744.771-.267 1.69-.401 2.758-.403.392-.001.739.13 1.043.395.307.264.46.536.461.816 0 .2-.133.484-.4.852a4.134 4.134 0 01-1.018.978zm3.753 3.983c-.442.001-.782-.125-1.021-.377-.236-.253-.354-.607-.355-1.063-.002-.769.301-1.579.908-2.43.608-.855 1.173-1.283 1.697-1.284.239-.001.443.128.615.387.174.255.261.527.262.816a.86.86 0 01-.114.45c-.073.124-.148.186-.225.186-.17 0-.291-.171-.363-.516-.08-.37-.195-.555-.345-.555-.306 0-.668.365-1.084 1.093-.416.728-.624 1.342-.623 1.842.001.5.286.75.854.749.432-.001.941-.205 1.526-.613.206-.145.357-.217.454-.217.1 0 .15.057.151.172 0 .223-.263.507-.789.85-.526.339-1.042.509-1.548.51z" fill="#495E4C"/></g><defs><clipPath id="clip0_101_1058"><path fill="#fff" transform="translate(0 .985)" d="M0 0h141v125H0z"/></clipPath></defs></svg>