<svg width="413" height="254" fill="none" xmlns="http://www.w3.org/2000/svg"><g opacity=".5"><path d="M298.772 244.647a24.338 24.338 0 00-2.319-12.676 24.388 24.388 0 00-8.471-9.724 24.449 24.449 0 00-24.866-1.302c-1.875-5.004-3.8-10.097-7.116-14.284-3.316-4.187-8.329-7.398-13.678-7.201v45.187h56.45z" fill="#D0FFD4"/><path d="M212.616 135.9H95.668l-21.85-30.972-22.905 31.849L24 136.344l29.005-39 130.399.541 29.212 38.015z" fill="#E0E0E0"/><path d="M154.133 136.344v108.569H37.353V136.344h13.382l23.084-31.415 21.919 30.942 58.395.473z" fill="#F5F5F5"/><path d="M110.314 197.844h27.318v47.069h-27.318v-47.069zm-59.401-1.33h43.029v26.608h-43.03v-26.608z" fill="#E0E0E0"/><path d="M81.023 196.514h.987v26.854h-.987v-26.854zm-17.893 0h.987v26.854h-.987v-26.854z" fill="#EBEBEB"/><path d="M63.624 210.257h17.893v.985H63.624v-.985z" fill="#EBEBEB"/><path d="M50.913 143.269h43.029v26.608h-43.03v-26.608z" fill="#E0E0E0"/><path d="M81.023 143.259h.987v26.854h-.987v-26.854zm-17.893 0h.987v26.854h-.987v-26.854z" fill="#EBEBEB"/><path d="M63.624 157.011h17.893v.985H63.624v-.985z" fill="#EBEBEB"/><path d="M113.166 143.506h27.14v25.652h-27.14v-25.652zm40.957-7.162h47.4v108.559h-47.4V136.344z" fill="#E0E0E0"/><path d="M126.243 143.506h.987v25.652h-.987v-25.652z" fill="#EBEBEB"/><path d="M113.166 156.47h27.14v.985h-27.14v-.985z" fill="#EBEBEB"/><path d="M73.878 131.398a5.748 5.748 0 01-5.754-5.743 5.748 5.748 0 015.754-5.743 5.748 5.748 0 015.754 5.743 5.748 5.748 0 01-5.754 5.743z" fill="#E0E0E0"/><path d="M114.923 118.612l-7.263-8.945V88.162h15.208v30.617l-7.945-.167z" fill="#F5F5F5"/><path d="M114.923 118.612v-30.45h-7.264v21.505l7.264 8.945z" fill="#EBEBEB"/><path d="M106.643 85h17.922v3.162h-17.922V85z" fill="#EBEBEB"/><path d="M154.133 183.836h88.189v61.077h-88.189v-61.077z" fill="#F5F5F5"/><path d="M187.105 183.836h55.217v61.077h-55.217v-61.077z" fill="#E0E0E0"/><path d="M195.326 203.528h36.11v41.276h-36.11v-41.276z" fill="#F5F5F5"/><path d="M158.988 203.361h23.261v5.911h-23.261v-5.911zm53.628-67.46v3.142H95.738v-3.172l116.878.03zm-116.878 3.142l-21.86-30.627-.06-3.487 21.85 30.971.07 3.143zm-71.175-2.699h26.172v2.029H24.563v-2.029z" fill="#EBEBEB"/><path d="M119.63 190.624h9.662v3.664h-9.662v-3.664z" fill="#E0E0E0"/><path d="M394.736 47.9C385.804 35.691 372.828 30 359.281 30c0 0-33.17 0-42.993 29.527-3.628 10.882-2.822 22.698 1.572 33.295a60.837 60.837 0 006.199 11.459c8.566 12.293 35.222 45.897 35.222 45.897h5.796c7.425-10.277 26.172-44.426 31.783-55.36 7.046-13.74 8.126-32.894-2.124-46.918zm-29.921 54.622a28.45 28.45 0 01-15.745-4.747 28.213 28.213 0 01-10.438-12.645 28.033 28.033 0 01-1.614-16.28 28.136 28.136 0 017.756-14.429 28.388 28.388 0 0114.51-7.711 28.487 28.487 0 0116.373 1.604 28.306 28.306 0 0112.717 10.38 28.065 28.065 0 014.774 15.655 28.097 28.097 0 01-8.3 19.92 28.418 28.418 0 01-20.033 8.253z" fill="#71D281"/><path d="M400.568 48.132c-8.928-12.208-21.907-17.9-35.455-17.9 0 0-33.17 0-42.993 29.528-3.628 10.882-2.821 22.697 1.576 33.295a60.794 60.794 0 006.196 11.459c8.565 12.301 35.221 45.892 35.221 45.892s30.8-42.129 37.58-55.355c7.046-13.748 8.13-32.894-2.125-46.919zm-35.725 54.622a28.45 28.45 0 01-15.743-4.748 28.214 28.214 0 01-10.437-12.646 28.03 28.03 0 01-1.612-16.28 28.125 28.125 0 017.755-14.426 28.386 28.386 0 0114.509-7.712 28.484 28.484 0 0116.372 1.604 28.298 28.298 0 0112.717 10.377 28.061 28.061 0 014.776 15.655 27.831 27.831 0 01-2.1 10.815 27.97 27.97 0 01-6.138 9.17 28.134 28.134 0 01-9.222 6.103 28.267 28.267 0 01-10.877 2.088z" fill="#8EEE9E"/><path d="M364.815 46.172a28.444 28.444 0 00-16.35 5.164 28.189 28.189 0 00-10.358 13.598 24.196 24.196 0 0110.562-11.272 24.4 24.4 0 0115.269-2.624 24.327 24.327 0 0113.754 7.094 24.08 24.08 0 016.638 13.921 24.025 24.025 0 01-3.181 15.079 24.237 24.237 0 01-11.706 10.094 24.407 24.407 0 01-15.462.998 24.288 24.288 0 01-12.92-8.504 28.275 28.275 0 0010.742 9.657 28.469 28.469 0 0027.977-1.118 28.235 28.235 0 009.928-10.482 28.042 28.042 0 00-.556-27.837 28.261 28.261 0 00-10.338-10.082 28.463 28.463 0 00-13.999-3.686z" fill="#71D281"/></g></svg>