<svg width="290" height="275" fill="none" xmlns="http://www.w3.org/2000/svg"><g opacity=".5" clip-path="url(#clip0_86_2250)"><path d="M268.612 220.009s-99.664-1.814-141.935.351c-30.24 1.547-121.183.299-121.183.299s1.703-66.551-.247-100.28c-1.256-21.511-.213-86.192-.213-86.192s96.809-.055 127.928-1.336c51.493-2.152 135.189.686 135.189.686s2.123 46.266.183 73.81c-1.961 28.096.278 112.662.278 112.662z" fill="#fff"/><path opacity=".5" d="M268.151 33.537l.105 42.264c-17.861-.402-67.325-1.186-132.16.532-68.81 1.82-117.199.82-130.985.45l-.106-42.596s96.81-.048 127.928-1.336c51.522-2.152 135.218.686 135.218.686z" fill="#92E3A9" fill-opacity=".7"/><path opacity=".2" d="M168.875 217.474l-2.766-143.48-29.417.072c-1.253 22.58-.165 113.435.241 143.486l31.942-.078zM8.456 76.846l32.267-.299s2.736 110.993-2.806 141.25l-27.252.067s.275-40.431-.182-73.803c-.458-33.372-2.027-67.215-2.027-67.215z" fill="#92E3A9" fill-opacity=".7"/><path d="M8.401 54.496s79.923-1.323 104.087-.257c24.165 1.066 90.639-1.052 100.328-1.663 9.689-.612 53.759 1.283 53.759 1.283 1.622-13.243-1.54-19.295-1.54-19.295S147.138 36.39 90.06 37.304c-57.078.913-81.7.202-81.7.202s1.15 10.453.041 16.99z" fill="#5CCD6A"/><path d="M268.612 220.009s-99.664-1.814-141.935.351c-30.24 1.547-121.183.299-121.183.299s1.703-66.551-.247-100.28c-1.256-21.511-.213-86.192-.213-86.192s96.809-.055 127.928-1.336c51.493-2.152 135.189.686 135.189.686s2.123 46.266.183 73.81c-1.961 28.096.278 112.662.278 112.662z" stroke="#495E4C" stroke-width=".6" stroke-linecap="round" stroke-linejoin="round"/><path d="M12.409 56.172s30.496-1.201 65.475-.162c34.979 1.04 88.167.186 116.556-.79 28.389-.977 62.728-1.338 62.728-1.338M12.46 76.617s221.458-2.791 244.721-2.849M40.669 54.417s3.383 124.067.366 148.435M71.168 54.341s-.78 136.58.36 146.149" stroke="#495E4C" stroke-width=".6" stroke-linecap="round" stroke-linejoin="round"/><path d="M103.067 54.263s1.184 26.899 1.54 50.692c.356 23.793-1.182 94.33.252 102.199m31.787-151.842s-1.503 81.772-.727 109.777c.777 28.004 1.104 43.132 1.104 43.132m29.001-154.114s3.07 97.208 2.81 118.058c-.26 20.85.08 32.487.08 32.487m29.006-152.04s-.035 57.344 1.808 73.276c1.843 15.931-.61 82.208-.61 82.208m30.178-155.561s1.275 29.327 1.528 45.708c.252 16.382-.312 99.999 1.677 106.281" stroke="#495E4C" stroke-width=".6" stroke-linecap="round" stroke-linejoin="round"/><path d="M12.502 93.976s46.03-.95 75.2-.186c0 0-.05 7.844.028 10.924 0 0-67.903-.392-75.2.185 0 0 .536-8.964-.028-10.923zm154.652-.751l.028 11.328s57.438-.702 63.582-1.835l-.14-10.924s-43.083-.396-63.47 1.431z" fill="#fff" stroke="#495E4C" stroke-linecap="round" stroke-linejoin="round"/><path d="M70.797 107.835l65.398-.162-.385 10.437s-27.548.698-42.379 1.088c-14.831.391-22.101.89-22.101.89l-.532-12.253zm161.386-3.478l.288 7.843s20.345-1.466 23.338-1.176l-.019-7.844s-18.009-.239-23.607 1.177z" fill="#5CCD6A" stroke="#495E4C" stroke-linecap="round" stroke-linejoin="round"/><path d="M136.256 132.614s55.874-1.44 63.479-4.036l.038 15.575s-54.596.354-64.063 2.105c0 .028-.578-10.54.546-13.644z" fill="#fff" stroke="#495E4C" stroke-linecap="round" stroke-linejoin="round"/><path d="M140.104 132.506s-5.32 8.26-4.221 9.312c1.099 1.053 6.492-8.957 8.147-9.223 1.654-.266-5.745 13.762-5.036 14.256.708.494 10.07-14.828 12.298-14.833 2.228-.006-4.918 13.335-3.503 13.268 1.414-.067 8.002-13.024 10.406-13.285 2.405-.261-5.541 13.075-3.695 13.014 1.846-.061 9.216-14.231 10.746-13.478 1.53.754-7.573 12.344-5.152 13.287 2.422.943 8.57-12.403 11.532-13.083 2.962-.68-6.823 12.158-3.958 12.491 2.865.333 7.125-13.377 9.363-12.292 2.237 1.085-4.081 8.704-3.146 9.211.935.508 3.895-9.17 6.88-9.22 2.985-.05-3.515 8.702-2.805 9.755.71 1.053 3.735-2.586 3.735-2.586" stroke="#92E3A9" stroke-linecap="round" stroke-linejoin="round"/><path d="M15.296 93.926s-2.363 5.67-1.796 5.93c.566.261 2.815-5.606 5.023-5.336 2.207.27-3.978 10.275-2.535 10.222 1.442-.053 6.337-11.463 7.845-10.858 1.508.605-3.612 9.524-2.634 10.137.977.614 5.85-10.796 7.394-10.17 1.544.626-4.312 9.738-2.805 9.734 1.506-.004 6.553-9.927 8.088-9.931 1.535-.004-4.731 8.656-3.194 9.799 1.538 1.143 5.292-10.923 7.537-9.81 2.245 1.113-3.337 9.212-1.658 10.078 1.678.867 5.985-10.782 7.387-10.163 1.402.62-4.146 11.026-3.184 11.031.962.005 7.129-11.96 8.531-11.065 1.403.895-5.15 11.064-3.89 11.06 1.258-.003 7.806-12.295 9.483-11.69 1.678.605-4.312 9.533-2.804 10.088 1.508.556 5.162-6.313 5.862-6.315.7-.002-2.438 6.307-1.561 6.305.877-.003 4.218-10.531 5.89-9.473 1.671 1.058-1.943 6.942-1.1 7.224.842.281 6.135-7.584 7.672-6.462 1.538 1.122-5.951 10.365-3.575 10.359 2.377-.006 6.412-10.231 8.371-10.094 1.96.136-3.896 9.113-2.353 9.251 1.542.138 4.593-10.092 6.271-9.537 1.678.555-2.357 7.708-1.239 8.123 1.119.415 3.477-7.152 5.436-7.015 1.96.137-3.617 7.294-1.24 7.564 2.377.27 3.198-7.987 5.576-7.716 2.377.27-2.988 7.589-1.69 8.549 1.296.959 3.286-3.654 3.286-3.654" stroke="#5CCD6A" stroke-linecap="round" stroke-linejoin="round"/><path d="M13.408 111.198l3.257-1.424a9.098 9.098 0 01-.643 3.131 2.424 2.424 0 001.848-1.987l-.358 1.148 3.049-.008a.791.791 0 01.344-.9c-.325.291-.125.885.264 1.083.416.151.872.15 1.288-.004a12.568 12.568 0 003.073-1.225 1.524 1.524 0 00.917 1.739 4.39 4.39 0 002.08.264l9.145-.313m-25.041 4.876s1.255-1.631 2.38-1.421c1.125.209.423 2.002.84 2.284.419.282 1.116-3.733 1.813-2.291.441.886 1.83 2.296 1.83 2.296s1.531-1.625 1.949-1.314c.418.31 1.259-.003 1.259-.003l13.014-.032m17.955-7.386s-10.433 34.382 77.589 30.441m-.006-2.463l2.242 2.741-2.231 1.4" stroke="#495E4C" stroke-linecap="round" stroke-linejoin="round"/><path d="M78.653 141.401c-7.28-3.345-20.465-1.04-30.238 5.143-9.774 6.183-11.74 26.357 24.098 20.386 35.838-5.972 13.122-22.467.567-22.436" fill="#fff"/><path d="M78.653 141.401c-7.28-3.345-20.465-1.04-30.238 5.143-9.774 6.183-11.74 26.357 24.098 20.386 35.838-5.972 13.122-22.467.567-22.436" stroke="#92E3A9" stroke-linecap="round" stroke-linejoin="round"/><path d="M50.247 152.394s2.188-1.994 3.135-2.131c.948-.137-1.785 1.838.006 2.124 1.79.285 1.412-.712 3.151-1.077 1.74-.365 2.282 1.58 2.282 1.58s2.827-.963 4.473-1.427c1.647-.464.565 2.236 2.833 1.409 2.269-.827 1.24-2.084 4.813-1.428 3.574.657 10.504.215 13.616-.033m-31.118 6.915c.703-1.715-.175-2.045 1.786-1.179 1.962.866 3.082 2.038 3.921 1.165a2.52 2.52 0 012.828-.672c.835.352-1.122.916.835.352a7.912 7.912 0 003.08-1.65s-.492 1.19 1.576 2.254 3.534-1.141 3.534-1.141a88.01 88.01 0 019.456.125" stroke="#92E3A9" stroke-linecap="round" stroke-linejoin="round"/><path d="M72.985 255.611l7.463-8.224-.006-2.123 5.702-5.239s6.98 2.397 10.325 10.891l-6.041 5.126-2.312.303-8.918 6.394s-6.201-2.137-6.213-7.128z" fill="#495E4C"/><path opacity=".3" d="M86.375 241.61s2.572 7.597 9.168 9.131m-13.907-3.236s2.335 6.118 7.27 8.067" stroke="#fff" stroke-width=".6" stroke-linecap="round" stroke-linejoin="round"/><path opacity=".2" d="M168.482 20.912l2.969-3.412 6.917-.017a14.944 14.944 0 005.208-2.279s-2.638-2.676-5.814-2.76l-5.97.014-15.95-2.856-88.79 8.156a11.926 11.926 0 001.626 10.827l99.804-7.673zm39.966 7.328l2.393-2.052 7.737-.104a22.02 22.02 0 00.151-7.604l-21.173-7.296c-5.423 3.405-3.183 17.09-3.183 17.09l14.075-.034z" fill="#000" fill-opacity=".7"/><path d="M177.361 4.558s3.719-.476 5.845 1.246c0 0-.27 2.195-5.864 2.768l.019-4.014z" fill="#5CCD6A" stroke="#495E4C" stroke-width=".5" stroke-linecap="round" stroke-linejoin="round"/><path d="M170.469 3.591L165.63.304l-98.7 8.194c-4.318 7.034 1.11 13.993 1.11 13.993l99.321-8.52 3.479-3.429 6.886-1.199c.423-.866.633-1.82.615-2.784a4.357 4.357 0 00-.933-2.921l-6.939-.047z" fill="#495E4C"/><path d="M99.526 6.725l44.013-3.719a1.406 1.406 0 01-.085 1.297 1.404 1.404 0 01-1.105.681l-41.262 3.642a1.413 1.413 0 01-1.56-1.412v-.489z" fill="#92E3A9"/><path opacity=".3" d="M165.549 1.833s3.184 3.532.959 10.617m4.345-7.911c.56 1.426.709 2.98.428 4.487M67.684 9.82s3.367 2.937 1.145 11.324" stroke="#fff" stroke-width=".6" stroke-linecap="round" stroke-linejoin="round"/><path opacity=".3" d="M69.57 9.256s1.062.14 1.5 5.462l94.488-9.005a9.573 9.573 0 00-1.949-4.654L69.571 9.256zm102.202-5.073c.48.773.742 1.663.756 2.575l5.218-.523a6.213 6.213 0 00-.656-2.066l-5.318.014z" fill="#fff"/><path d="M216.724 22.634l-10.765-2.7-1.886 1.01-7.298-2.58s-1.185-7.288 4.711-14.255l7.37 2.913 1.362 1.9 9.83 4.854s1.062 6.49-3.324 8.858z" fill="#5CCD6A"/><path d="M216.724 22.634l-10.765-2.7-1.886 1.01-7.298-2.58s-1.185-7.288 4.711-14.255l7.37 2.913 1.362 1.9 9.83 4.854s1.062 6.49-3.324 8.858zm-18.636-5.2s5.481-5.861 3.718-12.398m3.691 13.795s4.288-4.966 3.674-10.224" stroke="#495E4C" stroke-width=".6" stroke-linecap="round" stroke-linejoin="round"/><path d="M223.772 273.62s-5.739-50.441-9.642-61.136c-3.902-10.695-9.181-46.192-9.181-46.192s11.908-.985 15.515-1.03c3.608-.044 8.26-3.51 8.26-3.51-.394.709-1.294.279-1.969-4.052-.453-2.901-4.862-3.768-4.862-3.768s-10.572.819-19.494-.363c-2.16.687-4.478.693-6.641.017-3.25-1.175-3.911-2.44-2.133-4.165 0 0-2.533-3.293 6.085-8.015 0 0-5.749-5.147-2.957-8.488 2.793-3.341 9.384-6.699 9.384-6.699s.269-2.521 1.484-3.175c1.215-.655 7.829-3.382 11.458-5.912 3.63-2.529 5.215-2.349 11.933-2.549 6.719-.201 14.92-1.906 18-.512 2.394 1.084 3.515 5.35 3.515 5.35 2.236.703 2.472 4.362 2.616 5.261.667 4.012 5.327 20.638 7.385 23.521 2.059 2.883 3.281 7.928 2.919 10.548-.361 2.621-1.294 5.667-2.215 11.022-.92 5.354-4.043 23.811-5.586 29.138-1.543 5.328-2.39 14.569-1.544 19.048l21.72 43.096" fill="#fff"/><path opacity=".4" d="M250.532 136.848s-4.456 2.709-4.452 4.422c0 0-8.472 6.484-9.429 14.097 0 0-4.692 4.783-5.719 6.952-1.027 2.169-5.505 4.721-5.505 4.721a33.25 33.25 0 00-3.813-.132 47.44 47.44 0 01-6.369-1.4c2.122-.14 4.073-.251 5.198-.261 2.992-.007 6.699-2.423 7.878-3.24-.452.001-1.085-1.088-1.588-4.329-.452-2.894-4.861-3.768-4.861-3.768s-10.572.819-19.494-.356c-1.46.457-2.995.62-4.518.479a4.243 4.243 0 00-1.083-3.091s4.088-2.736 3.015-4.836c-.512-1.004-2.345-1.622-4.135-1.993a22.01 22.01 0 014.032-2.721s-5.749-5.147-2.957-8.488c2.793-3.342 9.405-6.685 9.405-6.685s.27-2.514 1.485-3.176c0 0-.698 3.889 4.669 3.529 5.368-.361 13.091-3.572 13.091-3.572s14.571.367 17.522-1.884c0 0 3.544 3.014 6.134 3.524 2.59.511 1.494 12.208 1.494 12.208zm14.902 21.925c-.369 2.613-1.295 5.666-2.215 11.021-.921 5.354-4.044 23.818-5.587 29.139-1.543 5.32-2.39 14.568-1.544 19.047l1.992 4.724c-4.312-7.607-3.997-17.604-3.657-20.231.409-3.222 2.791-15.136 4.898-21.3 2.107-6.164 2.266-19.049 2.265-19.495-.001-.446-1.111 2.834-2.24 6.469-1.13 3.634-5.285 13.881-5.285 13.881-.147-2.123 1.57-14.552 1.884-15.968.315-1.417 2.852-10.945 3.305-13.637.453-2.691-1.683-5.659-2.219-7.782-.536-2.122-2.653-11.589-3.227-18.108a28.583 28.583 0 00-2.622-10.231 13.555 13.555 0 011.352 3.183c2.237.702 2.472 4.355 2.616 5.254.668 4.012 5.328 20.637 7.386 23.528 2.058 2.89 3.259 7.892 2.898 10.506zM224.351 275.36c-2.343-18.089-7.026-52.52-9.949-61.956 2.007 2.43 4.295 6.361 5.912 13.939 3.256 15.255 4.256 21.971 4.407 28.972.139 4.474.06 12.722-.37 19.045z" fill="#92E3A9"/><path d="M223.772 273.62s-5.739-50.441-9.642-61.136c-3.902-10.695-9.181-46.192-9.181-46.192s11.908-.985 15.515-1.03c3.608-.044 8.26-3.51 8.26-3.51-.394.709-1.294.279-1.969-4.052-.453-2.901-4.862-3.768-4.862-3.768s-10.572.819-19.494-.363c-2.16.687-4.478.693-6.641.017-3.25-1.175-3.911-2.44-2.133-4.165 0 0-2.533-3.293 6.085-8.015 0 0-5.749-5.147-2.957-8.488 2.793-3.341 9.384-6.699 9.384-6.699s.269-2.521 1.484-3.175c1.215-.655 7.829-3.382 11.458-5.912 3.63-2.529 5.215-2.349 11.933-2.549 6.719-.201 14.92-1.906 18-.512 2.394 1.084 3.515 5.35 3.515 5.35 2.236.703 2.472 4.362 2.616 5.261.667 4.012 5.327 20.638 7.385 23.521 2.059 2.883 3.281 7.928 2.919 10.548-.361 2.621-1.294 5.667-2.215 11.022-.92 5.354-4.043 23.811-5.586 29.138-1.543 5.328-2.39 14.569-1.544 19.048l21.72 43.096" stroke="#495E4C" stroke-width=".6" stroke-linecap="round" stroke-linejoin="round"/><path d="M193.59 149.421s1.867 2.523 8.3 1.473c6.434-1.049 14.128-7.504 14.128-7.504l4.614-1.965s5.879.637 8.019-.395m-3.286.568s3.843 4.096 6.922 5.023" stroke="#495E4C" stroke-width=".6" stroke-linecap="round" stroke-linejoin="round"/><path d="M228.689 161.752c2.606-1.685 6.046-6.387 9.214-6.741" stroke="#495E4C" stroke-width=".5" stroke-linecap="round" stroke-linejoin="round"/><path d="M228.137 156.061c1.403-4.683 5.636-9.444 5.636-9.444a22.237 22.237 0 012.599-4.396 7.45 7.45 0 014.469-3.09s-3.732-10.49-2.641-12.602m-16.342 27.403s2.877-.921 3.53-2.841m-4.19-1.08s-.17 2.988-4.652 3.934m4.072-12.52s2.224-1.492 2.97-2.995m-17.451-12.211s-.794 2.246 2.547 3.165 12.293-.122 16.012-3.211c0 0 .913-2.615.633-4.292" stroke="#495E4C" stroke-width=".6" stroke-linecap="round" stroke-linejoin="round"/><path d="M224.196 126.564s10.94-.417 11.775-.419c.835-.002 4.19-1.78 4.836-3.651m.02 16.637s2.464.844 4.167.471m-9.578 16.441s-.407-4.14 2.465-10.009m14.632-26.591c1.499 5.773 3.831 24.768 5.382 28.36 1.55 3.593 1.737 4.817.628 8.182-1.109 3.366-2.893 11.49-2.893 11.49m.429 50.505c-1.219-3.827-1.974-8.865-1.52-11.196" stroke="#495E4C" stroke-width=".6" stroke-linecap="round" stroke-linejoin="round"/><path d="M184.944 136.848s-3.096.588-4.139 2.269c0 0 .916 1.413 4.656 1.022 3.741-.392-.517-3.291-.517-3.291z" fill="#495E4C"/><path d="M195.971 130.966l87.454-13.207 1.156 15.622-87.84 8.939-4.107-1.838-6.719.186a3.619 3.619 0 01-.669-4.571l6.914-1.504 3.811-3.627z" fill="#5CCD6A"/><path d="M211.017 131.75l36.059-5.215a2.753 2.753 0 011.088.066 2.745 2.745 0 011.682 1.315c.178.321.289.675.327 1.04l.073.708a2.722 2.722 0 01-2.369 2.986l-36.125 4.486a2.724 2.724 0 01-3.04-2.435 2.723 2.723 0 012.305-2.951z" fill="#495E4C"/><path opacity=".3" d="M284.581 133.381l-87.84 8.946-4.107-1.845-6.719.186a3.525 3.525 0 01-.851-1.151l7.072-.259 3.113.276 12.227-1.057 3.562-6.727s3.14-.404 5.666 2.782c2.526 3.187 3.925 2.773 3.925 2.773l60.169-6.45.706-.709s-2.44-5.502-.025-10.003c.605-1.128 1.304-1.582 2.012-1.577l1.09 14.815z" fill="#000" fill-opacity=".7"/><path d="M195.971 130.966l87.454-13.207 1.156 15.622-87.84 8.939-4.107-1.838-6.719.186a3.619 3.619 0 01-.669-4.571l6.914-1.504 3.811-3.627z" stroke="#495E4C" stroke-width=".6" stroke-linecap="round" stroke-linejoin="round"/><path d="M283.425 117.759c6.06-.496 7.4 14.983 1.156 15.621-5.975.61-7.308-15.124-1.156-15.621z" fill="#5CCD6A"/><path opacity=".3" d="M284.581 133.38c-1.633.167-2.923-.891-3.804-2.525l.705-.709s-2.439-5.502-.024-10.003c.605-1.127 1.304-1.582 2.012-1.577 2.121-.005 4.296 4.095 4.209 6.312l.921.224c.342 3.886-.879 7.995-4.019 8.278z" fill="#000" fill-opacity=".7"/><path d="M283.425 117.759c6.06-.496 7.4 14.983 1.156 15.621-5.975.61-7.308-15.124-1.156-15.621zm-87.454 13.207s-1.728 2.185-1.251 6.318a9.42 9.42 0 002.021 5.035m-4.581-7.726a7.643 7.643 0 00-.353 2.992 7.65 7.65 0 00.827 2.897m88.115-6.71c-5.983.61-7.173-14.438-1.085-15.444" stroke="#495E4C" stroke-width=".6" stroke-linecap="round" stroke-linejoin="round"/><path d="M283.548 118.736c4.794-.43 5.86 12.955.917 13.498-4.751.528-5.782-13.061-.917-13.498z" stroke="#495E4C" stroke-width=".6" stroke-linecap="round" stroke-linejoin="round"/><path d="M283.564 119.692s2.506.921 2.963 5.472c.457 4.551-2.107 5.959-2.107 5.959" stroke="#495E4C" stroke-width=".6" stroke-linecap="round" stroke-linejoin="round"/><path d="M228.702 166.891s-6.365.384-7.073.018c-.709-.366-4.688-7.833-4.878-10.161-.189-2.329-.583-9.804-.785-14.476-.203-4.672-.206-11.95-8.973-10.377-3.917.717-4.566 4.421-5.846 12.757-1.281 8.336-.066 10.549-.974 21.191-.907 10.643.221 14.867 2.476 20.22 2.256 5.354 3.117 18.98 9.099 24.006s8.347 14.726 8.347 14.726" fill="#fff"/><path opacity=".4" d="M213.032 140.148c-1.604.394-7.778.728-8.176 2.789-.398 2.061 3.268 3.022 4.793 4.866-.056 0-6.366.015-7.773 3.098-1.407 3.083 1.191 9.689 1.2 13.328.009 3.639-3.141 10.932-.706 14.706 2.13 3.294 4.115 10.885 3.107 18.102-1.078-4.316-1.824-8.491-2.856-10.974-2.241-5.318-3.369-9.563-2.462-20.184.908-10.622-.314-12.863.974-21.199.918-5.984 1.511-9.589 3.232-11.406 2.015-.443 4.292-.619 5.659.355 2.927 2.01 4.634 6.119 3.008 6.519z" fill="#92E3A9"/><path d="M228.702 166.891s-6.365.384-7.073.018c-.709-.366-4.688-7.833-4.878-10.161-.189-2.329-.583-9.804-.785-14.476-.203-4.672-.206-11.95-8.973-10.377-3.917.717-4.566 4.421-5.846 12.757-1.281 8.336-.066 10.549-.974 21.191-.907 10.643.221 14.867 2.476 20.22 2.256 5.354 3.117 18.98 9.099 24.006s8.347 14.726 8.347 14.726" stroke="#495E4C" stroke-width=".6" stroke-linecap="round" stroke-linejoin="round"/><path d="M216.737 156.748s-.601-.19-.964-3.828a6.657 6.657 0 00-3.443-5.131m-8.205.02s-2.601.566-3.625 4.214" stroke="#495E4C" stroke-width=".6" stroke-linecap="round" stroke-linejoin="round"/><path d="M23.588 72.772c-.203.001-.36-.094-.47-.285-.11-.194-.167-.571-.17-1.13-.004-.96.213-3.028.652-6.202.026-.137-.023-.219-.148-.245-.125-.031-.637-.044-1.535-.04-1.227.006-1.93.081-2.109.226-.179.146-.316.799-.412 1.96-.037.46-.147 1.21-.33 2.245-.22 1.243-.33 2.129-.327 2.656l.025.369c.001.352-.166.528-.502.53-.402.002-.604-.25-.607-.753a5.1 5.1 0 01.095-1.067c.107-.524.196-1.029.268-1.513.046-.305.099-.635.16-.991.243-1.415.364-2.424.36-3.025 0-.204-.094-.314-.282-.333-.371-.041-.558-.193-.559-.455a.66.66 0 01.133-.428.493.493 0 01.363-.177c.374-.018.648-.08.819-.186.156-.079.273-.118.351-.119.16 0 .299.034.416.104.13.078.505.115 1.126.112l1.242-.041c.824-.027 1.275-.049 1.353-.065.078-.016.174-.047.287-.095.183-.079.333-.119.45-.12l.47.069.521-.038c.316-.001.475.137.476.414a.641.641 0 01-.173.458.587.587 0 01-.398.195.45.45 0 00-.274.119c-.078.066-.18.364-.307.892-.126.528-.25 1.452-.368 2.773a39.364 39.364 0 00-.165 3.563v.211c.001.082-.05.166-.15.253a.612.612 0 01-.28.16zm7.335-4.135c.042-.082.108-.573.198-1.472.067-.719.294-1.08.68-1.081.317-.002.476.156.477.472 0 .075-.026.225-.08.452-.295 1.247-.44 2.293-.436 3.137.004.914.157 1.505.459 1.773.157.144.236.26.236.35 0 .11-.08.21-.239.3a.874.874 0 01-.427.137c-.61.003-.918-.937-.927-2.82 0-.125-.048-.187-.142-.187a17.17 17.17 0 00-1.347.071c-.53.045-.912.102-1.142.17-.226.067-.366.13-.42.189-.051.055-.097.205-.14.452a4.725 4.725 0 00-.054.756l.003.72c.002.418-.189.628-.571.63-.32.001-.482-.207-.484-.625a6.578 6.578 0 01.101-1.043c.125-.774.248-2.107.368-3.998.015-.246.035-.402.063-.469.026-.067.096-.14.21-.218a.652.652 0 01.38-.125c.28 0 .422.114.423.344 0 .035-.043.328-.13.88-.092.55-.137.979-.135 1.284 0 .214.075.321.224.32.297 0 .84-.052 1.628-.153.789-.105 1.196-.187 1.224-.246zm22.685-1.677c0 .058.157.159.47.302.349.162.605.317.77.465.169.144.306.338.413.584.11.242.166.532.168.872.002.313-.207.74-.627 1.28-.415.538-.956.99-1.623 1.356a4.311 4.311 0 01-2.077.549c-.137 0-.328-.04-.575-.12-.242-.082-.364-.167-.364-.257-.003-.492.344-.74 1.04-.743.214.003.425 0 .632-.009.207-.013.47-.082.79-.209.324-.13.628-.311.912-.543.284-.232.488-.457.612-.677.124-.223.185-.436.184-.64-.001-.359-.153-.676-.455-.952-.302-.276-.713-.413-1.233-.41-.078 0-.263.063-.555.19-.293.13-.484.195-.574.196-.304.001-.496-.037-.575-.115-.074-.078-.112-.216-.113-.415 0-.137.327-.336.982-.597a5 5 0 001.735-1.174c.517-.526.775-.945.773-1.257 0-.211-.111-.396-.33-.555-.216-.163-.511-.244-.886-.242a8.45 8.45 0 00-1.687.207c-.64.131-.991.26-1.053.385-.058.126-.218 1.078-.479 2.856-.261 1.775-.391 2.8-.39 3.078 0 .149.01.291.026.428.012.14.018.273.019.398.002.535-.256.804-.776.806-.144.001-.264-.102-.358-.308a1.393 1.393 0 01-.144-.568c0-.074.063-.373.19-.897.152-.712.304-1.686.455-2.92.15-1.24.225-1.9.225-1.982 0-.164-.025-.285-.072-.363-.043-.078-.145-.117-.305-.116-.063 0-.125.003-.188.007-.058.004-.12-.033-.182-.11a.455.455 0 01-.09-.281c0-.309.51-.64 1.531-.992 1.022-.356 2.242-.538 3.66-.544a2.04 2.04 0 011.385.52c.408.35.613.71.615 1.082 0 .265-.175.643-.528 1.133a5.51 5.51 0 01-1.348 1.301zm7.795.291c-.364.01-1.136 1.09-2.317 3.24-.4.724-.632 1.12-.698 1.186-.066.063-.189.12-.368.172a1.646 1.646 0 01-.44.078c-.261.002-.395-.508-.4-1.527-.002-.574.116-1.614.355-3.119.1-.61.148-1.046.147-1.307-.001-.258.113-.388.344-.389.433-.002.652.31.654.935.002.293-.068.867-.208 1.724-.164.977-.247 1.571-.25 1.782.241-.236.594-.75 1.06-1.546.658-1.089 1.144-1.779 1.455-2.07.315-.294.64-.442.976-.443.254-.001.456.168.606.507.154.339.25 1.149.287 2.43.009.32.04.559.09.715.052.156.09.234.113.233.184 0 .58-.627 1.187-1.88.325-.662.64-1.165.948-1.51.31-.346.656-.52 1.035-.52.316-.002.547.16.693.488.146.324.252.806.318 1.446.061.648.154 1.242.277 1.78.128.538.356.883.685 1.034.223.104.335.227.335.368.001.136-.092.277-.279.423-.187.145-.358.218-.514.219-.313.001-.593-.189-.84-.57-.249-.382-.438-1.21-.57-2.482a9.998 9.998 0 00-.162-1.09c-.052-.214-.133-.321-.242-.32-.164 0-.359.157-.584.47-.221.314-.58.95-1.075 1.91-.387.748-.682 1.248-.884 1.499-.198.246-.39.37-.578.371a.622.622 0 01-.452-.197.928.928 0 01-.254-.485c-.036-.191-.076-.658-.118-1.4-.064-1.234-.175-1.952-.332-2.155zM91.37 69.38c.152 0 .229.093.23.28 0 .196-.215.476-.647.841a5.15 5.15 0 01-1.502.874c-.565.218-1.084.328-1.557.33-.691.003-1.323-.222-1.895-.677-.569-.454-.855-1.115-.86-1.982-.007-1.582.666-3.125 2.019-4.627 1.356-1.506 2.665-2.262 3.927-2.268.472-.002.85.142 1.132.434.287.288.431.625.433 1.012.001.36-.019.643-.06.85-.039.207-.161.383-.367.529-.207.141-.373.212-.497.213a.3.3 0 01-.235-.116.473.473 0 01-.101-.316c0-.09.031-.278.097-.563.065-.282.097-.49.096-.627-.002-.399-.176-.597-.524-.596-.539.003-1.206.317-2 .941-.79.621-1.46 1.41-2.01 2.365-.55.952-.824 1.828-.82 2.629.002.535.163.98.48 1.334.323.35.779.523 1.368.52.34 0 .752-.087 1.236-.257a5.5 5.5 0 001.338-.692c.405-.287.645-.43.719-.43zm3.286 1.075c-.188.704-.363 1.691-.525 2.961l-.16 1.108a1.063 1.063 0 01-.214.464c-.116.157-.223.236-.32.236-.122 0-.261-.061-.418-.185-.153-.12-.23-.218-.23-.292 0-.215.047-.512.143-.892.701-2.89 1.047-5.426 1.037-7.61l-.008-.492c-.01-.422.063-.729.218-.921.155-.192.335-.289.538-.29.094 0 .184.074.27.222.087.144.13.35.132.62a9.85 9.85 0 01-.11 1.378c-.1.68-.15 1.07-.153 1.172.577-1.018 1.19-1.814 1.84-2.387.65-.573 1.254-.861 1.812-.864.395-.002.728.145.999.44.274.292.413.657.415 1.094.006 1.274-.477 2.432-1.449 3.476-.972 1.044-1.92 1.567-2.846 1.572-.23 0-.415-.057-.552-.174-.133-.116-.273-.328-.419-.636zm3.617-4.734c-.55.003-1.23.522-2.038 1.556-.808 1.035-1.21 1.84-1.207 2.414 0 .141.081.277.242.41.16.132.364.197.61.196.559-.003 1.2-.418 1.922-1.245.723-.832 1.082-1.646 1.079-2.443-.002-.285-.061-.504-.18-.655a.51.51 0 00-.428-.233zm22.194-2.363l-.016.287c-.019.078-.122.59-.31 1.536l-.034.153c-.034.25-.121 1.225-.262 2.925L119.7 69.8c-.022.254-.038.605-.048 1.055-.024.78-.066 1.223-.129 1.324a.793.793 0 01-.297.277.74.74 0 01-.392.13c-.141.001-.25-.082-.329-.25a1.409 1.409 0 01-.12-.608c-.002-.286.077-.944.237-1.976.11-.708.18-1.538.211-2.491-.02-.13-.077-.197-.171-.205-.106 0-.439.172-1 .515-.65.401-1.245.68-1.783.834-.534.151-.96.227-1.276.229-.516.002-.899-.16-1.151-.487-.252-.331-.38-1.028-.385-2.09-.002-.473.07-1.075.215-1.806.149-.735.334-1.158.556-1.268.226-.11.396-.166.509-.166.094 0 .178.05.253.15.075.102.112.246.113.434 0 .039-.103.428-.311 1.167-.211.743-.316 1.304-.314 1.683.003.602.043.983.122 1.142.079.156.316.233.71.231.254 0 .619-.08 1.095-.239.476-.158.949-.37 1.421-.633.471-.264.833-.518 1.086-.761.253-.244.406-.414.461-.512.054-.102.098-.347.131-.733.007-.114.017-.213.028-.3.038-.32.056-.627.054-.92 0-.12.079-.267.239-.44.163-.173.309-.26.438-.26.144 0 .279.052.405.156a.468.468 0 01.189.375zm6.212 3.985c-.363.009-1.136 1.089-2.317 3.239-.399.724-.632 1.12-.698 1.187-.066.062-.189.12-.368.171a1.645 1.645 0 01-.439.078c-.262.002-.395-.508-.4-1.527-.003-.574.116-1.614.355-3.119.099-.61.147-1.046.146-1.307-.001-.258.114-.388.344-.388.434-.003.652.309.655.934.001.293-.069.867-.209 1.724-.164.977-.247 1.571-.25 1.782.241-.236.595-.75 1.06-1.546.659-1.089 1.144-1.779 1.455-2.07.315-.294.64-.442.976-.443.254-.001.456.168.606.507.154.339.25 1.15.287 2.43.009.32.04.559.091.715.052.156.089.234.112.233.184 0 .58-.627 1.187-1.88.325-.662.641-1.165.948-1.51.311-.346.656-.519 1.035-.52.316-.002.548.16.694.488.146.324.251.806.317 1.446.061.648.154 1.242.278 1.78.127.538.355.883.684 1.034.223.104.335.227.336.368 0 .136-.093.277-.28.423-.186.145-.358.218-.514.219-.313.001-.593-.189-.841-.57-.248-.382-.437-1.21-.568-2.482a9.96 9.96 0 00-.163-1.09c-.052-.214-.132-.32-.242-.32-.164 0-.358.158-.584.471-.221.314-.579.95-1.075 1.91-.387.747-.681 1.247-.883 1.498-.198.247-.391.37-.579.371a.623.623 0 01-.452-.197.932.932 0 01-.254-.485c-.036-.191-.075-.658-.118-1.4-.064-1.234-.175-1.952-.332-2.154zm25.777 5.307a.515.515 0 01-.47-.285c-.11-.195-.167-.572-.169-1.13-.005-.961.212-3.028.651-6.202.026-.137-.023-.219-.148-.246-.125-.03-.637-.044-1.535-.04-1.227.006-1.93.082-2.109.227-.179.145-.316.798-.413 1.959-.036.461-.146 1.21-.329 2.246-.221 1.243-.33 2.128-.328 2.656l.026.369c.001.351-.166.528-.502.53-.402.001-.605-.25-.607-.754-.002-.402.03-.758.095-1.067.107-.524.196-1.028.268-1.513.046-.305.099-.635.16-.99.243-1.416.363-2.424.361-3.026-.001-.203-.096-.314-.283-.332-.371-.042-.558-.193-.559-.455a.653.653 0 01.133-.428.492.492 0 01.362-.178c.375-.017.648-.079.82-.185.156-.079.273-.119.351-.119a.79.79 0 01.416.104c.13.077.505.114 1.126.112a850 850 0 001.242-.041c.824-.028 1.275-.05 1.353-.065.078-.016.174-.048.287-.095.183-.08.333-.12.45-.12l.469.069.522-.038c.316-.002.475.136.476.414a.645.645 0 01-.173.458.587.587 0 01-.398.195.452.452 0 00-.275.118c-.078.067-.18.364-.306.892-.127.528-.249 1.453-.368 2.774a39.324 39.324 0 00-.165 3.563l.001.21c0 .083-.05.167-.152.253a.609.609 0 01-.28.16zm7.266-4.944c-.363.01-1.135 1.09-2.317 3.24-.399.724-.631 1.12-.697 1.186-.067.063-.189.12-.369.172a1.647 1.647 0 01-.439.078c-.262.001-.395-.508-.4-1.527-.002-.575.116-1.614.355-3.12.099-.61.148-1.045.146-1.307-.001-.257.114-.387.344-.388.434-.002.652.31.655.935.001.293-.068.867-.209 1.723-.163.978-.246 1.572-.249 1.783.241-.236.594-.751 1.059-1.546.659-1.09 1.144-1.78 1.455-2.07.315-.294.641-.442.977-.444.254 0 .456.168.606.507.153.34.249 1.15.286 2.43.009.321.04.56.091.715.052.156.089.234.113.234.183 0 .579-.628 1.186-1.88.325-.662.642-1.166.949-1.51.31-.346.655-.52 1.034-.521.317-.002.548.161.694.489.146.323.252.805.317 1.446.062.648.154 1.241.278 1.78.127.538.356.883.684 1.034.224.104.335.227.336.367.001.137-.092.278-.279.423-.187.146-.359.219-.515.22-.312.001-.593-.19-.84-.57-.248-.382-.438-1.21-.568-2.483a10.151 10.151 0 00-.164-1.089c-.052-.214-.132-.321-.241-.32-.165 0-.359.157-.584.47-.221.314-.58.95-1.075 1.91-.388.748-.682 1.247-.884 1.498-.198.247-.391.371-.578.372a.625.625 0 01-.453-.197.932.932 0 01-.254-.485c-.036-.191-.075-.658-.118-1.4-.064-1.234-.175-1.953-.332-2.155zM118.39 41.65c-.065.378-.28.57-.644.573l-1.408.014c-.16.001-1.036.08-2.63.237a18.74 18.74 0 01-1.025.086c-.082 0-.226-.032-.431-.099-.11-.035-.189.007-.238.126l.006-.014c-.479 4.11-.717 6.296-.715 6.556.002.178.017.371.047.58.034.237.052.458.054.663.003.255-.15.485-.458.688-.303.208-.507.313-.612.314-.169.002-.375-.088-.618-.267-.239-.18-.359-.4-.362-.66a6.433 6.433 0 01.079-1.033c.017-.11.034-.247.05-.41.025-.27.108-.87.249-1.801.163-1.064.244-1.616.244-1.657l.284-2.45c-.009-.93.001-1.513.03-1.75a.867.867 0 01.33-.591 1.11 1.11 0 01.708-.24 1.69 1.69 0 01.665.15c.398.161.818.239 1.26.235l3.094-.277a3.17 3.17 0 011.396.164c.426.156.64.409.644.76l.001.102zm4.11 8.634c-.088.37-.195 1.05-.322 2.04a44.883 44.883 0 00-.227 2 1.442 1.442 0 01-.347.87c-.202.24-.386.36-.55.362-.205.002-.409-.074-.611-.227-.202-.153-.304-.32-.305-.503a5.64 5.64 0 01.158-1.28 38.12 38.12 0 001.039-8.453l-.002-.136c-.005-.565.009-.946.044-1.142.034-.201.146-.394.336-.578a.95.95 0 01.674-.28.623.623 0 01.536.289c.143.194.217.476.22.845.004.374-.058 1.029-.186 1.964.498-.848 1.095-1.551 1.791-2.11.701-.562 1.341-.846 1.92-.852.51-.005.945.173 1.304.534.364.361.548.817.553 1.369.015 1.472-.544 2.817-1.676 4.036-1.128 1.214-2.25 1.827-3.366 1.838-.52.005-.847-.19-.983-.586zm3.916-5.637c-.555.006-1.272.555-2.151 1.648-.873 1.093-1.307 1.95-1.301 2.57.002.16.081.302.237.428a.881.881 0 00.555.18c.579-.006 1.238-.466 1.976-1.38.743-.92 1.111-1.802 1.102-2.65-.002-.283-.048-.485-.135-.607-.088-.127-.182-.19-.283-.189zm10.693 3.663c-1.174 1.583-2.31 2.38-3.408 2.391-.41.004-.765-.154-1.065-.475-.299-.32-.451-.731-.456-1.233-.012-1.207.513-2.498 1.576-3.87 1.062-1.378 2.14-2.072 3.233-2.083.556-.005.924.271 1.102.83.524-.005.788.193.792.594.002.191-.045.538-.14 1.04-.173.94-.257 1.691-.251 2.252.005.583.048.993.128 1.23.084.235.145.39.182.462.037.073.147.15.33.23.184.084.276.204.277.36.003.232-.114.426-.349.584a1.3 1.3 0 01-.73.24c-.428.003-.74-.208-.935-.634-.191-.427-.29-.927-.295-1.501l-.002-.205a1.719 1.719 0 01.011-.212zm-.406-3.804c-.46.004-1.055.52-1.783 1.548-.724 1.024-1.082 1.891-1.075 2.602.003.373.083.56.238.558.537-.005 1.194-.488 1.968-1.448.779-.965 1.165-1.805 1.158-2.52-.002-.228-.056-.407-.162-.539-.102-.135-.217-.203-.344-.201zm12.075 5.228c-.044.2-.125.98-.244 2.34l-.202 2.381c-.016.187-.117.37-.302.55-.185.18-.369.27-.551.272-.292.003-.516-.077-.673-.24-.156-.158-.235-.32-.237-.49-.004-.382.129-1.32.397-2.813.094-.543.196-1.153.303-1.828-.624.507-1.273.764-1.948.77-.683.007-1.216-.179-1.598-.558-.377-.38-.57-.917-.576-1.614-.011-1.094.395-2.233 1.217-3.417.823-1.184 1.644-1.78 2.464-1.788.447-.004.817.318 1.111.967.028-.347.04-.793.034-1.34l-.047-2.05c-.004-.447-.028-.773-.071-.977a.793.793 0 01-.043-.191 1.052 1.052 0 01.226-.659c.153-.202.341-.304.564-.306.16-.002.343.067.549.206.207.135.336.3.388.495.056.191.087.474.09.847.018 1.81-.054 3.287-.216 4.432l-.134 1.048c.375-.856.863-1.547 1.464-2.072.605-.526 1.225-.792 1.858-.798a1.68 1.68 0 011.291.541c.35.361.527.815.533 1.362.01 1.071-.17 1.978-.541 2.72-.371.737-.944 1.415-1.717 2.033-.773.618-1.572.931-2.397.94-.424.004-.754-.25-.992-.763zm.504-1.584a.915.915 0 00.218.606c.147.163.346.243.597.24.57-.005 1.163-.415 1.779-1.227.617-.813.921-1.65.912-2.511-.003-.287-.052-.492-.149-.614-.093-.122-.189-.183-.289-.182-.296.003-.585.129-.865.378-.28.244-.631.664-1.054 1.261a11.74 11.74 0 00-1.149 2.049zm-1.796.168c.101-.826.157-1.447.166-1.862.006-.378-.018-.658-.069-.84-.048-.186-.168-.374-.361-.564-.194-.194-.384-.29-.571-.288-.218.002-.581.43-1.088 1.282-.502.848-.749 1.657-.742 2.427.003.237.071.43.204.58.134.149.324.222.57.22.25-.003.589-.113 1.015-.332.426-.223.718-.43.876-.623zm15.793-.49c-.43.802-.932 1.44-1.506 1.915-.569.475-1.15.716-1.743.722-.351.003-.708-.178-1.072-.544-.359-.365-.542-.931-.549-1.697-.006-.542.123-1.361.386-2.457.228-.905.34-1.592.335-2.062.179-.384.462-.578.849-.582.264-.003.475.084.631.26.162.172.243.347.245.524.003.324-.107.785-.329 1.385-.128.356-.267.861-.415 1.514-.145.649-.216 1.064-.214 1.247.006.606.134.908.385.905.396-.004.928-.39 1.595-1.157.667-.768 1.099-1.551 1.297-2.35.197-.782.374-1.294.532-1.537a.764.764 0 01.673-.37c.474-.004.713.258.718.787.001.077-.036.233-.111.466-.261.809-.387 1.72-.377 2.731.012 1.185.219 1.892.622 2.12.133.076.2.171.201.285.002.164-.113.32-.344.468-.231.149-.451.224-.661.226-.36.003-.64-.247-.841-.75-.196-.51-.299-1.192-.307-2.049zm9.922-1.081c.205.048.397.135.576.26.179.127.394.357.643.692.48.651.858 1.078 1.134 1.28.275.203.574.303.898.3.337-.004.507.1.509.31.002.2-.112.404-.343.611-.23.207-.596.313-1.097.318-.77.008-1.558-.62-2.363-1.884-.468-.743-.857-1.113-1.167-1.11-.041 0-.152.031-.334.093-.177.06-.293.116-.347.167-.054.046-.097.336-.128.87l-.063 1.258a.735.735 0 01-.248.529.832.832 0 01-.592.231c-.251.003-.447-.066-.59-.206-.143-.135-.215-.274-.216-.415-.002-.173.052-.545.16-1.116.259-1.438.459-3.195.598-5.27.016-.264.123-.507.321-.727a.927.927 0 01.701-.335.565.565 0 01.467.234.879.879 0 01.19.552 1.6 1.6 0 01-.077.5c-.067.197-.161.599-.282 1.206-.118.607-.188 1.07-.212 1.39.54-.17.96-.402 1.257-.696.298-.295.668-.766 1.108-1.412.368-.533.715-.926 1.041-1.18a1.72 1.72 0 011.076-.393c.215-.002.414.087.598.268.188.176.284.364.286.564.001.169-.05.297-.154.385-.099.083-.276.164-.531.244-.322.099-.666.362-1.031.79-.757.886-1.353 1.45-1.788 1.692zm13.889 23.166c.152-.001.229.092.23.28.001.195-.215.475-.647.84a5.139 5.139 0 01-1.502.875c-.565.217-1.084.327-1.557.33-.691.002-1.323-.223-1.895-.677-.569-.455-.855-1.116-.859-1.983-.008-1.582.665-3.124 2.017-4.626 1.357-1.507 2.666-2.263 3.927-2.269.473-.002.851.143 1.133.435.287.287.431.625.433 1.011.001.36-.019.643-.061.85-.038.207-.16.384-.366.53-.207.14-.373.212-.498.213a.298.298 0 01-.234-.117.474.474 0 01-.102-.316c0-.09.032-.277.097-.563.066-.281.098-.49.097-.627-.002-.398-.176-.597-.524-.595-.539.002-1.206.316-2 .94-.79.622-1.46 1.41-2.01 2.365-.55.952-.824 1.829-.82 2.63.002.535.163.98.481 1.333.322.35.778.524 1.367.521.34-.002.752-.087 1.236-.258a5.507 5.507 0 001.338-.691c.405-.287.645-.431.719-.431zm5.693-4.345c-.151-.402-.496-.836-1.038-1.302-.509-.435-.765-.809-.767-1.122a.783.783 0 01.244-.604c.163-.157.467-.3.912-.426a33.03 33.03 0 001.691-.524c.573-.198.918-.324 1.035-.38a.528.528 0 01.228-.053c.129 0 .194.114.195.345.001.128-.154.305-.466.53-.311.223-.863.433-1.655.628-.5.127-.806.222-.919.285-.109.06-.163.12-.163.183.001.14.154.343.46.607 1.153.999 1.733 2.256 1.74 3.771.003.653-.166 1.353-.506 2.1-.34.744-.797 1.299-1.369 1.665-.569.366-1.127.55-1.673.552-.493.003-.867-.236-1.123-.715a3.35 3.35 0 01-.388-1.586c-.005-1.023.305-1.99.93-2.899.628-.91 1.294-1.365 1.997-1.369.094 0 .212.06.353.18.129.117.223.162.282.134zm-2.537 3.973c.002.433.061.773.175 1.018.118.246.271.368.459.367.25 0 .587-.157 1.011-.467.425-.31.764-.77 1.019-1.376.259-.607.387-1.174.385-1.701-.002-.438-.066-.79-.192-1.06-.123-.273-.237-.409-.342-.408-.695.003-1.289.43-1.781 1.28-.493.85-.737 1.632-.734 2.347zm30.242-3.651c0 .06.157.16.47.303.349.163.605.318.77.465.169.144.306.339.413.584.11.242.166.533.168.873.001.312-.208.739-.627 1.28-.416.537-.956.989-1.623 1.355a4.312 4.312 0 01-2.077.549c-.137 0-.329-.04-.575-.12-.243-.082-.364-.167-.365-.257-.002-.492.345-.74 1.04-.743.215.003.426 0 .633-.009.207-.012.47-.082.79-.209.323-.13.627-.311.911-.543.285-.232.489-.457.613-.676a1.32 1.32 0 00.184-.64c-.002-.36-.153-.677-.456-.953-.302-.276-.712-.413-1.232-.41-.078 0-.263.063-.556.19-.292.13-.483.195-.573.196-.305.001-.496-.037-.575-.115-.074-.078-.112-.216-.113-.415-.001-.137.327-.336.982-.596a5 5 0 001.734-1.175c.518-.525.775-.945.774-1.257-.001-.211-.111-.396-.331-.555-.215-.163-.511-.244-.886-.242a8.44 8.44 0 00-1.686.207c-.64.132-.991.26-1.053.386-.058.125-.218 1.077-.479 2.855-.261 1.775-.391 2.801-.39 3.078.001.149.009.291.025.428.013.14.019.273.02.398.002.535-.256.804-.776.807-.144 0-.264-.103-.359-.31a1.406 1.406 0 01-.143-.567c0-.074.063-.373.189-.897.153-.712.305-1.685.455-2.92.151-1.24.226-1.9.226-1.982-.001-.164-.025-.285-.072-.363-.044-.078-.145-.116-.306-.116-.062 0-.125.003-.187.007-.059.004-.119-.033-.182-.11a.452.452 0 01-.089-.281c-.002-.309.508-.64 1.53-.992 1.022-.356 2.242-.538 3.66-.544.519-.002.981.171 1.385.52.408.35.613.71.614 1.082.002.266-.174.643-.528 1.133-.349.486-.798.92-1.347 1.302zm4.993 5.274c-.586.003-1.038-.163-1.356-.497-.314-.335-.472-.805-.475-1.41-.005-1.02.395-2.096 1.198-3.229.803-1.136 1.553-1.706 2.248-1.71.316 0 .589.17.817.513.232.338.349.7.351 1.082.001.23-.049.43-.15.599-.097.164-.196.246-.298.247-.226.001-.387-.227-.483-.683-.108-.492-.262-.737-.461-.736-.406.001-.884.486-1.434 1.453-.551.968-.824 1.783-.821 2.448.003.664.381.994 1.135.99.574-.002 1.249-.275 2.024-.817.272-.193.473-.29.602-.29.133-.001.2.075.2.227.002.297-.346.674-1.043 1.13-.697.453-1.382.68-2.054.683z" fill="#495E4C"/></g><defs><clipPath id="clip0_86_2250"><path fill="#fff" transform="rotate(-.142 288.705 .357)" d="M0 0h288.709v274.126H0z"/></clipPath></defs></svg>