<svg width="310" height="301" fill="none" xmlns="http://www.w3.org/2000/svg"><g opacity=".5" clip-path="url(#clip0_86_2175)"><path d="M167.84 43.248L58.833 98.132l202.008 41.924-78.61-93.87a11.804 11.804 0 00-14.391-2.938z" fill="#EBEBEB"/><path d="M57.583 98.295l110.073-55.421a12.162 12.162 0 0114.9 3.052l79.383 94.789-204.356-42.42zm120.541-54.848a11.332 11.332 0 00-10.079.134L60.072 97.974l199.689 41.441-77.827-92.972a11.417 11.417 0 00-3.827-2.96l.017-.036z" fill="#E0E0E0"/><path d="M58.82 98.156l202.718 42.073-22.797 109.844a8.373 8.373 0 01-9.904 6.499L42.529 217.906a8.38 8.38 0 01-6.5-9.904L58.828 98.158l-.008-.002z" fill="#F0F0F0"/><path d="M247.813 140.221l-93.553 33.921-84.577-66.955 13.34-55.506a11.262 11.262 0 0113.279-8.575l153.549 31.887a11.246 11.246 0 018.733 13.312l-10.771 51.916z" fill="#fff"/><path d="M148.071 164.96L36.148 206.978a9.203 9.203 0 007.146 10.892l184.893 38.352a9.213 9.213 0 0010.892-7.146l.143-.695-80.889-81.193a9.661 9.661 0 00-10.262-2.228zm10.491-82.743L98.484 69.759l-1.272 6.134 60.078 12.458 1.272-6.134zm69.993 30.734L95.258 85.311l-1.437 6.93 133.297 27.641 1.437-6.931zm-3.507 16.934L91.75 102.245l-1.437 6.93 133.298 27.641 1.437-6.931zm-7.126 21.241l-5.522 1.935-112.518-21.942-11.592-9.334.188-1.654 132.868 27.556-.472 2.299-2.952 1.14zm-38.097 13.745l-50.407-10.461-12.253-9.764 75.34 15.623-12.68 4.602z" fill="#E0E0E0"/><path d="M143.987 166.485s-.086.054-.27.13l-.817.327-3.134 1.21-11.584 4.435a6364.084 6364.084 0 01-38.306 14.417c-14.96 5.571-28.604 10.482-38.485 13.94a1103.22 1103.22 0 01-11.734 4.042l-3.194 1.067-.84.265c-.092.038-.19.064-.289.077.088-.048.18-.088.275-.119l.824-.307 3.155-1.147 11.683-4.17c9.856-3.496 23.468-8.466 38.456-14.041 14.987-5.576 28.521-10.583 38.339-14.305l11.621-4.314 3.158-1.154.832-.285.31-.068zm95.235 81.896c-.083.082-17.386-17.118-38.646-38.417-21.26-21.298-38.429-38.633-38.346-38.715.082-.082 17.389 17.111 38.635 38.438 21.247 21.327 38.443 38.605 38.357 38.694zm13.057-109.813a1.255 1.255 0 01-.219.112l-.663.28-2.562 1.05-9.468 3.769a1656.046 1656.046 0 01-31.432 11.961 1595.07 1595.07 0 01-31.673 11.306l-9.653 3.272-2.635.859-.686.217c-.16.044-.24.067-.244.056.074-.039.151-.071.23-.098l.671-.259 2.609-.932 9.603-3.4a2590.39 2590.39 0 0031.625-11.425 2975.624 2975.624 0 0031.469-11.838l9.554-3.624 2.538-1.001.682-.245c.082-.03.167-.05.254-.06zm-108.292 27.917a1.237 1.237 0 01-.226-.161l-.623-.508-2.481-2.061a755.485 755.485 0 00-9.058-7.403c-7.676-6.217-18.422-14.639-30.318-23.901s-22.615-17.724-30.242-24.005c-3.82-3.138-6.888-5.708-8.98-7.512l-2.378-2.038-.607-.543a1.08 1.08 0 01-.199-.2l.223.168.627.5 2.445 2.045a891.551 891.551 0 009.065 7.406c7.676 6.217 18.415 14.636 30.318 23.902 11.903 9.265 22.615 17.723 30.243 24.004 3.819 3.139 6.891 5.701 8.979 7.512l2.4 2.083.607.544.205.168z" fill="#FAFAFA"/><path d="M247.813 140.221s.041-.266.149-.796l.444-2.242c.4-1.986.989-4.888 1.746-8.629l6.503-31.69c.347-1.674.7-3.387 1.057-5.142a231.8 231.8 0 00.547-2.653c.095-.449.196-.895.256-1.343.074-.451.116-.906.126-1.363a11.029 11.029 0 00-5.112-9.67 10.868 10.868 0 00-2.703-1.257c-.962-.272-1.983-.46-2.997-.678l-6.211-1.251-12.915-2.705-57.566-11.926-57.594-11.974-12.914-2.687-3.124-.635a17.465 17.465 0 00-3.057-.498 10.511 10.511 0 00-3.011.287c-.973.228-1.91.59-2.782 1.075a11.431 11.431 0 00-2.363 1.736 11.657 11.657 0 00-1.78 2.26c-1.043 1.625-1.363 3.519-1.815 5.324-.877 3.628-1.718 7.103-2.523 10.424-3.248 13.287-5.818 24.044-7.653 31.468-.915 3.708-1.62 6.58-2.093 8.539-.24.969-.432 1.71-.557 2.223a9.645 9.645 0 01-.212.766s.048-.263.17-.786l.514-2.226c.463-1.973 1.147-4.855 2.023-8.573 1.768-7.447 4.331-18.208 7.492-31.493.8-3.324 1.632-6.804 2.495-10.439.441-1.783.775-3.74 1.844-5.422a11.733 11.733 0 011.808-2.28 12.02 12.02 0 012.436-1.798 10.99 10.99 0 012.868-1.11 10.646 10.646 0 013.109-.31c1.055.064 2.102.224 3.127.48l3.159.65 12.928 2.677L171.24 58.5l57.595 11.974 12.875 2.643 6.19 1.294c1.018.211 2.021.399 3.03.684a11.465 11.465 0 016.803 5.702 11.368 11.368 0 011.251 5.592 8.77 8.77 0 01-.136 1.401c-.066.463-.161.912-.255 1.362-.186.891-.371 1.782-.557 2.656-.365 1.751-.727 3.46-1.072 5.134l-6.646 31.683c-.789 3.734-1.445 6.613-1.823 8.609-.22.979-.38 1.727-.494 2.236-.115.509-.188.751-.188.751z" fill="#E0E0E0"/><path d="M186.897 65.12l-9.523 1.954-4.536 10.299-3.941-8.136-4.975 1.322-5.44-22.976 28.415 17.537z" fill="#5CCD6A"/><path d="M173.722 67.973c-.149.31-.884 9.4-.884 9.4l-3.941-8.136 4.825-1.264z" fill="#000" opacity=".3"/><path d="M158.482 47.583l15.233 20.387-.877 9.403 4.536-10.299-18.892-19.491z" fill="#54BE61"/><path d="M149.1 211.452a10.121 10.121 0 01-3.192-2.62 10.094 10.094 0 013.192 2.62zm5.087 4.182c-.051.106-.562-.184-1.086-.609-.525-.426-.888-.861-.816-.957.072-.095.562.184 1.09.62s.891.854.812.946zm34.351-132.343a6.089 6.089 0 01-1.701-1.173 5.722 5.722 0 01-1.512-1.404c.668.22 1.277.59 1.78 1.081.591.376 1.082.89 1.433 1.496zm5.416 6.206a5.961 5.961 0 01-1.381-1.532 5.987 5.987 0 01-1.146-1.714 4.447 4.447 0 011.478 1.457c.706.896 1.149 1.725 1.049 1.79zm3.757 7.327c-.114.04-.488-.79-.958-1.832-.471-1.042-.82-1.904-.684-1.952.493.5.862 1.11 1.08 1.778.457 1.053.667 1.97.562 2.006zm1.681 8.055c-.123.002-.259-.906-.416-2.023a6.349 6.349 0 01-.137-2.061c.108-.027.409.864.563 2.006a4.45 4.45 0 01-.01 2.078zm-.788 8.187a6.268 6.268 0 01.224-2.053c.044-.694.21-1.375.49-2.012a4.34 4.34 0 01-.073 2.082 4.265 4.265 0 01-.641 1.983zm-3.178 7.584a6.422 6.422 0 01.817-1.898 5.893 5.893 0 011.061-1.772 4.44 4.44 0 01-.677 1.965 4.456 4.456 0 01-1.201 1.705zm-5.362 6.221a6.412 6.412 0 011.379-1.532 6.604 6.604 0 011.529-1.374 4.135 4.135 0 01-1.258 1.66 4.248 4.248 0 01-1.65 1.246zm-7.201 3.949c-.03-.119.818-.475 1.854-.914 1.036-.439 1.883-.83 1.937-.708a4.284 4.284 0 01-1.77 1.101c-1.06.453-1.988.632-2.021.521zm-8.142 1.013a6.432 6.432 0 012.054-.192 6.328 6.328 0 012.064.055 4.32 4.32 0 01-2.054.375 4.269 4.269 0 01-2.064-.238zm-7.984-1.913a6.253 6.253 0 011.982.554 6.438 6.438 0 011.918.775 4.235 4.235 0 01-2.052-.371 4.19 4.19 0 01-1.848-.958zm-6.582-4.901a7.017 7.017 0 011.584 1.325 7.07 7.07 0 011.45 1.461 4.064 4.064 0 01-1.739-1.148 3.988 3.988 0 01-1.295-1.638zm-2.669-7.533c.106.051.091.912.269 2.022.178 1.109.457 1.955.328 2.023-.128.069-.565-.792-.754-1.95a3.197 3.197 0 01.157-2.095zm5.87-4.284c-.054.113-.941-.01-2.019.175-1.078.184-1.85.689-1.922.585-.071-.104.645-.8 1.846-1.004a2.864 2.864 0 012.095.244zm5.101 5.707c-.126.009-.245-.898-.652-1.927-.408-1.03-.993-1.727-.871-1.799.62.368 1.077.957 1.281 1.649.324.642.41 1.378.242 2.077zm-3.221 7.312a9.877 9.877 0 011.216-1.645c.349-.591.758-1.145 1.22-1.653a5.086 5.086 0 01-.88 1.903 5.082 5.082 0 01-1.57 1.388l.014.007zm-7.489 3.211c-.02-.122.876-.343 1.959-.629 1.084-.286 1.996-.541 2.012-.447.015.094-.775.565-1.883.83-1.109.266-2.076.364-2.088.246zm-8.238.256a5.18 5.18 0 012.064-.179 5.06 5.06 0 012.065.255 5.333 5.333 0 01-2.072.176 5.109 5.109 0 01-2.057-.252zm-8.246.182c-.012-.118.898-.297 2.044-.405a4.674 4.674 0 012.073.129c.005.132-.921.217-2.046.3a4.985 4.985 0 01-2.071-.024zm-7.95 2.148c-.043-.108.775-.565 1.864-.935 1.09-.37 1.986-.52 2.048-.395.061.125-.847.461-1.912.817-1.065.355-1.935.596-2 .513zm-7.179 4.028a4.558 4.558 0 011.585-1.347c.966-.62 1.828-.986 1.889-.879a6.11 6.11 0 01-1.656 1.243c-.917.626-1.743 1.08-1.818.983zm-6.028 5.606a4.387 4.387 0 011.223-1.677 4.457 4.457 0 011.624-1.302 5.957 5.957 0 01-1.315 1.598 5.953 5.953 0 01-1.532 1.381zm-4.512 6.89a7.67 7.67 0 012.037-3.585 5.793 5.793 0 01-.895 1.861 5.926 5.926 0 01-1.142 1.724zm-2.563 7.82a5.048 5.048 0 01.269-2.058 4.044 4.044 0 01.751-1.939 6.93 6.93 0 01-.333 2.045 5.063 5.063 0 01-.687 1.952zm-.419 8.216a4.498 4.498 0 01-.305-2.056 4.372 4.372 0 01.255-2.064c.177.672.235 1.369.172 2.061a5.687 5.687 0 01-.122 2.059zm1.597 8.084c-.105.037-.481-.804-.807-1.932a4.63 4.63 0 01-.255-2.067c.125-.027.384.861.673 1.955.29 1.094.504 2.004.389 2.044zm3.452 7.475a4.474 4.474 0 01-1.219-1.688c-.54-1.007-.827-1.891-.73-1.948.47.514.846 1.106 1.112 1.749.543.999.937 1.822.837 1.887zm5.157 6.42a4.361 4.361 0 01-1.598-1.333 4.263 4.263 0 01-1.181-1.713 6.269 6.269 0 011.495 1.421c.511.47.945 1.019 1.284 1.625zm3.254 2.78c-.048.099-.152.153-.184.129-.032-.024-.002-.123.099-.205.1-.082.151-.152.183-.128.032.024-.009.073-.098.204z" fill="#495D4C"/><path d="M129.573 168.254l-6.49-6.238-3.881 4.037 6.49 6.238 3.881-4.037z" fill="#43AF55"/><path d="M129.589 168.274a35.58 35.58 0 01-5.35-.317l-.158-.015-.03-.153-.053-.234a36.189 36.189 0 01-.893-5.524 36.703 36.703 0 011.315 5.441l.046.23-.188-.169c1.787.104 3.563.351 5.311.741z" fill="#2A9348"/><path d="M123.877 166.021a6.423 6.423 0 01-2.344.235 6.869 6.869 0 01-2.35-.201 6.635 6.635 0 012.35-.232 6.933 6.933 0 012.344.198zm1.913 6.379a6.448 6.448 0 01-.129-2.258c.04-1.274.164-2.325.298-2.243.177.74.223 1.505.136 2.261a6.082 6.082 0 01-.305 2.24z" fill="#2A9348"/><path d="M151.959 202.155l-16.691-16.042-9.983 10.386 16.691 16.043 9.983-10.387z" fill="#5CCD6A"/><path d="M151.948 202.155c-.36.026-.723.018-1.081-.025l-2.932-.221c-2.497-.221-5.902-.522-9.724-.893l-.158-.015-.03-.154-.121-.596a749.482 749.482 0 01-1.959-9.985l-.546-3.031a6.309 6.309 0 01-.144-1.128c.15.356.263.728.336 1.107l.679 3.009a706.76 706.76 0 012.084 9.958l.125.589-.188-.168c3.811.375 7.238.739 9.705 1.023l2.919.354c.35.028.696.087 1.035.176z" fill="#43AF55"/><path d="M137.346 196.426a43.472 43.472 0 01-6.037.246c-2.013.08-4.029.021-6.034-.176a41.236 41.236 0 016.034-.257 41.118 41.118 0 016.037.187zm4.833 15.922a39.469 39.469 0 01.059-5.555c.023-1.856.181-3.711.471-5.549.117 1.85.096 3.709-.062 5.562a38.313 38.313 0 01-.468 5.542z" fill="#43AF55"/><path d="M134.916 189.677a3.432 3.432 0 01-1.909-6.561 3.43 3.43 0 013.733.785 3.435 3.435 0 01-1.824 5.776z" fill="#495D4C"/><path d="M136.479 186.662a15.64 15.64 0 01-2.696.283l-.625.037-.116.006-.008-.109a11.088 11.088 0 01-.043-2.077c.158.677.247 1.369.266 2.064l-.113-.107.629-.045a15.579 15.579 0 012.706-.052z" fill="#fff"/><path d="M147.23 179.408l-8.746-8.406-5.23 5.442L142 184.85l5.23-5.442z" fill="#43AF55"/><path d="M147.215 179.406a3.343 3.343 0 01-.566-.012l-1.541-.116c-1.293-.11-3.09-.271-5.087-.468l-.07-.034-.019-.087-.061-.307c-.416-2.04-.741-3.871-1.032-5.234l-.287-1.588a3.536 3.536 0 01-.072-.59c.076.184.129.375.16.571l.36 1.58c.29 1.328.678 3.172 1.094 5.212l.058.314-.113-.054c1.997.197 3.791.383 5.087.538l1.525.186c.191.007.381.037.564.089z" fill="#2A9348"/><path d="M139.565 176.404c-1.05.114-2.106.157-3.161.129a22.781 22.781 0 01-3.167-.091 22.145 22.145 0 013.164-.136 21.853 21.853 0 013.164.098zm2.577 8.59a20.648 20.648 0 01.002-3.036 22.14 22.14 0 01.226-3.033 39.817 39.817 0 01-.228 6.069z" fill="#2A9348"/><path d="M102.704 58.395a16.331 16.331 0 11-2.061-23.017 16.34 16.34 0 012.061 23.017z" fill="#5CCD6A"/><path d="M99.473 42.557c.21.231-3.83 4.354-9.03 9.213-.763.7-1.487 1.376-2.204 2.038l-.39.36-.391-.397c-3.887-4.135-6.647-7.328-6.457-7.506.19-.177 3.263 2.707 7.233 6.76l-.756-.017c.703-.668 1.43-1.351 2.179-2.059 5.222-4.848 9.61-8.613 9.816-8.392z" fill="#fff"/></g><defs><clipPath id="clip0_86_2175"><path fill="#fff" transform="rotate(25.685 47.547 208.564)" d="M0 0h238.088v219.404H0z"/></clipPath></defs></svg>