<svg width="301" height="189" fill="none" xmlns="http://www.w3.org/2000/svg"><g opacity=".5" clip-path="url(#clip0_86_2113)"><path d="M68.766 70.995H10.922v44.59h57.844v-44.59z" fill="#8FE89A"/><path d="M54.275 115.269c-.05 0-.095-9.938-.095-22.195s.045-22.195.095-22.195.094 9.932.094 22.195c0 12.262-.039 22.195-.094 22.195z" fill="#495D4C"/><path d="M63.029 105.437h-4.437v5.01h4.437v-5.01z" fill="#F5F5F5"/><path d="M35.136 71.112h-6.568v9.516h6.568v-9.516zm0 34.824h-6.568v9.516h6.568v-9.516z" fill="#495D4C"/><path d="M67.431 71.023a.444.444 0 01-.15 0h-8.244l-20.271.028-20.277-.028h-8.24a.444.444 0 01-.15 0h2.249l6.141-.033h40.548l6.147.033h2.249z" fill="#263238"/><path d="M116.921 70.946H59.077v44.589h57.844v-44.59z" fill="#E0E0E0"/><path d="M102.418 115.219c-.05 0-.094-9.944-.094-22.195 0-12.252.044-22.195.094-22.195s.095 9.938.095 22.195-.034 22.195-.095 22.195z" fill="#495D4C"/><path d="M112.018 105.381h-4.436v5.01h4.436v-5.01z" fill="#F5F5F5"/><path opacity=".5" d="M83.29 71.056h-6.568v9.516h6.569v-9.516zm0 34.83h-6.568v9.516h6.569v-9.516z" fill="#fff"/><path d="M117.944 70.946h-2.221l-6.146.033H60.611a.74.74 0 01.144 0h2.105l6.14-.028h40.549l6.146.028h2.105a.737.737 0 01.144-.033z" fill="#0A0D0E"/><path d="M120.169 26.356H62.325v44.59h57.844v-44.59z" fill="#E0E0E0"/><path d="M105.678 70.63c-.05 0-.095-9.938-.095-22.195 0-12.258.045-22.195.095-22.195s.094 9.938.094 22.195-.022 22.194-.094 22.194z" fill="#495D4C"/><path d="M115.266 60.791h-4.436v5.01h4.436v-5.01zM86.539 26.472H79.97v9.516h6.569v-9.516zm0 34.824H79.97v9.516h6.569v-9.516z" fill="#F5F5F5"/><path d="M119.235 26.356h-2.254l-6.141.033-20.272.028-20.277-.028-6.146-.033h-2.249 8.395l20.277-.028 20.272.028h8.395z" fill="#263238"/><path d="M109.123 165.229v-5.221H2.247a1.437 1.437 0 00-1.432 1.459v2.364a1.433 1.433 0 001.432 1.426h2.976v2.38a1.408 1.408 0 01-1.41 1.404H2.225a1.412 1.412 0 00-1.41 1.409v2.409a1.408 1.408 0 001.41 1.37h106.898v-5.216h-24.89v-3.784h24.89zm-78.287 0h6.401v3.784h-6.396l-.005-3.784zm-4.27 3.784h-6.402v-3.784h6.408l-.006 3.784zm14.941-3.784h6.413v3.784h-6.407l-.006-3.784zm10.677 0h6.402v3.784H52.19l-.006-3.784zm10.672 0h6.407v3.784h-6.402l-.005-3.784zm-53.369 0h6.402v3.784H9.493l-.006-3.784zm70.448 3.784h-6.402v-3.784h6.407l-.005 3.784z" fill="#89948F"/><path d="M199.162 81.236c.176-.162.314-.353.407-.563a1.54 1.54 0 00-.031-1.315 1.714 1.714 0 00-.432-.547l-18.109-15.338a2.08 2.08 0 00-1.336-.474c-.496 0-.974.17-1.335.474a1.757 1.757 0 00-.44.557 1.589 1.589 0 00-.039 1.337c.092.214.23.41.406.576l7.222 6.814-3.759 3.24-1.957-1.38-13.664 14.032-7.301-6.294-8.8 23.202 1.745 31.495h20.245l-1.411-37.424 13.558-17.353.106-4.129 3.904-3.58 8.416 6.735c.364.292.84.446 1.329.431a2.003 2.003 0 001.292-.511l-.016.015z" fill="#B8B8B8"/><path d="M190.865 134.842l12.898-29.859-4.843-1.637v-5.79l35.265-.458c.83-.014 1.626-.28 2.239-.746.614-.467 1.003-1.103 1.096-1.791l5.176-38.382c.115-.86.605-1.653 1.378-2.23.772-.577 1.773-.896 2.81-.897.569 0 1.131.096 1.654.283.524.186.996.458 1.39.8.394.342.701.747.903 1.19.201.443.293.916.271 1.39l-1.952 39.55 18.413.083.625 7.218-54.454 1.772-14.201 29.075-8.668.429z" fill="#E9E9E9"/><path d="M199.445 134.206l-45.033.307v2.539l18.655-.204 29.712-.19 72.036-8.624-8.165-26.35h-48.774a5.98 5.98 0 00-2.429.477 5.058 5.058 0 00-1.886 1.381l-14.116 30.664z" fill="#B8B8B8"/><path d="M176.878 8.223l-31.676 100.948.222 28.076h10.078v-27.899L181.453 8.489l70.315-.394 13.447 105.054h7.934L256.787 8.833a5.956 5.956 0 00-5.847-4.86h-68.354a5.96 5.96 0 00-5.708 4.25z" fill="#E9E9E9"/><path d="M139.517 169.685v-26.972l5.93-5.466 55.523-.71 9.994-8.124a11.423 11.423 0 016.551-2.535l10.661-.6s4.797-3.329 9.439-6.58a34.813 34.813 0 0120.11-6.398h30.776a4.214 4.214 0 014.215 4.212v53.173H139.517z" fill="#5CCD6A"/><path d="M292.71 160.99H138.973v8.867H292.71v-8.867z" fill="#495D4C"/><path d="M146.929 169.585a18.994 18.994 0 0011.48 17.721 19.013 19.013 0 0026.119-13.47 19 19 0 00-7.801-19.619 19.021 19.021 0 00-10.515-3.353 19.017 19.017 0 00-13.523 5.368 18.982 18.982 0 00-5.76 13.353z" fill="#495D4C"/><path d="M146.935 169.535v.05a18.992 18.992 0 005.432 13.406 19.014 19.014 0 0013.301 5.699 19.016 19.016 0 0013.462-5.309 18.995 18.995 0 005.821-13.241v-.05l-38.016-.555z" fill="#495D4C"/><path d="M152.592 169.668a13.316 13.316 0 008.059 12.403 13.33 13.33 0 0018.296-9.442 13.317 13.317 0 00-12.818-16.106 13.334 13.334 0 00-9.499 3.765 13.32 13.32 0 00-4.038 9.38z" fill="#FAFAFA"/><path d="M166.129 156.523a13.334 13.334 0 00-9.499 3.765 13.32 13.32 0 00-4.038 9.38l26.69.383a13.3 13.3 0 00-3.767-9.492 13.336 13.336 0 00-9.386-4.036z" fill="#E0E0E0"/><path d="M157.806 169.74a8.126 8.126 0 004.91 7.585 8.142 8.142 0 008.89-1.632 8.129 8.129 0 001.893-8.833 8.141 8.141 0 00-13.228-2.832 8.133 8.133 0 00-2.465 5.712zm82.146-.155a19 19 0 0011.481 17.721 19.013 19.013 0 0026.118-13.47 19 19 0 00-7.801-19.619 19.021 19.021 0 00-24.036 2.016 18.995 18.995 0 00-5.762 13.352z" fill="#495D4C"/><path d="M239.958 169.535v.05a18.992 18.992 0 005.432 13.406 19.015 19.015 0 0013.301 5.699 19.016 19.016 0 0013.462-5.309 18.99 18.99 0 005.821-13.241.14.14 0 010-.05l-38.016-.555z" fill="#495D4C"/><path d="M245.615 169.668a13.314 13.314 0 008.059 12.403 13.33 13.33 0 0018.296-9.442 13.317 13.317 0 00-12.818-16.106 13.334 13.334 0 00-9.498 3.765 13.307 13.307 0 00-4.039 9.38z" fill="#FAFAFA"/><path d="M259.152 156.523a13.334 13.334 0 00-9.499 3.765 13.32 13.32 0 00-4.038 9.38l26.69.383a13.3 13.3 0 00-3.767-9.492 13.33 13.33 0 00-9.386-4.036z" fill="#E0E0E0"/><path d="M250.835 169.74a8.116 8.116 0 004.91 7.576 8.13 8.13 0 0011.166-5.761 8.12 8.12 0 00-3.336-8.388 8.142 8.142 0 00-7.616-.862 8.13 8.13 0 00-4.463 4.334 8.111 8.111 0 00-.661 3.101zm32.864-13.405s-.034-.039-.095-.128l-.244-.4-.389-.654a7.85 7.85 0 00-.555-.877 26.99 26.99 0 00-4.286-4.994c-.489-.494-1.111-.926-1.666-1.415-.555-.488-1.249-.915-1.915-1.387-.667-.472-1.4-.91-2.182-1.293-.389-.2-.778-.416-1.178-.61l-1.249-.555a27.08 27.08 0 00-5.508-1.665 26.329 26.329 0 00-17.573 2.775l-1.188.671c-.383.228-.744.483-1.11.716-.75.46-1.394 1.01-2.055 1.492-.66.483-1.232 1.038-1.776 1.565-.545.527-1.078 1.027-1.522 1.571a27.015 27.015 0 00-3.792 5.376 9.56 9.56 0 00-.466.927c-.128.266-.239.494-.328.688a7.919 7.919 0 01-.283.56.502.502 0 01.05-.155l.178-.433.305-.699c.129-.321.277-.634.444-.938a26.101 26.101 0 013.742-5.465c.439-.555.989-1.043 1.516-1.593.528-.549 1.161-1.048 1.782-1.587a16.404 16.404 0 012.06-1.52c.367-.239.733-.494 1.111-.732l1.193-.677a27.185 27.185 0 0111.527-3.33 27.042 27.042 0 0111.788 2.22l1.254.555c.406.2.794.416 1.183.621.794.389 1.488.888 2.221 1.315.733.428 1.327.927 1.921 1.41.594.482 1.177.937 1.666 1.442a25.86 25.86 0 014.242 5.083c.201.287.386.586.555.893.141.259.263.481.366.666l.217.416a.598.598 0 01.039.145zm-92.94 3.501a.554.554 0 01-.072-.156l-.189-.449-.3-.744-.45-.987a29.942 29.942 0 00-3.592-5.898 23.596 23.596 0 00-7.74-6.592 22.977 22.977 0 00-5.719-1.904 29.343 29.343 0 00-6.457-.588 28.86 28.86 0 00-6.43.827 23.887 23.887 0 00-5.619 2.22 28.087 28.087 0 00-7.989 6.336 31.758 31.758 0 00-3.915 5.682 55.65 55.65 0 00-.866 1.665l-.222.432a.755.755 0 01-.083.15.85.85 0 01.055-.161l.2-.449c.167-.4.444-.971.816-1.704a30.494 30.494 0 013.859-5.776 27.946 27.946 0 018.018-6.436 23.913 23.913 0 015.674-2.22 28.807 28.807 0 016.496-.843 29.28 29.28 0 016.524.599 23.168 23.168 0 015.78 1.942 23.603 23.603 0 017.773 6.703 29.241 29.241 0 013.554 5.965c.155.377.3.71.422 1.004.122.294.2.555.278.755.077.2.116.344.161.46.018.054.029.11.033.167zm-51.281.172H55.205v9.849h84.273v-9.849z" fill="#495D4C"/><path d="M137.196 164.186a2.451 2.451 0 01-4.189 1.734 2.449 2.449 0 01.371-3.773 2.453 2.453 0 013.818 2.039z" fill="#89948F"/><path d="M238.414 150.808c0 .083-11.86.15-26.484.15-14.625 0-26.485-.067-26.485-.15 0-.083 11.854-.144 26.485-.144 14.63 0 26.484.066 26.484.144zm-10.793-2.103c-.084 0-.145-5.155-.145-11.508 0-6.353.061-11.513.145-11.513.083 0 .144 5.154.144 11.513s-.067 11.508-.144 11.508zm-88.143-7.002h-9.245v18.432h9.245v-18.432z" fill="#495D4C"/><path d="M118.848 115.546H61.004v44.589h57.844v-44.589z" fill="#8FE89A"/><path d="M104.356 159.802c-.05 0-.094-9.937-.094-22.195 0-12.257.044-22.194.094-22.194s.094 9.932.094 22.194c0 12.263-.044 22.195-.094 22.195z" fill="#495D4C"/><path d="M113.945 149.986h-4.436v5.011h4.436v-5.011z" fill="#F5F5F5"/><path d="M105.37 115.663h-6.568v9.516h6.568v-9.516zm-20.153 34.829H78.65v9.516h6.568v-9.516z" fill="#495D4C"/><path d="M123.031 115.546a.441.441 0 01-.145 0h-2.098l-6.147.028H74.093l-6.141-.028h-2.099a.42.42 0 01-.15 0h2.249l6.14-.028h40.549l6.147.028h2.243z" fill="#263238"/><path d="M60.134 115.546H2.291v44.589h57.843v-44.589z" fill="#E0E0E0"/><path d="M43.686 159.802c-.055 0-.094-9.937-.094-22.195 0-12.257.039-22.194.094-22.194.056 0 .09 9.932.09 22.194 0 12.263-.04 22.195-.09 22.195z" fill="#263238"/><path d="M53.276 149.986h-4.437v5.011h4.437v-5.011z" fill="#F5F5F5"/><path opacity=".5" d="M24.548 115.663h-6.569v9.516h6.569v-9.516zm0 34.829h-6.569v9.516h6.569v-9.516z" fill="#fff"/><path d="M56.838 115.546a.42.42 0 01-.15 0h-2.099l-6.14.028H7.9l-6.147-.028H-.345a.437.437 0 01-.145 0h2.243l6.147-.028h40.548l6.141.028h2.249z" fill="#263238"/><path d="M295.136 127.67c2.982.716 5.486 3.745 5.436 6.808a7.033 7.033 0 01-5.436 6.559" fill="#E8505B"/><path d="M295.136 127.67c2.982.716 5.486 3.745 5.436 6.808a7.033 7.033 0 01-5.436 6.559" fill="#fff" opacity=".6"/><path d="M295.258 125.944h-2.548v16.874h2.548v-16.874z" fill="#498D51"/><path d="M319 188.856c0 .077-80.364.144-179.472.144-99.109 0-179.495-.067-179.495-.144 0-.078 80.347-.145 179.495-.145 99.147 0 179.472.061 179.472.145z" fill="#495D4C"/></g><defs><clipPath id="clip0_86_2113"><path fill="#fff" d="M0 0h301v189H0z"/></clipPath></defs></svg>