<svg width="280" height="301" fill="none" xmlns="http://www.w3.org/2000/svg"><g opacity=".5" clip-path="url(#clip0_86_2387)"><path d="M224.357 63.312l37.11 8.31a12.32 12.32 0 019.295 14.93l-13.878 56.981a12.316 12.316 0 01-5.155 7.337 12.339 12.339 0 01-8.768 1.903 4.084 4.084 0 00-4.633 3.129l-27.483 120.879a15.353 15.353 0 01-6.758 9.57 15.382 15.382 0 01-11.549 2.024L50.705 256.988a4.104 4.104 0 01-2.58-1.811 4.096 4.096 0 01-.526-3.106L97.04 42.741a4.093 4.093 0 014.758-3.08l122.558 23.65z" fill="#5CCD6A"/><path d="M48.542 248.093l-.939 3.963 154.667 26.577 52.769-208.472s-38.104-4.264-38.799-4.45c-.694-.186-167.698 182.382-167.698 182.382z" fill="#000" opacity=".3"/><path d="M208.234 47.041l44.519 9.07-53.159 216.487-158.371-25.691L75.9 26.677l132.334 20.364z" fill="#EBEBEB"/><path d="M208.234 47.041l-2.362-.338L199 45.678l-26.366-4.01-96.757-14.841.172-.126c-9.27 59.007-21.322 135.664-34.626 220.252l-.166-.232 35.495 5.761 122.899 19.935-.219.146c23.254-94.656 42.36-172.307 53.23-216.476l.075.118-33.12-6.816-8.523-1.76c-1.905-.397-2.869-.614-2.869-.614s.974.179 2.883.56l8.535 1.715 33.141 6.707.099.027-.026.099c-10.839 44.202-29.868 121.873-53.106 216.501l-.047.175-.175-.047-122.84-19.878-35.496-5.762-.198-.053.053-.199C54.379 162.288 66.463 85.64 75.772 26.635l.04-.145.144.04 96.727 14.955 26.351 4.096 6.866 1.08c1.535.28 2.334.38 2.334.38z" fill="#495E4C"/><path d="M70.156 17.477l-37.18 222.246L198.517 267.8l34.729-222.74-163.09-27.583z" fill="#fff"/><path d="M70.148 17.507l163.129 27.374.16.043-.043.16a3246726.9 3246726.9 0 00-34.688 222.743l-.053.198-.198-.053-1.175-.193L32.943 239.91l-.176-.047.047-.175C54.91 108.128 69.892 19.072 70.148 17.508c-.27 1.618-15.106 90.704-37 222.278l-.148-.212 164.374 27.855 1.173.2-.241.164c12.994-83.217 25.012-160.234 34.775-222.76l.137.191-163.07-27.717z" fill="#495E4C"/><path d="M150.649 225.767a24.608 24.608 0 0120.622-17.985 24.656 24.656 0 0124.531 12.163 24.603 24.603 0 01-13.498 35.586 24.652 24.652 0 01-14.3.428 24.677 24.677 0 01-14.924-11.514 24.624 24.624 0 01-2.431-18.678zm47.133 12.743a24.146 24.146 0 00-.427-14.026 24.18 24.18 0 00-8.154-11.429 24.209 24.209 0 00-26.818-1.83 24.144 24.144 0 00-11.941 24.055 24.174 24.174 0 005.769 12.797 24.214 24.214 0 0011.912 7.44 24.227 24.227 0 0018.352-2.374 24.181 24.181 0 0011.307-14.633z" fill="#E0E0E0"/><path d="M153.388 226.5A21.45 21.45 0 01160 215.934a21.51 21.51 0 0132.764 5.496 21.457 21.457 0 01-11.766 31.033 21.504 21.504 0 01-12.469.377 21.525 21.525 0 01-13.022-10.043 21.485 21.485 0 01-2.119-16.297zm38.432 10.396a18.293 18.293 0 00-.323-10.624 18.32 18.32 0 00-6.177-8.657 18.33 18.33 0 00-20.314-1.384 18.294 18.294 0 00-4.671 27.913 18.34 18.34 0 009.023 5.635 18.351 18.351 0 0013.883-1.815 18.315 18.315 0 008.549-11.076l.03.008z" fill="#E0E0E0"/><path d="M158.381 228.189a15.638 15.638 0 013.486-6.417l2.361 2.111a12.705 12.705 0 00-2.787 11.816 12.725 12.725 0 003.382 5.75 12.737 12.737 0 0012.499 3.112l.896 3.034a15.917 15.917 0 01-15.613-3.891 15.886 15.886 0 01-4.224-15.515zm11.913-11.38a15.918 15.918 0 0117.514 8.15 15.877 15.877 0 01-3.266 19.021l-2.154-2.334a12.71 12.71 0 002.611-15.225 12.732 12.732 0 00-14.021-6.521l-.684-3.091z" fill="#E0E0E0"/><path d="M214.48 99.775c-.029.107-31.271-5.112-69.821-11.618-38.551-6.507-69.784-11.911-69.763-12.02.02-.108 31.271 5.112 69.831 11.613 38.56 6.501 69.776 11.909 69.753 12.025zm-73.412-21.5c-.029.106-14.461-2.241-32.255-5.253-17.795-3.012-32.2-5.549-32.187-5.66.013-.11 14.46 2.241 32.255 5.253 17.794 3.012 32.198 5.556 32.187 5.66zm71.632 30.523c-.028.107-31.278-5.114-69.821-11.618-38.543-6.505-69.784-11.911-69.763-12.02.02-.109 31.271 5.112 69.829 11.62 38.558 6.509 69.786 11.871 69.755 12.018zm-1.759 8.947c-.031.114-31.279-5.114-69.824-11.611-38.544-6.497-69.783-11.91-69.76-12.027.022-.116 31.27 5.112 69.828 11.62 38.558 6.509 69.777 11.909 69.756 12.018zm-1.772 8.992c-.029.107-31.279-5.114-69.821-11.619-38.543-6.504-69.784-11.91-69.77-11.996.016-.086 31.272 5.112 69.832 11.613 38.56 6.501 69.776 11.908 69.759 12.002zm-1.77 8.985c-.028.106-31.278-5.114-69.829-11.621-38.55-6.507-69.776-11.909-69.763-12.019.014-.111 31.271 5.111 69.831 11.613 38.56 6.501 69.775 11.916 69.761 12.027zm-1.777 8.982c-.031.115-31.271-5.111-69.823-11.611-38.553-6.499-69.784-11.91-69.754-12.025.031-.114 31.271 5.112 69.829 11.621 38.558 6.509 69.769 11.907 69.748 12.015zm-1.772 8.993c-.028.106-30.874-5.006-68.883-11.457-38.01-6.452-68.869-11.756-68.848-11.864.02-.109 30.874 5.005 68.924 11.459 38.049 6.454 68.83 11.745 68.807 11.862zm-57.005 2.924c-.029.107-18.639-3.034-41.568-7.054-22.93-4.02-41.531-7.313-41.51-7.422.02-.109 18.631 3.032 41.578 7.016 22.947 3.984 41.515 7.342 41.5 7.46zm-41.598 67.057c-.029.107-11.343-1.822-25.292-4.326-13.948-2.504-25.233-4.605-25.218-4.723.015-.119 11.343 1.822 25.292 4.326 13.948 2.504 25.241 4.607 25.218 4.723zm-23.48 2.735c-.03.114-6.391-.896-14.208-2.329-7.817-1.433-14.16-2.634-14.146-2.744.013-.111 6.389.935 14.214 2.338 7.825 1.402 14.161 2.626 14.14 2.735z" fill="#495E4C"/><path d="M96.713 163.83c-.03.114-7.523-1.036-16.771-2.558-9.249-1.523-16.727-2.848-16.704-2.965.023-.116 7.525 1.028 16.772 2.558 9.246 1.53 16.724 2.856 16.703 2.965z" fill="#5CCD6A"/><path d="M39.473 202.174l15.588 1.114 11.63-10.263-25.696 1.422-1.522 7.727z" fill="#000" opacity=".3"/><path d="M17.748 179.257l40.58 6.863 8.363 6.905-9.895 6.505-41.364-6.444 2.316-13.829z" fill="#5CCD6A"/><path d="M147.164 176.303l.125.082c.122.082.233.178.333.285.399.419.731.897.986 1.416a19.009 19.009 0 011.731 6.386c.43 3.496.088 7.043-1.002 10.391a16.095 16.095 0 01-1.358 2.904 21.043 21.043 0 01-7.794 7.297 21.762 21.762 0 01-7.681 2.516c-2.934.394-5.92.079-8.707-.92a18.965 18.965 0 01-11.859-14.393 15.768 15.768 0 01-.028-5.202 11.808 11.808 0 011.902-4.963 8.543 8.543 0 014.195-3.451 5.99 5.99 0 015.416.782 8.285 8.285 0 013.259 4.59c.501 1.867.583 3.822.24 5.725a23.758 23.758 0 01-4.596 10.653 22.639 22.639 0 01-9.135 7.15 20.854 20.854 0 01-11.187 1.348 19.512 19.512 0 01-9.917-4.462 18.3 18.3 0 01-5.531-8.834 17.777 17.777 0 01-.02-9.905 13.035 13.035 0 012.118-4.334 9.319 9.319 0 013.582-2.961 5.603 5.603 0 014.469-.109 6.413 6.413 0 013.103 3.004c.64 1.259.94 2.663.871 4.073a10.345 10.345 0 01-1.02 3.81 20.408 20.408 0 01-4.473 5.827 32.308 32.308 0 01-5.172 4.046 35.964 35.964 0 01-5.06 2.647 36.367 36.367 0 01-4.545 1.526 30.642 30.642 0 01-6.552 1.014 23.17 23.17 0 01-2.312.025s.201-.019.588-.03c.387-.011.966-.003 1.722-.078a32.138 32.138 0 006.512-1.081 37.162 37.162 0 004.507-1.562 35.51 35.51 0 005.005-2.661 32.24 32.24 0 005.135-3.966 20.406 20.406 0 004.39-5.767 10.091 10.091 0 001.001-3.734 7.715 7.715 0 00-.85-3.904 6.13 6.13 0 00-2.95-2.848 5.24 5.24 0 00-4.195.125 9.021 9.021 0 00-3.448 2.858 12.622 12.622 0 00-2.04 4.199 17.482 17.482 0 00.053 9.719 18.033 18.033 0 005.431 8.627 19.295 19.295 0 009.715 4.359c3.715.57 7.515.111 10.985-1.328a22.172 22.172 0 008.947-7.054 23.536 23.536 0 004.522-10.469 13 13 0 00-.23-5.551 7.935 7.935 0 00-3.09-4.365 5.916 5.916 0 00-2.467-.987 5.766 5.766 0 00-2.601.25 8.138 8.138 0 00-3.997 3.291 11.314 11.314 0 00-1.844 4.807 15.042 15.042 0 00-.023 5.058 18.654 18.654 0 0011.601 14.136 18.314 18.314 0 008.549.927 21.578 21.578 0 007.585-2.46 20.746 20.746 0 007.692-7.194c.545-.895.994-1.845 1.34-2.835a23.905 23.905 0 001.075-10.33c-.18-2.2-.738-4.352-1.647-6.364a6.072 6.072 0 00-.934-1.426c-.253-.215-.434-.305-.42-.325z" fill="#495E4C"/><path d="M187.922 72.957s.034-.13.046-.388c.012-.258.089-.638.16-1.117.151-.989.376-2.44.658-4.316l2.502-16.173.101.142L106.674 37.7l.233-.167c-1.201 7.536-2.354 14.89-3.5 21.975l-.167-.233 60.414 9.71 17.788 2.888 4.793.786 1.244.21.427.115-.411-.053-1.227-.181-4.76-.729-17.762-2.766-60.557-9.577-.198-.053.051-.19c1.075-7.064 2.291-14.44 3.485-21.979l.053-.198.199.053 84.661 13.512.122.033-.031.114c-1.136 6.957-2.03 12.46-2.648 16.232-.311 1.86-.547 3.292-.713 4.277-.079.477-.142.835-.187 1.093-.044.258-.061.384-.061.384z" fill="#455A64"/><path d="M108.609 53.503l1.529-9.053 4.552.769c1.095.185 1.853.557 2.273 1.115.421.55.545 1.343.37 2.377-.175 1.035-.552 1.747-1.132 2.137-.579.381-1.416.48-2.511.294l-2.988-.504-.529 3.13-1.564-.265zm2.342-4.34l2.897.49c.578.097 1.02.052 1.327-.135.308-.197.506-.553.593-1.07.089-.527.019-.929-.209-1.207-.219-.276-.622-.464-1.208-.563l-2.897-.49-.503 2.975zm8.816 6.345c-.879-.149-1.498-.422-1.857-.82-.357-.405-.475-.966-.354-1.682.125-.742.438-1.23.939-1.464.511-.242 1.275-.277 2.293-.105l2.16.364c.073-.537-.013-.95-.257-1.24-.233-.297-.652-.496-1.255-.598-.492-.083-.885-.065-1.18.054-.294.11-.513.334-.659.673l-1.462-.247c.256-.781.665-1.31 1.226-1.588.563-.287 1.345-.345 2.345-.176 1.121.189 1.893.554 2.315 1.096.432.543.563 1.318.392 2.327l-.668 3.958-1.475-.249.129-.763c-.599.502-1.476.655-2.632.46zm-.741-2.307c-.093.552.343.91 1.309 1.072.664.113 1.184.076 1.561-.108.378-.185.653-.529.826-1.031l.04-.233-1.772-.3c-1.207-.203-1.862-.004-1.964.6zm6.446.996l1.462.247c.078.642.634 1.051 1.668 1.226 1.035.175 1.591.034 1.668-.423.069-.406-.495-.798-1.69-1.177-1.037-.317-1.75-.668-2.137-1.053-.377-.392-.512-.907-.404-1.545.115-.68.429-1.147.941-1.397.521-.25 1.277-.29 2.269-.123 1.009.17 1.738.476 2.187.915.449.44.664 1.053.647 1.839l-1.462-.247a1.077 1.077 0 00-.451-.794c-.251-.194-.64-.335-1.165-.423-.949-.16-1.46-.025-1.532.406-.037.215.072.411.326.587.264.169.686.347 1.267.533 1.102.355 1.843.72 2.223 1.094.39.368.532.866.426 1.496-.118.698-.448 1.183-.991 1.455-.543.272-1.336.32-2.379.144-1.017-.172-1.755-.479-2.212-.92-.45-.439-.67-1.052-.661-1.84zm10.315 4.017c-1.172-.198-1.979-.618-2.421-1.26-.441-.643-.559-1.572-.354-2.787.206-1.216.622-2.055 1.25-2.516.628-.462 1.528-.594 2.701-.396 1.043.177 1.792.52 2.247 1.032.454.511.664 1.238.629 2.181l-1.462-.247c-.019-.464-.158-.82-.418-1.068-.26-.248-.661-.417-1.204-.51-.673-.113-1.188-.027-1.547.258-.357.277-.598.782-.721 1.515-.124.733-.064 1.293.181 1.68.247.379.706.625 1.379.738.535.09.965.061 1.292-.088.337-.156.589-.445.759-.869l1.461.247c-.266.895-.703 1.513-1.311 1.854-.597.333-1.417.412-2.461.236zm7.006 1.183c-.88-.148-1.499-.422-1.857-.82-.357-.405-.475-.966-.354-1.682.125-.741.438-1.23.939-1.464.511-.242 1.275-.277 2.292-.105l2.16.365c.073-.538-.012-.951-.256-1.24-.234-.297-.652-.497-1.256-.599-.491-.083-.885-.065-1.18.054-.293.11-.513.334-.659.673l-1.461-.247c.256-.781.665-1.31 1.226-1.588.563-.287 1.344-.345 2.344-.176 1.121.189 1.893.554 2.316 1.096.432.543.562 1.319.392 2.327l-.669 3.958-1.474-.249.129-.763c-.599.502-1.477.655-2.632.46zm-.741-2.307c-.093.552.343.91 1.309 1.073.664.112 1.184.076 1.561-.109s.652-.528.826-1.031l.039-.233-1.772-.3c-1.207-.203-1.861-.003-1.963.6zm6.428 3.148l1.639-9.7 1.461.247-1.638 9.7-1.462-.247zm7.591-8.03l1.655.28 2.047 7.968 4.55-6.854 1.655.28-5.59 8.367-1.785-.301-2.532-9.74zm9.263 7.418c.204-1.207.624-2.04 1.26-2.5.638-.47 1.561-.602 2.768-.398 1.207.204 2.031.627 2.473 1.269.441.642.559 1.571.354 2.787-.016.095-.05.244-.103.448l-5.315-.898c-.051.613.056 1.083.32 1.411.273.33.715.547 1.327.65.905.153 1.539-.055 1.901-.623l1.526.258c-.31.79-.774 1.301-1.39 1.534-.615.233-1.372.274-2.268.122-1.208-.204-2.036-.627-2.486-1.271-.45-.644-.572-1.573-.367-2.789zm1.635-.389l3.842.649c.015-.565-.112-.99-.384-1.275-.269-.294-.693-.49-1.271-.588-.577-.097-1.046-.052-1.406.135-.351.19-.611.549-.781 1.08zm7.189-1.579l1.461.246-.135.802c.577-.532 1.405-.707 2.483-.525.957.162 1.615.521 1.973 1.079.368.55.463 1.35.286 2.402l-.647 3.829-1.462-.247.647-3.828c.096-.57.024-1.008-.217-1.314-.232-.305-.646-.508-1.241-.609-.672-.114-1.187-.032-1.544.245-.349.278-.586.788-.711 1.53l-.568 3.362-1.461-.247 1.136-6.725zm10.226 1.727l1.953.33-.232 1.37-1.953-.33-.489 2.898c-.064.38-.02.67.131.874.152.203.435.34.849.409l.88.149-.232 1.37-.918-.154c-.906-.154-1.535-.446-1.887-.878-.343-.44-.447-1.055-.313-1.849l.518-3.065-1.061-.18.232-1.37 1.06.179.249-1.474 1.462.246-.249 1.475z" fill="#78C081"/></g><defs><clipPath id="clip0_86_2387"><path fill="#fff" transform="rotate(15 32.89 249.822)" d="M0 0h221.742v252.132H0z"/></clipPath></defs></svg>