<svg width="94" height="107" fill="none" xmlns="http://www.w3.org/2000/svg"><g opacity=".5" clip-path="url(#clip0_101_1166)"><path d="M75.716 11.5l15.98.847a5.19 5.19 0 014.642 3.514c.22.652.309 1.342.26 2.03l-1.764 24.612a5.182 5.182 0 01-1.624 3.405 5.193 5.193 0 01-3.505 1.404 1.719 1.719 0 00-1.702 1.623l-2.93 52.076a6.462 6.462 0 01-2.133 4.445 6.477 6.477 0 01-4.65 1.649l-61.043-3.081a1.717 1.717 0 01-1.197-.571 1.714 1.714 0 01-.436-1.251l5.84-90.312a1.723 1.723 0 011.758-1.61l52.504 1.22z" fill="#5CCD6A"/><path d="M15.726 100.485l-.112 1.71 66.031.185 7.281-90.188s-16.108.902-16.409.873c-.3-.029-56.79 87.42-56.79 87.42z" fill="#000" opacity=".3"/><path d="M67.887 5.88l19.106.643-6.88 93.541-67.506.442-1.05-93.798 56.33-.827z" fill="#EBEBEB"/><path d="M67.887 5.88l-1.004.026-2.922.057-11.22.184-41.183.624.063-.064c.29 25.13.662 57.779 1.072 93.805l-.085-.085 15.13-.098 52.385-.343-.08.075c3.012-40.9 5.496-74.455 6.91-93.541l.04.043-14.22-.506-3.658-.133a82.17 82.17 0 01-1.234-.054s.417.007 1.236.03l3.66.114 14.22.46.043.004-.004.043c-1.398 19.098-3.849 52.656-6.857 93.543l-.007.076-.076-.007-52.357.363-15.13.098-.086-.009.008-.086a723229.3 723229.3 0 01-1.03-93.8l.006-.063.063.006 41.178-.574 11.22-.148 2.924-.033c.657.009.995-.006.995-.006z" fill="#495E4C"/><path d="M8.53 3.293l.152 94.811 70.647.046-1.204-94.844L8.53 3.293z" fill="#fff"/><path d="M8.528 3.306l69.597-.077.07.007-.007.07c.342 26.625.764 59.428 1.221 94.841l-.008.086-.086-.008-.5.003-70.134-.044-.076-.007.007-.076c-.054-56.13-.08-94.128-.084-94.795.002.69.09 38.69.23 94.812l-.077-.078 70.148.035.5.001-.088.085c-.442-35.435-.854-68.23-1.186-94.855l.07.07-69.597-.07z" fill="#495E4C"/><path d="M56.523 84.066a10.35 10.35 0 017.295-8.907 10.377 10.377 0 0111.03 3.327 10.355 10.355 0 011.145 11.453 10.376 10.376 0 01-10.153 5.437 10.383 10.383 0 01-6.999-3.731 10.362 10.362 0 01-2.318-7.58zm20.448 1.983a10.162 10.162 0 00-5.345-9.96 10.188 10.188 0 00-11.254 1.121 10.166 10.166 0 00-3.268 10.817 10.186 10.186 0 008.754 7.157 10.194 10.194 0 007.448-2.272 10.174 10.174 0 003.665-6.863z" fill="#E0E0E0"/><path d="M57.711 84.178a9.026 9.026 0 016.363-7.765 9.051 9.051 0 019.618 2.902 9.03 9.03 0 011 9.986 9.049 9.049 0 01-8.852 4.743 9.057 9.057 0 01-6.107-3.253 9.038 9.038 0 01-2.022-6.613zm16.673 1.62a7.696 7.696 0 00-4.048-7.544 7.717 7.717 0 00-8.524.85A7.7 7.7 0 1071.6 90.99a7.704 7.704 0 002.77-5.194l.013.001z" fill="#E0E0E0"/><path d="M59.901 84.53c.098-1.035.44-2.03.996-2.908l1.128.71a5.348 5.348 0 001.478 7.246 5.361 5.361 0 005.404.416l.584 1.196a6.695 6.695 0 01-9.005-3.205 6.678 6.678 0 01-.585-3.456zm4.145-5.557a6.699 6.699 0 017.837 2.154 6.682 6.682 0 01-.021 8.12l-1.058-.817a5.347 5.347 0 00.016-6.5 5.358 5.358 0 00-6.274-1.723l-.5-1.234z" fill="#E0E0E0"/><path d="M74.174 27.32c-.004.047-13.331.072-29.781.074-16.45.003-29.787-.05-29.786-.097.002-.046 13.332-.07 29.786-.076 16.453-.006 29.783.05 29.781.1zM42.21 23.547c-.004.046-6.156.083-13.75.081-7.593-.002-13.748-.045-13.75-.092-.002-.047 6.156-.084 13.75-.081 7.594.002 13.748.048 13.75.092zm31.858 7.643c-.004.045-13.335.07-29.781.073-16.447.003-29.787-.05-29.786-.097.001-.047 13.332-.071 29.785-.073 16.453-.003 29.785.033 29.782.096zm-.102 3.834c-.005.05-13.336.07-29.782.077-16.447.006-29.787-.05-29.785-.1 0-.05 13.331-.071 29.785-.073 16.453-.003 29.783.05 29.782.096zm-.106 3.856c-.004.045-13.334.07-29.78.073-16.447.003-29.787-.05-29.787-.087 0-.037 13.332-.071 29.785-.077 16.453-.005 29.783.05 29.783.09zm-.104 3.85c-.004.047-13.335.072-29.785.074-16.45.003-29.783-.05-29.785-.097-.002-.047 13.332-.07 29.785-.076 16.454-.006 29.783.053 29.785.1zm-.107 3.852c-.005.05-13.332.07-29.782.077-16.45.006-29.787-.05-29.782-.1.004-.05 13.332-.071 29.785-.073 16.453-.003 29.78.05 29.779.096zm-.105 3.855c-.004.046-13.16.087-29.381.075-16.222-.013-29.396-.05-29.395-.097 0-.047 13.16-.087 29.398-.076 16.238.01 29.38.048 29.378.098zm-23.445 5.209c-.005.046-7.946.047-17.74-.013-9.795-.061-17.743-.124-17.742-.17 0-.047 7.942-.048 17.741-.004 9.8.045 17.739.136 17.74.187zM37.54 86.382c-.004.046-4.833.039-10.796-.023-5.962-.06-10.791-.141-10.793-.191-.002-.05 4.834-.04 10.796.022 5.963.06 10.795.142 10.794.192zm-9.549 2.78c-.005.05-2.714.077-6.058.03-3.343-.047-6.059-.1-6.061-.147-.002-.047 2.716-.06 6.06-.026 3.346.033 6.06.097 6.059.143z" fill="#495E4C"/><path d="M29.805 62.15c-.004.05-3.193.098-7.137.114-3.944.017-7.14-.01-7.138-.059.002-.05 3.194-.101 7.138-.114 3.943-.014 7.138.012 7.137.059z" fill="#5CCD6A"/><path d="M8.745 82.07l6.546-.63 4.105-5.073-10.56 2.39-.09 3.313z" fill="#000" opacity=".3"/><path d="M-1.874 74.085l17.317.003 3.953 2.279-3.65 3.392-17.612.226-.008-5.9z" fill="#5CCD6A"/><path d="M51.61 63.789l.058.025c.056.025.11.057.158.095.195.146.366.32.508.518a7.998 7.998 0 011.166 2.528c.424 1.42.53 2.916.313 4.382-.076.444-.197.88-.36 1.3a8.858 8.858 0 01-2.722 3.574 9.157 9.157 0 01-3.01 1.581c-1.19.37-2.45.448-3.677.229a7.98 7.98 0 01-5.929-5.14 6.633 6.633 0 01-.376-2.156 4.975 4.975 0 01.44-2.193 3.595 3.595 0 011.5-1.725 2.52 2.52 0 012.301-.056c.737.346 1.33.94 1.674 1.676.339.74.51 1.545.501 2.358a10.003 10.003 0 01-1.16 4.742 9.528 9.528 0 01-3.29 3.607 8.775 8.775 0 01-4.546 1.343 8.208 8.208 0 01-4.427-1.156 7.7 7.7 0 01-2.914-3.277 7.48 7.48 0 01-.702-4.108 5.482 5.482 0 01.575-1.946 3.917 3.917 0 011.278-1.48 2.354 2.354 0 011.847-.359 2.7 2.7 0 011.498 1.03c.353.477.576 1.038.647 1.628a4.357 4.357 0 01-.157 1.652 8.59 8.59 0 01-1.447 2.731 13.581 13.581 0 01-1.862 2.041 15.129 15.129 0 01-1.914 1.453 15.29 15.29 0 01-1.779.952c-.848.388-1.735.683-2.647.88a9.684 9.684 0 01-.957.172s.082-.022.242-.053c.16-.032.4-.07.709-.153a13.578 13.578 0 002.625-.905 15.713 15.713 0 001.76-.964c.669-.434 1.3-.92 1.891-1.455a13.567 13.567 0 001.852-2.005 8.593 8.593 0 001.418-2.7 4.25 4.25 0 00.153-1.62 3.246 3.246 0 00-.627-1.56 2.58 2.58 0 00-1.423-.975 2.21 2.21 0 00-1.731.346 3.794 3.794 0 00-1.23 1.427 5.308 5.308 0 00-.553 1.886 7.355 7.355 0 00.703 4.028 7.586 7.586 0 002.858 3.198 8.115 8.115 0 004.336 1.128 8.645 8.645 0 004.465-1.321 9.328 9.328 0 003.217-3.554 9.903 9.903 0 001.142-4.66 5.467 5.467 0 00-.484-2.287 3.34 3.34 0 00-1.588-1.594 2.488 2.488 0 00-1.092-.237c-.372.013-.735.11-1.062.286a3.427 3.427 0 00-1.428 1.646 4.767 4.767 0 00-.428 2.123 6.33 6.33 0 00.345 2.1 7.839 7.839 0 005.804 5.052 7.703 7.703 0 003.612-.215 9.068 9.068 0 002.974-1.552 8.723 8.723 0 002.687-3.524c.164-.41.283-.835.357-1.27a10.066 10.066 0 00-.277-4.361 8.114 8.114 0 00-1.13-2.525 2.572 2.572 0 00-.488-.526c-.12-.071-.2-.096-.197-.105z" fill="#495E4C"/><path d="M61.276 18.056s.006-.056-.008-.164c-.013-.108-.007-.27-.011-.474-.007-.421-.015-1.039-.03-1.837l-.095-6.885.051.051-36.085.377.085-.085c.03 3.21.066 6.342.087 9.362l-.085-.085 25.745-.206 7.582-.049 2.044-.01h.53l.186.018-.175.007-.521.01-2.026.032-7.563.097-25.795.272-.086-.009.008-.082c-.05-3.006-.062-6.152-.095-9.363l.009-.086.086.008 36.07-.328.054.005-.005.05.039 6.92.004 1.824v.63z" fill="#455A64"/><path d="M27.008 15.544v-3.863h1.942c.467 0 .808.101 1.021.304.214.198.32.518.32.96 0 .441-.106.763-.32.966-.213.199-.553.298-1.02.298h-1.276v1.335h-.667zm.667-1.964h1.237c.246 0 .426-.05.54-.15.114-.102.171-.264.171-.485 0-.225-.056-.386-.17-.486-.111-.099-.291-.149-.541-.149h-1.237v1.27zm4.103 2.014c-.376 0-.652-.07-.828-.21-.177-.143-.265-.368-.265-.673 0-.316.096-.54.287-.673.195-.136.51-.204.944-.204h.921c-.007-.229-.072-.394-.193-.497-.118-.107-.305-.16-.563-.16-.21 0-.372.035-.486.105a.489.489 0 00-.226.325h-.623c.051-.342.184-.59.397-.745.213-.158.533-.237.96-.237.478 0 .824.097 1.038.292.217.195.325.508.325.938v1.69h-.629v-.326c-.213.25-.566.375-1.06.375zm-.47-.905c0 .235.207.353.619.353.283 0 .496-.051.64-.154.143-.103.233-.265.27-.486v-.1h-.756c-.515 0-.773.13-.773.387zm2.745-.039h.623c.078.261.337.392.779.392.441 0 .662-.098.662-.293 0-.173-.261-.296-.784-.37-.453-.058-.773-.154-.96-.286-.184-.136-.276-.34-.276-.613 0-.29.097-.506.292-.646.199-.14.51-.21.933-.21.43 0 .754.076.971.227.217.15.35.39.398.717h-.624a.454.454 0 00-.243-.298c-.118-.062-.289-.093-.513-.093-.405 0-.607.092-.607.276 0 .091.059.165.176.22.122.052.31.096.563.133.482.07.815.169 1 .298.187.125.28.322.28.59 0 .298-.102.523-.308.674-.206.15-.532.226-.977.226-.434 0-.762-.075-.983-.226-.217-.151-.35-.39-.402-.718zm4.561.944c-.5 0-.865-.118-1.093-.353-.228-.236-.342-.613-.342-1.132 0-.519.114-.896.342-1.131.228-.236.592-.353 1.093-.353.445 0 .78.09 1.004.27.224.18.362.467.414.86h-.624c-.04-.19-.123-.328-.248-.413-.125-.085-.304-.127-.535-.127-.287 0-.495.072-.624.215-.129.14-.193.367-.193.68 0 .312.064.54.193.684.129.14.337.21.624.21.228 0 .404-.043.53-.128a.64.64 0 00.253-.414h.624c-.048.39-.186.677-.414.861-.224.18-.56.27-1.004.27zm2.989 0c-.375 0-.651-.07-.828-.21-.176-.143-.265-.368-.265-.673 0-.317.096-.541.287-.674.195-.136.51-.204.944-.204h.922c-.008-.228-.072-.394-.194-.497-.117-.106-.305-.16-.563-.16-.21 0-.371.035-.485.105a.49.49 0 00-.227.326h-.623c.051-.342.184-.59.397-.745.214-.158.534-.238.96-.238.479 0 .825.098 1.038.293.217.195.326.508.326.938v1.689h-.63v-.326c-.213.25-.566.376-1.059.376zm-.47-.905c0 .235.207.353.619.353.283 0 .497-.052.64-.155.144-.103.234-.265.27-.486v-.099h-.755c-.516 0-.773.129-.773.387zm2.889.855v-4.14h.623v4.14h-.623zm2.586-3.864h.706l1.408 3.163 1.407-3.163h.706l-1.732 3.864h-.762l-1.733-3.864zm4.362 2.429c0-.515.117-.89.348-1.126.232-.24.606-.359 1.12-.359.516 0 .887.118 1.116.353.228.236.342.613.342 1.132 0 .04-.004.104-.011.193h-2.268c.022.257.099.445.231.563.136.117.335.176.596.176.387 0 .635-.13.745-.392h.652c-.074.35-.23.595-.47.735-.239.14-.55.21-.932.21-.515 0-.889-.118-1.12-.354-.232-.235-.348-.613-.348-1.131zm.652-.276h1.64c-.034-.236-.117-.403-.25-.502-.132-.104-.321-.155-.568-.155-.246 0-.438.051-.574.155-.132.103-.215.27-.248.502zm2.872-1.159h.623v.342c.203-.261.534-.392.994-.392.408 0 .706.103.894.309.191.202.287.528.287.977v1.633h-.624V13.91c0-.243-.06-.42-.182-.53-.118-.11-.304-.166-.557-.166-.288 0-.495.07-.624.21-.125.14-.188.368-.188.685v1.434h-.623v-2.87zm4.363 0h.834v.585h-.834v1.236c0 .162.039.28.116.353.077.074.204.11.381.11h.375v.585h-.392c-.386 0-.667-.077-.844-.231-.173-.159-.26-.407-.26-.745v-1.309h-.452v-.584h.453v-.63h.623v.63z" fill="#78C081"/></g><defs><clipPath id="clip0_101_1166"><path fill="#fff" transform="translate(.28 .512)" d="M0 0h93.299v106.086H0z"/></clipPath></defs></svg>