<svg width="172" height="114" fill="none" xmlns="http://www.w3.org/2000/svg"><g opacity=".5" clip-path="url(#clip0_101_1022)"><path d="M147.906 113.105a12.71 12.71 0 00-5.625-11.686 12.726 12.726 0 00-12.96-.68c-.977-2.61-1.98-5.268-3.709-7.452-1.728-2.185-4.341-3.86-7.129-3.757v23.575h29.423z" fill="#D0FFD4"/><path d="M103 56.368H42.045L30.657 40.21 18.718 56.826 4.691 56.6l15.118-20.35 67.965.283L103 56.368z" fill="#E0E0E0"/><path d="M72.518 56.6v56.644H11.65V56.599h6.975l12.031-16.39L42.08 56.353l30.437.246z" fill="#F5F5F5"/><path d="M49.679 88.687h14.238v24.557H49.68V88.687zm-30.961-.694h22.427v13.882H18.718V87.993z" fill="#E0E0E0"/><path d="M34.412 87.993h.514v14.011h-.514V87.993zm-9.326 0h.515v14.011h-.515V87.993z" fill="#EBEBEB"/><path d="M25.344 95.163h9.325v.514h-9.325v-.514z" fill="#EBEBEB"/><path d="M18.718 60.213h22.427v13.882H18.718V60.213z" fill="#E0E0E0"/><path d="M34.412 60.208h.514v14.01h-.514v-14.01zm-9.326 0h.515v14.01h-.515v-14.01z" fill="#EBEBEB"/><path d="M25.344 67.383h9.325v.514h-9.325v-.514z" fill="#EBEBEB"/><path d="M51.166 60.336H65.31V73.72H51.166V60.336zM72.513 56.6h24.705v56.639H72.513v-56.64z" fill="#E0E0E0"/><path d="M57.981 60.336h.514V73.72h-.514V60.336z" fill="#EBEBEB"/><path d="M51.166 67.1H65.31v.514H51.166V67.1z" fill="#EBEBEB"/><path d="M30.688 54.02a2.998 2.998 0 110-5.993 2.998 2.998 0 110 5.993z" fill="#E0E0E0"/><path d="M52.081 47.348l-3.786-4.667v-11.22h7.927v15.975l-4.14-.088z" fill="#F5F5F5"/><path d="M52.081 47.348V31.461h-3.786v11.22l3.786 4.667zm-4.315-17.537h9.34v1.65h-9.34v-1.65z" fill="#EBEBEB"/><path d="M72.518 81.378h45.965v31.866H72.518V81.378z" fill="#F5F5F5"/><path d="M89.703 81.378h28.78v31.866h-28.78V81.378z" fill="#E0E0E0"/><path d="M93.988 91.652h18.821v21.536H93.988V91.652z" fill="#F5F5F5"/><path d="M75.048 91.565h12.124v3.084H75.048v-3.084zM103 56.368v1.64H42.081v-1.655l60.919.015zm-60.919 1.64l-11.393-15.98-.031-1.819 11.388 16.16.036 1.639zM4.984 56.6h13.642v1.058H4.984V56.6z" fill="#EBEBEB"/><path d="M54.535 84.92h5.035v1.911h-5.035V84.92z" fill="#E0E0E0"/><path d="M160.396 12.455c-4.656-6.37-11.419-9.34-18.48-9.34 0 0-17.288 0-22.408 15.406-1.891 5.678-1.471 11.843.819 17.372a31.79 31.79 0 003.231 5.978c4.465 6.414 18.358 23.946 18.358 23.946h3.021c3.87-5.362 13.641-23.178 16.566-28.883 3.672-7.168 4.235-17.162-1.107-24.48zm-15.595 28.498a14.82 14.82 0 01-8.207-2.476 14.715 14.715 0 01-5.44-6.598 14.637 14.637 0 01-.841-8.494 14.678 14.678 0 014.042-7.528 14.79 14.79 0 017.563-4.023 14.83 14.83 0 018.533.837 14.757 14.757 0 016.629 5.415 14.661 14.661 0 012.488 8.168 14.67 14.67 0 01-4.326 10.393 14.803 14.803 0 01-10.441 4.306z" fill="#71D281"/><path d="M163.436 12.576c-4.654-6.37-11.419-9.339-18.48-9.339 0 0-17.289 0-22.409 15.406-1.89 5.677-1.47 11.842.822 17.371a31.718 31.718 0 003.229 5.979c4.465 6.417 18.358 23.943 18.358 23.943s16.053-21.98 19.587-28.88c3.672-7.173 4.237-17.163-1.107-24.48zm-18.621 28.499c-2.921 0-5.777-.863-8.205-2.478a14.716 14.716 0 01-5.44-6.598 14.644 14.644 0 013.202-16.02 14.787 14.787 0 017.562-4.024 14.832 14.832 0 018.533.837 14.756 14.756 0 016.629 5.414 14.66 14.66 0 012.489 8.168 14.544 14.544 0 01-4.294 10.427 14.657 14.657 0 01-4.807 3.184 14.717 14.717 0 01-5.669 1.09z" fill="#8EEE9E"/><path d="M144.801 11.553c-3.053 0-6.03.942-8.522 2.694a14.709 14.709 0 00-5.399 7.095 12.616 12.616 0 015.505-5.88 12.707 12.707 0 017.958-1.37 12.671 12.671 0 017.169 3.701 12.565 12.565 0 013.46 7.264 12.544 12.544 0 01-1.658 7.866 12.636 12.636 0 01-6.101 5.267 12.71 12.71 0 01-8.059.52 12.656 12.656 0 01-6.734-4.436 14.741 14.741 0 005.598 5.038 14.83 14.83 0 0014.583-.583 14.734 14.734 0 005.174-5.469 14.64 14.64 0 00-.29-14.523 14.738 14.738 0 00-5.388-5.26 14.822 14.822 0 00-7.296-1.924z" fill="#71D281"/></g><defs><clipPath id="clip0_101_1022"><path fill="#fff" transform="translate(0 .985)" d="M0 0h172v113H0z"/></clipPath></defs></svg>