<svg width="122" height="114" fill="none" xmlns="http://www.w3.org/2000/svg"><g opacity=".5" clip-path="url(#clip0_100_835)"><path d="M79.584 6.458l36.278 49.382-99.938-27.243L72.476 4.495a5.925 5.925 0 017.108 1.963z" fill="#EBEBEB"/><path d="M116.384 56.197L79.751 6.332a6.106 6.106 0 00-7.362-2.027L15.283 28.642l101.101 27.555zM74.937 4.205a5.69 5.69 0 014.48 2.355l35.927 48.927-98.79-26.93L72.55 4.677a5.733 5.733 0 012.386-.452v-.02z" fill="#E0E0E0"/><path d="M115.863 55.854L15.573 28.516.76 82.859a4.205 4.205 0 002.951 5.163l92.171 25.125a4.205 4.205 0 005.164-2.952l14.813-54.342h.004z" fill="#F0F0F0"/><path d="M21.716 31.638L55.853 68.12l53.092-10.7 6.671-27.874a5.653 5.653 0 00-3.989-6.861L35.658 1.986a5.646 5.646 0 00-6.939 3.969l-7.003 25.683z" fill="#fff"/><path d="M60.713 65.421l40.513 44.289a4.618 4.618 0 01-5.678 3.246L4.082 88.013a4.626 4.626 0 01-3.246-5.678l.094-.343 54.684-17.91a4.853 4.853 0 015.1 1.34zm14.148-39.413l29.72 8.107-.828 3.034-29.72-8.107.828-3.034zm-38.318-2.187l65.94 17.987-.935 3.429-65.94-17.987.935-3.429zm-2.287 8.376l65.94 17.987-.935 3.428-65.94-17.987.935-3.428zm-1.648 11.127l2.03 2.124 55.344 15.804 7.313-1.536.292-.783L31.86 41.006l-.313 1.136 1.062 1.182zM46.525 58.15l24.937 6.798 7.707-1.578-37.27-10.167 4.626 4.947z" fill="#E0E0E0"/><path d="M62.193 67.034s.027.043.092.12l.29.332 1.127 1.255 4.174 4.622c3.534 3.893 8.432 9.275 13.858 15.174a1072.22 1072.22 0 0014.046 15.002 566.02 566.02 0 004.329 4.481l1.187 1.205.315.309c.033.038.07.072.112.101a.713.713 0 00-.096-.116l-.299-.325-1.15-1.232-4.278-4.527c-3.615-3.808-8.573-9.132-14.01-15.04-5.437-5.907-10.353-11.23-13.898-15.131l-4.218-4.577-1.15-1.235-.307-.318-.124-.1zM.93 81.992c.018.055 11.678-3.7 26.04-8.39 14.364-4.689 25.994-8.535 25.976-8.59-.019-.056-11.678 3.696-26.042 8.4C12.541 78.117.911 81.932.93 81.992zm19.164-52.111a.663.663 0 00.072.1l.234.276.907 1.054 3.378 3.843a832.963 832.963 0 0011.34 12.509 801.636 801.636 0 0011.599 12.272l3.574 3.662.983.985.258.253c.061.056.092.084.096.08a.786.786 0 00-.08-.096l-.242-.268-.955-1.011-3.522-3.709a1292.008 1292.008 0 01-11.55-12.314c-4.475-4.837-8.488-9.26-11.385-12.463l-3.45-3.797-.907-1.026-.25-.265a.538.538 0 00-.1-.085z" fill="#FAFAFA"/><path d="M62.193 67.034a.608.608 0 00.138-.02l.395-.086 1.579-.358a373.67 373.67 0 015.739-1.25c4.85-1.033 11.577-2.355 19.009-3.79 7.432-1.436 14.155-2.781 18.999-3.854a265.2 265.2 0 005.729-1.317l1.528-.37.395-.105a.542.542 0 00.135-.044l-.138.024-.395.082-1.56.357a443.22 443.22 0 01-5.743 1.25c-4.85 1.034-11.573 2.355-19.009 3.79-7.436 1.436-14.155 2.782-18.998 3.855-2.424.535-4.382.982-5.73 1.317l-1.548.385-.395.105-.13.029z" fill="#FAFAFA"/><path d="M21.716 31.638s.042-.129.115-.39l.311-1.105c.274-.98.671-2.412 1.184-4.258l4.307-15.662c.226-.827.458-1.674.698-2.54.115-.43.235-.871.36-1.312.06-.223.115-.446.19-.66.07-.218.155-.432.255-.638a5.541 5.541 0 014.49-3.163 5.458 5.458 0 011.495.053c.492.097.992.246 1.495.38l3.065.854 6.394 1.73L74.55 12.7l28.498 7.758 6.39 1.738 1.542.427a8.771 8.771 0 011.482.474c.464.208.896.482 1.282.814.383.323.72.698 1 1.114.276.409.499.85.662 1.315.152.459.247.935.282 1.417.096.964-.191 1.885-.4 2.795l-1.245 5.24c-1.573 6.684-2.872 12.083-3.742 15.823a911.761 911.761 0 01-1.008 4.297c-.113.489-.196.864-.257 1.122-.06.258-.079.39-.079.39s.038-.128.103-.39l.276-1.113c.242-.988.593-2.433 1.047-4.297.905-3.734 2.209-9.133 3.82-15.798.399-1.67.819-3.415 1.261-5.239.208-.898.505-1.85.409-2.846a5.886 5.886 0 00-.29-1.432 6.012 6.012 0 00-.68-1.359 5.514 5.514 0 00-1.031-1.15 5.35 5.35 0 00-1.32-.847 8.706 8.706 0 00-1.509-.497l-1.561-.428-6.395-1.746-28.498-7.774-28.498-7.757L39.728 3l-3.064-.83c-.504-.138-.996-.282-1.512-.384a5.757 5.757 0 00-4.343 1.002 5.714 5.714 0 00-1.833 2.217c-.103.212-.19.432-.258.658a10.63 10.63 0 00-.196.667c-.12.442-.24.883-.355 1.316-.236.867-.463 1.714-.69 2.542l-4.241 15.69c-.497 1.85-.86 3.288-1.145 4.267-.125.488-.223.86-.288 1.113-.065.254-.087.38-.087.38z" fill="#E0E0E0"/><path d="M66.076 11.905l3.816 3.043-.315 5.64 3.616-2.742 1.925 1.724 7.666-9.042-16.708 1.377z" fill="#5CCD6A"/><path d="M71.321 16.182c-.004.173-1.745 4.407-1.745 4.407l3.617-2.743-1.872-1.664z" fill="#000" opacity=".3"/><path d="M82.784 10.528l-11.459 5.654-1.748 4.407.315-5.641 12.892-4.42z" fill="#54BE61"/><path d="M49.666 85.99a5.07 5.07 0 002.025-.445 5.07 5.07 0 00-2.025.445zm-3.229.713c-.002.059.293.046.625-.025.331-.071.593-.183.583-.242-.01-.06-.294-.046-.63.029-.335.075-.593.179-.578.238zm14.767-67.041c.348.013.696-.034 1.028-.138.346-.033.684-.13.996-.284a2.308 2.308 0 00-1.042.079 2.2 2.2 0 00-.982.343zm-3.837 1.544a2.99 2.99 0 00.967-.371 3 3 0 00.903-.506 2.234 2.234 0 00-.993.315c-.52.24-.907.51-.877.562zm-3.35 2.423c.042.044.398-.243.846-.602.448-.36.8-.665.75-.718a2.27 2.27 0 00-.887.55c-.445.367-.747.73-.709.77zm-2.586 3.221c.054.029.322-.346.647-.81a3.21 3.21 0 00.53-.892c-.042-.036-.38.294-.708.77a2.23 2.23 0 00-.469.932zm-1.512 3.843c.175-.3.3-.629.367-.97.139-.32.22-.663.239-1.012a2.184 2.184 0 00-.442.949c-.139.325-.195.68-.164 1.033zm-.305 4.117c.078-.339.1-.689.067-1.035a2.961 2.961 0 00-.071-1.035c-.13.328-.18.683-.145 1.034-.033.352.018.707.15 1.036zm.982 4.005a3.197 3.197 0 00-.268-1 3.297 3.297 0 00-.37-.962c-.028.353.036.707.184 1.029.072.344.228.664.454.933zm2.324 3.407c.04-.047-.259-.399-.622-.831-.363-.433-.654-.8-.706-.758.104.338.29.646.542.895.37.445.745.736.786.694zm3.412 2.308a3.246 3.246 0 00-.875-.555 3.174 3.174 0 00-.937-.445c.222.277.509.495.834.636.291.2.627.324.978.363zm4.008.961a3.141 3.141 0 00-1.013-.203 3.23 3.23 0 00-1.034-.09c.303.182.648.286 1.002.301.344.085.703.083 1.045-.008zm4.061-.694a3.53 3.53 0 00-1.01.233 3.55 3.55 0 00-.982.323c.351.052.71.011 1.04-.118a2 2 0 00.953-.438zm2.91-2.763c-.059 0-.248.388-.58.844-.333.456-.65.77-.608.83.042.06.433-.225.781-.7.242-.27.385-.613.407-.974zM65.66 38.78c-.001.063.424.21.864.538.44.329.67.73.727.7.055-.03-.107-.505-.598-.87a1.437 1.437 0 00-.993-.367zm-3.582 1.393c.054.033.314-.346.731-.714s.837-.547.8-.607a1.438 1.438 0 00-.95.446 1.523 1.523 0 00-.58.875zm-.224 4.005a4.971 4.971 0 00-.17-1.013 5.036 5.036 0 00-.169-1.017 2.56 2.56 0 00.347 2.03h-.008zm2.62 3.142c.037-.05-.314-.353-.734-.727-.42-.375-.77-.697-.798-.659-.028.04.218.43.654.8.435.372.846.636.878.586zm3.628 1.99a2.609 2.609 0 00-.883-.55 2.527 2.527 0 00-.982-.355c.257.24.558.427.887.55.299.184.631.305.978.356zm3.648 1.96c.033-.05-.334-.337-.822-.647a2.356 2.356 0 00-.957-.414c-.032.058.363.307.847.6.275.217.593.374.932.461zm3.068 2.771c.044-.038-.218-.429-.621-.842-.403-.414-.77-.685-.826-.643-.056.042.274.399.67.8.395.402.73.708.777.685zm2.296 3.438a2.286 2.286 0 00-.403-.964c-.291-.497-.593-.858-.645-.823.099.334.253.65.458.933.268.49.534.88.59.854zm1.42 3.881a2.203 2.203 0 00-.165-1.03 2.234 2.234 0 00-.43-.951c.015.348.09.692.224 1.014.067.341.192.669.371.967zm.45 4.11c.158-.684.125-1.4-.095-2.067-.07.34-.078.692-.023 1.036-.022.348.018.697.118 1.032zm-.634 4.083c.183-.3.302-.634.348-.982a2.03 2.03 0 00.106-1.038 3.47 3.47 0 00-.317.99c-.116.33-.163.68-.137 1.03zm-1.683 3.772c.265-.232.472-.524.604-.85.196-.294.318-.631.356-.982a2.99 2.99 0 00-.546.883c-.195.288-.335.61-.414.949zm-2.556 3.254c.039.04.399-.25.801-.681.258-.241.459-.538.585-.867-.05-.04-.368.298-.746.721-.38.424-.682.782-.64.827zm-3.246 2.558c.343-.084.661-.247.93-.478.47-.327.8-.657.77-.705-.328.123-.63.303-.896.53-.471.323-.835.602-.804.653zm-3.77 1.699c.353.005.703-.074 1.019-.233.342-.087.658-.258.918-.497-.345.043-.68.143-.992.295a3.26 3.26 0 00-.945.435zm-2.089.502c-.001.056.033.103.053.1.02-.004.028-.054.002-.114-.026-.06-.033-.103-.053-.1-.02.004-.012.036-.002.114z" fill="#495D4C"/><path d="M68.24 71.107l4.325-1.313.817 2.69-4.325 1.314-.817-2.69z" fill="#43AF55"/><path d="M68.229 71.113c.793.42 1.618.78 2.466 1.076l.074.03.048-.062.077-.093c.61-.712 1.164-1.47 1.657-2.268a18.473 18.473 0 00-1.827 2.135l-.073.092.123-.032a16.724 16.724 0 00-2.545-.878z" fill="#2A9348"/><path d="M71.298 71.405c.29.273.626.49.995.64.337.21.708.36 1.097.444a3.337 3.337 0 00-.999-.639 3.483 3.483 0 00-1.093-.445zm-2.309 2.419c.247-.29.44-.623.572-.98.272-.58.456-1.078.377-1.072a3.285 3.285 0 00-.576.98c-.19.331-.317.695-.373 1.072z" fill="#2A9348"/><path d="M50.503 81.18l11.122-3.378 2.102 6.92L52.605 88.1l-2.102-6.92z" fill="#5CCD6A"/><path d="M50.508 81.182c.155.093.32.172.49.234l1.362.57c1.168.47 2.76 1.11 4.554 1.814l.074.03.049-.063.19-.239a374 374 0 003.15-4.022l.935-1.231a3.07 3.07 0 00.32-.473 2.817 2.817 0 00-.401.42l-.99 1.191a357.06 357.06 0 00-3.2 3.981l-.19.236.123-.033a315.68 315.68 0 00-4.576-1.752l-1.387-.507a2.993 2.993 0 00-.503-.156z" fill="#43AF55"/><path d="M58.347 81.943c.846.556 1.73 1.052 2.645 1.485.883.494 1.798.927 2.74 1.295a20.724 20.724 0 00-2.641-1.489 20.7 20.7 0 00-2.744-1.291zm-5.789 6.024c.47-.802.885-1.637 1.239-2.499.412-.836.764-1.701 1.053-2.59a18.862 18.862 0 00-1.24 2.503 19.234 19.234 0 00-1.052 2.586z" fill="#43AF55"/><path d="M60.97 79.477a1.725 1.725 0 102.103-2.736 1.725 1.725 0 00-2.102 2.736z" fill="#495D4C"/><path d="M60.958 77.772c.358.279.74.527 1.142.74l.271.16.05.028.03-.047c.192-.29.356-.598.491-.92a5.182 5.182 0 00-.589.863l.075-.022-.27-.163a7.801 7.801 0 00-1.2-.64z" fill="#fff"/><path d="M57.8 72.078l5.827-1.77 1.1 3.626-5.827 1.77-1.1-3.626z" fill="#43AF55"/><path d="M57.806 72.08c.082.049.168.09.257.124l.716.299c.603.245 1.444.582 2.382.949h.04l.028-.034.097-.124c.65-.818 1.213-1.563 1.654-2.107l.49-.645a1.73 1.73 0 00.166-.248 1.255 1.255 0 00-.202.22l-.52.624c-.432.529-1.026 1.266-1.677 2.084l-.097.127.063.001a135.19 135.19 0 00-2.4-.917l-.724-.264a1.181 1.181 0 00-.273-.089z" fill="#2A9348"/><path d="M61.913 72.479c.444.29.907.55 1.385.777.463.26.944.488 1.438.68a11.136 11.136 0 00-1.384-.78c-.463-.26-.943-.487-1.438-.677zm-3.109 3.257c.263-.436.494-.89.69-1.36.23-.455.426-.925.59-1.408a19.987 19.987 0 00-1.28 2.768z" fill="#2A9348"/><path d="M105.281 28.069a8.194 8.194 0 006.627 6.247 8.197 8.197 0 009.559-8.32 8.201 8.201 0 00-10.023-7.757 8.203 8.203 0 00-6.163 9.83z" fill="#5CCD6A"/><path d="M110.333 21.717c-.147.056.722 2.82 1.943 6.179.181.487.351.954.522 1.414l.092.25.266-.089c2.68-.965 4.643-1.765 4.598-1.888-.044-.123-2.076.468-4.776 1.377l.342.165c-.162-.459-.332-.93-.506-1.417-1.232-3.359-2.338-6.043-2.481-5.99z" fill="#fff"/></g><defs><clipPath id="clip0_100_835"><path fill="#fff" transform="scale(-1 1) rotate(-1.288 102.377 5429.127)" d="M0 0h119.538v110.157H0z"/></clipPath></defs></svg>