<svg width="165" height="104" fill="none" xmlns="http://www.w3.org/2000/svg"><g opacity=".5" clip-path="url(#clip0_102_1199)"><path d="M37.696 39.676H5.987v24.3h31.709v-24.3z" fill="#8FE89A"/><path d="M29.752 63.803c-.027 0-.052-5.415-.052-12.095 0-6.68.024-12.096.052-12.096.027 0 .052 5.413.052 12.096s-.022 12.096-.052 12.096z" fill="#495D4C"/><path d="M34.55 58.445h-2.43v2.73h2.432v-2.73z" fill="#F5F5F5"/><path d="M19.26 39.74h-3.6v5.186h3.6V39.74zm0 18.978h-3.6v5.186h3.6v-5.186z" fill="#495D4C"/><path d="M36.964 39.691a.246.246 0 01-.082 0h-4.52l-11.112.015-11.115-.015H5.618a.246.246 0 01-.082 0h1.232l3.367-.018h22.227l3.37.018h1.232z" fill="#263238"/><path d="M64.093 39.649H32.384v24.3h31.709v-24.3z" fill="#E0E0E0"/><path d="M56.143 63.777c-.028 0-.052-5.42-.052-12.096 0-6.677.024-12.096.052-12.096.027 0 .052 5.416.052 12.096s-.019 12.096-.052 12.096z" fill="#495D4C"/><path d="M61.406 58.415h-2.432v2.73h2.432v-2.73z" fill="#F5F5F5"/><path opacity=".5" d="M45.658 39.71h-3.6v5.185h3.6V39.71zm0 18.98h-3.6v5.186h3.6V58.69z" fill="#fff"/><path d="M64.654 39.649h-1.218l-3.369.018H33.225a.403.403 0 01.08 0h1.153l3.366-.015h22.228l3.369.015h1.153a.405.405 0 01.08-.018z" fill="#0A0D0E"/><path d="M65.873 15.35H34.165v24.3h31.708v-24.3z" fill="#E0E0E0"/><path d="M57.93 39.477c-.028 0-.052-5.416-.052-12.096s.024-12.095.052-12.095c.027 0 .051 5.415.051 12.095 0 6.68-.012 12.096-.051 12.096z" fill="#495D4C"/><path d="M63.186 34.115h-2.432v2.73h2.432v-2.73zM47.438 15.412h-3.6v5.186h3.6v-5.186zm0 18.978h-3.6v5.186h3.6V34.39z" fill="#F5F5F5"/><path d="M65.361 15.349h-1.235l-3.367.018-11.112.015-11.115-.015-3.37-.018H33.93h4.603l11.115-.015 11.112.015h4.602z" fill="#263238"/><path d="M59.818 91.031v-2.846H1.232a.79.79 0 00-.73.493.776.776 0 00-.055.303v1.288c0 .206.083.404.23.55a.788.788 0 00.555.227h1.631v1.297a.766.766 0 01-.227.542.776.776 0 01-.546.224h-.87a.776.776 0 00-.547.224.766.766 0 00-.226.543v1.313a.766.766 0 00.773.747h58.598v-2.843H46.174v-2.062h13.644zm-42.915 0h3.51v2.062h-3.507l-.003-2.062zm-2.34 2.062h-3.51v-2.062h3.513l-.003 2.062zm8.19-2.062h3.516v2.062h-3.513l-.003-2.062zm5.853 0h3.51v2.062h-3.507l-.003-2.062zm5.85 0h3.512v2.062H34.46l-.003-2.062zm-29.255 0H8.71v2.062H5.204L5.2 91.031zm38.617 2.062h-3.51v-2.062h3.513l-.003 2.062z" fill="#89948F"/><path d="M109.175 45.257a.92.92 0 00.223-.307.832.832 0 00-.016-.717.932.932 0 00-.238-.298l-9.926-8.358a1.144 1.144 0 00-.733-.259c-.272 0-.533.093-.732.259a.96.96 0 00-.24.303.866.866 0 00.2 1.042l3.96 3.714-2.061 1.765-1.073-.752-7.49 7.648-4.002-3.43-4.825 12.644.957 17.164h11.098l-.773-20.395 7.432-9.457.058-2.25 2.14-1.95 4.613 3.669c.2.16.461.243.729.235a1.1 1.1 0 00.708-.279l-.009.009z" fill="#B8B8B8"/><path d="M104.627 74.47l7.07-16.272-2.654-.892v-3.155l19.331-.25a2.103 2.103 0 001.227-.407c.337-.254.55-.6.601-.976l2.837-20.917c.063-.468.332-.9.756-1.215a2.599 2.599 0 011.54-.488c.312 0 .62.052.907.153.287.102.546.25.762.436.216.187.384.407.494.649.111.242.162.5.149.757l-1.069 21.554 10.093.045.342 3.934-29.85.966-7.784 15.845-4.752.234z" fill="#E9E9E9"/><path d="M109.33 74.124l-24.685.168v1.383l10.226-.111 16.287-.103 39.488-4.7-4.476-14.36h-26.736a3.297 3.297 0 00-1.332.26 2.766 2.766 0 00-1.034.752l-7.738 16.712z" fill="#B8B8B8"/><path d="M96.96 5.467L79.596 60.48l.122 15.301h5.524V60.577L99.468 5.612l38.544-.215 7.372 57.252h4.349l-8.97-56.85a3.237 3.237 0 00-1.121-1.898 3.278 3.278 0 00-2.083-.75h-37.47a3.28 3.28 0 00-1.951.642 3.244 3.244 0 00-1.178 1.674z" fill="#E9E9E9"/><path d="M76.48 93.46v-14.7l3.25-2.979 30.436-.387 5.479-4.427a6.281 6.281 0 013.591-1.382l5.844-.326s2.629-1.814 5.174-3.586a19.164 19.164 0 0111.024-3.487h16.871c.612 0 1.2.242 1.633.672a2.29 2.29 0 01.677 1.623V93.46h-83.98z" fill="#5CCD6A"/><path d="M160.456 88.72H76.181v4.833h84.275V88.72z" fill="#495D4C"/><path d="M80.543 93.404a10.305 10.305 0 001.672 5.778 10.402 10.402 0 004.62 3.88 10.487 10.487 0 006.013.676 10.45 10.45 0 005.377-2.757 10.334 10.334 0 002.928-5.26 10.279 10.279 0 00-.506-5.99 10.362 10.362 0 00-3.77-4.701 10.48 10.48 0 00-9.763-1.098 10.425 10.425 0 00-3.414 2.195 10.348 10.348 0 00-2.307 3.327 10.292 10.292 0 00-.85 3.95z" fill="#495D4C"/><path d="M80.546 93.377v.028a10.317 10.317 0 002.977 7.305 10.456 10.456 0 007.292 3.107c2.747.04 5.4-1 7.38-2.894a10.318 10.318 0 003.19-7.216v-.027l-20.84-.303z" fill="#495D4C"/><path d="M83.647 93.45a7.223 7.223 0 001.178 4.045 7.296 7.296 0 003.24 2.715 7.357 7.357 0 004.211.47 7.32 7.32 0 003.766-1.932 7.245 7.245 0 002.052-3.684 7.213 7.213 0 00-.353-4.196 7.264 7.264 0 00-2.638-3.296 7.336 7.336 0 00-6.845-.775 7.312 7.312 0 00-2.397 1.541 7.255 7.255 0 00-1.62 2.337 7.216 7.216 0 00-.594 2.775z" fill="#FAFAFA"/><path d="M91.067 86.287a7.347 7.347 0 00-2.809.51 7.31 7.31 0 00-2.397 1.541 7.254 7.254 0 00-1.62 2.337 7.216 7.216 0 00-.594 2.775l14.63.209a7.218 7.218 0 00-2.064-5.173 7.305 7.305 0 00-2.352-1.61 7.345 7.345 0 00-2.794-.59z" fill="#E0E0E0"/><path d="M86.505 93.49a4.409 4.409 0 00.715 2.472 4.45 4.45 0 001.976 1.66 4.485 4.485 0 004.874-.888 4.403 4.403 0 001.038-4.814 4.435 4.435 0 00-1.614-2.012 4.48 4.48 0 00-5.638.468 4.428 4.428 0 00-1.351 3.114zm45.03-.085a10.298 10.298 0 001.673 5.777 10.403 10.403 0 004.62 3.88 10.49 10.49 0 006.013.676 10.439 10.439 0 005.376-2.757 10.327 10.327 0 002.929-5.26 10.295 10.295 0 00-.506-5.99 10.364 10.364 0 00-3.77-4.701 10.468 10.468 0 00-5.764-1.828 10.457 10.457 0 00-7.412 2.927 10.323 10.323 0 00-3.159 7.276z" fill="#495D4C"/><path d="M131.538 93.377v.028a10.321 10.321 0 002.978 7.305 10.455 10.455 0 007.291 3.107c2.748.04 5.4-1 7.38-2.894a10.326 10.326 0 003.191-7.243l-20.84-.303z" fill="#495D4C"/><path d="M134.64 93.45a7.22 7.22 0 001.177 4.045 7.297 7.297 0 003.24 2.715 7.358 7.358 0 004.212.47 7.315 7.315 0 003.765-1.932 7.237 7.237 0 002.052-3.684 7.211 7.211 0 00-.352-4.196 7.262 7.262 0 00-2.638-3.296 7.337 7.337 0 00-6.845-.775 7.314 7.314 0 00-2.398 1.541 7.261 7.261 0 00-1.619 2.337 7.209 7.209 0 00-.594 2.775z" fill="#FAFAFA"/><path d="M142.06 86.287a7.345 7.345 0 00-5.207 2.051 7.261 7.261 0 00-1.619 2.337 7.209 7.209 0 00-.594 2.775l14.63.209a7.208 7.208 0 00-.513-2.791 7.296 7.296 0 00-3.904-3.991 7.344 7.344 0 00-2.793-.59z" fill="#E0E0E0"/><path d="M137.501 93.49a4.403 4.403 0 00.715 2.47 4.45 4.45 0 001.976 1.658c.81.347 1.704.447 2.571.288a4.463 4.463 0 002.298-1.179 4.407 4.407 0 001.036-4.81 4.426 4.426 0 00-1.612-2.01 4.476 4.476 0 00-4.175-.47 4.458 4.458 0 00-1.46.94 4.41 4.41 0 00-1.349 3.113zm18.015-7.307s-.018-.02-.052-.07l-.134-.217-.213-.357a4.315 4.315 0 00-.304-.477 14.75 14.75 0 00-2.35-2.722c-.268-.269-.609-.505-.913-.771-.304-.266-.685-.499-1.05-.756a8.669 8.669 0 00-1.196-.704c-.213-.11-.426-.227-.645-.333l-.685-.302a14.872 14.872 0 00-3.019-.908 14.508 14.508 0 00-9.634 1.512l-.651.366c-.21.124-.408.263-.609.39-.41.251-.764.55-1.126.814-.362.263-.675.565-.974.852-.298.288-.59.56-.834.856a14.732 14.732 0 00-2.078 2.93c-.095.164-.18.332-.256.505-.07.145-.131.27-.18.375-.048.106-.082.17-.112.227a.766.766 0 01-.043.079.282.282 0 01.028-.085l.097-.236.167-.38a4.53 4.53 0 01.244-.512 14.2 14.2 0 012.051-2.978c.241-.303.542-.569.831-.868.289-.3.636-.572.977-.865a8.944 8.944 0 011.129-.829c.201-.13.402-.269.609-.399l.654-.369a14.97 14.97 0 016.319-1.814c2.218-.083 4.426.33 6.462 1.21l.687.302c.223.109.436.227.649.338.435.212.815.484 1.217.717.402.233.728.505 1.053.768.326.263.645.511.913.787.892.82 1.673 1.75 2.326 2.77.11.156.212.319.304.486l.201.363.119.227c.01.025.017.051.021.078zm-50.947 1.909a.298.298 0 01-.04-.085l-.103-.245-.164-.405-.247-.538a16.385 16.385 0 00-1.969-3.215 12.926 12.926 0 00-4.243-3.592 12.627 12.627 0 00-3.135-1.037 16.146 16.146 0 00-3.54-.32 15.9 15.9 0 00-3.524.45c-1.074.272-2.11.678-3.08 1.21a15.387 15.387 0 00-4.38 3.453 17.29 17.29 0 00-2.146 3.096 29.17 29.17 0 00-.475.907l-.121.236a.433.433 0 01-.046.082.426.426 0 01.03-.088l.11-.245c.091-.218.244-.53.447-.928a16.582 16.582 0 012.116-3.148 15.301 15.301 0 014.395-3.508c.98-.533 2.026-.94 3.11-1.21a15.898 15.898 0 013.561-.46c1.2-.024 2.4.086 3.576.328 1.099.212 2.164.568 3.169 1.058a12.913 12.913 0 014.261 3.653 15.912 15.912 0 011.948 3.25c.085.206.164.388.231.548.067.16.11.302.152.411.043.109.064.188.089.251.01.03.016.06.018.09zm-28.111.094H30.262v5.367h46.196v-5.367z" fill="#495D4C"/><path d="M75.207 90.463a1.33 1.33 0 01-.83 1.234 1.354 1.354 0 01-1.466-.29 1.334 1.334 0 01.95-2.281 1.352 1.352 0 01.952.391 1.336 1.336 0 01.394.946z" fill="#89948F"/><path d="M130.692 83.172c0 .045-6.501.082-14.518.082s-14.518-.037-14.518-.082c0-.046 6.498-.079 14.518-.079s14.518.037 14.518.079zm-5.917-1.146c-.045 0-.079-2.81-.079-6.272s.034-6.275.079-6.275c.046 0 .08 2.81.08 6.275 0 3.465-.037 6.272-.08 6.272zM76.458 78.21H71.39v10.045h5.068V78.21z" fill="#495D4C"/><path d="M65.149 63.955H33.441v24.3h31.708v-24.3z" fill="#8FE89A"/><path d="M57.205 88.073c-.027 0-.052-5.415-.052-12.095 0-6.68.025-12.096.052-12.096.028 0 .052 5.413.052 12.096s-.024 12.096-.052 12.096z" fill="#495D4C"/><path d="M62.462 82.724H60.03v2.73h2.432v-2.73z" fill="#F5F5F5"/><path d="M57.761 64.019h-3.6v5.185h3.6V64.02zM46.714 83h-3.6v5.186h3.6v-5.187z" fill="#495D4C"/><path d="M67.442 63.955a.233.233 0 01-.08 0h-1.15l-3.369.015H40.616l-3.367-.015H36.1a.247.247 0 01-.082 0h1.232l3.367-.015h22.227l3.37.015h1.227z" fill="#263238"/><path d="M32.964 63.955H1.256v24.3h31.708v-24.3z" fill="#E0E0E0"/><path d="M23.948 88.073c-.03 0-.052-5.415-.052-12.095 0-6.68.021-12.096.052-12.096.03 0 .048 5.413.048 12.096s-.02 12.096-.048 12.096z" fill="#263238"/><path d="M29.204 82.724h-2.432v2.73h2.432v-2.73z" fill="#F5F5F5"/><path opacity=".5" d="M13.456 64.019h-3.6v5.185h3.6V64.02zm0 18.981h-3.6v5.186h3.6v-5.187z" fill="#fff"/><path d="M31.157 63.955a.247.247 0 01-.082 0h-1.151l-3.366.015H4.33l-3.369-.015h-1.15a.234.234 0 01-.08 0h1.23l3.37-.015h22.227l3.366.015h1.233z" fill="#263238"/><path d="M161.786 70.562c1.634.39 3.007 2.041 2.979 3.71a3.814 3.814 0 01-.882 2.287 3.856 3.856 0 01-2.097 1.288" fill="#E8505B"/><path d="M161.786 70.562c1.634.39 3.007 2.041 2.979 3.71a3.814 3.814 0 01-.882 2.287 3.856 3.856 0 01-2.097 1.288" fill="#fff" opacity=".6"/><path d="M161.853 69.622h-1.397v9.195h1.397v-9.195z" fill="#498D51"/><path d="M174.867 103.907c0 .042-44.053.078-98.382.078-54.328 0-98.394-.036-98.394-.078 0-.043 44.044-.079 98.394-.079 54.35 0 98.382.033 98.382.079z" fill="#495D4C"/></g><defs><clipPath id="clip0_102_1199"><path fill="#fff" transform="translate(0 .985)" d="M0 0h165v103H0z"/></clipPath></defs></svg>