<svg width="302" height="273" fill="none" xmlns="http://www.w3.org/2000/svg"><g opacity=".5" clip-path="url(#clip0_86_2007)"><path d="M16.133 68.22c.88-.69 1.851-1.259 2.885-1.69l.262-3.074 5.083-.7 1.094 2.897a12.77 12.77 0 013.234.842l2.372-1.992 4.087 3.094-1.277 2.815a12.66 12.66 0 011.685 2.881l3.079.267.7 5.076-2.901 1.088a12.456 12.456 0 01-.844 3.236l1.993 2.363-3.078 4.104-2.847-1.308c-.88.69-1.85 1.26-2.884 1.69l-.268 3.075-5.077.7-1.094-2.897a12.59 12.59 0 01-3.234-.843l-2.335 2-4.087-3.093 1.277-2.816a12.686 12.686 0 01-1.69-2.88l-3.115-.251-.69-5.09 2.902-1.087c.135-1.112.419-2.2.844-3.236l-1.999-2.362 3.098-4.088 2.825 1.28zm3.53 6.447a5.488 5.488 0 001.983 8.254 5.504 5.504 0 007.72-3.555 5.484 5.484 0 00-2.001-5.764 5.508 5.508 0 00-7.702 1.065zm241.057 78.084a12.625 12.625 0 012.885-1.683l.262-3.075 5.083-.701 1.094 2.897c1.111.136 2.198.419 3.234.843l2.371-1.998 4.087 3.093-1.282 2.823a12.38 12.38 0 011.691 2.88l3.079.267.7 5.07-2.901 1.094a12.674 12.674 0 01-.845 3.23l1.994 2.368-3.098 4.083-2.8-1.258a12.736 12.736 0 01-2.884 1.689l-.268 3.075-5.083.701-1.088-2.898a12.355 12.355 0 01-3.234-.842l-2.372 1.998-4.093-3.093 1.283-2.822a12.338 12.338 0 01-1.691-2.881l-3.079-.267-.706-5.069 2.901-1.094c.137-1.109.421-2.195.845-3.23l-1.994-2.368 3.098-4.083 2.819 1.275-.008-.024zm3.529 6.447a5.495 5.495 0 00-.367 6.098 5.506 5.506 0 0010.076-1.385 5.494 5.494 0 00-6.074-6.836 5.502 5.502 0 00-3.635 2.123zM20.187 40.3a5.711 5.711 0 011.355-.799l.12-1.438 2.361-.32.512 1.345a5.81 5.81 0 011.498.387l1.129-.93 1.901 1.44-.618 1.33c.32.41.585.861.786 1.342l1.435.12.326 2.357-1.347.512a5.946 5.946 0 01-.394 1.502l.93 1.127-1.444 1.87-1.28-.599c-.423.327-.89.593-1.387.79l-.126 1.434-2.342.33-.506-1.346a5.873 5.873 0 01-1.505-.393l-1.128.93-1.895-1.434.607-1.322a5.91 5.91 0 01-.786-1.336l-1.435-.126-.326-2.358 1.353-.506a5.87 5.87 0 01.388-1.502l-.92-1.097 1.458-1.901 1.28.592zm1.642 3.002a2.553 2.553 0 002.402 4.054 2.56 2.56 0 002.122-1.875 2.551 2.551 0 00-1.813-3.12 2.562 2.562 0 00-2.699.94h-.012z" fill="#B4FFCD"/><path d="M56.863 251.417l-6.05 3.2s2.69 5.073-2.54 7.959a5.535 5.535 0 01-6.39-.584 6.112 6.112 0 01-2.17-5.119c.132-2.232 1.564-4.96 6.024-6.403l-7.218-13.641-5.98 3.168 4.219 7.976s-7.242 6.61-2.337 15.841c4.688 8.832 13.705 6.679 17.104 4.883 2.594-1.355 11.105-6.69 5.338-17.28zm-25.887-14.198l6.07-3.215-3.004-5.66-6.07 3.215 3.004 5.66zM261.468 71.231l6.074 1.835s1.569-5.095 6.898-3.565a5.147 5.147 0 013.797 4.598 5.685 5.685 0 01-1.966 4.787c-1.554 1.374-4.287 2.255-8.161.257l-4.213 13.686 6.014 1.84 2.462-8.018s9.101.412 11.939-8.87c2.731-8.875-4.604-13.377-8.019-14.445-2.566-.757-11.651-2.853-14.825 7.895zm7.663 26.319l-6.098-1.869-1.75 5.69 6.098 1.869 1.75-5.69z" fill="#EBEBEB"/><path d="M242.958 11.595l-5.116 20.746a3.454 3.454 0 002.132 4.056 3.459 3.459 0 004.402-1.84l8.696-19.73a2.703 2.703 0 00-.022-2.23 2.704 2.704 0 00-1.688-1.46l-4.99-1.491a2.716 2.716 0 00-3.414 1.95zm-1.189 37.939a5.212 5.212 0 01-5.428 2.02 5.21 5.21 0 01-3.944-4.235 5.202 5.202 0 012.409-5.26 5.22 5.22 0 017.175 1.694 5.188 5.188 0 01.636 3.934 5.185 5.185 0 01-.848 1.847z" fill="#E0E0E0"/><path d="M253.641 107.678a36.971 36.971 0 002.054-25.495c-.088-.339-.195-.67-.313-1-.899-2.904-1.641-5.263-3.329-7.631-.177-.306-.351-.575-.541-.898-.191-.322-.375-.572-.57-.876a37.095 37.095 0 00-14.085-12.153 37.158 37.158 0 00-18.223-3.796c-4.13-19.91-20.04-36.912-39.627-42.395-19.588-5.484-42.038.883-55.884 15.79-17.26-10.373-39.753-11.5-57.925-2.876-18.172 8.624-31.527 26.75-34.369 46.666-.865 6.092-.843 12.449-3.35 18.064-1.897 4.243-5.096 7.738-7.745 11.55a50.986 50.986 0 00-8.386 20.395 50.943 50.943 0 0011.24 41.557 51.048 51.048 0 0017.524 13.399c-8.765 14.932-3.023 36.5 12.01 45.107 8.629 4.94 19.596 6.074 26.51 13.215 2.94 3.043 4.851 6.913 7.47 10.232 8.91 11.308 26.524 14.512 38.865 7.108l67.048-24.285a91.206 91.206 0 0062.597-26.988c6.046-6.181 11.309-13.411 13.353-21.828 2.045-8.416.406-18.014-5.735-24.08 11.652-14.634 7.327-39.019-8.589-48.782z" fill="#E9E9E9"/><path d="M58.924 202.372a13.072 13.072 0 01-.21-3.475l-2.741-1.711 1.733-5.055 3.21.349a13.22 13.22 0 012.312-2.617l-.738-3.138 4.81-2.348 2.021 2.514a13.214 13.214 0 013.478-.212l1.711-2.744 5.05 1.731-.385 3.212a13.085 13.085 0 012.607 2.311l3.141-.739 2.341 4.813-2.519 2.022c.235 1.133.32 2.292.255 3.447l2.74 1.711-1.74 5.053-3.208-.349a12.859 12.859 0 01-2.31 2.611l.735 3.144-4.81 2.347-2.024-2.522a13.063 13.063 0 01-3.474.22l-1.712 2.745-5.047-1.737.346-3.214a12.996 12.996 0 01-2.607-2.311l-3.136.742-2.34-4.814 2.515-2.03-.004.044zm7.661-.248a5.728 5.728 0 005.5 3.203 5.737 5.737 0 003.442-10.022 5.72 5.72 0 00-6.307-.852 5.732 5.732 0 00-3.206 5.508c.046.752.24 1.487.571 2.163z" fill="#fff"/><path d="M181.019 61.395a7.141 7.141 0 011.627-.949l.145-1.74 2.866-.395.615 1.634a6.925 6.925 0 011.817.472l1.335-1.12 2.304 1.74-.721 1.583c.388.497.71 1.044.955 1.625l1.737.15.394 2.857-1.63.613a7.313 7.313 0 01-.478 1.822l1.121 1.334-1.743 2.3-1.585-.72a7.173 7.173 0 01-1.628.95l-.15 1.74-2.861.394-.614-1.634a7.06 7.06 0 01-1.824-.471l-1.335 1.12-2.304-1.74.721-1.59a7.104 7.104 0 01-.985-1.615l-1.742-.15-.389-2.857 1.636-.62a6.798 6.798 0 01.479-1.816l-1.115-1.322 1.743-2.301 1.609.706zm1.985 3.631a3.098 3.098 0 00-.2 3.432 3.096 3.096 0 003.098 1.498 3.102 3.102 0 002.572-2.285 3.085 3.085 0 00-1.128-3.248 3.094 3.094 0 00-2.306-.605 3.1 3.1 0 00-2.054 1.21l.018-.002zM98.722 230.173a9.11 9.11 0 01-.173-2.444l-1.917-1.184 1.212-3.538 2.251.219a9.261 9.261 0 011.616-1.824l-.516-2.199 3.354-1.64 1.409 1.756a9.095 9.095 0 012.431-.148l1.187-1.925 3.53 1.216-.221 2.253a9.112 9.112 0 011.824 1.61l2.191-.52 1.642 3.358-1.758 1.417c.15.808.192 1.633.125 2.452l1.914 1.19-1.209 3.531-2.251-.219a9.276 9.276 0 01-1.61 1.827l.519 2.174-3.36 1.638-1.409-1.756a8.898 8.898 0 01-2.394.136l-1.187 1.925-3.53-1.216.221-2.253a9.054 9.054 0 01-1.824-1.61l-2.178.519-1.642-3.358 1.764-1.415-.01.028zm5.349-.172a4.002 4.002 0 007.385-.465 4.01 4.01 0 00-1.135-4.306 3.997 3.997 0 00-4.41-.594 4.02 4.02 0 00-1.84 5.365z" fill="#78C081"/><path d="M199.72 194.039a9.132 9.132 0 012.106-1.227l.191-2.251 3.704-.509.821 2.107a9.143 9.143 0 012.356.614l1.73-1.453 2.977 2.252-.931 2.056a9.286 9.286 0 011.186 2.102l2.248.197.514 3.692-2.11.82c-.1.808-.307 1.6-.615 2.354l1.454 1.727-2.256 2.974-2.058-.929a9.13 9.13 0 01-2.087 1.177l-.191 2.25-3.704.509-.82-2.107a9.108 9.108 0 01-2.357-.613l-1.723 1.452-2.984-2.252.937-2.057a9.073 9.073 0 01-1.234-2.096l-2.248-.191-.514-3.699 2.116-.82c.097-.809.304-1.6.615-2.354l-1.454-1.727 2.256-2.974 2.052.93.023.046zm2.573 4.695a4.003 4.003 0 003.741 6.385 4.009 4.009 0 003.333-2.953 3.996 3.996 0 00-1.454-4.204 4.026 4.026 0 00-2.97-.777 4.013 4.013 0 00-2.65 1.549zM64.1 130.681a7.854 7.854 0 00-5.412-4.089c-1.978-.358-4.223.085-5.854-1.088-.773-.533-1.288-1.409-1.987-2.058a7.237 7.237 0 00-4.732-1.664c-5.722-.199-10.52 4.175-12.125 8.895-2.158 1.757-4.354 3.549-5.882 5.871-1.527 2.323-2.317 5.298-1.41 7.921.675 1.926 2.178 3.478 2.864 5.397.621 1.768.512 3.681.841 5.514.33 1.833 1.317 3.783 3.113 4.287 2.21.616 4.697-1.211 6.783-.242 1.415.658 2.017 2.348 3.22 3.338 2.083 1.726 5.226.919 7.69-.216a41.545 41.545 0 008.02-4.853 16.815 16.815 0 004.233-4.408 7.695 7.695 0 001.052-5.873c-.326-1.187-1.035-2.299-1.231-3.535-.357-2.172.896-4.242 1.467-6.365a9.498 9.498 0 00-.65-6.832z" fill="#fff"/><path d="M62.239 154.804l-5.142 4.346-.005.007 5.845 1.437-.698-5.79z" fill="#F5F5F5"/><path d="M42.887 142.913a2.277 2.277 0 01-1.194 2.237 2.287 2.287 0 01-3.264-1.346 2.28 2.28 0 011.96-2.935 2.28 2.28 0 012.499 2.044zm7.067-.703a2.285 2.285 0 01-1.193 2.247 2.286 2.286 0 11-1.312-4.29 2.292 2.292 0 012.505 2.043zm7.061-.703a2.282 2.282 0 01-2.495 2.497 2.281 2.281 0 01-.004-4.541 2.282 2.282 0 012.499 2.044z" fill="#495E4C"/><path d="M233.333 75.134c-.596-.776-1.71-.867-2.692-.854a42.482 42.482 0 00-10.512 1.418c-1.19.313-2.978.381-3.223-.85a1.75 1.75 0 011.123-1.728c1.163-.579 2.497-.492 3.769-.65 1.273-.156 2.675-.723 3.073-1.94.604-1.846-1.605-3.498-3.548-3.567-1.942-.069-3.904.639-5.805.249l-4.024.486a35.227 35.227 0 00-8.687 2.156c-.782.304-1.688.827-1.666 1.66.022.833.916 1.293 1.374 1.973.924 1.371-.164 3.315-1.649 4.036-1.485.72-3.219.667-4.845.951-1.626.284-3.383 1.16-3.772 2.765-.309 1.25.344 2.606.093 3.881-.321 1.623-1.979 2.636-3.571 3.075-1.593.439-3.313.573-4.744 1.41a5.347 5.347 0 00-.321 9.046 5.362 5.362 0 003.412.915c1.161-.116 2.272-.55 3.42-.725a3.982 3.982 0 012.478.363 6.124 6.124 0 004.778 5.067c1.645.27 3.335-.173 4.989.01s3.466 1.393 3.319 3.048c-.108 1.187-1.178 2.153-1.151 3.34.029 1.454 1.699 2.349 3.157 2.338 1.458-.011 2.852-.601 4.305-.66 1.454-.059 3.159.698 3.339 2.137.196 1.608-1.589 2.932-1.459 4.541.103 1.35 1.49 2.218 2.796 2.575 1.305.358 2.745.471 3.827 1.284 1.082.813 1.439 2.747.26 3.413 1.989-.265 2.868-3.273 1.377-4.569-.947-.803-2.409-.901-3.172-1.88-.853-1.086-.372-2.755.607-3.718.978-.964 2.293-1.491 3.507-2.179 1.214-.687 2.364-1.704 2.558-3.071.285-2.046-1.82-3.751-3.878-3.998-2.057-.246-4.093.468-6.136.793-2.043.326-4.424.142-5.754-1.445l6.404-3.863a2.54 2.54 0 001.365-1.44c.26-1.19-1.152-2.001-2.308-2.393l-4.574-1.55a2.53 2.53 0 00-.253-.762c2.552-1.351 5.598-1.233 8.484-1.13 2.885.103 5.956.102 8.403-1.446s3.756-5.203 1.86-7.386c-1.014-1.173-2.824-1.871-3.02-3.419-.128-1.28.985-2.366 2.153-2.897 1.169-.53 2.502-.749 3.565-1.476 1.064-.728 1.752-2.339.969-3.334z" fill="#fff"/><path d="M202.353 87.807a2.186 2.186 0 001.96-2.39 2.186 2.186 0 00-2.393-1.957 2.186 2.186 0 00-1.96 2.39 2.186 2.186 0 002.393 1.957zm8.712-3.062a2.184 2.184 0 01-2.389 2.39 2.19 2.19 0 01-1.879-1.537 2.183 2.183 0 011.876-2.81 2.189 2.189 0 012.392 1.957zm4.799 1.718a2.186 2.186 0 001.96-2.39 2.186 2.186 0 00-2.393-1.957 2.186 2.186 0 00-1.96 2.39 2.186 2.186 0 002.393 1.957z" fill="#495E4C"/><path d="M58.331 49.377a12.472 12.472 0 00-6.652 2.71 12.448 12.448 0 00-4.05 5.926 12.429 12.429 0 003.78 13.21c-5.823 1.86-8.915 9.197-6.767 14.897 2.149 5.7 8.84 9.078 14.844 8.06 6.004-1.019 11.006-5.973 12.672-11.864a12.427 12.427 0 004.95 5.448 12.452 12.452 0 0018.21-7.02c3.173 4.714 10.884 4.782 14.898.76 4.014-4.02 4.347-10.797 1.735-15.823-2.613-5.026-7.662-8.463-13.018-10.332 2.977-3.272 2.851-8.71.146-12.209-2.704-3.499-7.492-5.047-11.888-4.378-4.397.67-8.298 3.307-11.096 6.726a9.103 9.103 0 00-4.173-4.196 9.123 9.123 0 00-10.97 2.27 9.096 9.096 0 00-2.163 5.507" fill="#fff"/><path d="M66.12 59.491l6.677 9.427a1.864 1.864 0 002.413.565 1.87 1.87 0 00.807-2.446l-4.99-10.51a1.474 1.474 0 00-2.118-.612l-2.371 1.51a1.465 1.465 0 00-.648 1.53c.04.192.118.375.23.536zm15.097 13.912a2.812 2.812 0 01-1.104 2.927 2.822 2.822 0 01-4.208-1.123 2.812 2.812 0 011.922-3.906 2.823 2.823 0 012.935 1.1c.216.301.37.641.455 1.002z" fill="#495E4C"/><path d="M83.9 51.717l1.175 9.9a1.607 1.607 0 001.594 1.421 1.612 1.612 0 001.62-1.52l.563-10.044a1.266 1.266 0 00-1.354-1.335l-2.425.168a1.27 1.27 0 00-1.172 1.41zm5.71 16.766a2.428 2.428 0 01-2.038 1.767 2.432 2.432 0 01-2.416-1.203 2.425 2.425 0 011.337-3.505 2.432 2.432 0 013.184 1.995c.04.317.017.638-.067.946z" fill="#E0E0E0"/><path d="M213.949 147.147l-3.703 15.002a2.517 2.517 0 001.545 2.943 2.51 2.51 0 003.188-1.335l6.296-14.284a1.979 1.979 0 00-.014-1.617 1.956 1.956 0 00-.498-.66 1.961 1.961 0 00-.725-.399l-3.612-1.079a1.976 1.976 0 00-2.477 1.429zm-.857 27.462a3.778 3.778 0 01-5.823.361 3.764 3.764 0 01.786-5.774 3.775 3.775 0 015.705 2.609 3.761 3.761 0 01-.668 2.804zM120.185 49.033l4.896-.487s-.448-4.51 3.818-5.013a4.005 4.005 0 014.114 2.39 5.238 5.238 0 01.088 4.38c-.684 1.586-2.368 3.132-5.732 2.826l1.204 12.105 4.836-.48-.705-7.095s6.604-2.596 5.787-10.806c-.781-7.85-7.387-9.021-10.138-8.747-2.094.19-9.204 1.44-8.168 10.927zM133.73 67.24l-4.921.489.501 5.035 4.921-.49-.501-5.035z" fill="#fff"/><path d="M252.694 123.625s.059-.073.187-.202c.203-.19.441-.34.701-.441a2.623 2.623 0 011.342-.134c.633.077 1.22.372 1.658.835.551.59.903 1.337 1.006 2.138a5.554 5.554 0 01-.395 2.831 16.89 16.89 0 01-4.266 5.729 39.535 39.535 0 01-3.308 2.707c-1.199.894-2.475 1.814-3.865 2.696a29.077 29.077 0 01-4.555 2.386c-.842.354-1.709.644-2.594.867-.92.235-1.86.38-2.808.432a5.163 5.163 0 01-2.901-.443 2.06 2.06 0 01-.978-1.171 2.585 2.585 0 01.035-1.552 7.833 7.833 0 011.665-2.659 22.709 22.709 0 012.283-2.276c1.646-1.432 3.423-2.779 5.249-4.181a29.366 29.366 0 016.06-3.651 15.957 15.957 0 013.52-1.064 9.975 9.975 0 013.765-.021c1.303.21 2.481.9 3.3 1.934a4.197 4.197 0 01.455 3.839 6.678 6.678 0 01-2.438 3.169 16.21 16.21 0 01-3.596 1.961 25.229 25.229 0 01-8.209 1.622 62.254 62.254 0 01-8.656-.358 38.616 38.616 0 01-4.403-.623 18.142 18.142 0 01-2.172-.601 5.272 5.272 0 01-2.02-1.098 2.126 2.126 0 01-.615-1.024 2.028 2.028 0 01.08-1.227 4.083 4.083 0 011.5-1.796c1.3-.88 2.778-1.466 4.328-1.717a54.833 54.833 0 019.419-.937 41.306 41.306 0 014.822.24c.809.084 1.614.205 2.418.369.83.1 1.633.357 2.365.758.383.215.701.53.92.91.218.381.329.814.321 1.253a3.094 3.094 0 01-1.417 2.08 13.154 13.154 0 01-4.584 2.035 13.56 13.56 0 01-2.513.33 8.99 8.99 0 01-2.549-.216 3.836 3.836 0 01-2.205-1.36 2.71 2.71 0 01-.256-2.572 4.551 4.551 0 014.179-2.787 3.527 3.527 0 012.468.931 3.485 3.485 0 011.048 2.432c.005.462-.102.919-.314 1.33a2.721 2.721 0 01-.932.995 3.925 3.925 0 01-2.622.529 3.034 3.034 0 01-2.315-1.361 1.457 1.457 0 01.001-1.408 1.985 1.985 0 011.096-.884 5.478 5.478 0 012.704.054 8.54 8.54 0 012.558.862 4.621 4.621 0 011.915 1.937 3.21 3.21 0 01.124 2.725 4.905 4.905 0 01-1.778 2.073 6.809 6.809 0 01-2.522 1.099 7.813 7.813 0 01-5.375-.77 9.532 9.532 0 01-3.811-3.938 7.999 7.999 0 01-.903-5.397 4.54 4.54 0 011.4-2.432 6.985 6.985 0 012.435-1.358 19.876 19.876 0 015.398-.97 28.129 28.129 0 015.459.066 7.708 7.708 0 014.82 2.423 5.14 5.14 0 011.156 2.476 6.524 6.524 0 01-.158 2.717 9.23 9.23 0 01-2.94 4.439 19.422 19.422 0 01-2.11 1.624c-.725.504-1.481.964-2.262 1.377a9.291 9.291 0 01-5.116 1.162 15.194 15.194 0 01-9.102-4.649 9.703 9.703 0 01-2.215-4.596 11.682 11.682 0 01.175-5.054 11.949 11.949 0 012.203-4.487 13.683 13.683 0 013.709-3.284 14.54 14.54 0 014.575-1.754 13.024 13.024 0 014.896-.005 7.66 7.66 0 014.219 2.214 8.486 8.486 0 011.911 4.298c.486 3.061.25 6.193-.69 9.147a18.316 18.316 0 01-1.854 4.123 10.99 10.99 0 01-3.027 3.27 7.913 7.913 0 01-4.134 1.406 6.799 6.799 0 01-4.101-1.275 23.93 23.93 0 01-3.2-2.773 13.898 13.898 0 01-2.676-3.209 6.106 6.106 0 01-.659-1.965 5.878 5.878 0 01.088-2.057 10.689 10.689 0 011.677-3.643 12.511 12.511 0 015.978-4.832 9.427 9.427 0 017.298.262 10.918 10.918 0 014.838 5.067 13.737 13.737 0 011.47 6.487 9.205 9.205 0 01-2.182 5.869 11.125 11.125 0 01-5.081 3.055 16.545 16.545 0 01-5.496.784 8.438 8.438 0 01-4.809-1.704 9.433 9.433 0 01-2.882-3.689 9.69 9.69 0 01-.826-4.186 12.214 12.214 0 012.25-6.723 15.007 15.007 0 013.736-3.682 17.769 17.769 0 012.801-1.602c.666-.304 1.02-.431 1.02-.431l-.257.117-.747.343a18.953 18.953 0 00-2.782 1.624 15.133 15.133 0 00-3.693 3.684 12.13 12.13 0 00-2.205 6.676 9.572 9.572 0 00.825 4.119 9.345 9.345 0 002.858 3.63 8.28 8.28 0 004.725 1.658 16.375 16.375 0 005.417-.789 11.01 11.01 0 004.988-3.002 9.055 9.055 0 002.119-5.759 13.547 13.547 0 00-1.45-6.416c-1-2.13-2.675-3.871-4.766-4.953a9.144 9.144 0 00-3.513-.835 9.138 9.138 0 00-3.563.594 12.22 12.22 0 00-5.852 4.747 10.329 10.329 0 00-1.637 3.559 5.718 5.718 0 00-.085 1.965c.106.659.322 1.295.639 1.882a13.512 13.512 0 002.58 3.17 23.885 23.885 0 003.166 2.733 6.565 6.565 0 003.951 1.235 7.693 7.693 0 004.003-1.368 10.822 10.822 0 002.948-3.195 17.923 17.923 0 001.825-4.059 19.6 19.6 0 00.672-9.012 8.226 8.226 0 00-1.842-4.158 7.334 7.334 0 00-4.063-2.12 12.541 12.541 0 00-4.726-.005 14.088 14.088 0 00-4.481 1.714 12.535 12.535 0 00-5.771 7.598c-.412 1.6-.471 3.27-.172 4.895a9.362 9.362 0 002.151 4.499 14.813 14.813 0 008.895 4.541 8.895 8.895 0 004.951-1.102c.769-.407 1.513-.86 2.228-1.356a19.456 19.456 0 002.076-1.596 8.957 8.957 0 002.851-4.29 6.23 6.23 0 00.147-2.581 4.76 4.76 0 00-1.087-2.331 7.37 7.37 0 00-4.626-2.314 27.601 27.601 0 00-5.392-.073 19.62 19.62 0 00-5.327.95 6.772 6.772 0 00-2.313 1.298 4.247 4.247 0 00-1.307 2.264 7.758 7.758 0 00.878 5.205 9.25 9.25 0 003.682 3.81 7.498 7.498 0 005.156.706 6.455 6.455 0 002.405-1.044 4.621 4.621 0 001.637-1.961 2.921 2.921 0 00-.111-2.465 4.335 4.335 0 00-1.785-1.804 8.386 8.386 0 00-2.47-.827 5.298 5.298 0 00-2.54-.064 1.695 1.695 0 00-.928.738 1.16 1.16 0 00.008 1.115 2.731 2.731 0 002.072 1.196 3.649 3.649 0 002.395-.476 2.36 2.36 0 001.107-2.067 3.069 3.069 0 00-.95-2.209 3.068 3.068 0 00-2.254-.844 4.26 4.26 0 00-3.894 2.582 2.417 2.417 0 00.227 2.289 3.516 3.516 0 002.029 1.243 8.905 8.905 0 002.463.212 13.477 13.477 0 002.458-.33 12.827 12.827 0 004.474-1.975 2.79 2.79 0 001.292-1.867 2.121 2.121 0 00-1.098-1.884 6.298 6.298 0 00-2.257-.721 65.251 65.251 0 00-2.399-.371 41.16 41.16 0 00-4.787-.243 54.208 54.208 0 00-9.367.895c-1.51.233-2.95.793-4.221 1.64a3.816 3.816 0 00-1.403 1.67 1.738 1.738 0 00.461 1.929c.562.48 1.222.831 1.934 1.027.7.244 1.415.441 2.14.592a38.11 38.11 0 004.372.62c2.856.351 5.734.503 8.611.454a24.714 24.714 0 008.125-1.601 15.486 15.486 0 003.534-1.918 6.432 6.432 0 002.358-3.046 3.964 3.964 0 00-.414-3.617 5.009 5.009 0 00-3.151-1.845 9.614 9.614 0 00-3.661.017 15.995 15.995 0 00-3.48 1.041 29.55 29.55 0 00-6.015 3.611c-1.82 1.4-3.604 2.742-5.244 4.18a23.148 23.148 0 00-2.267 2.25 7.657 7.657 0 00-1.627 2.6 2.375 2.375 0 00-.041 1.437c.153.458.473.842.895 1.076a4.97 4.97 0 002.795.423c.938-.05 1.869-.191 2.779-.423a17.926 17.926 0 002.57-.865 28.93 28.93 0 004.538-2.366c1.385-.87 2.662-1.783 3.868-2.672a40.21 40.21 0 003.303-2.694 16.74 16.74 0 004.259-5.667 5.457 5.457 0 00.407-2.79 3.797 3.797 0 00-.973-2.105 2.725 2.725 0 00-1.621-.832 2.641 2.641 0 00-1.324.131 2.33 2.33 0 00-.917.598z" fill="#F5F5F5"/><path d="M178.564 27.141a3.499 3.499 0 011.415-1.05 4.259 4.259 0 012.152-.213 4.394 4.394 0 012.643 1.34 6.127 6.127 0 011.603 3.414 8.916 8.916 0 01-.643 4.52c-1.254 3.101-3.654 6.224-6.824 9.155a63.83 63.83 0 01-5.301 4.338c-1.929 1.411-3.985 2.902-6.195 4.311a46.847 46.847 0 01-7.291 3.853 28.48 28.48 0 01-4.139 1.357 23.828 23.828 0 01-4.485.696 8.275 8.275 0 01-4.633-.734 3.311 3.311 0 01-1.54-1.852 3.99 3.99 0 01.062-2.445 12.365 12.365 0 012.631-4.238 36.762 36.762 0 013.649-3.637c1.314-1.155 2.694-2.255 4.104-3.36 1.411-1.103 2.831-2.226 4.309-3.33a47.147 47.147 0 019.693-5.842 26.51 26.51 0 015.632-1.694 15.927 15.927 0 016.01-.031c1.011.199 1.986.548 2.893 1.035a6.782 6.782 0 012.346 2.035 6.666 6.666 0 01.715 6.087 10.708 10.708 0 01-3.882 5.044 25.715 25.715 0 01-5.739 3.12 40.02 40.02 0 01-13.131 2.592 99.306 99.306 0 01-13.859-.62 63.63 63.63 0 01-7.041-.995 29.414 29.414 0 01-3.46-.967 8.575 8.575 0 01-3.226-1.746 3.33 3.33 0 01-.922-1.597 3.103 3.103 0 01.137-1.873 6.531 6.531 0 012.367-2.84 17.11 17.11 0 016.903-2.722 87.781 87.781 0 0115.081-1.458c2.577-.02 5.152.11 7.713.391 1.289.134 2.581.353 3.864.548a10.44 10.44 0 013.783 1.203c.578.356 1.067.84 1.429 1.413.381.582.562 1.273.513 1.967a3.597 3.597 0 01-.772 1.875 7.003 7.003 0 01-1.461 1.396 20.991 20.991 0 01-7.303 3.238 21.97 21.97 0 01-4.013.534 14.148 14.148 0 01-4.1-.348 6.003 6.003 0 01-3.48-2.142 3.919 3.919 0 01-.709-1.972 4.888 4.888 0 01.326-2.069 7.192 7.192 0 016.608-4.395 5.322 5.322 0 015.106 3.213c.283.656.43 1.363.432 2.077a4.159 4.159 0 01-1.95 3.652 6.212 6.212 0 01-4.143.826 4.791 4.791 0 01-3.63-2.126 2.228 2.228 0 01-.003-2.17 3.093 3.093 0 011.694-1.388 5.224 5.224 0 012.158-.215c.72.056 1.422.175 2.124.3 1.423.239 2.799.703 4.075 1.376a7.283 7.283 0 013.033 3.063 5.44 5.44 0 01.571 2.114 5.077 5.077 0 01-.394 2.174 7.745 7.745 0 01-2.795 3.326c-.595.427-1.235.787-1.908 1.074-.674.292-1.376.515-2.095.666a12.432 12.432 0 01-8.547-1.223 15.138 15.138 0 01-6.064-6.274 14.528 14.528 0 01-1.477-4.176 10.793 10.793 0 01.034-4.442 7.277 7.277 0 012.209-3.878 11.42 11.42 0 013.875-2.16 31.789 31.789 0 018.65-1.543c2.91-.144 5.83-.318 8.729.107 2.9.425 5.74 1.611 7.66 3.847a8.124 8.124 0 011.845 3.938 10.199 10.199 0 01-.245 4.292c-.739 2.818-2.573 5.189-4.687 7.07a31.64 31.64 0 01-3.368 2.597 35.503 35.503 0 01-3.616 2.189 18.304 18.304 0 01-3.946 1.52c-1.372.335-2.79.446-4.198.327a21.819 21.819 0 01-7.938-2.405 21.678 21.678 0 01-6.597-4.947 15.443 15.443 0 01-3.524-7.32 19.091 19.091 0 011.678-11.849c.275-.607.647-1.168.967-1.755.32-.586.738-1.116 1.156-1.633a21.94 21.94 0 015.92-5.235 22.908 22.908 0 017.304-2.8 20.645 20.645 0 017.725.018 12.155 12.155 0 016.718 3.52 13.612 13.612 0 013.038 6.85 31.91 31.91 0 01-1.104 14.615 29.03 29.03 0 01-2.966 6.582 17.522 17.522 0 01-4.823 5.217 12.672 12.672 0 01-6.601 2.248c-1.17.036-2.337-.13-3.45-.492a12.494 12.494 0 01-3.076-1.523 38.675 38.675 0 01-5.123-4.43 22.012 22.012 0 01-4.176-5.157 9.98 9.98 0 01-1.05-3.127 9.378 9.378 0 01.145-3.264 16.93 16.93 0 012.67-5.808 19.983 19.983 0 019.544-7.717 14.963 14.963 0 0111.641.415 15.565 15.565 0 014.581 3.453 20.12 20.12 0 013.14 4.626 21.856 21.856 0 012.336 10.413 16.62 16.62 0 01-.937 5.062 13.427 13.427 0 01-2.538 4.313c-2.195 2.48-5.186 3.955-8.105 4.874a26.476 26.476 0 01-8.789 1.252 14.296 14.296 0 01-4.134-.808 12.96 12.96 0 01-3.549-1.921 15.165 15.165 0 01-4.622-5.9 15.502 15.502 0 01-1.324-6.678 18.636 18.636 0 011.124-6.002 20.699 20.699 0 012.461-4.781 24.262 24.262 0 015.971-5.893 28.51 28.51 0 014.487-2.58 21.941 21.941 0 011.622-.692l-.403.18c-.276.113-.679.294-1.204.54a29.322 29.322 0 00-4.466 2.604 24.23 24.23 0 00-5.928 5.894 20.38 20.38 0 00-2.446 4.749 18.531 18.531 0 00-1.104 5.963 15.41 15.41 0 001.324 6.618 14.999 14.999 0 004.592 5.835 13.322 13.322 0 007.592 2.672c2.959.075 5.91-.353 8.726-1.265 2.902-.898 5.865-2.413 8.018-4.828a13.39 13.39 0 002.496-4.248c.563-1.613.873-3.304.918-5.011a21.747 21.747 0 00-2.321-10.312 20.215 20.215 0 00-3.116-4.567 15.362 15.362 0 00-4.514-3.399c-3.449-1.717-7.696-1.758-11.462-.396A19.74 19.74 0 00149.212 36a16.724 16.724 0 00-2.627 5.749 8.915 8.915 0 00-.135 3.178 9.516 9.516 0 001.023 3.044 21.809 21.809 0 004.168 5.073 37.655 37.655 0 005.081 4.372 10.571 10.571 0 006.376 1.988 12.361 12.361 0 006.453-2.203 17.298 17.298 0 004.752-5.138 29.285 29.285 0 002.929-6.522 31.666 31.666 0 001.087-14.48 13.342 13.342 0 00-2.976-6.709 11.867 11.867 0 00-6.556-3.427 20.406 20.406 0 00-7.666.013 22.623 22.623 0 00-7.205 2.76 21.754 21.754 0 00-5.835 5.165c-.413.51-.76 1.07-1.14 1.607-.38.538-.682 1.13-.952 1.73a18.834 18.834 0 00-1.631 11.642 15.15 15.15 0 003.455 7.18 21.464 21.464 0 006.493 4.878 21.558 21.558 0 007.824 2.43c1.375.113 2.76.004 4.101-.323a17.844 17.844 0 003.923-1.5 34.834 34.834 0 003.586-2.186 32.01 32.01 0 003.334-2.576c2.086-1.854 3.858-4.176 4.587-6.913.374-1.36.457-2.783.243-4.176a7.752 7.752 0 00-1.76-3.77 10.21 10.21 0 00-3.373-2.536 14.147 14.147 0 00-4.094-1.209 45.177 45.177 0 00-8.661-.101 31.274 31.274 0 00-8.56 1.528 11.054 11.054 0 00-3.772 2.095 6.965 6.965 0 00-2.118 3.686 10.535 10.535 0 00-.029 4.313 14.217 14.217 0 001.444 4.088 14.81 14.81 0 005.939 6.116 12.088 12.088 0 008.309 1.234 10.613 10.613 0 002.036-.654 9.283 9.283 0 001.856-1.038 7.399 7.399 0 002.681-3.187 4.763 4.763 0 00-.181-4.024 6.98 6.98 0 00-2.899-2.931 13.316 13.316 0 00-3.99-1.329c-1.373-.235-2.82-.542-4.119-.102a2.798 2.798 0 00-1.533 1.225 1.94 1.94 0 00-.241.937c.001.327.085.649.244.935a3.592 3.592 0 001.455 1.361 5.37 5.37 0 001.946.605 5.888 5.888 0 003.928-.775 3.83 3.83 0 001.812-3.387 4.985 4.985 0 00-1.554-3.595 5.007 5.007 0 00-3.672-1.372 6.902 6.902 0 00-6.298 4.193 4.495 4.495 0 00-.308 1.933 3.64 3.64 0 00.657 1.819 5.678 5.678 0 003.303 2.024c1.293.299 2.622.413 3.947.34a21.86 21.86 0 003.953-.522 20.68 20.68 0 007.198-3.191 6.817 6.817 0 001.397-1.359c.401-.496.646-1.1.706-1.735a3.51 3.51 0 00-1.796-3.083 10.183 10.183 0 00-3.65-1.161 59.028 59.028 0 00-3.846-.55 66.535 66.535 0 00-7.683-.388 87.689 87.689 0 00-15.021 1.44 16.823 16.823 0 00-6.792 2.675 6.292 6.292 0 00-2.276 2.714 2.834 2.834 0 00-.123 1.707c.144.567.452 1.08.886 1.473a8.234 8.234 0 003.098 1.685c1.128.388 2.279.705 3.446.95 2.316.46 4.656.792 7.009.992a98.2 98.2 0 0013.824.63 39.91 39.91 0 0013.042-2.565 25.39 25.39 0 005.682-3.084 10.386 10.386 0 003.784-4.919 6.414 6.414 0 00-.675-5.871 6.574 6.574 0 00-2.266-1.97 10.324 10.324 0 00-2.83-1.017 15.652 15.652 0 00-5.919.034 26.101 26.101 0 00-5.584 1.672 47.128 47.128 0 00-9.655 5.801c-1.472 1.098-2.899 2.221-4.309 3.325-1.411 1.104-2.792 2.198-4.094 3.346a35.22 35.22 0 00-3.639 3.618 12.203 12.203 0 00-2.638 4.165 3.89 3.89 0 00-.06 2.341 3.07 3.07 0 001.456 1.745 8.098 8.098 0 004.513.691 23.057 23.057 0 004.455-.687 28.49 28.49 0 004.14-1.344 46.996 46.996 0 007.275-3.773c2.223-1.398 4.269-2.863 6.198-4.275a64.412 64.412 0 005.297-4.32c3.165-2.918 5.559-6.04 6.818-9.098a8.836 8.836 0 00.653-4.479 6.055 6.055 0 00-1.558-3.387A4.446 4.446 0 00180 26.175c-.551.2-1.044.532-1.436.966zM75.87 108.709s-.115.011-.336-.003l-.994-.054a14.498 14.498 0 01-3.732-.69 6.9 6.9 0 01-2.392-1.396 5.14 5.14 0 01-1.654-2.823 3.515 3.515 0 01.158-1.845 3.91 3.91 0 011.173-1.586 3.121 3.121 0 011.969-.708 2.601 2.601 0 011.934 1.027 3.74 3.74 0 01.718 2.191 5.759 5.759 0 01-.449 2.361 5 5 0 01-.625 1.081c-.246.345-.52.67-.819.972a8.926 8.926 0 01-2.13 1.486 9.156 9.156 0 01-2.57.792 8.511 8.511 0 01-2.772-.005 8.014 8.014 0 01-2.696-.951 7.057 7.057 0 01-2.174-1.973 8.905 8.905 0 01-1.665-5.754 8.294 8.294 0 01.777-3.047 7.42 7.42 0 01.847-1.365c.32-.445.724-.825 1.19-1.118a2.242 2.242 0 011.642-.364c.29.067.56.196.795.378.221.197.394.443.505.718.19.54.248 1.117.167 1.684a7.103 7.103 0 01-.393 1.63 39.13 39.13 0 01-1.402 3.03 14.6 14.6 0 01-1.885 2.834 8.415 8.415 0 01-2.704 2.098 5.753 5.753 0 01-3.33.527 6.244 6.244 0 01-3.014-1.396 8.661 8.661 0 01-2.083-2.524 18.264 18.264 0 01-1.731-6.053 15.176 15.176 0 01-.25-3.054 4.318 4.318 0 011.038-2.89 2.723 2.723 0 011.324-.741 3.04 3.04 0 011.492.022 3.929 3.929 0 012.306 1.697c.478.816.718 1.749.695 2.693a8.23 8.23 0 01-.45 2.649c-.27.823-.634 1.612-1.085 2.351-.44.708-.95 1.371-1.519 1.981a12.583 12.583 0 01-3.8 2.737 11.28 11.28 0 01-4.108 1.049 10.934 10.934 0 01-3.76-.431 12.22 12.22 0 01-5.189-3.056 11.305 11.305 0 01-2.221-3.12 7.63 7.63 0 01-.39-.919 8.314 8.314 0 01-.112-.318s.16.435.56 1.206a11.526 11.526 0 002.255 3.032 12.246 12.246 0 005.138 2.976c1.201.346 2.454.481 3.702.4a11.276 11.276 0 004.03-1.047 12.15 12.15 0 005.185-4.638c.437-.725.788-1.499 1.047-2.305.287-.824.434-1.69.435-2.561a4.848 4.848 0 00-.663-2.55 3.644 3.644 0 00-2.14-1.567 2.566 2.566 0 00-2.535.66 4.026 4.026 0 00-.927 2.647 14.539 14.539 0 00.252 3.024 17.991 17.991 0 001.7 5.928 8.251 8.251 0 002.024 2.42 5.883 5.883 0 002.862 1.331 5.42 5.42 0 003.143-.502 8.25 8.25 0 002.61-1.997c1.462-1.688 2.371-3.772 3.223-5.765.419-.97.503-2.05.238-3.073a1.76 1.76 0 00-.417-.568 1.67 1.67 0 00-.642-.314 1.94 1.94 0 00-1.415.318 4.046 4.046 0 00-1.117 1.05c-.315.403-.587.84-.81 1.3a7.884 7.884 0 00-.746 2.934 8.593 8.593 0 001.591 5.566 7.075 7.075 0 002.058 1.879 7.115 7.115 0 002.625.942 8.507 8.507 0 007.25-2.179 6.597 6.597 0 001.397-1.968 5.516 5.516 0 00.407-2.29 3.498 3.498 0 00-.657-2.063 2.436 2.436 0 00-1.782-.92 2.9 2.9 0 00-1.834.652 3.722 3.722 0 00-1.138 1.516 3.276 3.276 0 00-.162 1.741 5.017 5.017 0 001.586 2.745 6.848 6.848 0 002.324 1.39c1.208.404 2.464.65 3.735.732l.992.091.32.023zm91.241 105.666l-37.122 3.693a2.664 2.664 0 00-2.389 2.914l.021.211a2.666 2.666 0 002.917 2.387l37.121-3.693a2.665 2.665 0 002.389-2.915l-.021-.211a2.663 2.663 0 00-2.916-2.386zm-28.724 11.755l22.867-2.275s-2.438 6.376-11.3 7.258c-9.242.919-11.567-4.983-11.567-4.983z" fill="#495E4C"/><path d="M147.872 95.54a8.116 8.116 0 00-12.5-.39 8.095 8.095 0 001.98 12.335 8.116 8.116 0 008.97-.503l.094-.078-3.238 22.923 18.036 2.535-.082-.093a8.057 8.057 0 01-.462-8.897 8.07 8.07 0 0112.263-1.958 8.055 8.055 0 01-.348 12.401l-.158.123 19.385 2.731c3.187-9.53 4.34-21.994-2.073-35.471a49.988 49.988 0 00-14.712-18.46 50.048 50.048 0 00-21.551-9.658l-2.244-.315-3.237 22.937-.123-.162z" fill="#E9E9E9"/><path d="M147.873 95.54c.045.05.087.102.127.156.104-.907 1.247-9.176 3.168-22.94l-.007-.071.072-.007 1.846.257c.629.078 1.26.224 1.903.35 1.281.284 2.595.618 3.927 1.03a50.197 50.197 0 018.222 3.312 53.166 53.166 0 018.268 5.253 53.281 53.281 0 017.589 7.44c.59.707 1.117 1.474 1.676 2.214l.845 1.128c.263.39.507.798.765 1.199l1.533 2.432 1.359 2.58a48.244 48.244 0 014.19 11.283 45.744 45.744 0 011.069 12.602c-.038 1.08-.173 2.161-.279 3.248-.105 1.086-.304 2.163-.526 3.242a51.237 51.237 0 01-1.695 6.438l-.028.1-.101.01-13.532-1.902-5.856-.804-.3-.043.244-.184a7.95 7.95 0 002.821-3.942 7.842 7.842 0 00.372-2.403 7.504 7.504 0 00-.354-2.389 8.528 8.528 0 00-.437-1.125 9.005 9.005 0 00-.618-1.035 7.599 7.599 0 00-1.629-1.738 7.971 7.971 0 00-9.767-.028 7.963 7.963 0 00-2.22 2.675 7.626 7.626 0 00-.728 2.143 7.362 7.362 0 00-.112 2.236 7.944 7.944 0 001.636 4.061l.179.234-.285-.039-18.032-2.546-.109-.018.014-.108c1.192-8.362 2.286-16.049 3.253-22.919l.148.082a8.187 8.187 0 01-3.96 1.655 8.007 8.007 0 01-4.038-.534 8.134 8.134 0 01-3.948-11.73 8.324 8.324 0 014.157-3.439 8.91 8.91 0 012.276-.483 9.152 9.152 0 012.042.127 7.975 7.975 0 014.448 2.466c.154.162.297.334.425.516l-.109-.125a8.318 8.318 0 00-1.836-1.626A8.129 8.129 0 00143 92.669a9.085 9.085 0 00-2.02-.11 8.732 8.732 0 00-2.252.486 8.211 8.211 0 00-4.087 3.413 7.993 7.993 0 003.903 11.525 7.876 7.876 0 007.826-1.108l.18-.139-.031.221c-.966 6.884-2.043 14.541-3.219 22.925l-.089-.122 18.029 2.527-.102.194a8.15 8.15 0 01-1.693-4.195 7.463 7.463 0 01.11-2.305 7.781 7.781 0 01.751-2.208 8.238 8.238 0 013.226-3.38 8.216 8.216 0 019.128.619 7.989 7.989 0 011.686 1.772c.235.341.447.697.635 1.066.178.375.328.762.45 1.158a7.72 7.72 0 01.372 2.465 8.15 8.15 0 01-3.302 6.569l-.057-.227 5.858.823 13.527 1.908-.138.081a51.544 51.544 0 001.688-6.408c.223-1.074.368-2.151.523-3.228.155-1.077.242-2.153.276-3.223a45.23 45.23 0 00-1.053-12.536 48.006 48.006 0 00-4.155-11.277l-1.353-2.57c-.508-.813-1.02-1.62-1.522-2.424-.253-.397-.497-.804-.759-1.19l-.84-1.124c-.559-.744-1.091-1.506-1.676-2.209a48.756 48.756 0 00-15.765-12.648 50.285 50.285 0 00-8.183-3.317 48.391 48.391 0 00-3.914-1.036c-.643-.125-1.264-.272-1.894-.355l-1.839-.243.081-.062c-1.959 13.772-3.148 22.021-3.306 22.924l-.127-.162z" fill="#495E4C"/><path d="M170.179 151.986l.121-.153a7.943 7.943 0 00-2.529-11.993 7.955 7.955 0 00-8.764.921 7.942 7.942 0 00.02 12.257l.094.068-18.792 1.869 2.097 21.073.068-.099a7.86 7.86 0 015.298-2.849 7.932 7.932 0 018.563 6.269 7.925 7.925 0 01-5.346 9.167 7.946 7.946 0 01-7.331-1.32l-.154-.125 2.404 24.16 21.19-2.108s.159-8.157.511-14.379c.351-6.222 12.829-20.085 16.247-25.686 1.377-2.256 4.609-9.526 5.394-18.962l-19.091 1.89z" fill="#E9E9E9"/><path d="M179.065 175.641a2.518 2.518 0 00-2.998-1.156c-.745.268-1.367.897-2.178.891a2.216 2.216 0 01-1.718-1.172c-.391-.611-.64-1.309-1.085-1.88a1.89 1.89 0 00-1.874-.832c-.912.246-1.381 1.441-2.321 1.554a1.72 1.72 0 01-1.44-.719c-.36-.45-.603-.939-.97-1.359a3.383 3.383 0 00-4.717-.185c-.858.546-1.668 2.154-1.645 3.708.074 4.696-1.659 5.712-1.659 5.712a7.921 7.921 0 01-4.075 7.736 7.937 7.937 0 01-8.72-.717l-.153-.125 2.403 24.159 21.19-2.108s.159-8.157.511-14.379l-.049-.15c.008-.065.013-.13.015-.195.188-4.446 11.483-18.783 11.483-18.783z" fill="#5CCD6A"/><path d="M170.179 151.985l19.102-1.968.082-.008.008.082a54.46 54.46 0 01-2.489 12.258 37.074 37.074 0 01-2.879 6.716c-1.353 2.166-2.974 4.257-4.639 6.449-1.665 2.193-3.382 4.448-5.094 6.81a65.84 65.84 0 00-4.858 7.616 14.467 14.467 0 00-1.599 4.368c-.14 1.57-.167 3.193-.258 4.816a494.545 494.545 0 00-.303 9.98l.01.106-21.449 2.134-2.444-24.563.233.195a7.77 7.77 0 006.796 1.564 7.312 7.312 0 002.196-.898c.34-.203.664-.429.972-.678.298-.258.58-.534.844-.826a7.787 7.787 0 00-4.026-12.759 7.533 7.533 0 00-2.209-.202 7.254 7.254 0 00-2.162.419 7.773 7.773 0 00-3.493 2.5l-.186.232-.028-.288-2.097-21.073-.01-.106.105-.01 18.792-1.87-.042.165a7.969 7.969 0 01-2.509-3.412 7.852 7.852 0 01-.397-3.994 7.976 7.976 0 017.355-6.799 7.99 7.99 0 015.118 1.42 7.975 7.975 0 013.093 4.315c.183.647.29 1.313.319 1.985a7.843 7.843 0 01-1.444 4.804c-.123.182-.232.309-.296.393l-.109.127.099-.131c.063-.094.162-.22.285-.402a7.869 7.869 0 001.387-4.788 6.307 6.307 0 00-.095-.96 7.692 7.692 0 00-1.183-3.063 7.86 7.86 0 00-14.361 3.131 7.749 7.749 0 00.389 3.913 7.847 7.847 0 002.457 3.324l.174.142-.221.022-18.791 1.87.095-.116 2.096 21.072-.209-.056a8 8 0 013.601-2.589 8.141 8.141 0 014.506-.225 8.042 8.042 0 016.188 7.69 8.03 8.03 0 01-.713 3.441 7.79 7.79 0 01-1.317 2.027 9.788 9.788 0 01-.886.854 8.918 8.918 0 01-1.003.701c-.7.429-1.466.741-2.267.924a7.948 7.948 0 01-2.454.21 8.047 8.047 0 01-4.55-1.821l.208-.113.727 7.312 1.676 16.848-.132-.108 21.19-2.109-.11.118c.079-3.405.184-6.735.317-9.991.075-1.632.12-3.231.262-4.831a14.698 14.698 0 011.625-4.443 66.594 66.594 0 014.885-7.638c1.704-2.381 3.446-4.639 5.108-6.812 1.662-2.172 3.292-4.279 4.636-6.425a36.92 36.92 0 002.88-6.672 54.759 54.759 0 002.516-12.217l.071.07-19.091 1.841z" fill="#495E4C"/><path d="M157.573 168.464a1.839 1.839 0 11-3.66.364 1.839 1.839 0 013.66-.364z" fill="#5CCD6A"/><path d="M150.078 188.644c-1.849.339-3.991-.209-5.031-1.788l-1.379.777c.095.96 1.48 2.728 2.395 3.001a8.373 8.373 0 005.636-.134 5.854 5.854 0 003.359-4.587c-1.529 1.364-3.131 2.392-4.98 2.731z" fill="#000" opacity=".2"/><path d="M124.245 103.971a7.915 7.915 0 015.874.749l.161.105-5.749-21.984-2.148.563a49.096 49.096 0 00-19.912 11.853 49.04 49.04 0 00-12.248 19.658c-4.722 13.857-2.186 25.887 2.006 34.799l2.29-.601 17.834-4.659-.099.174a7.942 7.942 0 004.371 11.45 7.963 7.963 0 008.513-2.275 7.945 7.945 0 001.191-8.723 7.944 7.944 0 00-3.121-3.379l-.107-.053.496-.131 15.273-4.012-5.748-21.97-.057.107a7.84 7.84 0 01-4.787 3.643 7.942 7.942 0 01-5.804-1.01 7.926 7.926 0 01-2.784-10.57 7.939 7.939 0 014.555-3.734z" fill="#5CCD6A"/><path d="M124.245 103.971l-.517.172c-.212.068-.42.151-.621.246-.121.056-.252.108-.39.18l-.432.242a7.827 7.827 0 00-1.986 1.652 7.988 7.988 0 00-1.633 3.101 8.316 8.316 0 00-.212.991c-.046.358-.067.72-.062 1.082a7.46 7.46 0 00.349 2.293 7.843 7.843 0 008.897 5.418 7.67 7.67 0 003.057-1.274 7.81 7.81 0 002.34-2.584l.103-.185.054.203c1.697 6.469 3.635 13.855 5.768 21.968l.01.101-.101.01-15.743 4.121.023-.21a7.968 7.968 0 013.083 3.087c.369.655.635 1.363.787 2.099.172.74.235 1.502.186 2.26a8.2 8.2 0 01-.471 2.244 8.46 8.46 0 01-1.102 2.049 8.086 8.086 0 01-3.738 2.772 7.958 7.958 0 01-4.74.219 8.105 8.105 0 01-4.088-2.551 7.162 7.162 0 01-1.3-2.096 7.75 7.75 0 01-.613-2.402 8.023 8.023 0 011.087-4.836l.139.185-13.014 3.399-7.095 1.855-.106.011-.044-.098a48.46 48.46 0 01-3.84-12.011 44.451 44.451 0 01-.672-6.12c-.014-1.017-.056-2.031-.001-3.04.02-.487.016-1.006.059-1.504l.127-1.497a45.893 45.893 0 012.591-11.376l1.018-2.647.255-.655c.09-.218.201-.423.296-.636l.608-1.258c.196-.417.402-.835.6-1.248l.296-.621.344-.592 1.372-2.357c.214-.394.483-.756.733-1.125l.76-1.098.75-1.093c.256-.356.548-.685.82-1.027.55-.676 1.078-1.364 1.64-2.01l1.755-1.868a51.21 51.21 0 017.454-6.255 52.477 52.477 0 017.819-4.346 41.965 41.965 0 017.64-2.622l.077-.008.008.077c2.584 9.969 4.52 17.428 5.707 21.994l.009.091-.065-.018a7.958 7.958 0 00-5.657-.955l-.371.076s.118-.036.369-.095a7.225 7.225 0 011.143-.167 7.908 7.908 0 014.553 1.074l-.059.045a63286.85 63286.85 0 00-5.792-21.97l.098.058a41.296 41.296 0 00-7.601 2.627 49.055 49.055 0 00-15.216 10.586l-1.732 1.86c-.562.647-1.085 1.335-1.635 2.005-.267.342-.555.671-.808 1.05-.254.379-.496.724-.746 1.088l-.755 1.093c-.264.362-.509.738-.733 1.125l-1.359 2.342-.346.568-.298.616-.594 1.247-.599 1.252c-.1.209-.206.418-.296.631l-.25.655c-.34.873-.676 1.75-1.015 2.632a45.805 45.805 0 00-2.572 11.326c-.039.489-.082.978-.126 1.467-.043.489-.043.974-.06 1.499-.057.976-.013 2.009.005 3.021a43.96 43.96 0 00.669 6.086 48.234 48.234 0 003.824 11.95l-.142-.068 7.095-1.855 13.019-3.4.293-.077-.154.257a7.712 7.712 0 00-.461 7.019c.154.369.336.727.543 1.071.215.337.455.659.717.961a7.88 7.88 0 003.964 2.476c.758.194 1.539.28 2.321.254a8.455 8.455 0 002.275-.454 7.922 7.922 0 002.023-1.079 7.869 7.869 0 002.677-3.588 8.24 8.24 0 00.457-2.179 7.628 7.628 0 00-.179-2.193 7.33 7.33 0 00-.761-2.038 7.822 7.822 0 00-2.983-3.005l-.252-.14.275-.071 15.771-4.076-.074.129c-2.136-8.152-4.045-15.536-5.727-22.002l.151.014a7.985 7.985 0 01-2.397 2.639 7.769 7.769 0 01-3.124 1.281 7.987 7.987 0 01-5.57-1.056 7.97 7.97 0 01-3.461-4.485 7.618 7.618 0 01-.343-2.327 6.99 6.99 0 01.276-2.108 7.872 7.872 0 013.7-4.766l.437-.242.395-.17c.203-.095.412-.173.628-.233.352-.117.535-.135.535-.135z" fill="#495E4C"/><path d="M145.598 211.326l-19.161 1.906s-1.764-7.966-3.334-13.996c-1.571-6.031-16.536-17.164-20.99-21.986-1.795-1.94-6.396-8.426-9.025-17.528l18.1-1.8-.125.158a7.944 7.944 0 002.529 12.001 7.964 7.964 0 0011.316-4.758 7.945 7.945 0 00-2.567-8.428l-.095-.073 17.627-1.623 2.097 21.072s1.394-2.665 5.369-2.958c3.975-.294 7.25 2.227 8.172 5.005.922 2.779.922 8.195-4.279 10.172-5.2 1.977-8.256-1.52-8.256-1.52l2.494 24.48" fill="#fff"/><path d="M145.327 210.267c.067-.007.152.256.185.588.033.331.007.605-.065.612-.073.007-.152-.256-.185-.588-.033-.331-.007-.605.065-.612zm-.503-4.911c.161.386.247.799.252 1.217.083.409.082.832-.003 1.241a3.196 3.196 0 01-.247-1.217 3.142 3.142 0 01-.002-1.241zm-.498-4.91c.161.385.245.799.247 1.217.084.409.084.831.002 1.241a3.141 3.141 0 01-.252-1.217 3.087 3.087 0 01.003-1.241zm-.502-4.91c.164.384.249.798.252 1.216.083.41.082.832-.003 1.242a3.2 3.2 0 01-.247-1.217 3.124 3.124 0 01-.002-1.241zm-.499-4.911c.161.385.245.799.247 1.217.083.409.084.831.002 1.241a3.243 3.243 0 01-.252-1.217 3.087 3.087 0 01.003-1.241zm.544-2.871c.003.029-.148-.024-.335-.141a3.212 3.212 0 01-.318-.226l-.175-.152-.092-.088-.043-.044-.002-.024.219-.095c.082.401.08.814-.006 1.213a3.025 3.025 0 01-.296-1.221l.218-.095.003.024.043.044.081.084.156.155.274.263c.197.175.27.279.273.303zm4.434 1.338a3.23 3.23 0 01-2.326-.307c.392-.012.785.029 1.167.121.393.012.782.074 1.159.186zm4.454-1.379c.044.053-.372.405-.981.679-.352.198-.75.303-1.154.304-.008-.077.459-.269 1.049-.531.34-.199.705-.351 1.086-.452zm2.792-3.687c0 .408-.117.806-.337 1.149-.301.592-.684.985-.732.941-.048-.044.222-.507.506-1.059.285-.552.493-1.053.563-1.031zm.213-4.641c.196.352.294.751.284 1.154a2.23 2.23 0 01-.1 1.189 4.083 4.083 0 01-.15-1.169 3.95 3.95 0 01-.034-1.174zm-2.307-4.023c.043-.053.51.25.92.762.293.281.498.641.589 1.037-.06.035-.364-.391-.778-.892-.414-.502-.779-.854-.731-.907zm-4.22-1.966a2.175 2.175 0 011.185.144c.635.189 1.095.477 1.063.539a4.386 4.386 0 01-1.137-.299 4.515 4.515 0 01-1.111-.384zm-4.621.581a2.118 2.118 0 011.08-.52 2.215 2.215 0 011.187-.118 4.318 4.318 0 01-1.126.345c-.367.142-.75.24-1.141.293zm-2.789 1.087c.163.375.246.78.245 1.188l-.238-.049-.003-.024.034-.056.067-.104.142-.184c.08-.104.17-.2.267-.288.16-.152.279-.222.305-.2.027.021-.049.14-.172.317-.123.177-.153.219-.217.308l-.122.187-.058.098-.029.051.002.024-.237-.044a3.058 3.058 0 01.014-1.224zm-.531-5.334c.254.864.344 1.768.265 2.665a7.207 7.207 0 01-.265-2.665zm-.531-5.339a7.2 7.2 0 01.265 2.664 7.202 7.202 0 01-.265-2.664zm-.53-5.33c.254.864.344 1.768.265 2.665a7.207 7.207 0 01-.265-2.665zm-1.587-3.759a3.054 3.054 0 011.19-.235l.137.113.023.225.022.226.038.384c-.002.219-.022.356-.056.36-.034.003-.081-.128-.122-.342a1.76 1.76 0 00-.067-.381l-.044-.452.137.113a2.948 2.948 0 01-1.258-.011zm-4.348.403a2.397 2.397 0 011.074-.228c.364-.073.74-.064 1.1.026-.338.153-.705.23-1.075.224a2.562 2.562 0 01-1.099-.022zm-4.352.399a4.93 4.93 0 012.177-.216 2.419 2.419 0 01-1.079.228 2.511 2.511 0 01-1.098-.012zm-4.348.403a2.405 2.405 0 011.075-.228 2.401 2.401 0 011.099.027 2.516 2.516 0 01-1.075.223 2.547 2.547 0 01-1.099-.022zm-2.489 1.126c-.029.003-.146-.048-.319-.181a4.546 4.546 0 01-.296-.238l-.165-.148-.085-.079-.047-.034c-.053.199.079-.279.064-.229a3.031 3.031 0 011.215.015 2.962 2.962 0 01-1.19.234c.005.048.118-.428.06-.224l.003.024.047.039.091.083.162.163c.103.107.195.204.266.289.141.146.22.259.194.286zm2.008 4.139a4.563 4.563 0 01-.382-1.101 4.297 4.297 0 01-.31-1.123c.28.291.471.655.551 1.051.159.369.208.777.141 1.173zm-.657 4.561c.169-.76.393-1.507.671-2.234.049.8-.189 1.592-.671 2.234zm-3.087 3.42c-.035-.064.386-.368.894-.772.508-.405.866-.761.9-.711.034.05-.25.51-.759.905a2.13 2.13 0 01-1.035.578zm-4.47 1.128c.37-.13.763-.184 1.154-.158a2.727 2.727 0 011.168-.073 2.912 2.912 0 01-1.138.322c-.397.054-.8.023-1.184-.091zm-4.341-1.542c.043-.057.506.212 1.022.515.515.302 1.022.514 1.028.581a2.144 2.144 0 01-1.129-.373c-.573-.297-.964-.67-.921-.723zm-2.751-3.692c.24.306.437.644.586 1.003.217.324.391.676.516 1.045-.054.044-.427-.345-.738-.926a2.085 2.085 0 01-.364-1.122zm-.23-4.602c.029.389.004.779-.073 1.161.003.39-.048.779-.152 1.155a3.302 3.302 0 01.225-2.316zm.38-3.011c.376-.16.78-.243 1.189-.244.048.092-.108-.203.113.207l-.039.047-.074.09-.132.183-.238.295c-.139.164-.246.257-.272.241-.026-.017.02-.148.127-.338a8.91 8.91 0 01.194-.339l.127-.192a.695.695 0 01.072-.099l.039-.048c.221.41.06.115.108.203-.401.082-.814.08-1.214-.006zm-4.166.415c-.007-.068.257-.152.588-.185.332-.033.607-.002.614.065.006.067-.257.152-.589.185-.331.033-.606.007-.613-.065z" fill="#495E4C"/><path d="M145.66 211.319l-.346.035-1.004.099-3.845.383-13.951 1.49-.087.008-.008-.086a452.464 452.464 0 00-3.11-13.01c-.426-2.431-2.052-4.475-3.73-6.417a76.794 76.794 0 00-5.642-5.684c-2.625-2.43-5.269-4.708-7.777-6.941-1.247-1.122-2.474-2.227-3.607-3.375a16.995 16.995 0 01-1.554-1.814 37 37 0 01-1.348-1.892 51.507 51.507 0 01-4.094-7.535c-1-2.22-1.843-4.506-2.525-6.843l-.01-.101.1-.01 9.049-.861 2.406-.215.629-.063.212-.021-.212.021-.629.063-2.403.239-9.041.938.071-.109a53.524 53.524 0 002.51 6.791 51.566 51.566 0 004.105 7.49c.421.632.863 1.267 1.342 1.884.472.63.988 1.226 1.542 1.786 1.122 1.134 2.348 2.234 3.599 3.351 2.509 2.233 5.157 4.506 7.782 6.945a75.715 75.715 0 015.661 5.769 27.205 27.205 0 012.353 3.068c.343.534.64 1.097.886 1.682.223.581.402 1.177.537 1.784 1.198 4.73 2.204 9.134 3.073 13.033l-.11-.081 13.97-1.346 3.848-.354 1.004-.1c.238.001.354-.001.354-.001z" fill="#495E4C"/><path d="M144.397 211.446c-.007-.072.257-.152.588-.185.332-.033.606-.007.613.065.008.072-.256.152-.588.185-.332.033-.606.002-.613-.065zm-4.787.476a5.82 5.82 0 012.403-.239 5.836 5.836 0 01-2.403.239zm-4.793.477a5.806 5.806 0 012.403-.239 5.836 5.836 0 01-2.403.239zm-4.786.476a5.82 5.82 0 012.403-.239 5.84 5.84 0 01-2.403.239zm-3.862-.819c.034-.003.095.117.168.323.011.11.072.231.11.372.039.142.04.151.056.218l.012.12.006.062.005.053c-.062-.042.132.103-.136-.098a2.956 2.956 0 011.214.005c-.376.161-.78.244-1.189.245-.025-.255-.169-.042-.136-.103l-.012-.115-.012-.12-.022-.221a136.2 136.2 0 00-.038-.384c-.06-.213-.059-.349-.026-.357zm-1.127-4.887c.355.766.548 1.597.568 2.441a6.376 6.376 0 01-.568-2.441zm-1.173-4.863c.219.363.361.766.419 1.185.139.401.199.825.178 1.248a6.367 6.367 0 01-.597-2.433zm-1.484-4.769c.306.303.527.681.643 1.095.176.39.255.816.23 1.242-.081.009-.236-.524-.464-1.156a4.934 4.934 0 01-.409-1.181zm-2.973-4.019c.351.235.654.534.894.881.3.298.537.654.696 1.046-.054.044-.453-.352-.894-.881a3.167 3.167 0 01-.696-1.046zm-3.479-3.606c.049-.048.487.311.978.8.327.27.599.6.8.973-.053.049-.487-.311-.977-.795a3.222 3.222 0 01-.801-.978zm-3.668-3.411c.044-.048.513.283 1.007.753.339.255.625.574.841.94-.048.053-.514-.284-1.012-.753-.498-.469-.899-.885-.836-.94zm-3.748-3.328c.043-.053.513.274 1.044.735.344.249.635.563.859.923-.049.049-.513-.278-1.044-.735-.531-.456-.902-.87-.859-.923zm-3.744-3.332c.043-.053.513.279 1.016.743.338.254.626.569.849.929-.048.053-.513-.279-1.02-.742-.507-.464-.874-.883-.845-.93zm-2.67-2.59c.049-.048.278.108.52.346s.374.448.328.52c-.046.073-.278-.108-.52-.346s-.372-.472-.328-.52z" fill="#495E4C"/></g><defs><clipPath id="clip0_86_2007"><path fill="#fff" transform="rotate(-5.682 278.315 13.81)" d="M0 0h279v246H0z"/></clipPath></defs></svg>