<svg width="49" height="60" fill="none" xmlns="http://www.w3.org/2000/svg"><path d="M33.879 39.447c-2.739 2.75-2.397 8.3-2.397 8.3h-13.89s.294-5.55-2.395-8.3c-2.984-2.653-4.891-6.484-4.891-10.758 0-7.859 6.358-14.245 14.183-14.245S38.672 20.83 38.672 28.69c0 4.274-1.859 8.105-4.793 10.758z" fill="#C3FF17"/><path d="M31.874 52.12c0 .736-.587 1.326-1.32 1.326h-12.08c-.734 0-1.32-.59-1.32-1.327 0-.736.586-1.326 1.32-1.326h12.03c.734 0 1.37.59 1.37 1.326zm-1.81 5.5c0 .738-.587 1.327-1.32 1.327h-8.461c-.734 0-1.32-.59-1.32-1.326 0-.737.586-1.326 1.32-1.326h8.46c.734 0 1.321.589 1.321 1.326z" fill="#D9FADD"/><path d="M34.613 39.938a15.221 15.221 0 004.989-11.249c0-8.35-6.798-15.178-15.112-15.178-8.315 0-15.113 6.828-15.113 15.178 0 4.372 1.908 8.547 5.136 11.396 2.396 2.407 2.152 7.515 2.152 7.565 0 .245.097.49.244.687.196.197.44.295.685.295h13.84a.964.964 0 00.685-.295c.196-.196.244-.442.244-.688 0-.049-.244-5.157 2.152-7.564.05-.05.098-.098.098-.147zm-1.37-1.228c-.097.049-.146.147-.195.245-2.152 2.309-2.494 6.091-2.543 7.86H18.523c-.049-1.818-.44-5.748-2.739-8.056-2.885-2.554-4.548-6.19-4.548-10.02 0-7.369 5.966-13.312 13.253-13.312 7.336 0 13.254 5.992 13.254 13.311 0 3.783-1.614 7.467-4.5 9.972z" fill="#5CCD6A"/><path d="M24.49 17.44a.93.93 0 00-.93.934.93.93 0 00.93.933c5.477 0 9.927 4.47 9.927 9.972a.93.93 0 00.93.933.93.93 0 00.929-.933c0-6.533-5.282-11.838-11.787-11.838zm8.313 34.68a2.249 2.249 0 00-2.25-2.26h-12.08a2.249 2.249 0 00-2.25 2.26 2.249 2.249 0 002.25 2.259h12.032c1.271 0 2.298-.982 2.298-2.26zm-2.298.392H18.474a.387.387 0 01-.392-.393c0-.245.196-.393.392-.393h12.03c.245 0 .392.197.392.393.049.246-.147.393-.392.393zm-1.761 2.849h-8.46a2.249 2.249 0 00-2.25 2.26 2.249 2.249 0 002.25 2.26h8.46a2.249 2.249 0 002.25-2.26c0-1.228-1.027-2.26-2.25-2.26zm0 2.653h-8.46a.387.387 0 01-.392-.393c0-.246.196-.393.391-.393h8.461c.245 0 .391.196.391.393 0 .245-.146.393-.391.393zM25.419 8.059V1.772a.93.93 0 00-.93-.934.93.93 0 00-.929.934v6.336a.93.93 0 00.93.933c.537-.049.929-.442.929-.982zm14.476-2.554c-.44-.295-.979-.148-1.272.245l-3.472 5.256c-.294.442-.147.982.244 1.277a.94.94 0 00.49.148c.293 0 .586-.148.782-.393l3.472-5.256c.293-.393.147-.983-.244-1.277zm-26.459 6.729a.94.94 0 00.49-.147c.44-.295.537-.835.293-1.277l-3.375-5.305c-.293-.442-.831-.54-1.271-.295-.44.295-.538.835-.294 1.277l3.375 5.305a.938.938 0 00.782.442zM.476 16.655l5.527 2.996c.146.098.293.098.44.098.342 0 .636-.196.831-.49a.926.926 0 00-.391-1.278l-5.526-2.996a.918.918 0 00-1.272.393c-.196.491-.049 1.031.391 1.277zm42.059 3.144c.147 0 .294-.05.44-.099l5.527-2.996a.955.955 0 00.391-1.277.946.946 0 00-1.271-.393l-5.527 2.996a.954.954 0 00-.39 1.277c.146.295.488.492.83.492z" fill="#5CCD6A"/></svg>