<svg width="50" height="51" fill="none" xmlns="http://www.w3.org/2000/svg"><path d="M29.8 15.358c0 1.883-.359 3.619-.96 5.009.35.246.675.524.972.831l8.524-8.53a18.684 18.684 0 00-13.18-5.573c2.568.042 4.643 3.724 4.643 8.263zM14.188 29.884c1.331-1.332 2.81-2.306 4.218-2.863a6.744 6.744 0 01-.102-1.165l.002-.112H6.251l-.001.112c0 5.127 2.055 9.772 5.385 13.159-1.79-1.846-.655-5.92 2.553-9.131zm6.012 6.471c0-1.884.359-3.62.96-5.01a6.735 6.735 0 01-.972-.831l-8.524 8.53a18.684 18.684 0 0013.18 5.574c-2.568-.043-4.643-3.725-4.643-8.263zm.775-21.318c1.331 1.332 2.304 2.812 2.861 4.22A6.734 6.734 0 0125 19.156c.038 0 .075.002.112.003V7.094L25 7.093a18.682 18.682 0 00-13.15 5.389c1.846-1.791 5.917-.656 9.125 2.555zm-6.466 6.017c1.882 0 3.617.358 5.006.96.245-.35.524-.677.83-.973l-8.523-8.53a18.71 18.71 0 00-5.57 13.19c.042-2.571 3.722-4.647 8.257-4.647zm20.982 9.605c-1.882 0-3.617-.359-5.006-.961-.246.35-.524.677-.83.974l8.523 8.53a18.71 18.71 0 005.57-13.19c-.042 2.57-3.722 4.647-8.257 4.647zm.321-8.831c-1.331 1.332-2.81 2.306-4.218 2.863.066.379.102.768.102 1.165l-.002.112h12.055l.001-.112c0-5.126-2.055-9.772-5.385-13.158 1.79 1.846.655 5.92-2.553 9.13zm-6.787 14.848c-1.331-1.332-2.304-2.813-2.861-4.222a6.724 6.724 0 01-1.164.103l-.112-.002v12.063l.112.002c5.123 0 9.765-2.057 13.15-5.39-1.846 1.791-5.917.656-9.125-2.554z" fill="#D9FADD"/><path d="M35.491 30.659c4.561 0 8.259-2.1 8.259-4.691H31.694a6.67 6.67 0 01-1.209 3.73c1.39.602 3.123.96 5.006.96zm.321-8.831c3.225-3.227 4.356-7.329 2.525-9.16l-8.525 8.53a6.682 6.682 0 011.782 3.493c1.407-.557 2.887-1.53 4.218-2.863zm-6.012-6.47c0-4.565-2.1-8.265-4.688-8.265v12.065a6.66 6.66 0 013.727 1.21c.602-1.39.96-3.127.96-5.01zm-8.825-.321c-3.225-3.228-7.324-4.36-9.154-2.528l8.525 8.532a6.674 6.674 0 013.49-1.783c-.557-1.409-1.53-2.89-2.86-4.221zm-6.466 6.017c-4.561 0-8.259 2.1-8.259 4.69h12.056a6.671 6.671 0 011.209-3.73c-1.39-.602-3.124-.96-5.006-.96zm-.321 8.83c-3.225 3.227-4.356 7.329-2.525 9.16l8.525-8.53a6.682 6.682 0 01-1.781-3.493c-1.408.557-2.888 1.53-4.219 2.863zm6.012 6.471c0 4.564 2.1 8.265 4.688 8.265V32.553a6.658 6.658 0 01-3.727-1.209c-.602 1.39-.96 3.126-.96 5.01zm8.825.321c3.225 3.227 7.324 4.359 9.154 2.527l-8.525-8.531a6.674 6.674 0 01-3.49 1.782c.557 1.409 1.53 2.89 2.86 4.222z" fill="#C3FF17"/><path d="M25 19.155c-3.698 0-6.696 3-6.696 6.701A6.699 6.699 0 0025 32.557a6.7 6.7 0 006.697-6.7A6.699 6.699 0 0025 19.154z" fill="#D9FADD"/><path d="M25 28.09a2.233 2.233 0 100-4.466 2.233 2.233 0 000 4.466z" fill="#C3FF17"/><path d="M45.117.838H4.883A4.89 4.89 0 000 5.725v40.263a4.89 4.89 0 004.883 4.886h40.234A4.89 4.89 0 0050 45.988V5.725A4.89 4.89 0 0045.117.838zm2.93 45.15a2.934 2.934 0 01-2.93 2.931H4.883a2.934 2.934 0 01-2.93-2.931V5.725a2.934 2.934 0 012.93-2.932h40.234a2.934 2.934 0 012.93 2.932v40.263z" fill="#5CCD6A"/><path d="M45.02 41.004a.977.977 0 00-.977.977 2.934 2.934 0 01-2.93 2.932.977.977 0 000 1.954 4.89 4.89 0 004.883-4.886.977.977 0 00-.977-.977zM41.113 4.845a.977.977 0 000 1.955 2.934 2.934 0 012.93 2.931.977.977 0 101.953 0 4.89 4.89 0 00-4.883-4.886zM4.98 10.709c.54 0 .977-.438.977-.978A2.934 2.934 0 018.887 6.8a.977.977 0 000-1.955 4.89 4.89 0 00-4.883 4.886c0 .54.437.978.976.978zm3.907 34.204a2.934 2.934 0 01-2.93-2.932.977.977 0 10-1.953 0 4.89 4.89 0 004.883 4.886.977.977 0 000-1.954zm32.226-1.857a1.074 1.074 0 100-2.15 1.074 1.074 0 000 2.15zm-32.129 0a1.075 1.075 0 100-2.15 1.075 1.075 0 000 2.15zm32.129-32.25a1.075 1.075 0 100-2.149 1.075 1.075 0 000 2.15zm-32.129 0a1.075 1.075 0 100-2.149 1.075 1.075 0 000 2.15zm29.97 28.99a19.685 19.685 0 005.773-13.828l-.002-.023.002-.089a19.68 19.68 0 00-5.485-13.645 3.71 3.71 0 00-.214-.235.977.977 0 00-.098-.084 19.657 19.657 0 00-13.819-5.776H25a19.65 19.65 0 00-13.633 5.486c-.081.068-.16.14-.237.216a.973.973 0 00-.083.098 19.685 19.685 0 00-5.773 13.828v.113A19.68 19.68 0 0010.757 39.5c.068.081.139.16.214.235.031.03.064.058.098.084a19.657 19.657 0 0013.818 5.777l.023-.002.089.002A19.65 19.65 0 0038.642 40.1c.078-.066.155-.134.228-.207a.99.99 0 00.084-.098zM11.841 13.912l6.712 6.717a14.487 14.487 0 00-4.044-.553c-2.738 0-5.161.696-6.838 1.821a17.763 17.763 0 014.17-7.985zm7.44 11.944A5.728 5.728 0 0125 20.132a5.728 5.728 0 015.72 5.724A5.728 5.728 0 0125 31.58a5.728 5.728 0 01-5.72-5.724zm4.63 7.6v9.902c-.538-.313-1.053-.875-1.488-1.642-.803-1.416-1.246-3.32-1.246-5.361 0-1.275.174-2.496.5-3.579a7.61 7.61 0 002.235.68zm-6.15-5.059c.262.746.635 1.44 1.101 2.061l-6.998 7.004c-.16-.603-.127-1.364.107-2.214.433-1.57 1.465-3.23 2.908-4.673.901-.902 1.886-1.643 2.882-2.178zm-.355-3.63H7.51c.312-.539.874-1.054 1.64-1.49 1.415-.803 3.318-1.246 5.358-1.246 1.274 0 2.494.174 3.576.5a7.623 7.623 0 00-.68 2.236zm-4.003-12.056c.602-.16 1.363-.128 2.212.107 1.569.433 3.227 1.466 4.67 2.91.9.902 1.64 1.888 2.175 2.884a7.659 7.659 0 00-2.059 1.102l-6.998-7.003zm12.685 5.545V8.354c.539.313 1.054.875 1.489 1.642.803 1.416 1.246 3.32 1.246 5.362 0 1.275-.174 2.495-.5 3.578a7.61 7.61 0 00-2.235-.68zM29.6 31.998l6.998 7.004c-.602.16-1.363.127-2.212-.108-1.569-.433-3.227-1.466-4.67-2.91-.9-.901-1.64-1.888-2.175-2.884a7.665 7.665 0 002.059-1.102zm2.995-5.053h9.895c-.312.54-.874 1.055-1.64 1.49-1.415.804-3.318 1.246-5.358 1.246-1.274 0-2.494-.173-3.576-.499a7.617 7.617 0 00.68-2.237zm-1.456-5.691l6.998-7.003c.16.602.127 1.364-.107 2.214-.433 1.57-1.465 3.229-2.908 4.672-.901.902-1.887 1.643-2.882 2.178a7.673 7.673 0 00-1.101-2.061zm2.113 3.737a14.506 14.506 0 003.251-2.471c1.933-1.934 3.154-4.137 3.546-6.117a17.678 17.678 0 012.704 8.588h-9.5zm-3.028-5.586c.355-1.216.553-2.587.553-4.047 0-2.74-.696-5.165-1.82-6.843a17.742 17.742 0 017.98 4.173l-6.713 6.717zm-6.088-1.807a14.508 14.508 0 00-2.47-3.252c-1.677-1.679-3.641-2.89-5.53-3.412a8.453 8.453 0 00-.582-.137 17.648 17.648 0 018.582-2.706v9.507zm-7.387 9.124a14.5 14.5 0 00-3.25 2.47c-1.933 1.935-3.154 4.138-3.546 6.117a17.678 17.678 0 01-2.704-8.587h9.5zm3.029 5.585a14.519 14.519 0 00-.553 4.048c0 2.739.696 5.164 1.82 6.843a17.742 17.742 0 01-7.98-4.174l6.713-6.717zm6.088 1.807a14.504 14.504 0 002.47 3.253c1.931 1.933 4.133 3.156 6.11 3.549a17.648 17.648 0 01-8.58 2.705v-9.507zm5.582-3.03a14.49 14.49 0 004.044.552c2.737 0 5.161-.696 6.838-1.821a17.763 17.763 0 01-4.17 7.985l-6.712-6.717z" fill="#5CCD6A"/><path d="M28.209 25.846a3.214 3.214 0 00-3.22-3.2 3.213 3.213 0 00-3.198 3.22 3.214 3.214 0 003.22 3.201 3.214 3.214 0 003.198-3.221zm-4.464.014a1.257 1.257 0 011.251-1.26 1.257 1.257 0 01.008 2.513 1.258 1.258 0 01-1.26-1.253z" fill="#5CCD6A"/></svg>