<svg width="22" height="23" fill="none" xmlns="http://www.w3.org/2000/svg"><path d="M21.492 18.006l-.004-.004a1.232 1.232 0 00-.165-.132 6.55 6.55 0 00-.78-.443l-.015-.007-.014-.008a36.277 36.277 0 00-.83-.462c-.367-.2-.7-.383-.999-.551a33.648 33.648 0 01-.848-.492l-.023-.013-.02-.016a20.89 20.89 0 00-.375-.262 3.922 3.922 0 00-.488-.297l.217-.45m4.344 3.137L5.176 10.55a29.291 29.291 0 01.157.257l.005.008m16.154 7.19a.868.868 0 01.008.13v.002c0 .228-.043.553-.144.99h0c-.1.44-.201.763-.298.981h0l-.004.01c-.068.163-.221.372-.507.62-.282.246-.672.51-1.178.792-.917.497-1.804.736-2.666.736-.258 0-.51-.017-.752-.05a6.304 6.304 0 01-.831-.182 11.68 11.68 0 01-.71-.217h0a62.275 62.275 0 01-.86-.317 31.83 31.83 0 00-.777-.286 13.665 13.665 0 01-2.633-1.25l-.002-.001c-1.293-.798-2.64-1.895-4.042-3.297-1.402-1.403-2.498-2.752-3.296-4.046v-.001a13.664 13.664 0 01-1.25-2.636 35.28 35.28 0 00-.285-.778h0a60.36 60.36 0 01-.317-.86l20.544 9.66zm-4.344-3.137l-.216.45a.53.53 0 00-.226-.059.346.346 0 00-.106.046c-.084.047-.195.13-.333.262-.292.278-.56.58-.803.906h0a9.916 9.916 0 01-.872 1.02v.001a2.72 2.72 0 01-.492.409 1.12 1.12 0 01-.584.186c-.178 0-.358-.047-.524-.108h-.001a4.092 4.092 0 01-.367-.153l-.006-.003h0a6.242 6.242 0 01-.412-.24m4.942-2.717a1.026 1.026 0 00-.445-.109c-.208 0-.468.149-.78.446l2.171.274a20.156 20.156 0 00-.39-.274 4.388 4.388 0 00-.556-.337zm-4.942 2.716s0 0 0 0l.263-.424-.262.425h-.001zm0 0a38.372 38.372 0 00-.203-.124l-.054-.033-.009-.005m0 0l.008.004-.01-.005.002.001zm0 0h-.002l-.008-.005c-1.463-.813-2.726-1.747-3.783-2.805h0c-1.058-1.058-1.991-2.322-2.803-3.785l-.005-.01-.001-.002m0 0l.002.004-.006-.012.004.008zm-.071-2.651h0c.314-.308.654-.6 1.02-.873h0c.326-.243.628-.511.905-.803.132-.139.215-.25.262-.333a.344.344 0 00.046-.107.528.528 0 00-.06-.226h0a3.874 3.874 0 00-.297-.488 21.27 21.27 0 00-.262-.376l-.015-.02-.014-.022a34.866 34.866 0 01-.49-.849L5.266 8.164zm0 0a2.72 2.72 0 00-.409.492 1.12 1.12 0 00-.186.584c0 .178.048.358.11.525.053.146.105.273.153.37l.332-1.971zm.544-5.096h0c-.198-.364-.351-.64-.462-.832l-.008-.014-.007-.013a6.57 6.57 0 00-.443-.782 1.232 1.232 0 00-.136-.169.876.876 0 00-.13-.008c-.227 0-.552.043-.99.144h0c-.439.1-.76.202-.98.298l-.008.004h0c-.164.069-.373.222-.621.508-.245.282-.51.672-.79 1.178C.737 4.3.5 5.188.5 6.05c0 .26.017.51.05.753l5.26-3.735zm0 0c.198.366.382.7.55 1l-.55-1zM.73 7.635h0c.094.331.165.566.217.71l-.217-.71zm0 0a6.257 6.257 0 01-.181-.832l.181.832zm20.773 10.384l.001.002-.001-.002zM4.742 1.246a.02.02 0 010 0zm.194 8.89c.048.096.132.238.24.414l-.24-.414z" fill="#78C081" stroke="#577A5B"/></svg>