<svg width="32" height="32" fill="none" xmlns="http://www.w3.org/2000/svg"><g clip-path="url(#clip0_86_1400)"><path d="M31.462 24.97a.46.46 0 00-.046-.053 1.995 1.995 0 00-.27-.219 9.735 9.735 0 00-1.166-.66l-.014-.008-.014-.008c-.28-.163-.685-.387-1.214-.675-.532-.288-1.015-.555-1.449-.799l4.173 2.421zm0 0v.001l.01.02.005.018a1.464 1.464 0 01.022.263v0c0 .356-.067.848-.215 1.49h0c-.148.647-.298 1.13-.447 1.467h0l-.004.009c-.118.282-.368.613-.798.987-.427.37-1.008.764-1.753 1.177-1.362.74-2.69 1.098-3.987 1.098-.387 0-.762-.025-1.126-.075a9.403 9.403 0 01-1.239-.27 17.791 17.791 0 01-1.047-.32h0a91.7 91.7 0 01-1.253-.463 45.8 45.8 0 00-1.126-.414c-1.454-.52-2.745-1.133-3.876-1.838h-.002c-1.899-1.172-3.872-2.779-5.92-4.826-2.048-2.049-3.654-4.023-4.825-5.921l-.002-.002c-.705-1.131-1.318-2.422-1.838-3.876-.05-.151-.19-.531-.413-1.126h0a87.255 87.255 0 01-.463-1.253 18.17 18.17 0 01-.319-1.047h0a9.313 9.313 0 01-.27-1.24l30.886 16.14zm-5.424-3.146l-.02-.016c-.05-.038-.23-.163-.552-.386a5.925 5.925 0 00-.74-.45.992.992 0 00-.431-.11c-.035 0-.119.014-.264.097a2.872 2.872 0 00-.527.413c-.434.413-.832.861-1.194 1.346h0a14.206 14.206 0 01-1.248 1.46h0a3.73 3.73 0 01-.673.561c-.216.134-.464.237-.73.237-.22 0-.454-.06-.684-.144h0a5.752 5.752 0 01-.513-.213l-.006-.003h0a8.843 8.843 0 01-.582-.34m8.164-2.453l-1.095-1.302a1.489 1.489 0 00-.648-.159c-.303 0-.682.217-1.136.648a11.06 11.06 0 00-1.25 1.41c-.378.507-.78.977-1.204 1.408-.424.433-.773.648-1.045.648-.137 0-.308-.038-.512-.113a5.302 5.302 0 01-.466-.193 8.514 8.514 0 01-.545-.319 13.327 13.327 0 00-.432-.261c-2.076-1.152-3.856-2.47-5.34-3.954C10.88 18.15 9.56 16.37 8.41 14.294c-.015-.03-.103-.174-.262-.431a8.21 8.21 0 01-.318-.546m18.208 8.506l.023.014m-.023-.014l.023.014m-8.187 2.44s0 0 0 0l.263-.425-.262.425h-.001zm0 0a50.924 50.924 0 00-.379-.231l-.02-.012m0 0l.005.003a.33.33 0 00-.005-.003zm0 0l-.004-.002-.009-.005c-2.11-1.171-3.93-2.517-5.451-4.038h0c-1.522-1.522-2.867-3.34-4.039-5.452l-.005-.01-.002-.004m0 0v.001l-.003-.006.003.005zm0 0l-.011-.02a42.59 42.59 0 00-.23-.378m-.001 0s0 0 0 0l.424-.261-.424.261zm0 0a8.592 8.592 0 01-.34-.584m0 0s0 0 0 0l.447-.224m-.447.224s0 0 0 0l.447-.224m-.447.224a5.403 5.403 0 01-.215-.516 2.02 2.02 0 01-.145-.685c0-.265.103-.513.237-.73a3.76 3.76 0 01.56-.672h0c.45-.44.936-.857 1.461-1.249h0c.485-.361.933-.76 1.346-1.193L9.58 10.09c-.507.379-.977.78-1.409 1.204-.432.425-.648.773-.648 1.046 0 .136.038.307.114.511.076.205.14.36.193.466m18.23 8.52c.384.23.793.467 1.229.711l-1.228-.711zM11.029 7.274h0a5.846 5.846 0 00-.45-.74 30.496 30.496 0 00-.387-.553l-.016-.02-.013-.023c-.23-.383-.466-.792-.71-1.227-.245-.435-.511-.918-.8-1.45h0a53.618 53.618 0 00-.675-1.215l-.008-.013-.007-.014A9.759 9.759 0 007.301.854a2 2 0 00-.218-.271.456.456 0 00-.053-.046h-.002l-.02-.009-.017-.005A1.494 1.494 0 006.728.5c-.355 0-.847.067-1.49.215h0c-.646.148-1.13.298-1.467.447l-.008.004h0c-.283.118-.613.368-.987.798-.37.427-.764 1.008-1.178 1.753C.86 5.08.501 6.407.501 7.704c0 .387.025.762.075 1.125l10.451-1.555zm0 0a.987.987 0 01.109.43c0 .035-.014.119-.097.264m-.012-.694l.012.694m0 0a2.871 2.871 0 01-.413.528l.413-.528z" fill="#78C081" stroke="#577A5B"/></g><defs><clipPath id="clip0_86_1400"><path fill="#fff" d="M0 0h32v32H0z"/></clipPath></defs></svg>