<svg width="375" height="542" fill="none" xmlns="http://www.w3.org/2000/svg"><path d="M-60.51 1.986c5.102 9.407 24.754 35.439 62.56 64.304 47.256 36.082 79.557 38.407 94.546 43.149m0 0l-4.725-6.588m4.725 6.588l-7.775 3.513M218 129.486c53.5 0 106.753 16.86 120.545 62.272 9.018 37.324-8.518 64.575-40.324 97.549m0 0l8.279-1.321m-8.279 1.321l-.221-9.321m-132 49c-45 14.999-140.29 54.808-144.56 96.432-3.322 32.373 16.56 45.567 35.37 46.807m0 0l-4.31-6.239m4.31 6.239L50 475.986m125 24.175c39.716 20.955 105.428 32.879 144.661 31.833 22.436-.598 66.747-2.078 98.163-36.82m0 0l-4.378 5.708m4.378-5.708l-8.735-2.008" stroke="#78C081" stroke-width="2" stroke-linecap="round" stroke-linejoin="round"/></svg>