<svg width="34" height="34" fill="none" xmlns="http://www.w3.org/2000/svg"><g clip-path="url(#clip0_77_1178)"><path fill-rule="evenodd" clip-rule="evenodd" d="M17 0c9.389 0 17 7.611 17 17s-7.611 17-17 17S0 26.389 0 17 7.611 0 17 0zm-4.912 18.365a1.578 1.578 0 01-.73-1.363 1.58 1.58 0 01.73-1.364l6.352-6.351a1.588 1.588 0 012.245 2.245l-5.47 5.47 5.498 5.498a1.587 1.587 0 01-2.245 2.245l-6.38-6.38z" fill="#fff"/><path d="M11.82 18.151c.083.083.173.153.268.214l6.38 6.38c.31.31.716.465 1.122.465a1.587 1.587 0 001.122-2.71l-5.497-5.498 5.47-5.47a1.587 1.587 0 10-2.245-2.245l-6.352 6.351a1.58 1.58 0 00-.73 1.364c-.008.415.145.832.462 1.15z" fill="#D9FADD"/></g><defs><clipPath id="clip0_77_1178"><path fill="#fff" transform="matrix(-1 0 0 1 34 0)" d="M0 0h34v34H0z"/></clipPath></defs></svg>